# Blender 4.5.3 LTS
# www.blender.org
mtllib canmdale.mtl
o candale
v -0.598521 3.896575 -1.245719
v -0.598521 4.772739 -1.245719
v -0.586886 3.896575 -1.250091
v -0.586886 4.772739 -1.250091
v -0.574621 3.896575 -1.252110
v -0.574621 4.772739 -1.252110
v -0.562198 3.896575 -1.251696
v -0.562198 4.772739 -1.251696
v -0.550095 3.896575 -1.248867
v -0.550095 4.772739 -1.248867
v -0.538776 3.896575 -1.243731
v -0.538776 4.772739 -1.243731
v -0.528676 3.896575 -1.236486
v -0.528676 4.772739 -1.236486
v -0.520184 3.896575 -1.227409
v -0.520184 4.772739 -1.227409
v -0.513626 3.896575 -1.216851
v -0.513626 4.772739 -1.216851
v -0.509254 3.896575 -1.205215
v -0.509254 4.772739 -1.205215
v -0.507236 3.896575 -1.192951
v -0.507236 4.772739 -1.192951
v -0.507649 3.896575 -1.180528
v -0.507649 4.772739 -1.180528
v -0.510478 3.896575 -1.168424
v -0.510478 4.772739 -1.168424
v -0.515614 3.896575 -1.157105
v -0.515614 4.772739 -1.157105
v -0.522859 3.896575 -1.147006
v -0.522859 4.772739 -1.147006
v -0.531936 3.896575 -1.138514
v -0.531936 4.772739 -1.138514
v -0.542495 3.896575 -1.131956
v -0.542495 4.772739 -1.131956
v -0.554130 3.896575 -1.127584
v -0.554130 4.772739 -1.127584
v -0.566395 3.896575 -1.125565
v -0.566395 4.772739 -1.125565
v -0.578818 3.896575 -1.125979
v -0.578818 4.772739 -1.125979
v -0.590921 3.896575 -1.128808
v -0.590921 4.772739 -1.128808
v -0.602240 3.896575 -1.133943
v -0.602240 4.772739 -1.133943
v -0.612340 3.896575 -1.141189
v -0.612340 4.772739 -1.141189
v -0.620832 3.896575 -1.150265
v -0.620832 4.772739 -1.150265
v -0.627390 3.896575 -1.160824
v -0.627390 4.772739 -1.160824
v -0.631762 3.896575 -1.172459
v -0.631762 4.772739 -1.172459
v -0.633780 3.896575 -1.184724
v -0.633780 4.772739 -1.184724
v -0.633367 3.896575 -1.197147
v -0.633367 4.772739 -1.197147
v -0.630538 3.896575 -1.209250
v -0.630538 4.772739 -1.209250
v -0.625402 3.896575 -1.220569
v -0.625402 4.772739 -1.220569
v -0.618157 3.896575 -1.230669
v -0.618157 4.772739 -1.230669
v -0.609080 3.896575 -1.239161
v -0.609080 4.772739 -1.239161
v -1.421004 3.896575 -0.840660
v -1.421004 4.772739 -0.840660
v -1.409368 3.896575 -0.845033
v -1.409368 4.772739 -0.845033
v -1.397104 3.896575 -0.847051
v -1.397104 4.772739 -0.847051
v -1.384681 3.896575 -0.846637
v -1.384681 4.772739 -0.846637
v -1.372577 3.896575 -0.843809
v -1.372577 4.772739 -0.843809
v -1.361258 3.896575 -0.838673
v -1.361258 4.772739 -0.838673
v -1.351159 3.896575 -0.831427
v -1.351159 4.772739 -0.831427
v -1.342667 3.896575 -0.822351
v -1.342667 4.772739 -0.822351
v -1.336109 3.896575 -0.811792
v -1.336109 4.772739 -0.811792
v -1.331736 3.896575 -0.800157
v -1.331736 4.772739 -0.800157
v -1.329718 3.896575 -0.787892
v -1.329718 4.772739 -0.787892
v -1.330132 3.896575 -0.775469
v -1.330132 4.772739 -0.775469
v -1.332960 3.896575 -0.763366
v -1.332960 4.772739 -0.763366
v -1.338096 3.896575 -0.752047
v -1.338096 4.772739 -0.752047
v -1.345342 3.896575 -0.741947
v -1.345342 4.772739 -0.741947
v -1.354418 3.896575 -0.733455
v -1.354418 4.772739 -0.733455
v -1.364977 3.896575 -0.726897
v -1.364977 4.772739 -0.726897
v -1.376612 3.896575 -0.722525
v -1.376612 4.772739 -0.722525
v -1.388877 3.896575 -0.720507
v -1.388877 4.772739 -0.720507
v -1.401300 3.896575 -0.720920
v -1.401300 4.772739 -0.720920
v -1.413403 3.896575 -0.723749
v -1.413403 4.772739 -0.723749
v -1.424722 3.896575 -0.728885
v -1.424722 4.772739 -0.728885
v -1.434822 3.896575 -0.736130
v -1.434822 4.772739 -0.736130
v -1.443314 3.896575 -0.745207
v -1.443314 4.772739 -0.745207
v -1.449872 3.896575 -0.755765
v -1.449872 4.772739 -0.755765
v -1.454244 3.896575 -0.767401
v -1.454244 4.772739 -0.767401
v -1.456262 3.896575 -0.779665
v -1.456262 4.772739 -0.779665
v -1.455849 3.896575 -0.792088
v -1.455849 4.772739 -0.792088
v -1.453020 3.896575 -0.804192
v -1.453020 4.772739 -0.804192
v -1.447884 3.896575 -0.815511
v -1.447884 4.772739 -0.815511
v -1.440639 3.896575 -0.825610
v -1.440639 4.772739 -0.825610
v -1.431562 3.896575 -0.834102
v -1.431562 4.772739 -0.834102
v -1.436890 3.519421 -0.876433
v -1.436890 3.972581 -0.876433
v -1.418078 3.519421 -0.883502
v -1.418078 3.972581 -0.883502
v -1.398248 3.519421 -0.886765
v -1.398248 3.972581 -0.886765
v -1.378162 3.519421 -0.886096
v -1.378162 3.972581 -0.886096
v -1.358593 3.519421 -0.881523
v -1.358593 3.972581 -0.881523
v -1.340292 3.519421 -0.873219
v -1.340292 3.972581 -0.873219
v -1.323963 3.519421 -0.861504
v -1.323963 3.972581 -0.861504
v -1.310233 3.519421 -0.846829
v -1.310233 3.972581 -0.846829
v -1.299629 3.519421 -0.829757
v -1.299629 3.972581 -0.829757
v -1.292560 3.519421 -0.810945
v -1.292560 3.972581 -0.810945
v -1.289297 3.519421 -0.791115
v -1.289297 3.972581 -0.791115
v -1.289966 3.519421 -0.771029
v -1.289966 3.972581 -0.771029
v -1.294539 3.519421 -0.751460
v -1.294539 3.972581 -0.751460
v -1.302843 3.519421 -0.733159
v -1.302843 3.972581 -0.733159
v -1.314558 3.519421 -0.716830
v -1.314558 3.972581 -0.716830
v -1.329233 3.519421 -0.703100
v -1.329233 3.972581 -0.703100
v -1.346305 3.519421 -0.692497
v -1.346305 3.972581 -0.692497
v -1.365117 3.519421 -0.685428
v -1.365117 3.972581 -0.685428
v -1.384947 3.519421 -0.682164
v -1.384947 3.972581 -0.682164
v -1.405033 3.519421 -0.682833
v -1.405033 3.972581 -0.682833
v -1.424602 3.519421 -0.687407
v -1.424602 3.972581 -0.687407
v -1.442903 3.519421 -0.695710
v -1.442903 3.972581 -0.695710
v -1.459232 3.519421 -0.707425
v -1.459232 3.972581 -0.707425
v -1.472962 3.519421 -0.722100
v -1.472962 3.972581 -0.722100
v -1.483566 3.519421 -0.739172
v -1.483566 3.972581 -0.739172
v -1.490634 3.519421 -0.757984
v -1.490634 3.972581 -0.757984
v -1.493898 3.519421 -0.777814
v -1.493898 3.972581 -0.777814
v -1.493229 3.519421 -0.797900
v -1.493229 3.972581 -0.797900
v -1.488655 3.519421 -0.817469
v -1.488655 3.972581 -0.817469
v -1.480352 3.519421 -0.835770
v -1.480352 3.972581 -0.835770
v -1.468637 3.519421 -0.852099
v -1.468637 3.972581 -0.852099
v -1.453962 3.519421 -0.865829
v -1.453962 3.972581 -0.865829
v -0.615801 3.519421 -1.280805
v -0.615801 3.972581 -1.280805
v -0.596988 3.519421 -1.287874
v -0.596988 3.972581 -1.287874
v -0.577158 3.519421 -1.291138
v -0.577158 3.972581 -1.291138
v -0.557073 3.519421 -1.290469
v -0.557073 3.972581 -1.290469
v -0.537504 3.519421 -1.285895
v -0.537504 3.972581 -1.285895
v -0.519203 3.519421 -1.277592
v -0.519203 3.972581 -1.277592
v -0.502873 3.519421 -1.265877
v -0.502873 3.972581 -1.265877
v -0.489143 3.519421 -1.251202
v -0.489143 3.972581 -1.251202
v -0.478540 3.519421 -1.234130
v -0.478540 3.972581 -1.234130
v -0.471471 3.519421 -1.215318
v -0.471471 3.972581 -1.215318
v -0.468208 3.519421 -1.195488
v -0.468208 3.972581 -1.195488
v -0.468876 3.519421 -1.175402
v -0.468876 3.972581 -1.175402
v -0.473450 3.519421 -1.155833
v -0.473450 3.972581 -1.155833
v -0.481754 3.519421 -1.137532
v -0.481754 3.972581 -1.137532
v -0.493468 3.519421 -1.121203
v -0.493468 3.972581 -1.121203
v -0.508144 3.519421 -1.107473
v -0.508144 3.972581 -1.107473
v -0.525215 3.519421 -1.096869
v -0.525215 3.972581 -1.096869
v -0.544028 3.519421 -1.089800
v -0.544028 3.972581 -1.089800
v -0.563858 3.519421 -1.086537
v -0.563858 3.972581 -1.086537
v -0.583943 3.519421 -1.087205
v -0.583943 3.972581 -1.087205
v -0.603512 3.519421 -1.091779
v -0.603512 3.972581 -1.091779
v -0.621813 3.519421 -1.100083
v -0.621813 3.972581 -1.100083
v -0.638143 3.519421 -1.111798
v -0.638143 3.972581 -1.111798
v -0.651873 3.519421 -1.126473
v -0.651873 3.972581 -1.126473
v -0.662476 3.519421 -1.143545
v -0.662476 3.972581 -1.143545
v -0.669545 3.519421 -1.162357
v -0.669545 3.972581 -1.162357
v -0.672808 3.519421 -1.182187
v -0.672808 3.972581 -1.182187
v -0.672140 3.519421 -1.202273
v -0.672140 3.972581 -1.202273
v -0.667566 3.519421 -1.221842
v -0.667566 3.972581 -1.221842
v -0.659262 3.519421 -1.240143
v -0.659262 3.972581 -1.240143
v -0.647548 3.519421 -1.256472
v -0.647548 3.972581 -1.256472
v -0.632873 3.519421 -1.270202
v -0.632873 3.972581 -1.270202
v -1.436890 3.407829 -0.876433
v -1.418078 3.407829 -0.883502
v -1.398248 3.407829 -0.886765
v -1.378162 3.407829 -0.886096
v -1.358593 3.407829 -0.881523
v -1.340292 3.407829 -0.873219
v -1.323963 3.407829 -0.861504
v -1.310233 3.407829 -0.846829
v -1.299629 3.407829 -0.829757
v -1.292560 3.407829 -0.810945
v -1.289297 3.407829 -0.791115
v -1.289966 3.407829 -0.771029
v -1.294539 3.407829 -0.751460
v -1.302843 3.407829 -0.733159
v -1.314558 3.407829 -0.716830
v -1.329233 3.407829 -0.703100
v -1.346305 3.407829 -0.692497
v -1.365117 3.407829 -0.685428
v -1.384947 3.407829 -0.682164
v -1.405033 3.407829 -0.682833
v -1.424602 3.407829 -0.687407
v -1.442903 3.407829 -0.695710
v -1.459232 3.407829 -0.707425
v -1.472962 3.407829 -0.722100
v -1.483566 3.407829 -0.739172
v -1.490634 3.407829 -0.757984
v -1.493898 3.407829 -0.777814
v -1.493229 3.407829 -0.797900
v -1.488655 3.407829 -0.817469
v -1.480352 3.407829 -0.835770
v -1.468637 3.407829 -0.852099
v -1.453962 3.407829 -0.865829
v -0.615801 3.407829 -1.280805
v -0.596988 3.407829 -1.287874
v -0.577158 3.407829 -1.291138
v -0.557073 3.407829 -1.290469
v -0.537504 3.407829 -1.285895
v -0.519203 3.407829 -1.277592
v -0.502873 3.407829 -1.265877
v -0.489143 3.407829 -1.251202
v -0.478540 3.407829 -1.234130
v -0.471471 3.407829 -1.215318
v -0.468208 3.407829 -1.195488
v -0.468876 3.407829 -1.175402
v -0.473450 3.407829 -1.155833
v -0.481754 3.407829 -1.137532
v -0.493468 3.407829 -1.121203
v -0.508144 3.407829 -1.107473
v -0.525215 3.407829 -1.096869
v -0.544028 3.407829 -1.089800
v -0.563858 3.407829 -1.086537
v -0.583943 3.407829 -1.087205
v -0.603512 3.407829 -1.091779
v -0.621813 3.407829 -1.100083
v -0.638143 3.407829 -1.111798
v -0.651873 3.407829 -1.126473
v -0.662476 3.407829 -1.143545
v -0.669545 3.407829 -1.162357
v -0.672808 3.407829 -1.182187
v -0.672140 3.407829 -1.202273
v -0.667566 3.407829 -1.221842
v -0.659262 3.407829 -1.240143
v -0.647548 3.407829 -1.256472
v -0.632873 3.407829 -1.270202
v -1.129775 3.519421 -0.988439
v -0.900958 3.519421 -1.095356
v -1.129775 3.407829 -0.988439
v -0.900958 3.407829 -1.095356
v -0.638143 3.513641 -1.111798
v -0.651873 3.513641 -1.126473
v -0.662476 3.513641 -1.143545
v -0.669545 3.513641 -1.162357
v -0.672808 3.513641 -1.182187
v -0.672140 3.513641 -1.202273
v -1.358593 3.528287 -0.881523
v -1.340292 3.528287 -0.873219
v -1.323963 3.528287 -0.861504
v -1.310233 3.528287 -0.846829
v -1.299629 3.528287 -0.829757
v -1.292560 3.528287 -0.810945
v -1.289297 3.528287 -0.791115
v -1.339385 3.519421 -0.892819
v -0.688230 3.519421 -1.213501
v -1.339385 3.407829 -0.892819
v -0.688230 3.407829 -1.213501
v -1.289297 3.523913 -0.791115
v -0.638143 3.523913 -1.111798
v -1.041018 3.407829 -0.913388
v -0.905221 3.407829 -0.980266
v -1.092928 3.407829 -1.014194
v -0.948833 3.407829 -1.085159
v -1.041018 2.678977 -0.913388
v -0.905221 2.678977 -0.980266
v -1.092928 2.678977 -1.014194
v -0.948833 2.678977 -1.085159
v -1.436890 3.313140 -0.876433
v -1.418078 3.313140 -0.883502
v -1.398248 3.313140 -0.886765
v -1.378162 3.313140 -0.886096
v -1.358593 3.313140 -0.881523
v -1.340292 3.313140 -0.873219
v -1.323963 3.313140 -0.861504
v -1.310233 3.313140 -0.846829
v -1.299629 3.313140 -0.829757
v -1.292560 3.313140 -0.810945
v -1.289297 3.313140 -0.791115
v -1.289966 3.313140 -0.771029
v -1.294539 3.313140 -0.751460
v -1.302843 3.313140 -0.733159
v -1.314558 3.313140 -0.716830
v -1.329233 3.313140 -0.703100
v -1.346305 3.313140 -0.692497
v -1.365117 3.313140 -0.685428
v -1.384947 3.313140 -0.682164
v -1.405033 3.313140 -0.682833
v -1.424602 3.313140 -0.687407
v -1.442903 3.313140 -0.695710
v -1.459232 3.313140 -0.707425
v -1.472962 3.313140 -0.722100
v -1.483566 3.313140 -0.739172
v -1.490634 3.313140 -0.757984
v -1.493898 3.313140 -0.777814
v -1.493229 3.313140 -0.797900
v -1.488655 3.313140 -0.817469
v -1.480352 3.313140 -0.835770
v -1.468637 3.313140 -0.852099
v -1.453962 3.313140 -0.865829
v -0.615801 3.338801 -1.280805
v -0.596988 3.338801 -1.287874
v -0.577158 3.338801 -1.291138
v -0.557073 3.338801 -1.290469
v -0.537504 3.338801 -1.285895
v -0.519203 3.338801 -1.277592
v -0.502873 3.338801 -1.265877
v -0.489143 3.338801 -1.251202
v -0.478540 3.338801 -1.234130
v -0.471471 3.338801 -1.215318
v -0.468208 3.338801 -1.195488
v -0.468876 3.338801 -1.175402
v -0.473450 3.338801 -1.155833
v -0.481754 3.338801 -1.137532
v -0.493468 3.338801 -1.121203
v -0.508144 3.338801 -1.107473
v -0.525215 3.338801 -1.096869
v -0.544028 3.338801 -1.089800
v -0.563858 3.338801 -1.086537
v -0.583943 3.338801 -1.087205
v -0.603512 3.338801 -1.091779
v -0.621813 3.338801 -1.100083
v -0.638143 3.338801 -1.111798
v -0.651873 3.338801 -1.126473
v -0.662476 3.338801 -1.143545
v -0.669545 3.338801 -1.162357
v -0.672808 3.338801 -1.182187
v -0.672140 3.338801 -1.202273
v -0.667566 3.338801 -1.221842
v -0.659262 3.338801 -1.240143
v -0.647548 3.338801 -1.256472
v -0.632873 3.338801 -1.270202
v -1.041018 2.549441 -0.913388
v -0.905221 2.549441 -0.980266
v -1.092928 2.549441 -1.014194
v -0.948833 2.549441 -1.085159
v -1.201346 2.678977 -1.234339
v -1.057251 2.678977 -1.305304
v -1.201346 2.549441 -1.234339
v -1.057251 2.549441 -1.305304
v -0.761836 2.678977 -1.162908
v -0.718224 2.678977 -1.058016
v -0.761836 2.549441 -1.162908
v -0.718224 2.549441 -1.058016
v -0.954858 2.678977 -0.738437
v -0.819060 2.678977 -0.805315
v -0.954858 2.549441 -0.738437
v -0.819060 2.549441 -0.805315
v -1.214699 2.678977 -0.823952
v -1.214699 2.549441 -0.823952
v -1.266609 2.678977 -0.924758
v -1.266609 2.549441 -0.924758
vn -0.3518 -0.0000 -0.9361
vn -0.1624 -0.0000 -0.9867
vn 0.0333 -0.0000 -0.9994
vn 0.2276 -0.0000 -0.9738
vn 0.4132 -0.0000 -0.9106
vn 0.5829 -0.0000 -0.8125
vn 0.7302 -0.0000 -0.6832
vn 0.8495 -0.0000 -0.5276
vn 0.9361 -0.0000 -0.3518
vn 0.9867 -0.0000 -0.1624
vn 0.9994 -0.0000 0.0333
vn 0.9738 -0.0000 0.2276
vn 0.9106 -0.0000 0.4132
vn 0.8125 -0.0000 0.5829
vn 0.6832 -0.0000 0.7302
vn 0.5276 -0.0000 0.8495
vn 0.3518 -0.0000 0.9361
vn 0.1624 -0.0000 0.9867
vn -0.0333 -0.0000 0.9994
vn -0.2276 -0.0000 0.9738
vn -0.4132 -0.0000 0.9106
vn -0.5829 -0.0000 0.8125
vn -0.7302 -0.0000 0.6832
vn -0.8495 -0.0000 0.5276
vn -0.9361 -0.0000 0.3518
vn -0.9867 -0.0000 0.1624
vn -0.9994 -0.0000 -0.0333
vn -0.9738 -0.0000 -0.2276
vn -0.9106 -0.0000 -0.4132
vn -0.8125 -0.0000 -0.5829
vn -0.0000 1.0000 -0.0000
vn -0.6832 -0.0000 -0.7302
vn -0.5276 -0.0000 -0.8495
vn -0.0000 -1.0000 -0.0000
vn -0.9361 -0.0000 0.3517
vn -0.3839 -0.0000 -0.9234
vn -0.4233 -0.0000 -0.9060
vn 0.4418 -0.0000 0.8971
vn -0.8971 -0.0000 0.4418
vn 0.8971 -0.0000 -0.4418
vn -0.4418 -0.0000 -0.8971
vn 0.4578 -0.0000 0.8890
vn 0.8890 -0.0000 -0.4578
vn -0.9234 -0.0000 0.3839
vn 0.3839 -0.0000 0.9234
vn -0.4578 -0.0000 -0.8890
vt 1.000000 0.500000
vt 1.000000 1.000000
vt 0.968750 1.000000
vt 0.968750 0.500000
vt 0.937500 1.000000
vt 0.937500 0.500000
vt 0.906250 1.000000
vt 0.906250 0.500000
vt 0.875000 1.000000
vt 0.875000 0.500000
vt 0.843750 1.000000
vt 0.843750 0.500000
vt 0.812500 1.000000
vt 0.812500 0.500000
vt 0.781250 1.000000
vt 0.781250 0.500000
vt 0.750000 1.000000
vt 0.750000 0.500000
vt 0.718750 1.000000
vt 0.718750 0.500000
vt 0.687500 1.000000
vt 0.687500 0.500000
vt 0.656250 1.000000
vt 0.656250 0.500000
vt 0.625000 1.000000
vt 0.625000 0.500000
vt 0.593750 1.000000
vt 0.593750 0.500000
vt 0.562500 1.000000
vt 0.562500 0.500000
vt 0.531250 1.000000
vt 0.531250 0.500000
vt 0.500000 1.000000
vt 0.500000 0.500000
vt 0.468750 1.000000
vt 0.468750 0.500000
vt 0.437500 1.000000
vt 0.437500 0.500000
vt 0.406250 1.000000
vt 0.406250 0.500000
vt 0.375000 1.000000
vt 0.375000 0.500000
vt 0.343750 1.000000
vt 0.343750 0.500000
vt 0.312500 1.000000
vt 0.312500 0.500000
vt 0.281250 1.000000
vt 0.281250 0.500000
vt 0.250000 1.000000
vt 0.250000 0.500000
vt 0.218750 1.000000
vt 0.218750 0.500000
vt 0.187500 1.000000
vt 0.187500 0.500000
vt 0.156250 1.000000
vt 0.156250 0.500000
vt 0.125000 1.000000
vt 0.125000 0.500000
vt 0.093750 1.000000
vt 0.093750 0.500000
vt 0.062500 1.000000
vt 0.062500 0.500000
vt 0.296822 0.485388
vt 0.250000 0.490000
vt 0.203178 0.485388
vt 0.158156 0.471731
vt 0.116663 0.449553
vt 0.080294 0.419706
vt 0.050447 0.383337
vt 0.028269 0.341844
vt 0.014612 0.296822
vt 0.010000 0.250000
vt 0.014612 0.203178
vt 0.028269 0.158156
vt 0.050447 0.116663
vt 0.080294 0.080294
vt 0.116663 0.050447
vt 0.158156 0.028269
vt 0.203178 0.014612
vt 0.250000 0.010000
vt 0.296822 0.014612
vt 0.341844 0.028269
vt 0.383337 0.050447
vt 0.419706 0.080294
vt 0.449553 0.116663
vt 0.471731 0.158156
vt 0.485388 0.203178
vt 0.490000 0.250000
vt 0.485388 0.296822
vt 0.471731 0.341844
vt 0.449553 0.383337
vt 0.419706 0.419706
vt 0.383337 0.449553
vt 0.341844 0.471731
vt 0.031250 1.000000
vt 0.031250 0.500000
vt 0.000000 1.000000
vt 0.000000 0.500000
vt 0.750000 0.490000
vt 0.796822 0.485388
vt 0.841844 0.471731
vt 0.883337 0.449553
vt 0.919706 0.419706
vt 0.949553 0.383337
vt 0.971731 0.341844
vt 0.985388 0.296822
vt 0.990000 0.250000
vt 0.985388 0.203178
vt 0.971731 0.158156
vt 0.949553 0.116663
vt 0.919706 0.080294
vt 0.883337 0.050447
vt 0.841844 0.028269
vt 0.796822 0.014612
vt 0.750000 0.010000
vt 0.703178 0.014612
vt 0.658156 0.028269
vt 0.616663 0.050447
vt 0.580294 0.080294
vt 0.550447 0.116663
vt 0.528269 0.158156
vt 0.514612 0.203178
vt 0.510000 0.250000
vt 0.514612 0.296822
vt 0.528269 0.341844
vt 0.550447 0.383337
vt 0.580294 0.419706
vt 0.616663 0.449553
vt 0.658156 0.471731
vt 0.703178 0.485388
vt 0.000000 0.000000
s 0
usemtl candale
f 1/1/1 2/2/1 4/3/1 3/4/1
f 3/4/2 4/3/2 6/5/2 5/6/2
f 5/6/3 6/5/3 8/7/3 7/8/3
f 7/8/4 8/7/4 10/9/4 9/10/4
f 9/10/5 10/9/5 12/11/5 11/12/5
f 11/12/6 12/11/6 14/13/6 13/14/6
f 13/14/7 14/13/7 16/15/7 15/16/7
f 15/16/8 16/15/8 18/17/8 17/18/8
f 17/18/9 18/17/9 20/19/9 19/20/9
f 19/20/10 20/19/10 22/21/10 21/22/10
f 21/22/11 22/21/11 24/23/11 23/24/11
f 23/24/12 24/23/12 26/25/12 25/26/12
f 25/26/13 26/25/13 28/27/13 27/28/13
f 27/28/14 28/27/14 30/29/14 29/30/14
f 29/30/15 30/29/15 32/31/15 31/32/15
f 31/32/16 32/31/16 34/33/16 33/34/16
f 33/34/17 34/33/17 36/35/17 35/36/17
f 35/36/18 36/35/18 38/37/18 37/38/18
f 37/38/19 38/37/19 40/39/19 39/40/19
f 39/40/20 40/39/20 42/41/20 41/42/20
f 41/42/21 42/41/21 44/43/21 43/44/21
f 43/44/22 44/43/22 46/45/22 45/46/22
f 45/46/23 46/45/23 48/47/23 47/48/23
f 47/48/24 48/47/24 50/49/24 49/50/24
f 49/50/25 50/49/25 52/51/25 51/52/25
f 51/52/26 52/51/26 54/53/26 53/54/26
f 53/54/27 54/53/27 56/55/27 55/56/27
f 55/56/28 56/55/28 58/57/28 57/58/28
f 57/58/29 58/57/29 60/59/29 59/60/29
f 59/60/30 60/59/30 62/61/30 61/62/30
f 4/63/31 2/64/31 64/65/31 62/66/31 60/67/31 58/68/31 56/69/31 54/70/31 52/71/31 50/72/31 48/73/31 46/74/31 44/75/31 42/76/31 40/77/31 38/78/31 36/79/31 34/80/31 32/81/31 30/82/31 28/83/31 26/84/31 24/85/31 22/86/31 20/87/31 18/88/31 16/89/31 14/90/31 12/91/31 10/92/31 8/93/31 6/94/31
f 61/62/32 62/61/32 64/95/32 63/96/32
f 63/96/33 64/95/33 2/97/33 1/98/33
f 1/99/34 3/100/34 5/101/34 7/102/34 9/103/34 11/104/34 13/105/34 15/106/34 17/107/34 19/108/34 21/109/34 23/110/34 25/111/34 27/112/34 29/113/34 31/114/34 33/115/34 35/116/34 37/117/34 39/118/34 41/119/34 43/120/34 45/121/34 47/122/34 49/123/34 51/124/34 53/125/34 55/126/34 57/127/34 59/128/34 61/129/34 63/130/34
f 65/1/1 66/2/1 68/3/1 67/4/1
f 67/4/2 68/3/2 70/5/2 69/6/2
f 69/6/3 70/5/3 72/7/3 71/8/3
f 71/8/4 72/7/4 74/9/4 73/10/4
f 73/10/5 74/9/5 76/11/5 75/12/5
f 75/12/6 76/11/6 78/13/6 77/14/6
f 77/14/7 78/13/7 80/15/7 79/16/7
f 79/16/8 80/15/8 82/17/8 81/18/8
f 81/18/9 82/17/9 84/19/9 83/20/9
f 83/20/10 84/19/10 86/21/10 85/22/10
f 85/22/11 86/21/11 88/23/11 87/24/11
f 87/24/12 88/23/12 90/25/12 89/26/12
f 89/26/13 90/25/13 92/27/13 91/28/13
f 91/28/14 92/27/14 94/29/14 93/30/14
f 93/30/15 94/29/15 96/31/15 95/32/15
f 95/32/16 96/31/16 98/33/16 97/34/16
f 97/34/17 98/33/17 100/35/17 99/36/17
f 99/36/18 100/35/18 102/37/18 101/38/18
f 101/38/19 102/37/19 104/39/19 103/40/19
f 103/40/20 104/39/20 106/41/20 105/42/20
f 105/42/21 106/41/21 108/43/21 107/44/21
f 107/44/22 108/43/22 110/45/22 109/46/22
f 109/46/23 110/45/23 112/47/23 111/48/23
f 111/48/24 112/47/24 114/49/24 113/50/24
f 113/50/25 114/49/25 116/51/25 115/52/25
f 115/52/26 116/51/26 118/53/26 117/54/26
f 117/54/27 118/53/27 120/55/27 119/56/27
f 119/56/28 120/55/28 122/57/28 121/58/28
f 121/58/29 122/57/29 124/59/29 123/60/29
f 123/60/30 124/59/30 126/61/30 125/62/30
f 68/63/31 66/64/31 128/65/31 126/66/31 124/67/31 122/68/31 120/69/31 118/70/31 116/71/31 114/72/31 112/73/31 110/74/31 108/75/31 106/76/31 104/77/31 102/78/31 100/79/31 98/80/31 96/81/31 94/82/31 92/83/31 90/84/31 88/85/31 86/86/31 84/87/31 82/88/31 80/89/31 78/90/31 76/91/31 74/92/31 72/93/31 70/94/31
f 125/62/32 126/61/32 128/95/32 127/96/32
f 127/96/33 128/95/33 66/97/33 65/98/33
f 65/99/34 67/100/34 69/101/34 71/102/34 73/103/34 75/104/34 77/105/34 79/106/34 81/107/34 83/108/34 85/109/34 87/110/34 89/111/34 91/112/34 93/113/34 95/114/34 97/115/34 99/116/34 101/117/34 103/118/34 105/119/34 107/120/34 109/121/34 111/122/34 113/123/34 115/124/34 117/125/34 119/126/34 121/127/34 123/128/34 125/129/34 127/130/34
f 129/1/1 130/2/1 132/3/1 131/4/1
f 131/4/2 132/3/2 134/5/2 133/6/2
f 133/6/3 134/5/3 136/7/3 135/8/3
f 135/8/4 136/7/4 138/9/4 137/10/4
f 137/10/5 138/9/5 140/11/5 139/12/5
f 139/12/6 140/11/6 142/13/6 141/14/6
f 141/14/7 142/13/7 144/15/7 143/16/7
f 143/16/8 144/15/8 146/17/8 145/18/8
f 145/18/9 146/17/9 148/19/9 147/20/9
f 147/20/10 148/19/10 150/21/10 149/22/10
f 149/22/11 150/21/11 152/23/11 151/24/11
f 151/24/12 152/23/12 154/25/12 153/26/12
f 153/26/13 154/25/13 156/27/13 155/28/13
f 155/28/14 156/27/14 158/29/14 157/30/14
f 157/30/15 158/29/15 160/31/15 159/32/15
f 159/32/16 160/31/16 162/33/16 161/34/16
f 161/34/17 162/33/17 164/35/17 163/36/17
f 163/36/18 164/35/18 166/37/18 165/38/18
f 165/38/19 166/37/19 168/39/19 167/40/19
f 167/40/20 168/39/20 170/41/20 169/42/20
f 169/42/21 170/41/21 172/43/21 171/44/21
f 171/44/22 172/43/22 174/45/22 173/46/22
f 173/46/23 174/45/23 176/47/23 175/48/23
f 175/48/24 176/47/24 178/49/24 177/50/24
f 177/50/35 178/49/35 180/51/35 179/52/35
f 179/52/26 180/51/26 182/53/26 181/54/26
f 181/54/27 182/53/27 184/55/27 183/56/27
f 183/56/28 184/55/28 186/57/28 185/58/28
f 185/58/29 186/57/29 188/59/29 187/60/29
f 187/60/30 188/59/30 190/61/30 189/62/30
f 132/63/31 130/64/31 192/65/31 190/66/31 188/67/31 186/68/31 184/69/31 182/70/31 180/71/31 178/72/31 176/73/31 174/74/31 172/75/31 170/76/31 168/77/31 166/78/31 164/79/31 162/80/31 160/81/31 158/82/31 156/83/31 154/84/31 152/85/31 150/86/31 148/87/31 146/88/31 144/89/31 142/90/31 140/91/31 138/92/31 136/93/31 134/94/31
f 189/62/32 190/61/32 192/95/32 191/96/32
f 191/96/33 192/95/33 130/97/33 129/98/33
f 149/22/11 151/24/11 268/24/11 267/22/11
f 193/1/1 194/2/1 196/3/1 195/4/1
f 195/4/2 196/3/2 198/5/2 197/6/2
f 197/6/3 198/5/3 200/7/3 199/8/3
f 199/8/4 200/7/4 202/9/4 201/10/4
f 201/10/5 202/9/5 204/11/5 203/12/5
f 203/12/6 204/11/6 206/13/6 205/14/6
f 205/14/7 206/13/7 208/15/7 207/16/7
f 207/16/8 208/15/8 210/17/8 209/18/8
f 209/18/9 210/17/9 212/19/9 211/20/9
f 211/20/10 212/19/10 214/21/10 213/22/10
f 213/22/11 214/21/11 216/23/11 215/24/11
f 215/24/12 216/23/12 218/25/12 217/26/12
f 217/26/13 218/25/13 220/27/13 219/28/13
f 219/28/14 220/27/14 222/29/14 221/30/14
f 221/30/15 222/29/15 224/31/15 223/32/15
f 223/32/16 224/31/16 226/33/16 225/34/16
f 225/34/17 226/33/17 228/35/17 227/36/17
f 227/36/18 228/35/18 230/37/18 229/38/18
f 229/38/19 230/37/19 232/39/19 231/40/19
f 231/40/20 232/39/20 234/41/20 233/42/20
f 233/42/21 234/41/21 236/43/21 235/44/21
f 235/44/22 236/43/22 238/45/22 237/46/22
f 237/46/23 238/45/23 240/47/23 239/48/23
f 239/48/24 240/47/24 242/49/24 241/50/24
f 241/50/25 242/49/25 244/51/25 243/52/25
f 243/52/26 244/51/26 246/53/26 245/54/26
f 245/54/27 246/53/27 248/55/27 247/56/27
f 247/56/28 248/55/28 250/57/28 249/58/28
f 249/58/29 250/57/29 252/59/29 251/60/29
f 251/60/30 252/59/30 254/61/30 253/62/30
f 196/63/31 194/64/31 256/65/31 254/66/31 252/67/31 250/68/31 248/69/31 246/70/31 244/71/31 242/72/31 240/73/31 238/74/31 236/75/31 234/76/31 232/77/31 230/78/31 228/79/31 226/80/31 224/81/31 222/82/31 220/83/31 218/84/31 216/85/31 214/86/31 212/87/31 210/88/31 208/89/31 206/90/31 204/91/31 202/92/31 200/93/31 198/94/31
f 253/62/32 254/61/32 256/95/32 255/96/32
f 255/96/33 256/95/33 194/97/33 193/98/33
f 201/10/5 203/12/5 294/12/5 293/10/5
f 131/4/2 133/6/2 259/6/2 258/4/2
f 280/48/24 281/50/24 376/50/24 375/48/24
f 293/10/5 294/12/5 389/12/5 388/10/5
f 417/131/36 349/131/36 425/131/36 427/131/36
f 219/28/14 221/30/14 303/30/14 302/28/14
f 167/40/20 169/42/20 277/42/20 276/40/20
f 185/58/29 187/60/29 286/60/29 285/58/29
f 255/96/33 193/98/33 289/98/33 320/96/33
f 133/6/3 135/8/3 260/8/3 259/6/3
f 203/12/6 205/14/6 295/14/6 294/12/6
f 151/24/12 153/26/12 269/26/12 268/24/12
f 221/30/15 223/32/15 304/32/15 303/30/15
f 322/131/37 247/131/37 316/131/37 324/131/37
f 169/42/21 171/44/21 278/44/21 277/42/21
f 187/60/30 189/62/30 287/62/30 286/60/30
f 237/131/34 149/131/34 338/131/34 339/131/34
f 135/8/4 137/10/4 261/10/4 260/8/4
f 205/14/7 207/16/7 296/16/7 295/14/7
f 153/26/13 155/28/13 270/28/13 269/26/13
f 223/32/16 225/34/16 305/34/16 304/32/16
f 171/44/22 173/46/22 279/46/22 278/44/22
f 189/62/32 191/96/32 288/96/32 287/62/32
f 207/16/8 209/18/8 297/18/8 296/16/8
f 155/28/14 157/30/14 271/30/14 270/28/14
f 225/34/17 227/36/17 306/36/17 305/34/17
f 173/46/23 175/48/23 280/48/23 279/46/23
f 191/96/33 129/98/33 257/98/33 288/96/33
f 209/18/9 211/20/9 298/20/9 297/18/9
f 157/30/15 159/32/15 272/32/15 271/30/15
f 227/36/18 229/38/18 307/38/18 306/36/18
f 193/1/1 195/4/1 290/4/1 289/1/1
f 175/48/24 177/50/24 281/50/24 280/48/24
f 211/20/10 213/22/10 299/22/10 298/20/10
f 159/32/16 161/34/16 273/34/16 272/32/16
f 229/38/19 231/40/19 308/40/19 307/38/19
f 177/50/25 179/52/25 282/52/25 281/50/25
f 247/56/28 249/58/28 317/58/28 316/56/28
f 195/4/2 197/6/2 291/6/2 290/4/2
f 213/22/11 215/24/11 300/24/11 299/22/11
f 161/34/17 163/36/17 274/36/17 273/34/17
f 231/40/20 233/42/20 309/42/20 308/40/20
f 179/52/26 181/54/26 283/54/26 282/52/26
f 249/58/29 251/60/29 318/60/29 317/58/29
f 197/6/3 199/8/3 292/8/3 291/6/3
f 215/24/12 217/26/12 301/26/12 300/24/12
f 163/36/18 165/38/18 275/38/18 274/36/18
f 233/42/21 235/44/21 310/44/21 309/42/21
f 129/1/1 131/4/1 258/4/1 257/1/1
f 181/54/27 183/56/27 284/56/27 283/54/27
f 251/60/30 253/62/30 319/62/30 318/60/30
f 199/8/4 201/10/4 293/10/4 292/8/4
f 217/26/13 219/28/13 302/28/13 301/26/13
f 165/38/19 167/40/19 276/40/19 275/38/19
f 235/44/22 237/46/22 311/46/22 310/44/22
f 183/56/28 185/58/28 285/58/28 284/56/28
f 253/62/32 255/96/32 320/96/32 319/62/32
f 137/131/37 321/131/37 323/131/37 261/131/37
f 321/131/37 322/131/37 324/131/37 323/131/37
f 313/123/9 314/124/9 328/124/9 327/123/9
f 311/121/7 312/122/7 326/122/7 325/121/7
f 314/124/10 315/125/10 329/125/10 328/124/10
f 312/122/8 313/123/8 327/123/8 326/122/8
f 315/125/11 316/126/11 330/126/11 329/125/11
f 265/107/25 266/108/25 336/108/25 335/107/25
f 263/105/23 264/106/23 334/106/23 333/105/23
f 261/103/21 262/104/21 332/104/21 331/103/21
f 266/108/26 267/109/26 337/109/26 336/108/26
f 264/106/24 265/107/24 335/107/24 334/106/24
f 262/104/22 263/105/22 333/105/22 332/104/22
f 339/131/38 338/131/38 340/131/38 346/131/38 347/131/38 341/131/38
f 267/131/31 344/131/31 346/131/31 340/131/31
f 311/46/39 237/46/39 339/46/39 341/46/39
f 149/22/40 267/22/40 340/22/40 338/22/40
f 311/131/41 345/131/41 344/131/41 267/131/41 342/131/41 343/131/41
f 418/131/42 350/131/42 434/131/42 435/131/42
f 346/131/43 344/131/43 348/131/43 350/131/43
f 345/131/31 311/131/31 341/131/31 347/131/31
f 345/131/44 347/131/44 351/131/44 349/131/44
f 347/131/38 346/131/38 350/131/38 351/131/38
f 344/131/41 345/131/41 349/131/41 348/131/41
f 352/99/34 353/100/34 354/101/34 355/102/34 356/103/34 357/104/34 358/105/34 359/106/34 360/107/34 361/108/34 362/109/34 363/110/34 364/111/34 365/112/34 366/113/34 367/114/34 368/115/34 369/116/34 370/117/34 371/118/34 372/119/34 373/120/34 374/121/34 375/122/34 376/123/34 377/124/34 378/125/34 379/126/34 380/127/34 381/128/34 382/129/34 383/130/34
f 267/22/11 268/24/11 363/24/11 362/22/11
f 281/50/35 282/52/35 377/52/35 376/50/35
f 268/24/12 269/26/12 364/26/12 363/24/12
f 282/52/26 283/54/26 378/54/26 377/52/26
f 269/26/13 270/28/13 365/28/13 364/26/13
f 283/54/27 284/56/27 379/56/27 378/54/27
f 270/28/14 271/30/14 366/30/14 365/28/14
f 257/1/1 258/4/1 353/4/1 352/1/1
f 284/56/28 285/58/28 380/58/28 379/56/28
f 271/30/15 272/32/15 367/32/15 366/30/15
f 258/4/2 259/6/2 354/6/2 353/4/2
f 285/58/29 286/60/29 381/60/29 380/58/29
f 272/32/16 273/34/16 368/34/16 367/32/16
f 259/6/3 260/8/3 355/8/3 354/6/3
f 286/60/30 287/62/30 382/62/30 381/60/30
f 273/34/17 274/36/17 369/36/17 368/34/17
f 260/8/4 261/10/4 356/10/4 355/8/4
f 287/62/32 288/96/32 383/96/32 382/62/32
f 274/36/18 275/38/18 370/38/18 369/36/18
f 261/103/5 262/104/5 357/104/5 356/103/5
f 288/96/33 257/98/33 352/98/33 383/96/33
f 275/38/19 276/40/19 371/40/19 370/38/19
f 262/104/6 263/105/6 358/105/6 357/104/6
f 276/40/20 277/42/20 372/42/20 371/40/20
f 263/105/7 264/106/7 359/106/7 358/105/7
f 277/42/21 278/44/21 373/44/21 372/42/21
f 264/106/8 265/107/8 360/107/8 359/106/8
f 278/44/22 279/46/22 374/46/22 373/44/22
f 265/107/9 266/108/9 361/108/9 360/107/9
f 279/46/23 280/48/23 375/48/23 374/46/23
f 266/108/10 267/109/10 362/109/10 361/108/10
f 384/99/34 385/100/34 386/101/34 387/102/34 388/103/34 389/104/34 390/105/34 391/106/34 392/107/34 393/108/34 394/109/34 395/110/34 396/111/34 397/112/34 398/113/34 399/114/34 400/115/34 401/116/34 402/117/34 403/118/34 404/119/34 405/120/34 406/121/34 407/122/34 408/123/34 409/124/34 410/125/34 411/126/34 412/127/34 413/128/34 414/129/34 415/130/34
f 320/96/33 289/98/33 384/98/33 415/96/33
f 307/38/19 308/40/19 403/40/19 402/38/19
f 294/12/6 295/14/6 390/14/6 389/12/6
f 308/40/20 309/42/20 404/42/20 403/40/20
f 295/14/7 296/16/7 391/16/7 390/14/7
f 309/42/21 310/44/21 405/44/21 404/42/21
f 296/16/8 297/18/8 392/18/8 391/16/8
f 310/44/22 311/46/22 406/46/22 405/44/22
f 297/18/9 298/20/9 393/20/9 392/18/9
f 311/121/23 312/122/23 407/122/23 406/121/23
f 298/20/10 299/22/10 394/22/10 393/20/10
f 312/122/24 313/123/24 408/123/24 407/122/24
f 299/22/11 300/24/11 395/24/11 394/22/11
f 313/123/25 314/124/25 409/124/25 408/123/25
f 300/24/12 301/26/12 396/26/12 395/24/12
f 314/124/26 315/125/26 410/125/26 409/124/26
f 301/26/13 302/28/13 397/28/13 396/26/13
f 315/125/27 316/126/27 411/126/27 410/125/27
f 302/28/14 303/30/14 398/30/14 397/28/14
f 289/1/1 290/4/1 385/4/1 384/1/1
f 316/56/28 317/58/28 412/58/28 411/56/28
f 303/30/15 304/32/15 399/32/15 398/30/15
f 290/4/2 291/6/2 386/6/2 385/4/2
f 317/58/29 318/60/29 413/60/29 412/58/29
f 304/32/16 305/34/16 400/34/16 399/32/16
f 291/6/3 292/8/3 387/8/3 386/6/3
f 318/60/30 319/62/30 414/62/30 413/60/30
f 305/34/17 306/36/17 401/36/17 400/34/17
f 292/8/4 293/10/4 388/10/4 387/8/4
f 319/62/32 320/96/32 415/96/32 414/62/32
f 306/36/18 307/38/18 402/38/18 401/36/18
f 418/131/31 416/131/31 417/131/31
f 417/131/31 419/131/31 418/131/31
f 350/131/40 418/131/40 422/131/40 420/131/40
f 349/131/39 417/131/39 431/131/39 429/131/39
f 421/131/38 420/131/38 422/131/38 423/131/38
f 418/131/31 419/131/31 423/131/31 422/131/31
f 351/131/34 350/131/34 420/131/34 421/131/34
f 419/131/39 351/131/39 421/131/39 423/131/39
f 425/131/44 424/131/44 426/131/44 427/131/44
f 351/131/45 419/131/45 426/131/45 424/131/45
f 419/131/31 417/131/31 427/131/31 426/131/31
f 349/131/34 351/131/34 424/131/34 425/131/34
f 428/131/41 429/131/41 431/131/41 430/131/41
f 416/131/40 348/131/40 428/131/40 430/131/40
f 348/131/34 349/131/34 429/131/34 428/131/34
f 417/131/31 416/131/31 430/131/31 431/131/31
f 434/131/43 432/131/43 433/131/43 435/131/43
f 348/131/46 416/131/46 433/131/46 432/131/46
f 416/131/31 418/131/31 435/131/31 433/131/31
f 350/131/34 348/131/34 432/131/34 434/131/34
