# Blender 4.5.3 LTS
# www.blender.org
mtllib cup.mtl
o cup
v -1.063934 2.572781 0.536479
v -1.095802 3.316610 0.583193
v -1.008023 2.572781 0.583272
v -1.048393 3.316610 0.622871
v -0.962315 2.572781 0.640073
v -1.009635 3.316610 0.671036
v -0.928568 2.572781 0.704700
v -0.981018 3.316610 0.725836
v -0.908076 2.572781 0.774669
v -0.963643 3.316610 0.785167
v -0.901629 2.572781 0.847292
v -0.958176 3.316610 0.846747
v -0.909473 2.572781 0.919776
v -0.964827 3.316610 0.908211
v -0.931308 2.572781 0.989338
v -0.983342 3.316610 0.967195
v -0.966294 2.572781 1.053303
v -1.013009 3.316610 1.021435
v -1.013087 2.572781 1.109214
v -1.052687 3.316610 1.068844
v -1.069889 2.572781 1.154922
v -1.100852 3.316610 1.107602
v -1.134516 2.572781 1.188670
v -1.155652 3.316610 1.136219
v -1.204485 2.572781 1.209161
v -1.214983 3.316610 1.153594
v -1.277107 2.572781 1.215608
v -1.276563 3.316610 1.159061
v -1.349592 2.572781 1.207764
v -1.338026 3.316610 1.152410
v -1.419154 2.572781 1.185929
v -1.397011 3.316610 1.133895
v -1.483119 2.572781 1.150943
v -1.451251 3.316610 1.104228
v -1.539030 2.572781 1.104150
v -1.498660 3.316610 1.064550
v -1.584737 2.572781 1.047348
v -1.537418 3.316610 1.016385
v -1.618485 2.572781 0.982721
v -1.566035 3.316610 0.961585
v -1.638977 2.572781 0.912752
v -1.583410 3.316610 0.902254
v -1.645424 2.572781 0.840130
v -1.588877 3.316610 0.840674
v -1.637579 2.572781 0.767645
v -1.582225 3.316610 0.779211
v -1.615745 2.572781 0.698083
v -1.563710 3.316610 0.720226
v -1.580758 2.572781 0.634118
v -1.534044 3.316610 0.665986
v -1.533966 2.572781 0.578207
v -1.494366 3.316610 0.618577
v -1.477164 2.572781 0.532500
v -1.446201 3.316610 0.579819
v -1.412537 2.572781 0.498752
v -1.391401 3.316610 0.551203
v -1.342568 2.572781 0.478260
v -1.332070 3.316610 0.533827
v -1.269946 2.572781 0.471813
v -1.270490 3.316610 0.528360
v -1.197461 2.572781 0.479658
v -1.209026 3.316610 0.535012
v -1.127899 2.572781 0.501493
v -1.150042 3.316610 0.553527
v -1.008023 3.316610 0.583272
v -1.063934 3.316610 0.536479
v -0.962315 3.316610 0.640073
v -0.928568 3.316610 0.704700
v -0.908076 3.316610 0.774669
v -0.901629 3.316610 0.847292
v -0.909473 3.316610 0.919776
v -0.931308 3.316610 0.989338
v -0.966294 3.316610 1.053303
v -1.013087 3.316610 1.109214
v -1.069889 3.316610 1.154922
v -1.134516 3.316610 1.188670
v -1.204485 3.316610 1.209161
v -1.277107 3.316610 1.215608
v -1.349592 3.316610 1.207764
v -1.419154 3.316610 1.185929
v -1.483119 3.316610 1.150943
v -1.539030 3.316610 1.104150
v -1.584737 3.316610 1.047348
v -1.618485 3.316610 0.982721
v -1.638977 3.316610 0.912752
v -1.645424 3.316610 0.840130
v -1.637579 3.316610 0.767645
v -1.615745 3.316610 0.698083
v -1.580758 3.316610 0.634118
v -1.533966 3.316610 0.578207
v -1.477164 3.316610 0.532500
v -1.412537 3.316610 0.498752
v -1.342568 3.316610 0.478260
v -1.269946 3.316610 0.471813
v -1.197461 3.316610 0.479658
v -1.127899 3.316610 0.501493
v -1.048393 2.649343 0.622871
v -1.095802 2.649343 0.583193
v -1.009635 2.649343 0.671036
v -0.981018 2.649343 0.725836
v -0.963643 2.649343 0.785167
v -0.958176 2.649343 0.846747
v -0.964827 2.649343 0.908211
v -0.983342 2.649343 0.967195
v -1.013009 2.649343 1.021435
v -1.052687 2.649343 1.068844
v -1.100852 2.649343 1.107602
v -1.155652 2.649343 1.136219
v -1.214983 2.649343 1.153594
v -1.276563 2.649343 1.159061
v -1.338026 2.649343 1.152410
v -1.397011 2.649343 1.133895
v -1.451251 2.649343 1.104228
v -1.498660 2.649343 1.064550
v -1.537418 2.649343 1.016385
v -1.566035 2.649343 0.961585
v -1.583410 2.649343 0.902254
v -1.588877 2.649343 0.840674
v -1.582225 2.649343 0.779211
v -1.563710 2.649343 0.720226
v -1.534044 2.649343 0.665986
v -1.494366 2.649343 0.618577
v -1.446201 2.649343 0.579819
v -1.391401 2.649343 0.551203
v -1.332070 2.649343 0.533827
v -1.270490 2.649343 0.528360
v -1.209026 2.649343 0.535012
v -1.150042 2.649343 0.553527
v -1.063934 2.721547 0.536479
v -1.063934 2.870313 0.536479
v -1.063934 3.019079 0.536479
v -1.063934 3.167845 0.536479
v -1.008023 3.167845 0.583272
v -1.008023 3.019079 0.583272
v -1.008023 2.870313 0.583272
v -1.008023 2.721547 0.583272
v -0.962315 3.167845 0.640073
v -0.962315 3.019079 0.640073
v -0.962315 2.870313 0.640073
v -0.962315 2.721547 0.640073
v -0.928568 3.167845 0.704700
v -0.928568 3.019079 0.704700
v -0.928568 2.870313 0.704700
v -0.928568 2.721547 0.704700
v -0.908076 3.167845 0.774669
v -0.908076 3.019079 0.774669
v -0.908076 2.870313 0.774669
v -0.908076 2.721547 0.774669
v -0.901629 3.167845 0.847292
v -0.901629 3.019079 0.847292
v -0.901629 2.870313 0.847292
v -0.901629 2.721547 0.847292
v -0.909473 3.167845 0.919776
v -0.909473 3.019079 0.919776
v -0.909473 2.870313 0.919776
v -0.909473 2.721547 0.919776
v -0.931308 3.167845 0.989338
v -0.931308 3.019079 0.989338
v -0.931308 2.870313 0.989338
v -0.931308 2.721547 0.989338
v -0.966294 3.167845 1.053303
v -0.966294 3.019079 1.053303
v -0.966294 2.870313 1.053303
v -0.966294 2.721547 1.053303
v -1.013087 3.167845 1.109214
v -1.013087 3.019079 1.109214
v -1.013087 2.870313 1.109214
v -1.013087 2.721547 1.109214
v -1.069889 3.167845 1.154922
v -1.069889 3.019079 1.154922
v -1.069889 2.870313 1.154922
v -1.069889 2.721547 1.154922
v -1.134516 3.167845 1.188670
v -1.134516 3.019079 1.188670
v -1.134516 2.870313 1.188670
v -1.134516 2.721547 1.188670
v -1.204485 3.167845 1.209161
v -1.204485 3.019079 1.209161
v -1.204485 2.870313 1.209161
v -1.204485 2.721547 1.209161
v -1.277107 3.167845 1.215608
v -1.277107 3.019079 1.215608
v -1.277107 2.870313 1.215608
v -1.277107 2.721547 1.215608
v -1.349592 3.167845 1.207764
v -1.349592 3.019079 1.207764
v -1.349592 2.870313 1.207764
v -1.349592 2.721547 1.207764
v -1.419154 3.167845 1.185929
v -1.419154 3.019079 1.185929
v -1.419154 2.870313 1.185929
v -1.419154 2.721547 1.185929
v -1.483119 3.167845 1.150943
v -1.483119 3.019079 1.150943
v -1.483119 2.870313 1.150943
v -1.483119 2.721547 1.150943
v -1.539030 3.167845 1.104150
v -1.539030 3.019079 1.104150
v -1.539030 2.870313 1.104150
v -1.539030 2.721547 1.104150
v -1.584737 3.167845 1.047348
v -1.584737 3.019079 1.047348
v -1.584737 2.870313 1.047348
v -1.584737 2.721547 1.047348
v -1.618485 3.167845 0.982721
v -1.618485 3.019079 0.982721
v -1.618485 2.870313 0.982721
v -1.618485 2.721547 0.982721
v -1.638977 3.167845 0.912752
v -1.638977 3.019079 0.912752
v -1.638977 2.870313 0.912752
v -1.638977 2.721547 0.912752
v -1.645424 3.167845 0.840130
v -1.645424 3.019079 0.840130
v -1.645424 2.870313 0.840130
v -1.645424 2.721547 0.840130
v -1.637579 3.167845 0.767645
v -1.637579 3.019079 0.767645
v -1.637579 2.870313 0.767645
v -1.637579 2.721547 0.767645
v -1.615745 3.167845 0.698083
v -1.615745 3.019079 0.698083
v -1.615745 2.870313 0.698083
v -1.615745 2.721547 0.698083
v -1.580758 3.167845 0.634118
v -1.580758 3.019079 0.634118
v -1.580758 2.870313 0.634118
v -1.580758 2.721547 0.634118
v -1.533966 3.167845 0.578207
v -1.533966 3.019079 0.578207
v -1.533966 2.870313 0.578207
v -1.533966 2.721547 0.578207
v -1.477164 3.167845 0.532500
v -1.477164 3.019079 0.532500
v -1.477164 2.870313 0.532500
v -1.477164 2.721547 0.532500
v -1.412537 3.167845 0.498752
v -1.412537 3.019079 0.498752
v -1.412537 2.870313 0.498752
v -1.412537 2.721547 0.498752
v -1.342568 3.167845 0.478260
v -1.342568 3.019079 0.478260
v -1.342568 2.870313 0.478260
v -1.342568 2.721547 0.478260
v -1.269946 3.167845 0.471813
v -1.269946 3.019079 0.471813
v -1.269946 2.870313 0.471813
v -1.269946 2.721547 0.471813
v -1.197461 3.167845 0.479658
v -1.197461 3.019079 0.479658
v -1.197461 2.870313 0.479658
v -1.197461 2.721547 0.479658
v -1.127899 3.167845 0.501493
v -1.127899 3.019079 0.501493
v -1.127899 2.870313 0.501493
v -1.127899 2.721547 0.501493
v -1.843331 3.167845 0.542825
v -1.843331 3.019079 0.542825
v -1.843331 2.870313 0.542825
v -1.843331 2.721547 0.542825
v -1.808345 3.167845 0.478860
v -1.808345 3.019079 0.478860
v -1.808345 2.870313 0.478860
v -1.808345 2.721547 0.478860
v -1.761552 3.167845 0.422949
v -1.761552 3.019079 0.422949
v -1.761552 2.870313 0.422949
v -1.761552 2.721547 0.422949
v -1.729538 2.870313 0.620454
v -1.729538 2.721547 0.620454
v -1.694552 2.721547 0.556489
v -1.647759 2.870313 0.500578
v -1.694552 2.870313 0.556489
v -1.647759 2.721547 0.500578
v -1.808345 3.156530 0.478860
v -1.761552 3.156530 0.422949
v -1.843331 3.156530 0.542825
v -1.729538 3.156530 0.620454
v -1.647759 3.156530 0.500578
v -1.694552 3.156530 0.556489
vn 0.6418 -0.0000 -0.7669
vn 0.7791 -0.0000 -0.6269
vn 0.8864 -0.0000 -0.4629
vn 0.9597 -0.0000 -0.2811
vn 0.9961 -0.0000 -0.0884
vn 0.9942 -0.0000 0.1076
vn 0.9541 -0.0000 0.2995
vn 0.8773 -0.0000 0.4799
vn 0.7669 -0.0000 0.6418
vn 0.6269 -0.0000 0.7791
vn 0.4629 -0.0000 0.8864
vn 0.2811 -0.0000 0.9597
vn 0.0884 -0.0000 0.9961
vn -0.1076 -0.0000 0.9942
vn -0.2995 -0.0000 0.9541
vn -0.4799 -0.0000 0.8773
vn -0.6418 -0.0000 0.7669
vn -0.7791 -0.0000 0.6269
vn -0.8864 -0.0000 0.4629
vn -0.9597 -0.0000 0.2811
vn -0.9961 -0.0000 0.0884
vn -0.9942 -0.0000 -0.1076
vn -0.9541 -0.0000 -0.2995
vn -0.8773 -0.0000 -0.4799
vn -0.7669 -0.0000 -0.6418
vn -0.6269 -0.0000 -0.7791
vn -0.4629 -0.0000 -0.8864
vn -0.2811 -0.0000 -0.9597
vn -0.0884 -0.0000 -0.9961
vn 0.1076 -0.0000 -0.9942
vn 0.2995 -0.0000 -0.9541
vn 0.4799 -0.0000 -0.8773
vn -0.0000 -1.0000 -0.0000
vn -0.0000 1.0000 -0.0000
vn -0.5636 -0.0000 0.8261
vn 0.5636 -0.0000 -0.8261
vt 1.000000 0.900000
vt 1.000000 1.000000
vt 0.968750 1.000000
vt 0.968750 0.900000
vt 0.937500 1.000000
vt 0.937500 0.900000
vt 0.906250 1.000000
vt 0.906250 0.900000
vt 0.875000 1.000000
vt 0.875000 0.900000
vt 0.843750 1.000000
vt 0.843750 0.900000
vt 0.812500 1.000000
vt 0.812500 0.900000
vt 0.781250 1.000000
vt 0.781250 0.900000
vt 0.750000 1.000000
vt 0.750000 0.900000
vt 0.718750 1.000000
vt 0.718750 0.900000
vt 0.687500 1.000000
vt 0.687500 0.900000
vt 0.656250 1.000000
vt 0.656250 0.900000
vt 0.625000 1.000000
vt 0.625000 0.900000
vt 0.593750 1.000000
vt 0.593750 0.900000
vt 0.562500 1.000000
vt 0.562500 0.900000
vt 0.531250 1.000000
vt 0.531250 0.900000
vt 0.500000 1.000000
vt 0.500000 0.900000
vt 0.468750 1.000000
vt 0.468750 0.900000
vt 0.437500 1.000000
vt 0.437500 0.900000
vt 0.406250 1.000000
vt 0.406250 0.900000
vt 0.375000 1.000000
vt 0.375000 0.900000
vt 0.343750 1.000000
vt 0.343750 0.900000
vt 0.312500 1.000000
vt 0.312500 0.900000
vt 0.281250 1.000000
vt 0.281250 0.900000
vt 0.250000 1.000000
vt 0.250000 0.900000
vt 0.218750 1.000000
vt 0.218750 0.900000
vt 0.187500 1.000000
vt 0.187500 0.900000
vt 0.156250 1.000000
vt 0.156250 0.900000
vt 0.125000 1.000000
vt 0.125000 0.900000
vt 0.093750 1.000000
vt 0.093750 0.900000
vt 0.062500 1.000000
vt 0.062500 0.900000
vt 0.106098 0.106098
vt 0.136937 0.080789
vt 0.031250 1.000000
vt 0.031250 0.900000
vt 0.000000 1.000000
vt 0.000000 0.900000
vt 0.750000 0.490000
vt 0.796822 0.485388
vt 0.841844 0.471731
vt 0.883337 0.449553
vt 0.919706 0.419706
vt 0.949553 0.383337
vt 0.971731 0.341844
vt 0.985388 0.296822
vt 0.990000 0.250000
vt 0.985388 0.203178
vt 0.971731 0.158156
vt 0.949553 0.116663
vt 0.919706 0.080294
vt 0.883337 0.050447
vt 0.841844 0.028269
vt 0.796822 0.014612
vt 0.750000 0.010000
vt 0.703178 0.014612
vt 0.658156 0.028269
vt 0.616663 0.050447
vt 0.580294 0.080294
vt 0.550447 0.116663
vt 0.528269 0.158156
vt 0.514612 0.203178
vt 0.510000 0.250000
vt 0.514612 0.296822
vt 0.528269 0.341844
vt 0.550447 0.383337
vt 0.580294 0.419706
vt 0.616663 0.449553
vt 0.658156 0.471731
vt 0.703178 0.485388
vt 0.250000 0.453508
vt 0.289702 0.449598
vt 0.296822 0.485388
vt 0.250000 0.490000
vt 0.327879 0.438017
vt 0.341844 0.471731
vt 0.363063 0.419211
vt 0.383337 0.449553
vt 0.393902 0.393902
vt 0.419706 0.419706
vt 0.419211 0.363063
vt 0.449553 0.383337
vt 0.438017 0.327879
vt 0.471731 0.341844
vt 0.449598 0.289702
vt 0.485388 0.296822
vt 0.453508 0.250000
vt 0.490000 0.250000
vt 0.449598 0.210298
vt 0.485388 0.203178
vt 0.438017 0.172121
vt 0.471731 0.158156
vt 0.419211 0.136937
vt 0.449553 0.116663
vt 0.393902 0.106098
vt 0.419706 0.080294
vt 0.363063 0.080789
vt 0.383337 0.050447
vt 0.327879 0.061983
vt 0.341844 0.028269
vt 0.289703 0.050402
vt 0.296822 0.014612
vt 0.250000 0.046492
vt 0.250000 0.010000
vt 0.210297 0.050402
vt 0.203178 0.014612
vt 0.172121 0.061983
vt 0.158156 0.028269
vt 0.116663 0.050447
vt 0.080294 0.080294
vt 0.080789 0.136937
vt 0.050447 0.116663
vt 0.061983 0.172121
vt 0.028269 0.158156
vt 0.050402 0.210297
vt 0.014612 0.203178
vt 0.046492 0.250000
vt 0.010000 0.250000
vt 0.050402 0.289702
vt 0.014612 0.296822
vt 0.061983 0.327879
vt 0.028269 0.341844
vt 0.080789 0.363063
vt 0.050447 0.383337
vt 0.106098 0.393902
vt 0.080294 0.419706
vt 0.136937 0.419211
vt 0.116663 0.449553
vt 0.172121 0.438017
vt 0.158156 0.471731
vt 0.210297 0.449598
vt 0.203178 0.485388
vt 0.031250 0.500000
vt 0.031250 0.600000
vt 0.000000 0.600000
vt 0.000000 0.500000
vt 0.031250 0.700000
vt 0.000000 0.700000
vt 0.031250 0.800000
vt 0.000000 0.800000
vt 0.062500 0.500000
vt 0.062500 0.600000
vt 0.062500 0.700000
vt 0.062500 0.800000
vt 0.093750 0.500000
vt 0.093750 0.600000
vt 0.093750 0.700000
vt 0.093750 0.800000
vt 0.125000 0.500000
vt 0.125000 0.600000
vt 0.125000 0.700000
vt 0.125000 0.800000
vt 0.156250 0.500000
vt 0.156250 0.600000
vt 0.156250 0.700000
vt 0.156250 0.800000
vt 0.187500 0.500000
vt 0.187500 0.600000
vt 0.187500 0.700000
vt 0.187500 0.800000
vt 0.218750 0.500000
vt 0.218750 0.600000
vt 0.218750 0.700000
vt 0.218750 0.800000
vt 0.250000 0.500000
vt 0.250000 0.600000
vt 0.250000 0.700000
vt 0.281250 0.700000
vt 0.250000 0.800000
vt 0.281250 0.600000
vt 0.281250 0.500000
vt 0.281250 0.700000
vt 0.281250 0.800000
vt 0.312500 0.500000
vt 0.312500 0.600000
vt 0.312500 0.700000
vt 0.312500 0.800000
vt 0.343750 0.500000
vt 0.343750 0.600000
vt 0.343750 0.700000
vt 0.343750 0.800000
vt 0.375000 0.500000
vt 0.375000 0.600000
vt 0.375000 0.700000
vt 0.375000 0.800000
vt 0.406250 0.500000
vt 0.406250 0.600000
vt 0.406250 0.700000
vt 0.406250 0.800000
vt 0.437500 0.500000
vt 0.437500 0.600000
vt 0.437500 0.700000
vt 0.437500 0.800000
vt 0.468750 0.500000
vt 0.468750 0.600000
vt 0.468750 0.700000
vt 0.468750 0.800000
vt 0.500000 0.500000
vt 0.500000 0.600000
vt 0.500000 0.700000
vt 0.500000 0.800000
vt 0.531250 0.500000
vt 0.531250 0.600000
vt 0.531250 0.700000
vt 0.531250 0.800000
vt 0.562500 0.500000
vt 0.562500 0.600000
vt 0.562500 0.700000
vt 0.562500 0.800000
vt 0.593750 0.500000
vt 0.593750 0.600000
vt 0.593750 0.700000
vt 0.593750 0.800000
vt 0.625000 0.500000
vt 0.625000 0.600000
vt 0.625000 0.700000
vt 0.625000 0.800000
vt 0.656250 0.500000
vt 0.656250 0.600000
vt 0.656250 0.700000
vt 0.656250 0.800000
vt 0.687500 0.500000
vt 0.687500 0.600000
vt 0.687500 0.700000
vt 0.687500 0.800000
vt 0.718750 0.500000
vt 0.718750 0.600000
vt 0.718750 0.700000
vt 0.718750 0.800000
vt 0.750000 0.500000
vt 0.750000 0.600000
vt 0.750000 0.700000
vt 0.750000 0.800000
vt 0.781250 0.500000
vt 0.781250 0.600000
vt 0.781250 0.700000
vt 0.781250 0.800000
vt 0.812500 0.500000
vt 0.812500 0.600000
vt 0.812500 0.700000
vt 0.812500 0.800000
vt 0.843750 0.500000
vt 0.843750 0.600000
vt 0.843750 0.700000
vt 0.843750 0.800000
vt 0.875000 0.500000
vt 0.875000 0.600000
vt 0.875000 0.700000
vt 0.875000 0.800000
vt 0.906250 0.500000
vt 0.906250 0.600000
vt 0.906250 0.700000
vt 0.906250 0.800000
vt 0.937500 0.500000
vt 0.937500 0.600000
vt 0.937500 0.700000
vt 0.937500 0.800000
vt 0.968750 0.500000
vt 0.968750 0.600000
vt 0.968750 0.700000
vt 0.968750 0.800000
vt 1.000000 0.500000
vt 1.000000 0.600000
vt 1.000000 0.700000
vt 1.000000 0.800000
vt 0.218750 0.600000
s 0
usemtl cup
f 132/1/1 66/2/1 65/3/1 133/4/1
f 133/4/2 65/3/2 67/5/2 137/6/2
f 137/6/3 67/5/3 68/7/3 141/8/3
f 141/8/4 68/7/4 69/9/4 145/10/4
f 145/10/5 69/9/5 70/11/5 149/12/5
f 149/12/6 70/11/6 71/13/6 153/14/6
f 153/14/7 71/13/7 72/15/7 157/16/7
f 157/16/8 72/15/8 73/17/8 161/18/8
f 161/18/9 73/17/9 74/19/9 165/20/9
f 165/20/10 74/19/10 75/21/10 169/22/10
f 169/22/11 75/21/11 76/23/11 173/24/11
f 173/24/12 76/23/12 77/25/12 177/26/12
f 177/26/13 77/25/13 78/27/13 181/28/13
f 181/28/14 78/27/14 79/29/14 185/30/14
f 185/30/15 79/29/15 80/31/15 189/32/15
f 189/32/16 80/31/16 81/33/16 193/34/16
f 193/34/17 81/33/17 82/35/17 197/36/17
f 197/36/18 82/35/18 83/37/18 201/38/18
f 201/38/19 83/37/19 84/39/19 205/40/19
f 205/40/20 84/39/20 85/41/20 209/42/20
f 209/42/21 85/41/21 86/43/21 213/44/21
f 213/44/22 86/43/22 87/45/22 217/46/22
f 217/46/23 87/45/23 88/47/23 221/48/23
f 221/48/24 88/47/24 89/49/24 225/50/24
f 225/50/25 89/49/25 90/51/25 229/52/25
f 229/52/26 90/51/26 91/53/26 233/54/26
f 233/54/27 91/53/27 92/55/27 237/56/27
f 237/56/28 92/55/28 93/57/28 241/58/28
f 241/58/29 93/57/29 94/59/29 245/60/29
f 245/60/30 94/59/30 95/61/30 249/62/30
f 42/63/4 40/64/4 116/64/4 117/63/4
f 249/62/31 95/61/31 96/65/31 253/66/31
f 253/66/32 96/65/32 66/67/32 132/68/32
f 1/69/33 3/70/33 5/71/33 7/72/33 9/73/33 11/74/33 13/75/33 15/76/33 17/77/33 19/78/33 21/79/33 23/80/33 25/81/33 27/82/33 29/83/33 31/84/33 33/85/33 35/86/33 37/87/33 39/88/33 41/89/33 43/90/33 45/91/33 47/92/33 49/93/33 51/94/33 53/95/33 55/96/33 57/97/33 59/98/33 61/99/33 63/100/33
f 2/101/34 4/102/34 65/103/34 66/104/34
f 4/102/34 6/105/34 67/106/34 65/103/34
f 6/105/34 8/107/34 68/108/34 67/106/34
f 8/107/34 10/109/34 69/110/34 68/108/34
f 10/109/34 12/111/34 70/112/34 69/110/34
f 12/111/34 14/113/34 71/114/34 70/112/34
f 14/113/34 16/115/34 72/116/34 71/114/34
f 16/115/34 18/117/34 73/118/34 72/116/34
f 18/117/34 20/119/34 74/120/34 73/118/34
f 20/119/34 22/121/34 75/122/34 74/120/34
f 22/121/34 24/123/34 76/124/34 75/122/34
f 24/123/34 26/125/34 77/126/34 76/124/34
f 26/125/34 28/127/34 78/128/34 77/126/34
f 28/127/34 30/129/34 79/130/34 78/128/34
f 30/129/34 32/131/34 80/132/34 79/130/34
f 32/131/34 34/133/34 81/134/34 80/132/34
f 34/133/34 36/135/34 82/136/34 81/134/34
f 36/135/34 38/137/34 83/138/34 82/136/34
f 38/137/34 40/64/34 84/139/34 83/138/34
f 40/64/34 42/63/34 85/140/34 84/139/34
f 42/63/34 44/141/34 86/142/34 85/140/34
f 44/141/34 46/143/34 87/144/34 86/142/34
f 46/143/34 48/145/34 88/146/34 87/144/34
f 48/145/34 50/147/34 89/148/34 88/146/34
f 50/147/34 52/149/34 90/150/34 89/148/34
f 52/149/34 54/151/34 91/152/34 90/150/34
f 54/151/34 56/153/34 92/154/34 91/152/34
f 56/153/34 58/155/34 93/156/34 92/154/34
f 58/155/34 60/157/34 94/158/34 93/156/34
f 60/157/34 62/159/34 95/160/34 94/158/34
f 62/159/34 64/161/34 96/162/34 95/160/34
f 64/161/34 2/101/34 66/104/34 96/162/34
f 97/102/34 98/101/34 128/161/34 127/159/34 126/157/34 125/155/34 124/153/34 123/151/34 122/149/34 121/147/34 120/145/34 119/143/34 118/141/34 117/63/34 116/64/34 115/137/34 114/135/34 113/133/34 112/131/34 111/129/34 110/127/34 109/125/34 108/123/34 107/121/34 106/119/34 105/117/34 104/115/34 103/113/34 102/111/34 101/109/34 100/107/34 99/105/34
f 16/115/23 14/113/23 103/113/23 104/115/23
f 44/141/5 42/63/5 117/63/5 118/141/5
f 18/117/24 16/115/24 104/115/24 105/117/24
f 46/143/6 44/141/6 118/141/6 119/143/6
f 20/119/25 18/117/25 105/117/25 106/119/25
f 48/145/7 46/143/7 119/143/7 120/145/7
f 22/121/26 20/119/26 106/119/26 107/121/26
f 50/147/8 48/145/8 120/145/8 121/147/8
f 24/123/27 22/121/27 107/121/27 108/123/27
f 52/149/9 50/147/9 121/147/9 122/149/9
f 26/125/28 24/123/28 108/123/28 109/125/28
f 54/151/10 52/149/10 122/149/10 123/151/10
f 28/127/29 26/125/29 109/125/29 110/127/29
f 56/153/11 54/151/11 123/151/11 124/153/11
f 30/129/30 28/127/30 110/127/30 111/129/30
f 4/102/17 2/101/17 98/101/17 97/102/17
f 58/155/12 56/153/12 124/153/12 125/155/12
f 32/131/31 30/129/31 111/129/31 112/131/31
f 6/105/18 4/102/18 97/102/18 99/105/18
f 60/157/13 58/155/13 125/155/13 126/157/13
f 34/133/32 32/131/32 112/131/32 113/133/32
f 8/107/19 6/105/19 99/105/19 100/107/19
f 62/159/14 60/157/14 126/157/14 127/159/14
f 36/135/1 34/133/1 113/133/1 114/135/1
f 10/109/20 8/107/20 100/107/20 101/109/20
f 64/161/15 62/159/15 127/159/15 128/161/15
f 38/137/2 36/135/2 114/135/2 115/137/2
f 12/111/21 10/109/21 101/109/21 102/111/21
f 2/101/16 64/161/16 128/161/16 98/101/16
f 40/64/3 38/137/3 115/137/3 116/64/3
f 14/113/22 12/111/22 102/111/22 103/113/22
f 63/163/32 256/164/32 129/165/32 1/166/32
f 256/164/32 255/167/32 130/168/32 129/165/32
f 255/167/32 254/169/32 131/170/32 130/168/32
f 254/169/32 253/66/32 132/68/32 131/170/32
f 61/171/31 252/172/31 256/164/31 63/163/31
f 252/172/31 251/173/31 255/167/31 256/164/31
f 251/173/31 250/174/31 254/169/31 255/167/31
f 250/174/31 249/62/31 253/66/31 254/169/31
f 59/175/30 248/176/30 252/172/30 61/171/30
f 248/176/30 247/177/30 251/173/30 252/172/30
f 247/177/30 246/178/30 250/174/30 251/173/30
f 246/178/30 245/60/30 249/62/30 250/174/30
f 57/179/29 244/180/29 248/176/29 59/175/29
f 244/180/29 243/181/29 247/177/29 248/176/29
f 243/181/29 242/182/29 246/178/29 247/177/29
f 242/182/29 241/58/29 245/60/29 246/178/29
f 55/183/28 240/184/28 244/180/28 57/179/28
f 240/184/28 239/185/28 243/181/28 244/180/28
f 239/185/28 238/186/28 242/182/28 243/181/28
f 238/186/28 237/56/28 241/58/28 242/182/28
f 53/187/27 236/188/27 240/184/27 55/183/27
f 236/188/27 235/189/27 239/185/27 240/184/27
f 235/189/27 234/190/27 238/186/27 239/185/27
f 234/190/27 233/54/27 237/56/27 238/186/27
f 51/191/26 232/192/26 236/188/26 53/187/26
f 232/192/26 231/193/26 235/189/26 236/188/26
f 231/193/26 230/194/26 234/190/26 235/189/26
f 230/194/26 229/52/26 233/54/26 234/190/26
f 49/195/25 228/196/25 232/192/25 51/191/25
f 263/197/24 259/198/24 277/198/24 275/197/24
f 227/197/25 226/199/25 230/194/25 231/193/25
f 271/196/33 270/200/33 260/200/33 264/196/33
f 47/201/24 224/200/24 228/196/24 49/195/24
f 270/200/35 269/202/35 259/198/35 260/200/35
f 223/198/24 222/203/24 226/199/24 227/197/24
f 221/48/34 225/50/34 261/50/34 257/48/34
f 45/204/23 220/205/23 224/200/23 47/201/23
f 220/205/23 219/206/23 223/198/23 224/200/23
f 219/206/23 218/207/23 222/203/23 223/198/23
f 218/207/23 217/46/23 221/48/23 222/203/23
f 43/208/22 216/209/22 220/205/22 45/204/22
f 216/209/22 215/210/22 219/206/22 220/205/22
f 215/210/22 214/211/22 218/207/22 219/206/22
f 214/211/22 213/44/22 217/46/22 218/207/22
f 41/212/21 212/213/21 216/209/21 43/208/21
f 212/213/21 211/214/21 215/210/21 216/209/21
f 211/214/21 210/215/21 214/211/21 215/210/21
f 210/215/21 209/42/21 213/44/21 214/211/21
f 39/216/20 208/217/20 212/213/20 41/212/20
f 208/217/20 207/218/20 211/214/20 212/213/20
f 207/218/20 206/219/20 210/215/20 211/214/20
f 206/219/20 205/40/20 209/42/20 210/215/20
f 37/220/19 204/221/19 208/217/19 39/216/19
f 204/221/19 203/222/19 207/218/19 208/217/19
f 203/222/19 202/223/19 206/219/19 207/218/19
f 202/223/19 201/38/19 205/40/19 206/219/19
f 35/224/18 200/225/18 204/221/18 37/220/18
f 200/225/18 199/226/18 203/222/18 204/221/18
f 199/226/18 198/227/18 202/223/18 203/222/18
f 198/227/18 197/36/18 201/38/18 202/223/18
f 33/228/17 196/229/17 200/225/17 35/224/17
f 196/229/17 195/230/17 199/226/17 200/225/17
f 195/230/17 194/231/17 198/227/17 199/226/17
f 194/231/17 193/34/17 197/36/17 198/227/17
f 31/232/16 192/233/16 196/229/16 33/228/16
f 192/233/16 191/234/16 195/230/16 196/229/16
f 191/234/16 190/235/16 194/231/16 195/230/16
f 190/235/16 189/32/16 193/34/16 194/231/16
f 29/236/15 188/237/15 192/233/15 31/232/15
f 188/237/15 187/238/15 191/234/15 192/233/15
f 187/238/15 186/239/15 190/235/15 191/234/15
f 186/239/15 185/30/15 189/32/15 190/235/15
f 27/240/14 184/241/14 188/237/14 29/236/14
f 184/241/14 183/242/14 187/238/14 188/237/14
f 183/242/14 182/243/14 186/239/14 187/238/14
f 182/243/14 181/28/14 185/30/14 186/239/14
f 25/244/13 180/245/13 184/241/13 27/240/13
f 180/245/13 179/246/13 183/242/13 184/241/13
f 179/246/13 178/247/13 182/243/13 183/242/13
f 178/247/13 177/26/13 181/28/13 182/243/13
f 23/248/12 176/249/12 180/245/12 25/244/12
f 176/249/12 175/250/12 179/246/12 180/245/12
f 175/250/12 174/251/12 178/247/12 179/246/12
f 174/251/12 173/24/12 177/26/12 178/247/12
f 21/252/11 172/253/11 176/249/11 23/248/11
f 172/253/11 171/254/11 175/250/11 176/249/11
f 171/254/11 170/255/11 174/251/11 175/250/11
f 170/255/11 169/22/11 173/24/11 174/251/11
f 19/256/10 168/257/10 172/253/10 21/252/10
f 168/257/10 167/258/10 171/254/10 172/253/10
f 167/258/10 166/259/10 170/255/10 171/254/10
f 166/259/10 165/20/10 169/22/10 170/255/10
f 17/260/9 164/261/9 168/257/9 19/256/9
f 164/261/9 163/262/9 167/258/9 168/257/9
f 163/262/9 162/263/9 166/259/9 167/258/9
f 162/263/9 161/18/9 165/20/9 166/259/9
f 15/264/8 160/265/8 164/261/8 17/260/8
f 160/265/8 159/266/8 163/262/8 164/261/8
f 159/266/8 158/267/8 162/263/8 163/262/8
f 158/267/8 157/16/8 161/18/8 162/263/8
f 13/268/7 156/269/7 160/265/7 15/264/7
f 156/269/7 155/270/7 159/266/7 160/265/7
f 155/270/7 154/271/7 158/267/7 159/266/7
f 154/271/7 153/14/7 157/16/7 158/267/7
f 11/272/6 152/273/6 156/269/6 13/268/6
f 152/273/6 151/274/6 155/270/6 156/269/6
f 151/274/6 150/275/6 154/271/6 155/270/6
f 150/275/6 149/12/6 153/14/6 154/271/6
f 9/276/5 148/277/5 152/273/5 11/272/5
f 148/277/5 147/278/5 151/274/5 152/273/5
f 147/278/5 146/279/5 150/275/5 151/274/5
f 146/279/5 145/10/5 149/12/5 150/275/5
f 7/280/4 144/281/4 148/277/4 9/276/4
f 144/281/4 143/282/4 147/278/4 148/277/4
f 143/282/4 142/283/4 146/279/4 147/278/4
f 142/283/4 141/8/4 145/10/4 146/279/4
f 5/284/3 140/285/3 144/281/3 7/280/3
f 140/285/3 139/286/3 143/282/3 144/281/3
f 139/286/3 138/287/3 142/283/3 143/282/3
f 138/287/3 137/6/3 141/8/3 142/283/3
f 3/288/2 136/289/2 140/285/2 5/284/2
f 136/289/2 135/290/2 139/286/2 140/285/2
f 135/290/2 134/291/2 138/287/2 139/286/2
f 134/291/2 133/4/2 137/6/2 138/287/2
f 1/292/1 129/293/1 136/289/1 3/288/1
f 129/293/1 130/294/1 135/290/1 136/289/1
f 130/294/1 131/295/1 134/291/1 135/290/1
f 131/295/1 132/1/1 133/4/1 134/291/1
f 264/196/25 263/197/25 267/193/25 268/192/25
f 262/199/25 261/50/25 265/52/25 266/194/25
f 260/200/24 259/198/24 263/197/24 264/196/24
f 258/203/24 257/48/24 261/50/24 262/199/24
f 272/193/36 274/296/36 268/192/36 267/193/36
f 273/197/9 272/193/9 279/193/9 280/197/9
f 222/203/35 221/48/35 257/48/35 258/203/35
f 230/194/33 226/199/33 262/199/33 266/194/33
f 226/199/33 222/203/33 258/203/33 262/199/33
f 229/52/36 230/194/36 266/194/36 265/52/36
f 225/50/34 229/52/34 265/52/34 261/50/34
f 274/296/33 271/196/33 264/196/33 268/192/33
f 232/192/33 228/196/33 271/196/33 274/296/33
f 223/198/34 227/197/34 273/197/34 269/202/34
f 231/193/36 232/192/36 274/296/36 272/193/36
f 224/200/35 223/198/35 269/202/35 270/200/35
f 228/196/33 224/200/33 270/200/33 271/196/33
f 227/197/34 231/193/34 272/193/34 273/197/34
f 280/197/34 279/193/34 276/193/34 275/197/34
f 278/202/34 280/197/34 275/197/34 277/198/34
f 269/202/8 273/197/8 280/197/8 278/202/8
f 267/193/25 263/197/25 275/197/25 276/193/25
f 259/198/35 269/202/35 278/202/35 277/198/35
f 272/193/36 267/193/36 276/193/36 279/193/36
