# Blender 4.5.3 LTS
# www.blender.org
mtllib plate.mtl
o plate
v 0.904310 2.584414 -0.356543
v 0.904310 2.661651 -0.101466
v 1.099400 2.584414 -0.337329
v 1.049637 2.661651 -0.087152
v 1.286994 2.584414 -0.280423
v 1.189379 2.661651 -0.044762
v 1.459880 2.584414 -0.188013
v 1.318167 2.661651 0.024076
v 1.611417 2.584414 -0.063650
v 1.431050 2.661651 0.116717
v 1.735780 2.584414 0.087886
v 1.523690 2.661651 0.229600
v 1.828190 2.584414 0.260773
v 1.592528 2.661651 0.358387
v 1.885095 2.584414 0.448366
v 1.634919 2.661651 0.498129
v 1.904310 2.584414 0.643457
v 1.649232 2.661651 0.643457
v 1.885095 2.584414 0.838547
v 1.634919 2.661651 0.788784
v 1.828190 2.584414 1.026140
v 1.592528 2.661651 0.928526
v 1.735780 2.584414 1.199027
v 1.523690 2.661651 1.057313
v 1.611417 2.584414 1.350563
v 1.431050 2.661651 1.170196
v 1.459880 2.584414 1.474926
v 1.318167 2.661651 1.262837
v 1.286994 2.584414 1.567336
v 1.189379 2.661651 1.331675
v 1.099400 2.584414 1.624242
v 1.049637 2.661651 1.374065
v 0.904310 2.584414 1.643456
v 0.904310 2.661651 1.388379
v 0.709220 2.584414 1.624242
v 0.758983 2.661651 1.374065
v 0.521627 2.584414 1.567336
v 0.619241 2.661651 1.331675
v 0.348740 2.584414 1.474926
v 0.490453 2.661651 1.262837
v 0.197203 2.584414 1.350563
v 0.377571 2.661651 1.170196
v 0.072840 2.584414 1.199027
v 0.284930 2.661651 1.057313
v -0.019569 2.584414 1.026140
v 0.216092 2.661651 0.928526
v -0.076475 2.584414 0.838547
v 0.173701 2.661651 0.788784
v -0.095690 2.584414 0.643457
v 0.159388 2.661651 0.643457
v -0.076475 2.584414 0.448366
v 0.173701 2.661651 0.498129
v -0.019569 2.584414 0.260773
v 0.216092 2.661651 0.358387
v 0.072840 2.584414 0.087886
v 0.284930 2.661651 0.229600
v 0.197203 2.584414 -0.063650
v 0.377571 2.661651 0.116717
v 0.348740 2.584414 -0.188013
v 0.490453 2.661651 0.024076
v 0.521627 2.584414 -0.280423
v 0.619241 2.661651 -0.044762
v 0.709220 2.584414 -0.337329
v 0.758983 2.661651 -0.087152
v 1.099400 2.699183 -0.337329
v 0.904310 2.699183 -0.356543
v 1.286994 2.699183 -0.280423
v 1.459880 2.699183 -0.188013
v 1.611417 2.699183 -0.063650
v 1.735780 2.699183 0.087886
v 1.828190 2.699183 0.260773
v 1.885095 2.699183 0.448366
v 1.904310 2.699183 0.643457
v 1.885095 2.699183 0.838547
v 1.828190 2.699183 1.026140
v 1.735780 2.699183 1.199027
v 1.611417 2.699183 1.350563
v 1.459880 2.699183 1.474926
v 1.286994 2.699183 1.567336
v 1.099400 2.699183 1.624242
v 0.904310 2.699183 1.643456
v 0.709220 2.699183 1.624242
v 0.521627 2.699183 1.567336
v 0.348740 2.699183 1.474926
v 0.197203 2.699183 1.350563
v 0.072840 2.699183 1.199027
v -0.019569 2.699183 1.026140
v -0.076475 2.699183 0.838547
v -0.095690 2.699183 0.643457
v -0.076475 2.699183 0.448366
v -0.019569 2.699183 0.260773
v 0.072840 2.699183 0.087886
v 0.197203 2.699183 -0.063650
v 0.348740 2.699183 -0.188013
v 0.521627 2.699183 -0.280423
v 0.709220 2.699183 -0.337329
v 1.076211 2.699183 -0.220751
v 0.904310 2.699183 -0.237681
v 1.241507 2.699183 -0.170609
v 1.393844 2.699183 -0.089183
v 1.527369 2.699183 0.020398
v 1.636949 2.699183 0.153922
v 1.718375 2.699183 0.306260
v 1.768517 2.699183 0.471555
v 1.785448 2.699183 0.643457
v 1.768517 2.699183 0.815358
v 1.718375 2.699183 0.980653
v 1.636949 2.699183 1.132991
v 1.527369 2.699183 1.266515
v 1.393844 2.699183 1.376096
v 1.241507 2.699183 1.457522
v 1.076211 2.699183 1.507664
v 0.904310 2.699183 1.524594
v 0.732409 2.699183 1.507664
v 0.567113 2.699183 1.457522
v 0.414776 2.699183 1.376096
v 0.281251 2.699183 1.266515
v 0.171671 2.699183 1.132991
v 0.090245 2.699183 0.980653
v 0.040103 2.699183 0.815358
v 0.023172 2.699183 0.643457
v 0.040103 2.699183 0.471555
v 0.090245 2.699183 0.306260
v 0.171671 2.699183 0.153922
v 0.281251 2.699183 0.020398
v 0.414776 2.699183 -0.089183
v 0.567113 2.699183 -0.170609
v 0.732409 2.699183 -0.220751
vn 0.0980 -0.0000 -0.9952
vn 0.2903 -0.0000 -0.9569
vn 0.4714 -0.0000 -0.8819
vn 0.6344 -0.0000 -0.7730
vn 0.7730 -0.0000 -0.6344
vn 0.8819 -0.0000 -0.4714
vn 0.9569 -0.0000 -0.2903
vn 0.9952 -0.0000 -0.0980
vn 0.9952 -0.0000 0.0980
vn 0.9569 -0.0000 0.2903
vn 0.8819 -0.0000 0.4714
vn 0.7730 -0.0000 0.6344
vn 0.6344 -0.0000 0.7730
vn 0.4714 -0.0000 0.8819
vn 0.2903 -0.0000 0.9569
vn 0.0980 -0.0000 0.9952
vn -0.0980 -0.0000 0.9952
vn -0.2903 -0.0000 0.9569
vn -0.4714 -0.0000 0.8819
vn -0.6344 -0.0000 0.7730
vn -0.7730 -0.0000 0.6344
vn -0.8819 -0.0000 0.4714
vn -0.9569 -0.0000 0.2903
vn -0.9952 -0.0000 0.0980
vn -0.9952 -0.0000 -0.0980
vn -0.9569 -0.0000 -0.2903
vn -0.8819 -0.0000 -0.4714
vn -0.7730 -0.0000 -0.6344
vn -0.6344 -0.0000 -0.7730
vn -0.4714 -0.0000 -0.8819
vn -0.0000 1.0000 -0.0000
vn -0.2903 -0.0000 -0.9569
vn -0.0980 -0.0000 -0.9952
vn -0.0000 -1.0000 -0.0000
vn -0.0262 0.9637 0.2655
vn -0.0775 0.9637 0.2553
vn -0.1258 0.9637 0.2353
vn -0.1693 0.9637 0.2063
vn -0.2063 0.9637 0.1693
vn -0.2353 0.9637 0.1258
vn -0.2553 0.9637 0.0775
vn -0.2655 0.9637 0.0262
vn -0.2655 0.9637 -0.0262
vn -0.2553 0.9637 -0.0775
vn -0.2353 0.9637 -0.1258
vn -0.2063 0.9637 -0.1693
vn -0.1693 0.9637 -0.2063
vn -0.1258 0.9637 -0.2353
vn -0.0775 0.9637 -0.2553
vn -0.0262 0.9637 -0.2655
vn 0.0262 0.9637 -0.2655
vn 0.0775 0.9637 -0.2553
vn 0.1258 0.9637 -0.2353
vn 0.1693 0.9637 -0.2063
vn 0.2063 0.9637 -0.1693
vn 0.2353 0.9637 -0.1258
vn 0.2553 0.9637 -0.0775
vn 0.2655 0.9637 -0.0262
vn 0.2655 0.9637 0.0262
vn 0.2553 0.9637 0.0775
vn 0.2353 0.9637 0.1258
vn 0.2063 0.9637 0.1693
vn 0.1693 0.9637 0.2063
vn 0.1258 0.9637 0.2353
vn 0.0775 0.9637 0.2553
vn 0.0262 0.9637 0.2655
vt 1.000000 0.500000
vt 1.000000 1.000000
vt 0.968750 1.000000
vt 0.968750 0.500000
vt 0.937500 1.000000
vt 0.937500 0.500000
vt 0.906250 1.000000
vt 0.906250 0.500000
vt 0.875000 1.000000
vt 0.875000 0.500000
vt 0.843750 1.000000
vt 0.843750 0.500000
vt 0.812500 1.000000
vt 0.812500 0.500000
vt 0.781250 1.000000
vt 0.781250 0.500000
vt 0.750000 1.000000
vt 0.750000 0.500000
vt 0.718750 1.000000
vt 0.718750 0.500000
vt 0.687500 1.000000
vt 0.687500 0.500000
vt 0.656250 1.000000
vt 0.656250 0.500000
vt 0.625000 1.000000
vt 0.625000 0.500000
vt 0.593750 1.000000
vt 0.593750 0.500000
vt 0.562500 1.000000
vt 0.562500 0.500000
vt 0.531250 1.000000
vt 0.531250 0.500000
vt 0.500000 1.000000
vt 0.500000 0.500000
vt 0.468750 1.000000
vt 0.468750 0.500000
vt 0.437500 1.000000
vt 0.437500 0.500000
vt 0.406250 1.000000
vt 0.406250 0.500000
vt 0.375000 1.000000
vt 0.375000 0.500000
vt 0.343750 1.000000
vt 0.343750 0.500000
vt 0.312500 1.000000
vt 0.312500 0.500000
vt 0.281250 1.000000
vt 0.281250 0.500000
vt 0.250000 1.000000
vt 0.250000 0.500000
vt 0.218750 1.000000
vt 0.218750 0.500000
vt 0.187500 1.000000
vt 0.187500 0.500000
vt 0.156250 1.000000
vt 0.156250 0.500000
vt 0.125000 1.000000
vt 0.125000 0.500000
vt 0.093750 1.000000
vt 0.093750 0.500000
vt 0.062500 1.000000
vt 0.062500 0.500000
vt 0.284878 0.425346
vt 0.250000 0.428781
vt 0.215122 0.425346
vt 0.181583 0.415172
vt 0.150674 0.398651
vt 0.123583 0.376417
vt 0.101349 0.349326
vt 0.084828 0.318417
vt 0.074654 0.284878
vt 0.071219 0.250000
vt 0.074654 0.215122
vt 0.084828 0.181583
vt 0.101349 0.150674
vt 0.123583 0.123583
vt 0.150674 0.101349
vt 0.181583 0.084828
vt 0.215121 0.074654
vt 0.250000 0.071219
vt 0.284878 0.074654
vt 0.318417 0.084828
vt 0.349326 0.101349
vt 0.376418 0.123583
vt 0.398651 0.150674
vt 0.415172 0.181583
vt 0.425346 0.215122
vt 0.428781 0.250000
vt 0.425346 0.284879
vt 0.415172 0.318417
vt 0.398651 0.349326
vt 0.376418 0.376418
vt 0.349326 0.398651
vt 0.318417 0.415172
vt 0.031250 1.000000
vt 0.031250 0.500000
vt 0.000000 1.000000
vt 0.000000 0.500000
vt 0.750000 0.490000
vt 0.796822 0.485388
vt 0.841844 0.471731
vt 0.883337 0.449553
vt 0.919706 0.419706
vt 0.949553 0.383337
vt 0.971731 0.341844
vt 0.985388 0.296822
vt 0.990000 0.250000
vt 0.985388 0.203178
vt 0.971731 0.158156
vt 0.949553 0.116663
vt 0.919706 0.080294
vt 0.883337 0.050447
vt 0.841844 0.028269
vt 0.796822 0.014612
vt 0.750000 0.010000
vt 0.703178 0.014612
vt 0.658156 0.028269
vt 0.616663 0.050447
vt 0.580294 0.080294
vt 0.550447 0.116663
vt 0.528269 0.158156
vt 0.514612 0.203178
vt 0.510000 0.250000
vt 0.514612 0.296822
vt 0.528269 0.341844
vt 0.550447 0.383337
vt 0.580294 0.419706
vt 0.616663 0.449553
vt 0.658156 0.471731
vt 0.703178 0.485388
vt 0.250000 0.461473
vt 0.291256 0.457410
vt 0.296822 0.485388
vt 0.250000 0.490000
vt 0.330927 0.445376
vt 0.341844 0.471731
vt 0.367488 0.425833
vt 0.383337 0.449553
vt 0.399534 0.399534
vt 0.419706 0.419706
vt 0.425833 0.367488
vt 0.449553 0.383337
vt 0.445376 0.330927
vt 0.471731 0.341844
vt 0.457410 0.291256
vt 0.485388 0.296822
vt 0.461473 0.250000
vt 0.490000 0.250000
vt 0.457410 0.208744
vt 0.485388 0.203178
vt 0.445376 0.169073
vt 0.471731 0.158156
vt 0.425833 0.132512
vt 0.449553 0.116663
vt 0.399534 0.100466
vt 0.419706 0.080294
vt 0.367488 0.074167
vt 0.383337 0.050447
vt 0.330927 0.054624
vt 0.341844 0.028269
vt 0.291256 0.042590
vt 0.296822 0.014612
vt 0.250000 0.038527
vt 0.250000 0.010000
vt 0.208744 0.042590
vt 0.203178 0.014612
vt 0.169073 0.054624
vt 0.158156 0.028269
vt 0.132512 0.074167
vt 0.116663 0.050447
vt 0.100466 0.100466
vt 0.080294 0.080294
vt 0.074167 0.132512
vt 0.050447 0.116663
vt 0.054624 0.169073
vt 0.028269 0.158156
vt 0.042590 0.208744
vt 0.014612 0.203178
vt 0.038527 0.250000
vt 0.010000 0.250000
vt 0.042590 0.291256
vt 0.014612 0.296822
vt 0.054624 0.330927
vt 0.028269 0.341844
vt 0.074167 0.367488
vt 0.050447 0.383337
vt 0.100466 0.399534
vt 0.080294 0.419706
vt 0.132512 0.425833
vt 0.116663 0.449553
vt 0.169073 0.445376
vt 0.158156 0.471731
vt 0.208744 0.457410
vt 0.203178 0.485388
s 0
f 1/1/1 66/2/1 65/3/1 3/4/1
f 3/4/2 65/3/2 67/5/2 5/6/2
f 5/6/3 67/5/3 68/7/3 7/8/3
f 7/8/4 68/7/4 69/9/4 9/10/4
f 9/10/5 69/9/5 70/11/5 11/12/5
f 11/12/6 70/11/6 71/13/6 13/14/6
f 13/14/7 71/13/7 72/15/7 15/16/7
f 15/16/8 72/15/8 73/17/8 17/18/8
f 17/18/9 73/17/9 74/19/9 19/20/9
f 19/20/10 74/19/10 75/21/10 21/22/10
f 21/22/11 75/21/11 76/23/11 23/24/11
f 23/24/12 76/23/12 77/25/12 25/26/12
f 25/26/13 77/25/13 78/27/13 27/28/13
f 27/28/14 78/27/14 79/29/14 29/30/14
f 29/30/15 79/29/15 80/31/15 31/32/15
f 31/32/16 80/31/16 81/33/16 33/34/16
f 33/34/17 81/33/17 82/35/17 35/36/17
f 35/36/18 82/35/18 83/37/18 37/38/18
f 37/38/19 83/37/19 84/39/19 39/40/19
f 39/40/20 84/39/20 85/41/20 41/42/20
f 41/42/21 85/41/21 86/43/21 43/44/21
f 43/44/22 86/43/22 87/45/22 45/46/22
f 45/46/23 87/45/23 88/47/23 47/48/23
f 47/48/24 88/47/24 89/49/24 49/50/24
f 49/50/25 89/49/25 90/51/25 51/52/25
f 51/52/26 90/51/26 91/53/26 53/54/26
f 53/54/27 91/53/27 92/55/27 55/56/27
f 55/56/28 92/55/28 93/57/28 57/58/28
f 57/58/29 93/57/29 94/59/29 59/60/29
f 59/60/30 94/59/30 95/61/30 61/62/30
f 4/63/31 2/64/31 64/65/31 62/66/31 60/67/31 58/68/31 56/69/31 54/70/31 52/71/31 50/72/31 48/73/31 46/74/31 44/75/31 42/76/31 40/77/31 38/78/31 36/79/31 34/80/31 32/81/31 30/82/31 28/83/31 26/84/31 24/85/31 22/86/31 20/87/31 18/88/31 16/89/31 14/90/31 12/91/31 10/92/31 8/93/31 6/94/31
f 61/62/32 95/61/32 96/95/32 63/96/32
f 63/96/33 96/95/33 66/97/33 1/98/33
f 1/99/34 3/100/34 5/101/34 7/102/34 9/103/34 11/104/34 13/105/34 15/106/34 17/107/34 19/108/34 21/109/34 23/110/34 25/111/34 27/112/34 29/113/34 31/114/34 33/115/34 35/116/34 37/117/34 39/118/34 41/119/34 43/120/34 45/121/34 47/122/34 49/123/34 51/124/34 53/125/34 55/126/34 57/127/34 59/128/34 61/129/34 63/130/34
f 98/131/31 97/132/31 65/133/31 66/134/31
f 97/132/31 99/135/31 67/136/31 65/133/31
f 99/135/31 100/137/31 68/138/31 67/136/31
f 100/137/31 101/139/31 69/140/31 68/138/31
f 101/139/31 102/141/31 70/142/31 69/140/31
f 102/141/31 103/143/31 71/144/31 70/142/31
f 103/143/31 104/145/31 72/146/31 71/144/31
f 104/145/31 105/147/31 73/148/31 72/146/31
f 105/147/31 106/149/31 74/150/31 73/148/31
f 106/149/31 107/151/31 75/152/31 74/150/31
f 107/151/31 108/153/31 76/154/31 75/152/31
f 108/153/31 109/155/31 77/156/31 76/154/31
f 109/155/31 110/157/31 78/158/31 77/156/31
f 110/157/31 111/159/31 79/160/31 78/158/31
f 111/159/31 112/161/31 80/162/31 79/160/31
f 112/161/31 113/163/31 81/164/31 80/162/31
f 113/163/31 114/165/31 82/166/31 81/164/31
f 114/165/31 115/167/31 83/168/31 82/166/31
f 115/167/31 116/169/31 84/170/31 83/168/31
f 116/169/31 117/171/31 85/172/31 84/170/31
f 117/171/31 118/173/31 86/174/31 85/172/31
f 118/173/31 119/175/31 87/176/31 86/174/31
f 119/175/31 120/177/31 88/178/31 87/176/31
f 120/177/31 121/179/31 89/180/31 88/178/31
f 121/179/31 122/181/31 90/182/31 89/180/31
f 122/181/31 123/183/31 91/184/31 90/182/31
f 123/183/31 124/185/31 92/186/31 91/184/31
f 124/185/31 125/187/31 93/188/31 92/186/31
f 125/187/31 126/189/31 94/190/31 93/188/31
f 126/189/31 127/191/31 95/192/31 94/190/31
f 127/191/31 128/193/31 96/194/31 95/192/31
f 128/193/31 98/131/31 66/134/31 96/194/31
f 2/64/35 4/63/35 97/132/35 98/131/35
f 4/63/36 6/94/36 99/135/36 97/132/36
f 6/94/37 8/93/37 100/137/37 99/135/37
f 8/93/38 10/92/38 101/139/38 100/137/38
f 10/92/39 12/91/39 102/141/39 101/139/39
f 12/91/40 14/90/40 103/143/40 102/141/40
f 14/90/41 16/89/41 104/145/41 103/143/41
f 16/89/42 18/88/42 105/147/42 104/145/42
f 18/88/43 20/87/43 106/149/43 105/147/43
f 20/87/44 22/86/44 107/151/44 106/149/44
f 22/86/45 24/85/45 108/153/45 107/151/45
f 24/85/46 26/84/46 109/155/46 108/153/46
f 26/84/47 28/83/47 110/157/47 109/155/47
f 28/83/48 30/82/48 111/159/48 110/157/48
f 30/82/49 32/81/49 112/161/49 111/159/49
f 32/81/50 34/80/50 113/163/50 112/161/50
f 34/80/51 36/79/51 114/165/51 113/163/51
f 36/79/52 38/78/52 115/167/52 114/165/52
f 38/78/53 40/77/53 116/169/53 115/167/53
f 40/77/54 42/76/54 117/171/54 116/169/54
f 42/76/55 44/75/55 118/173/55 117/171/55
f 44/75/56 46/74/56 119/175/56 118/173/56
f 46/74/57 48/73/57 120/177/57 119/175/57
f 48/73/58 50/72/58 121/179/58 120/177/58
f 50/72/59 52/71/59 122/181/59 121/179/59
f 52/71/60 54/70/60 123/183/60 122/181/60
f 54/70/61 56/69/61 124/185/61 123/183/61
f 56/69/62 58/68/62 125/187/62 124/185/62
f 58/68/63 60/67/63 126/189/63 125/187/63
f 60/67/64 62/66/64 127/191/64 126/189/64
f 62/66/65 64/65/65 128/193/65 127/191/65
f 64/65/66 2/64/66 98/131/66 128/193/66
