# Blender 4.5.3 LTS
# www.blender.org
mtllib Rapture_basin.mtl
o basin
v -1.000000 -3.292640 1.000000
v -1.000000 3.292640 1.000000
v -1.000000 -3.292640 -1.000000
v -1.000000 3.292640 -1.000000
v 1.000000 -3.292640 1.000000
v 1.000000 3.292640 1.000000
v 1.000000 -3.292640 -1.000000
v 1.000000 3.292640 -1.000000
v -1.293242 -3.031930 -2.061766
v -1.293242 4.235145 -2.061766
v -1.158262 -3.031930 -2.048471
v -1.158262 4.235145 -2.048471
v -1.028470 -3.031930 -2.009099
v -1.028470 4.235145 -2.009099
v -0.908852 -3.031930 -1.945162
v -0.908852 4.235145 -1.945162
v -0.804006 -3.031930 -1.859117
v -0.804006 4.235145 -1.859117
v -0.717961 -3.031930 -1.754272
v -0.717961 4.235145 -1.754272
v -0.654025 -3.031930 -1.634654
v -0.654025 4.235145 -1.634654
v -0.614652 -3.031930 -1.504861
v -0.614652 4.235145 -1.504861
v -0.601358 -3.031930 -1.369881
v -0.601358 4.235145 -1.369881
v -0.614652 -3.031930 -1.234901
v -0.614652 4.235145 -1.234901
v -0.654025 -3.031930 -1.105108
v -0.654025 4.235145 -1.105108
v -0.717961 -3.031930 -0.985491
v -0.717961 4.235145 -0.985491
v -0.804006 -3.031930 -0.880645
v -0.804006 4.235145 -0.880645
v -0.908852 -3.031930 -0.794600
v -0.908852 4.235145 -0.794600
v -1.028470 -3.031930 -0.730663
v -1.028470 4.235145 -0.730663
v -1.158262 -3.031930 -0.691291
v -1.158262 4.235145 -0.691291
v -1.293242 -3.031930 -0.677997
v -1.293242 4.235145 -0.677997
v -1.428222 -3.031930 -0.691291
v -1.428222 4.235145 -0.691291
v -1.558015 -3.031930 -0.730663
v -1.558015 4.235145 -0.730663
v -1.677633 -3.031930 -0.794600
v -1.677633 4.235145 -0.794600
v -1.782479 -3.031930 -0.880645
v -1.782479 4.235145 -0.880645
v -1.868523 -3.031930 -0.985491
v -1.868523 4.235145 -0.985491
v -1.932460 -3.031930 -1.105108
v -1.932460 4.235145 -1.105108
v -1.971833 -3.031930 -1.234901
v -1.971833 4.235145 -1.234901
v -1.985127 -3.031930 -1.369881
v -1.985127 4.235145 -1.369881
v -1.971833 -3.031930 -1.504861
v -1.971833 4.235145 -1.504861
v -1.932460 -3.031930 -1.634654
v -1.932460 4.235145 -1.634654
v -1.868523 -3.031930 -1.754272
v -1.868523 4.235145 -1.754272
v -1.782479 -3.031930 -1.859117
v -1.782479 4.235145 -1.859117
v -1.677633 -3.031930 -1.945162
v -1.677633 4.235145 -1.945162
v -1.558015 -3.031930 -2.009099
v -1.558015 4.235145 -2.009099
v -1.428222 -3.031930 -2.048471
v -1.428222 4.235145 -2.048471
v 1.293242 -3.031930 -2.061766
v 1.293242 4.235145 -2.061766
v 1.158262 -3.031930 -2.048471
v 1.158262 4.235145 -2.048471
v 1.028470 -3.031930 -2.009099
v 1.028470 4.235145 -2.009099
v 0.908852 -3.031930 -1.945162
v 0.908852 4.235145 -1.945162
v 0.804006 -3.031930 -1.859117
v 0.804006 4.235145 -1.859117
v 0.717962 -3.031930 -1.754272
v 0.717962 4.235145 -1.754272
v 0.654024 -3.031930 -1.634654
v 0.654024 4.235145 -1.634654
v 0.614652 -3.031930 -1.504861
v 0.614652 4.235145 -1.504861
v 0.601358 -3.031930 -1.369881
v 0.601358 4.235145 -1.369881
v 0.614652 -3.031930 -1.234901
v 0.614652 4.235145 -1.234901
v 0.654024 -3.031930 -1.105108
v 0.654024 4.235145 -1.105108
v 0.717962 -3.031930 -0.985491
v 0.717962 4.235145 -0.985491
v 0.804006 -3.031930 -0.880645
v 0.804006 4.235145 -0.880645
v 0.908852 -3.031930 -0.794600
v 0.908852 4.235145 -0.794600
v 1.028470 -3.031930 -0.730663
v 1.028470 4.235145 -0.730663
v 1.158262 -3.031930 -0.691291
v 1.158262 4.235145 -0.691291
v 1.293242 -3.031930 -0.677997
v 1.293242 4.235145 -0.677997
v 1.428222 -3.031930 -0.691291
v 1.428222 4.235145 -0.691291
v 1.558015 -3.031930 -0.730663
v 1.558015 4.235145 -0.730663
v 1.677633 -3.031930 -0.794600
v 1.677633 4.235145 -0.794600
v 1.782479 -3.031930 -0.880645
v 1.782479 4.235145 -0.880645
v 1.868523 -3.031930 -0.985491
v 1.868523 4.235145 -0.985491
v 1.932460 -3.031930 -1.105108
v 1.932460 4.235145 -1.105108
v 1.971833 -3.031930 -1.234901
v 1.971833 4.235145 -1.234901
v 1.985127 -3.031930 -1.369881
v 1.985127 4.235145 -1.369881
v 1.971833 -3.031930 -1.504861
v 1.971833 4.235145 -1.504861
v 1.932460 -3.031930 -1.634654
v 1.932460 4.235145 -1.634654
v 1.868523 -3.031930 -1.754272
v 1.868523 4.235145 -1.754272
v 1.782479 -3.031930 -1.859117
v 1.782479 4.235145 -1.859117
v 1.677633 -3.031930 -1.945162
v 1.677633 4.235145 -1.945162
v 1.558015 -3.031930 -2.009099
v 1.558015 4.235145 -2.009099
v 1.428222 -3.031930 -2.048471
v 1.428222 4.235145 -2.048471
v -1.293242 -3.031930 2.061766
v -1.293242 4.235145 2.061766
v -1.158262 -3.031930 2.048471
v -1.158262 4.235145 2.048471
v -1.028470 -3.031930 2.009099
v -1.028470 4.235145 2.009099
v -0.908852 -3.031930 1.945162
v -0.908852 4.235145 1.945162
v -0.804006 -3.031930 1.859117
v -0.804006 4.235145 1.859117
v -0.717961 -3.031930 1.754272
v -0.717961 4.235145 1.754272
v -0.654025 -3.031930 1.634654
v -0.654025 4.235145 1.634654
v -0.614652 -3.031930 1.504861
v -0.614652 4.235145 1.504861
v -0.601358 -3.031930 1.369881
v -0.601358 4.235145 1.369881
v -0.614652 -3.031930 1.234901
v -0.614652 4.235145 1.234901
v -0.654025 -3.031930 1.105108
v -0.654025 4.235145 1.105108
v -0.717961 -3.031930 0.985491
v -0.717961 4.235145 0.985491
v -0.804006 -3.031930 0.880645
v -0.804006 4.235145 0.880645
v -0.908852 -3.031930 0.794600
v -0.908852 4.235145 0.794600
v -1.028470 -3.031930 0.730663
v -1.028470 4.235145 0.730663
v -1.158262 -3.031930 0.691291
v -1.158262 4.235145 0.691291
v -1.293242 -3.031930 0.677997
v -1.293242 4.235145 0.677997
v -1.428222 -3.031930 0.691291
v -1.428222 4.235145 0.691291
v -1.558015 -3.031930 0.730663
v -1.558015 4.235145 0.730663
v -1.677633 -3.031930 0.794600
v -1.677633 4.235145 0.794600
v -1.782479 -3.031930 0.880645
v -1.782479 4.235145 0.880645
v -1.868523 -3.031930 0.985491
v -1.868523 4.235145 0.985491
v -1.932460 -3.031930 1.105108
v -1.932460 4.235145 1.105108
v -1.971833 -3.031930 1.234901
v -1.971833 4.235145 1.234901
v -1.985127 -3.031930 1.369881
v -1.985127 4.235145 1.369881
v -1.971833 -3.031930 1.504861
v -1.971833 4.235145 1.504861
v -1.932460 -3.031930 1.634654
v -1.932460 4.235145 1.634654
v -1.868523 -3.031930 1.754272
v -1.868523 4.235145 1.754272
v -1.782479 -3.031930 1.859117
v -1.782479 4.235145 1.859117
v -1.677633 -3.031930 1.945162
v -1.677633 4.235145 1.945162
v -1.558015 -3.031930 2.009099
v -1.558015 4.235145 2.009099
v -1.428222 -3.031930 2.048471
v -1.428222 4.235145 2.048471
v 1.293242 -3.031930 2.061766
v 1.293242 4.235145 2.061766
v 1.158262 -3.031930 2.048471
v 1.158262 4.235145 2.048471
v 1.028470 -3.031930 2.009099
v 1.028470 4.235145 2.009099
v 0.908852 -3.031930 1.945162
v 0.908852 4.235145 1.945162
v 0.804006 -3.031930 1.859117
v 0.804006 4.235145 1.859117
v 0.717962 -3.031930 1.754272
v 0.717962 4.235145 1.754272
v 0.654024 -3.031930 1.634654
v 0.654024 4.235145 1.634654
v 0.614652 -3.031930 1.504861
v 0.614652 4.235145 1.504861
v 0.601358 -3.031930 1.369881
v 0.601358 4.235145 1.369881
v 0.614652 -3.031930 1.234901
v 0.614652 4.235145 1.234901
v 0.654024 -3.031930 1.105108
v 0.654024 4.235145 1.105108
v 0.717962 -3.031930 0.985491
v 0.717962 4.235145 0.985491
v 0.804006 -3.031930 0.880645
v 0.804006 4.235145 0.880645
v 0.908852 -3.031930 0.794600
v 0.908852 4.235145 0.794600
v 1.028470 -3.031930 0.730663
v 1.028470 4.235145 0.730663
v 1.158262 -3.031930 0.691291
v 1.158262 4.235145 0.691291
v 1.293242 -3.031930 0.677997
v 1.293242 4.235145 0.677997
v 1.428222 -3.031930 0.691291
v 1.428222 4.235145 0.691291
v 1.558015 -3.031930 0.730663
v 1.558015 4.235145 0.730663
v 1.677633 -3.031930 0.794600
v 1.677633 4.235145 0.794600
v 1.782479 -3.031930 0.880645
v 1.782479 4.235145 0.880645
v 1.868523 -3.031930 0.985491
v 1.868523 4.235145 0.985491
v 1.932460 -3.031930 1.105108
v 1.932460 4.235145 1.105108
v 1.971833 -3.031930 1.234901
v 1.971833 4.235145 1.234901
v 1.985127 -3.031930 1.369881
v 1.985127 4.235145 1.369881
v 1.971833 -3.031930 1.504861
v 1.971833 4.235145 1.504861
v 1.932460 -3.031930 1.634654
v 1.932460 4.235145 1.634654
v 1.868523 -3.031930 1.754272
v 1.868523 4.235145 1.754272
v 1.782479 -3.031930 1.859117
v 1.782479 4.235145 1.859117
v 1.677633 -3.031930 1.945162
v 1.677633 4.235145 1.945162
v 1.558015 -3.031930 2.009099
v 1.558015 4.235145 2.009099
v 1.428222 -3.031930 2.048471
v 1.428222 4.235145 2.048471
v -2.253175 3.131612 2.253175
v -1.357791 5.092418 1.357791
v -2.253175 3.131612 -2.253175
v -1.357791 5.092418 -1.357791
v 2.253175 3.131612 2.253175
v 1.357791 5.092418 1.357791
v 2.253175 3.131612 -2.253175
v 1.357791 5.092418 -1.357791
v -2.253175 5.099078 2.253175
v -2.253175 5.099078 -2.253175
v 2.253175 5.099078 -2.253175
v 2.253175 5.099078 2.253175
v -1.774039 5.092418 0.734831
v -1.920206 5.092418 0.000000
v -1.774039 5.092418 -0.734831
v -0.734831 5.092418 -1.774039
v -0.000000 5.092418 -1.920206
v 0.734831 5.092418 -1.774039
v 1.774039 5.092418 -0.734831
v 1.920206 5.092418 -0.000000
v 1.774039 5.092418 0.734831
v 0.734831 5.092418 1.774039
v 0.000000 5.092418 1.920206
v -0.734831 5.092418 1.774039
v 0.825845 4.561442 -0.825845
v 0.825845 4.197443 0.000000
v 0.825845 4.561442 0.825845
v 0.000000 4.197443 -0.825845
v 0.000000 3.666309 0.000000
v 0.000000 4.197443 0.825845
v -0.825845 4.561442 -0.825845
v -0.825845 4.197443 0.000000
v -0.825845 4.561442 0.825845
vn -1.0000 -0.0000 -0.0000
vn -0.0000 -0.0000 -1.0000
vn 1.0000 -0.0000 -0.0000
vn -0.0000 -0.0000 1.0000
vn -0.0000 -1.0000 -0.0000
vn -0.0000 1.0000 -0.0000
vn 0.0980 -0.0000 -0.9952
vn 0.2903 -0.0000 -0.9569
vn 0.4714 -0.0000 -0.8819
vn 0.6344 -0.0000 -0.7730
vn 0.7730 -0.0000 -0.6344
vn 0.8819 -0.0000 -0.4714
vn 0.9569 -0.0000 -0.2903
vn 0.9952 -0.0000 -0.0980
vn 0.9952 -0.0000 0.0980
vn 0.9569 -0.0000 0.2903
vn 0.8819 -0.0000 0.4714
vn 0.7730 -0.0000 0.6344
vn 0.6344 -0.0000 0.7730
vn 0.4714 -0.0000 0.8819
vn 0.2903 -0.0000 0.9569
vn 0.0980 -0.0000 0.9952
vn -0.0980 -0.0000 0.9952
vn -0.2903 -0.0000 0.9569
vn -0.4714 -0.0000 0.8819
vn -0.6344 -0.0000 0.7730
vn -0.7730 -0.0000 0.6344
vn -0.8819 -0.0000 0.4714
vn -0.9569 -0.0000 0.2903
vn -0.9952 -0.0000 0.0980
vn -0.9952 -0.0000 -0.0980
vn -0.9569 -0.0000 -0.2903
vn -0.8819 -0.0000 -0.4714
vn -0.7730 -0.0000 -0.6344
vn -0.6344 -0.0000 -0.7730
vn -0.4714 -0.0000 -0.8819
vn -0.2903 -0.0000 -0.9569
vn -0.0980 -0.0000 -0.9952
vn 0.4078 0.8170 -0.4078
vn 0.0107 0.9999 -0.0000
vn -0.0000 0.9999 0.0107
vn -0.0107 0.9999 -0.0000
vn -0.0000 0.9999 -0.0107
vn -0.4078 0.8170 -0.4078
vn -0.2374 0.7915 -0.5632
vn 0.2374 0.7915 -0.5632
vn -0.4078 0.8170 0.4078
vn -0.5632 0.7915 0.2374
vn -0.5632 0.7915 -0.2374
vn -0.2374 0.7915 0.5632
vn -0.4301 0.7937 0.4301
vn -0.4301 0.7937 -0.4301
vn 0.2374 0.7915 0.5632
vn 0.4301 0.7937 0.4301
vn 0.4301 0.7937 -0.4301
vn 0.4078 0.8170 0.4078
vn 0.5632 0.7915 0.2374
vn 0.5632 0.7915 -0.2374
vt 0.375000 0.000000
vt 0.625000 0.000000
vt 0.625000 0.250000
vt 0.375000 0.250000
vt 0.625000 0.500000
vt 0.375000 0.500000
vt 0.625000 0.750000
vt 0.375000 0.750000
vt 0.625000 1.000000
vt 0.375000 1.000000
vt 0.125000 0.500000
vt 0.125000 0.750000
vt 0.875000 0.500000
vt 0.875000 0.750000
vt 1.000000 0.500000
vt 1.000000 1.000000
vt 0.968750 1.000000
vt 0.968750 0.500000
vt 0.937500 1.000000
vt 0.937500 0.500000
vt 0.906250 1.000000
vt 0.906250 0.500000
vt 0.875000 1.000000
vt 0.843750 1.000000
vt 0.843750 0.500000
vt 0.812500 1.000000
vt 0.812500 0.500000
vt 0.781250 1.000000
vt 0.781250 0.500000
vt 0.750000 1.000000
vt 0.750000 0.500000
vt 0.718750 1.000000
vt 0.718750 0.500000
vt 0.687500 1.000000
vt 0.687500 0.500000
vt 0.656250 1.000000
vt 0.656250 0.500000
vt 0.593750 1.000000
vt 0.593750 0.500000
vt 0.562500 1.000000
vt 0.562500 0.500000
vt 0.531250 1.000000
vt 0.531250 0.500000
vt 0.500000 1.000000
vt 0.500000 0.500000
vt 0.468750 1.000000
vt 0.468750 0.500000
vt 0.437500 1.000000
vt 0.437500 0.500000
vt 0.406250 1.000000
vt 0.406250 0.500000
vt 0.343750 1.000000
vt 0.343750 0.500000
vt 0.312500 1.000000
vt 0.312500 0.500000
vt 0.281250 1.000000
vt 0.281250 0.500000
vt 0.250000 1.000000
vt 0.250000 0.500000
vt 0.218750 1.000000
vt 0.218750 0.500000
vt 0.187500 1.000000
vt 0.187500 0.500000
vt 0.156250 1.000000
vt 0.156250 0.500000
vt 0.125000 1.000000
vt 0.093750 1.000000
vt 0.093750 0.500000
vt 0.062500 1.000000
vt 0.062500 0.500000
vt 0.296822 0.485388
vt 0.250000 0.490000
vt 0.203178 0.485388
vt 0.158156 0.471731
vt 0.116663 0.449553
vt 0.080294 0.419706
vt 0.050447 0.383337
vt 0.028269 0.341844
vt 0.014612 0.296822
vt 0.010000 0.250000
vt 0.014612 0.203178
vt 0.028269 0.158156
vt 0.050447 0.116663
vt 0.080294 0.080294
vt 0.116663 0.050447
vt 0.158156 0.028269
vt 0.203178 0.014612
vt 0.250000 0.010000
vt 0.296822 0.014612
vt 0.341844 0.028269
vt 0.383337 0.050447
vt 0.419706 0.080294
vt 0.449553 0.116663
vt 0.471731 0.158156
vt 0.485388 0.203178
vt 0.490000 0.250000
vt 0.485388 0.296822
vt 0.471731 0.341844
vt 0.449553 0.383337
vt 0.419706 0.419706
vt 0.383337 0.449553
vt 0.341844 0.471731
vt 0.031250 1.000000
vt 0.031250 0.500000
vt 0.000000 1.000000
vt 0.000000 0.500000
vt 0.750000 0.490000
vt 0.796822 0.485388
vt 0.841844 0.471731
vt 0.883337 0.449553
vt 0.919706 0.419706
vt 0.949553 0.383337
vt 0.971731 0.341844
vt 0.985388 0.296822
vt 0.990000 0.250000
vt 0.985388 0.203178
vt 0.971731 0.158156
vt 0.949553 0.116663
vt 0.919706 0.080294
vt 0.883337 0.050447
vt 0.841844 0.028269
vt 0.796822 0.014612
vt 0.750000 0.010000
vt 0.703178 0.014612
vt 0.658156 0.028269
vt 0.616663 0.050447
vt 0.580294 0.080294
vt 0.550447 0.116663
vt 0.528269 0.158156
vt 0.514612 0.203178
vt 0.510000 0.250000
vt 0.514612 0.296822
vt 0.528269 0.341844
vt 0.550447 0.383337
vt 0.580294 0.419706
vt 0.616663 0.449553
vt 0.658156 0.471731
vt 0.703178 0.485388
vt 0.795816 0.670816
vt 0.841631 0.670816
vt 0.841631 0.716631
vt 0.795816 0.716631
vt 0.841631 0.625000
vt 0.841631 0.579184
vt 0.841631 0.533369
vt 0.795816 0.533369
vt 0.750000 0.533369
vt 0.704184 0.533369
vt 0.658369 0.533369
vt 0.658369 0.579184
vt 0.658369 0.625000
vt 0.658369 0.670816
vt 0.658369 0.716631
vt 0.704184 0.716631
vt 0.750000 0.716631
vt 0.704184 0.670816
vt 0.750000 0.670816
vt 0.704184 0.579184
vt 0.704184 0.625000
vt 0.750000 0.579184
vt 0.750000 0.625000
vt 0.795816 0.579184
vt 0.795816 0.625000
s 0
usemtl basin
f 1/1/1 2/2/1 4/3/1 3/4/1
f 3/4/2 4/3/2 8/5/2 7/6/2
f 7/6/3 8/5/3 6/7/3 5/8/3
f 5/8/4 6/7/4 2/9/4 1/10/4
f 3/11/5 7/6/5 5/8/5 1/12/5
f 8/5/6 4/13/6 2/14/6 6/7/6
f 9/15/7 10/16/7 12/17/7 11/18/7
f 11/18/8 12/17/8 14/19/8 13/20/8
f 13/20/9 14/19/9 16/21/9 15/22/9
f 15/22/10 16/21/10 18/23/10 17/13/10
f 17/13/11 18/23/11 20/24/11 19/25/11
f 19/25/12 20/24/12 22/26/12 21/27/12
f 21/27/13 22/26/13 24/28/13 23/29/13
f 23/29/14 24/28/14 26/30/14 25/31/14
f 25/31/15 26/30/15 28/32/15 27/33/15
f 27/33/16 28/32/16 30/34/16 29/35/16
f 29/35/17 30/34/17 32/36/17 31/37/17
f 31/37/18 32/36/18 34/9/18 33/5/18
f 33/5/19 34/9/19 36/38/19 35/39/19
f 35/39/20 36/38/20 38/40/20 37/41/20
f 37/41/21 38/40/21 40/42/21 39/43/21
f 39/43/22 40/42/22 42/44/22 41/45/22
f 41/45/23 42/44/23 44/46/23 43/47/23
f 43/47/24 44/46/24 46/48/24 45/49/24
f 45/49/25 46/48/25 48/50/25 47/51/25
f 47/51/26 48/50/26 50/10/26 49/6/26
f 49/6/27 50/10/27 52/52/27 51/53/27
f 51/53/28 52/52/28 54/54/28 53/55/28
f 53/55/29 54/54/29 56/56/29 55/57/29
f 55/57/30 56/56/30 58/58/30 57/59/30
f 57/59/31 58/58/31 60/60/31 59/61/31
f 59/61/32 60/60/32 62/62/32 61/63/32
f 61/63/33 62/62/33 64/64/33 63/65/33
f 63/65/34 64/64/34 66/66/34 65/11/34
f 65/11/35 66/66/35 68/67/35 67/68/35
f 67/68/36 68/67/36 70/69/36 69/70/36
f 12/71/6 10/72/6 72/73/6 70/74/6 68/75/6 66/76/6 64/77/6 62/78/6 60/79/6 58/80/6 56/81/6 54/82/6 52/83/6 50/84/6 48/85/6 46/86/6 44/87/6 42/88/6 40/89/6 38/90/6 36/91/6 34/92/6 32/93/6 30/94/6 28/95/6 26/96/6 24/97/6 22/98/6 20/99/6 18/100/6 16/101/6 14/102/6
f 69/70/37 70/69/37 72/103/37 71/104/37
f 71/104/38 72/103/38 10/105/38 9/106/38
f 9/107/5 11/108/5 13/109/5 15/110/5 17/111/5 19/112/5 21/113/5 23/114/5 25/115/5 27/116/5 29/117/5 31/118/5 33/119/5 35/120/5 37/121/5 39/122/5 41/123/5 43/124/5 45/125/5 47/126/5 49/127/5 51/128/5 53/129/5 55/130/5 57/131/5 59/132/5 61/133/5 63/134/5 65/135/5 67/136/5 69/137/5 71/138/5
f 73/15/38 75/18/38 76/17/38 74/16/38
f 75/18/37 77/20/37 78/19/37 76/17/37
f 77/20/36 79/22/36 80/21/36 78/19/36
f 79/22/35 81/13/35 82/23/35 80/21/35
f 81/13/34 83/25/34 84/24/34 82/23/34
f 83/25/33 85/27/33 86/26/33 84/24/33
f 85/27/32 87/29/32 88/28/32 86/26/32
f 87/29/31 89/31/31 90/30/31 88/28/31
f 89/31/30 91/33/30 92/32/30 90/30/30
f 91/33/29 93/35/29 94/34/29 92/32/29
f 93/35/28 95/37/28 96/36/28 94/34/28
f 95/37/27 97/5/27 98/9/27 96/36/27
f 97/5/26 99/39/26 100/38/26 98/9/26
f 99/39/25 101/41/25 102/40/25 100/38/25
f 101/41/24 103/43/24 104/42/24 102/40/24
f 103/43/23 105/45/23 106/44/23 104/42/23
f 105/45/22 107/47/22 108/46/22 106/44/22
f 107/47/21 109/49/21 110/48/21 108/46/21
f 109/49/20 111/51/20 112/50/20 110/48/20
f 111/51/19 113/6/19 114/10/19 112/50/19
f 113/6/18 115/53/18 116/52/18 114/10/18
f 115/53/17 117/55/17 118/54/17 116/52/17
f 117/55/16 119/57/16 120/56/16 118/54/16
f 119/57/15 121/59/15 122/58/15 120/56/15
f 121/59/14 123/61/14 124/60/14 122/58/14
f 123/61/13 125/63/13 126/62/13 124/60/13
f 125/63/12 127/65/12 128/64/12 126/62/12
f 127/65/11 129/11/11 130/66/11 128/64/11
f 129/11/10 131/68/10 132/67/10 130/66/10
f 131/68/9 133/70/9 134/69/9 132/67/9
f 76/71/6 78/102/6 80/101/6 82/100/6 84/99/6 86/98/6 88/97/6 90/96/6 92/95/6 94/94/6 96/93/6 98/92/6 100/91/6 102/90/6 104/89/6 106/88/6 108/87/6 110/86/6 112/85/6 114/84/6 116/83/6 118/82/6 120/81/6 122/80/6 124/79/6 126/78/6 128/77/6 130/76/6 132/75/6 134/74/6 136/73/6 74/72/6
f 133/70/8 135/104/8 136/103/8 134/69/8
f 135/104/7 73/106/7 74/105/7 136/103/7
f 73/107/5 135/138/5 133/137/5 131/136/5 129/135/5 127/134/5 125/133/5 123/132/5 121/131/5 119/130/5 117/129/5 115/128/5 113/127/5 111/126/5 109/125/5 107/124/5 105/123/5 103/122/5 101/121/5 99/120/5 97/119/5 95/118/5 93/117/5 91/116/5 89/115/5 87/114/5 85/113/5 83/112/5 81/111/5 79/110/5 77/109/5 75/108/5
f 137/15/22 139/18/22 140/17/22 138/16/22
f 139/18/21 141/20/21 142/19/21 140/17/21
f 141/20/20 143/22/20 144/21/20 142/19/20
f 143/22/19 145/13/19 146/23/19 144/21/19
f 145/13/18 147/25/18 148/24/18 146/23/18
f 147/25/17 149/27/17 150/26/17 148/24/17
f 149/27/16 151/29/16 152/28/16 150/26/16
f 151/29/15 153/31/15 154/30/15 152/28/15
f 153/31/14 155/33/14 156/32/14 154/30/14
f 155/33/13 157/35/13 158/34/13 156/32/13
f 157/35/12 159/37/12 160/36/12 158/34/12
f 159/37/11 161/5/11 162/9/11 160/36/11
f 161/5/10 163/39/10 164/38/10 162/9/10
f 163/39/9 165/41/9 166/40/9 164/38/9
f 165/41/8 167/43/8 168/42/8 166/40/8
f 167/43/7 169/45/7 170/44/7 168/42/7
f 169/45/38 171/47/38 172/46/38 170/44/38
f 171/47/37 173/49/37 174/48/37 172/46/37
f 173/49/36 175/51/36 176/50/36 174/48/36
f 175/51/35 177/6/35 178/10/35 176/50/35
f 177/6/34 179/53/34 180/52/34 178/10/34
f 179/53/33 181/55/33 182/54/33 180/52/33
f 181/55/32 183/57/32 184/56/32 182/54/32
f 183/57/31 185/59/31 186/58/31 184/56/31
f 185/59/30 187/61/30 188/60/30 186/58/30
f 187/61/29 189/63/29 190/62/29 188/60/29
f 189/63/28 191/65/28 192/64/28 190/62/28
f 191/65/27 193/11/27 194/66/27 192/64/27
f 193/11/26 195/68/26 196/67/26 194/66/26
f 195/68/25 197/70/25 198/69/25 196/67/25
f 140/71/6 142/102/6 144/101/6 146/100/6 148/99/6 150/98/6 152/97/6 154/96/6 156/95/6 158/94/6 160/93/6 162/92/6 164/91/6 166/90/6 168/89/6 170/88/6 172/87/6 174/86/6 176/85/6 178/84/6 180/83/6 182/82/6 184/81/6 186/80/6 188/79/6 190/78/6 192/77/6 194/76/6 196/75/6 198/74/6 200/73/6 138/72/6
f 197/70/24 199/104/24 200/103/24 198/69/24
f 199/104/23 137/106/23 138/105/23 200/103/23
f 137/107/5 199/138/5 197/137/5 195/136/5 193/135/5 191/134/5 189/133/5 187/132/5 185/131/5 183/130/5 181/129/5 179/128/5 177/127/5 175/126/5 173/125/5 171/124/5 169/123/5 167/122/5 165/121/5 163/120/5 161/119/5 159/118/5 157/117/5 155/116/5 153/115/5 151/114/5 149/113/5 147/112/5 145/111/5 143/110/5 141/109/5 139/108/5
f 201/15/23 202/16/23 204/17/23 203/18/23
f 203/18/24 204/17/24 206/19/24 205/20/24
f 205/20/25 206/19/25 208/21/25 207/22/25
f 207/22/26 208/21/26 210/23/26 209/13/26
f 209/13/27 210/23/27 212/24/27 211/25/27
f 211/25/28 212/24/28 214/26/28 213/27/28
f 213/27/29 214/26/29 216/28/29 215/29/29
f 215/29/30 216/28/30 218/30/30 217/31/30
f 217/31/31 218/30/31 220/32/31 219/33/31
f 219/33/32 220/32/32 222/34/32 221/35/32
f 221/35/33 222/34/33 224/36/33 223/37/33
f 223/37/34 224/36/34 226/9/34 225/5/34
f 225/5/35 226/9/35 228/38/35 227/39/35
f 227/39/36 228/38/36 230/40/36 229/41/36
f 229/41/37 230/40/37 232/42/37 231/43/37
f 231/43/38 232/42/38 234/44/38 233/45/38
f 233/45/7 234/44/7 236/46/7 235/47/7
f 235/47/8 236/46/8 238/48/8 237/49/8
f 237/49/9 238/48/9 240/50/9 239/51/9
f 239/51/10 240/50/10 242/10/10 241/6/10
f 241/6/11 242/10/11 244/52/11 243/53/11
f 243/53/12 244/52/12 246/54/12 245/55/12
f 245/55/13 246/54/13 248/56/13 247/57/13
f 247/57/14 248/56/14 250/58/14 249/59/14
f 249/59/15 250/58/15 252/60/15 251/61/15
f 251/61/16 252/60/16 254/62/16 253/63/16
f 253/63/17 254/62/17 256/64/17 255/65/17
f 255/65/18 256/64/18 258/66/18 257/11/18
f 257/11/19 258/66/19 260/67/19 259/68/19
f 259/68/20 260/67/20 262/69/20 261/70/20
f 204/71/6 202/72/6 264/73/6 262/74/6 260/75/6 258/76/6 256/77/6 254/78/6 252/79/6 250/80/6 248/81/6 246/82/6 244/83/6 242/84/6 240/85/6 238/86/6 236/87/6 234/88/6 232/89/6 230/90/6 228/91/6 226/92/6 224/93/6 222/94/6 220/95/6 218/96/6 216/97/6 214/98/6 212/99/6 210/100/6 208/101/6 206/102/6
f 261/70/21 262/69/21 264/103/21 263/104/21
f 263/104/22 264/103/22 202/105/22 201/106/22
f 201/107/5 203/108/5 205/109/5 207/110/5 209/111/5 211/112/5 213/113/5 215/114/5 217/115/5 219/116/5 221/117/5 223/118/5 225/119/5 227/120/5 229/121/5 231/122/5 233/123/5 235/124/5 237/125/5 239/126/5 241/127/5 243/128/5 245/129/5 247/130/5 249/131/5 251/132/5 253/133/5 255/134/5 257/135/5 259/136/5 261/137/5 263/138/5
f 265/1/1 273/2/1 274/3/1 267/4/1
f 267/4/2 274/3/2 275/5/2 271/6/2
f 271/6/3 275/5/3 276/7/3 269/8/3
f 269/8/4 276/7/4 273/9/4 265/10/4
f 267/11/5 271/6/5 269/8/5 265/12/5
f 297/139/39 277/140/39 266/141/39 288/142/39
f 266/141/40 277/140/40 278/143/40 279/144/40 268/145/40 274/13/40 273/14/40
f 268/145/41 280/146/41 281/147/41 282/148/41 272/149/41 275/5/41 274/13/41
f 272/149/42 283/150/42 284/151/42 285/152/42 270/153/42 276/7/42 275/5/42
f 270/153/43 286/154/43 287/155/43 288/142/43 266/141/43 273/14/43 276/7/43
f 285/152/44 291/156/44 286/154/44 270/153/44
f 291/156/45 294/157/45 287/155/45 286/154/45
f 294/157/46 297/139/46 288/142/46 287/155/46
f 272/149/47 282/148/47 289/158/47 283/150/47
f 283/150/48 289/158/48 290/159/48 284/151/48
f 284/151/49 290/159/49 291/156/49 285/152/49
f 282/148/50 281/147/50 292/160/50 289/158/50
f 289/158/51 292/160/51 293/161/51 290/159/51
f 290/159/52 293/161/52 294/157/52 291/156/52
f 281/147/53 280/146/53 295/162/53 292/160/53
f 292/160/54 295/162/54 296/163/54 293/161/54
f 293/161/55 296/163/55 297/139/55 294/157/55
f 280/146/56 268/145/56 279/144/56 295/162/56
f 295/162/57 279/144/57 278/143/57 296/163/57
f 296/163/58 278/143/58 277/140/58 297/139/58
