# Blender 4.5.3 LTS
# www.blender.org
mtllib Rapture_bar_stool.mtl
o chair
v 0.000000 0.998917 -0.838029
v 0.000000 1.262264 -0.838029
v 0.163491 0.998917 -0.821927
v 0.163491 1.262264 -0.821927
v 0.320700 0.998917 -0.774238
v 0.320700 1.262264 -0.774238
v 0.465584 0.998917 -0.696796
v 0.465584 1.262264 -0.696796
v 0.592576 0.998917 -0.592576
v 0.592576 1.262264 -0.592576
v 0.696796 0.998917 -0.465584
v 0.696796 1.262264 -0.465584
v 0.774238 0.998917 -0.320700
v 0.774238 1.262264 -0.320700
v 0.821927 0.998917 -0.163491
v 0.821927 1.262264 -0.163491
v 0.838029 0.998917 0.000000
v 0.838029 1.262264 0.000000
v 0.821927 0.998917 0.163491
v 0.821927 1.262264 0.163491
v 0.774238 0.998917 0.320700
v 0.774238 1.262264 0.320700
v 0.696796 0.998917 0.465584
v 0.696796 1.262264 0.465584
v 0.592576 0.998917 0.592576
v 0.592576 1.262264 0.592576
v 0.465584 0.998917 0.696796
v 0.465584 1.262264 0.696796
v 0.320700 0.998917 0.774238
v 0.320700 1.262264 0.774238
v 0.163491 0.998917 0.821927
v 0.163491 1.262264 0.821927
v 0.000000 0.998917 0.838029
v 0.000000 1.262264 0.838029
v -0.163491 0.998917 0.821927
v -0.163491 1.262264 0.821927
v -0.320700 0.998917 0.774238
v -0.320700 1.262264 0.774238
v -0.465584 0.998917 0.696796
v -0.465584 1.262264 0.696796
v -0.592576 0.998917 0.592576
v -0.592576 1.262264 0.592576
v -0.696796 0.998917 0.465584
v -0.696796 1.262264 0.465584
v -0.774238 0.998917 0.320700
v -0.774238 1.262264 0.320700
v -0.821927 0.998917 0.163491
v -0.821927 1.262264 0.163491
v -0.838029 0.998917 0.000000
v -0.838029 1.262264 0.000000
v -0.821927 0.998917 -0.163491
v -0.821927 1.262264 -0.163491
v -0.774238 0.998917 -0.320700
v -0.774238 1.262264 -0.320700
v -0.696796 0.998917 -0.465584
v -0.696796 1.262264 -0.465584
v -0.592576 0.998917 -0.592576
v -0.592576 1.262264 -0.592576
v -0.465584 0.998917 -0.696796
v -0.465584 1.262264 -0.696796
v -0.320700 0.998917 -0.774238
v -0.320700 1.262264 -0.774238
v -0.163491 0.998917 -0.821927
v -0.163491 1.262264 -0.821927
v 0.000000 1.186393 -0.862579
v 0.000000 1.074788 -0.862579
v 0.000000 1.130591 -0.870059
v 0.168281 1.074788 -0.846005
v 0.168281 1.186393 -0.846005
v 0.169740 1.130591 -0.853341
v 0.330095 1.074788 -0.796919
v 0.330095 1.186393 -0.796919
v 0.332957 1.130591 -0.803829
v 0.479223 1.074788 -0.717208
v 0.479223 1.186393 -0.717208
v 0.483379 1.130591 -0.723427
v 0.609936 1.074788 -0.609936
v 0.609936 1.186393 -0.609936
v 0.615224 1.130591 -0.615224
v 0.717208 1.074788 -0.479223
v 0.717208 1.186393 -0.479223
v 0.723427 1.130591 -0.483379
v 0.796919 1.074788 -0.330095
v 0.796919 1.186393 -0.330095
v 0.803829 1.130591 -0.332957
v 0.846005 1.074788 -0.168281
v 0.846005 1.186393 -0.168281
v 0.853341 1.130591 -0.169740
v 0.862579 1.074788 0.000000
v 0.862579 1.186393 0.000000
v 0.870059 1.130591 0.000000
v 0.846005 1.074788 0.168281
v 0.846005 1.186393 0.168281
v 0.853341 1.130591 0.169740
v 0.796919 1.074788 0.330095
v 0.796919 1.186393 0.330095
v 0.803829 1.130591 0.332957
v 0.717208 1.074788 0.479223
v 0.717208 1.186393 0.479223
v 0.723427 1.130591 0.483379
v 0.609936 1.074788 0.609936
v 0.609936 1.186393 0.609936
v 0.615224 1.130591 0.615224
v 0.479223 1.074788 0.717208
v 0.479223 1.186393 0.717208
v 0.483379 1.130591 0.723427
v 0.330095 1.074788 0.796919
v 0.330095 1.186393 0.796919
v 0.332957 1.130591 0.803829
v 0.168281 1.074788 0.846005
v 0.168281 1.186393 0.846005
v 0.169740 1.130591 0.853341
v 0.000000 1.074788 0.862579
v 0.000000 1.186393 0.862579
v 0.000000 1.130591 0.870059
v -0.168281 1.074788 0.846005
v -0.168281 1.186393 0.846005
v -0.169740 1.130591 0.853341
v -0.330095 1.074788 0.796919
v -0.330095 1.186393 0.796919
v -0.332957 1.130591 0.803829
v -0.479223 1.074788 0.717208
v -0.479223 1.186393 0.717208
v -0.483379 1.130591 0.723427
v -0.609936 1.074788 0.609936
v -0.609936 1.186393 0.609936
v -0.615224 1.130591 0.615224
v -0.717208 1.074788 0.479223
v -0.717208 1.186393 0.479223
v -0.723427 1.130591 0.483379
v -0.796919 1.074788 0.330095
v -0.796919 1.186393 0.330095
v -0.803829 1.130591 0.332957
v -0.846005 1.074788 0.168281
v -0.846005 1.186393 0.168281
v -0.853341 1.130591 0.169740
v -0.862579 1.074788 0.000000
v -0.862579 1.186393 0.000000
v -0.870059 1.130591 0.000000
v -0.846005 1.074788 -0.168281
v -0.846005 1.186393 -0.168281
v -0.853341 1.130591 -0.169740
v -0.796919 1.074788 -0.330095
v -0.796919 1.186393 -0.330095
v -0.803829 1.130591 -0.332957
v -0.717208 1.074788 -0.479223
v -0.717208 1.186393 -0.479223
v -0.723427 1.130591 -0.483379
v -0.609936 1.074788 -0.609936
v -0.609936 1.186393 -0.609936
v -0.615224 1.130591 -0.615224
v -0.479223 1.074788 -0.717208
v -0.479223 1.186393 -0.717208
v -0.483379 1.130591 -0.723427
v -0.330095 1.074788 -0.796919
v -0.330095 1.186393 -0.796919
v -0.332957 1.130591 -0.803829
v -0.168281 1.074788 -0.846005
v -0.168281 1.186393 -0.846005
v -0.169740 1.130591 -0.853341
v 0.000000 0.040901 -0.270299
v 0.000000 1.027933 -0.270299
v 0.052733 0.040901 -0.265105
v 0.052733 1.027933 -0.265105
v 0.103439 0.040901 -0.249724
v 0.103439 1.027933 -0.249724
v 0.150170 0.040901 -0.224746
v 0.150170 1.027933 -0.224746
v 0.191130 0.040901 -0.191130
v 0.191130 1.027933 -0.191130
v 0.224746 0.040901 -0.150170
v 0.224746 1.027933 -0.150170
v 0.249724 0.040901 -0.103439
v 0.249724 1.027933 -0.103439
v 0.265105 0.040901 -0.052733
v 0.265105 1.027933 -0.052733
v 0.270299 0.040901 0.000000
v 0.270299 1.027933 0.000000
v 0.265105 0.040901 0.052733
v 0.265105 1.027933 0.052733
v 0.249724 0.040901 0.103439
v 0.249724 1.027933 0.103439
v 0.224746 0.040901 0.150170
v 0.224746 1.027933 0.150170
v 0.191130 0.040901 0.191130
v 0.191130 1.027933 0.191130
v 0.150170 0.040901 0.224746
v 0.150170 1.027933 0.224746
v 0.103439 0.040901 0.249724
v 0.103439 1.027933 0.249724
v 0.052733 0.040901 0.265105
v 0.052733 1.027933 0.265105
v 0.000000 0.040901 0.270299
v 0.000000 1.027933 0.270299
v -0.052733 0.040901 0.265105
v -0.052733 1.027933 0.265105
v -0.103439 0.040901 0.249724
v -0.103439 1.027933 0.249724
v -0.150170 0.040901 0.224746
v -0.150170 1.027933 0.224746
v -0.191130 0.040901 0.191130
v -0.191130 1.027933 0.191130
v -0.224746 0.040901 0.150170
v -0.224746 1.027933 0.150170
v -0.249724 0.040901 0.103439
v -0.249724 1.027933 0.103439
v -0.265105 0.040901 0.052733
v -0.265105 1.027933 0.052733
v -0.270299 0.040901 0.000000
v -0.270299 1.027933 0.000000
v -0.265105 0.040901 -0.052733
v -0.265105 1.027933 -0.052733
v -0.249724 0.040901 -0.103439
v -0.249724 1.027933 -0.103439
v -0.224746 0.040901 -0.150170
v -0.224746 1.027933 -0.150170
v -0.191130 0.040901 -0.191130
v -0.191130 1.027933 -0.191130
v -0.150170 0.040901 -0.224746
v -0.150170 1.027933 -0.224746
v -0.103439 0.040901 -0.249724
v -0.103439 1.027933 -0.249724
v -0.052733 0.040901 -0.265105
v -0.052733 1.027933 -0.265105
vn -0.0933 -0.3065 -0.9473
vn 0.4487 -0.3065 -0.8395
vn 0.6039 -0.3065 -0.7358
vn 0.7358 -0.3065 -0.6039
vn 0.8395 -0.3065 -0.4487
vn 0.9109 -0.3065 -0.2763
vn 0.9473 -0.3065 -0.0933
vn 0.9473 -0.3065 0.0933
vn 0.9109 -0.3065 0.2763
vn 0.8395 -0.3065 0.4487
vn 0.7358 -0.3065 0.6039
vn 0.6039 -0.3065 0.7358
vn 0.4487 -0.3065 0.8395
vn 0.2763 -0.3065 0.9109
vn 0.0933 -0.3065 0.9473
vn -0.0933 -0.3065 0.9473
vn -0.2763 -0.3065 0.9109
vn -0.4487 -0.3065 0.8395
vn -0.6039 -0.3065 0.7358
vn -0.7358 -0.3065 0.6039
vn -0.8395 -0.3065 0.4487
vn -0.9109 -0.3065 0.2763
vn -0.9473 -0.3065 0.0933
vn -0.9473 -0.3065 -0.0933
vn -0.9109 -0.3065 -0.2763
vn -0.8395 -0.3065 -0.4487
vn -0.7358 -0.3065 -0.6039
vn -0.6039 -0.3065 -0.7358
vn -0.4487 -0.3065 -0.8395
vn -0.2763 -0.3065 -0.9109
vn -0.0000 1.0000 -0.0000
vn 0.0933 -0.3065 -0.9473
vn -0.0000 -1.0000 -0.0000
vn 0.2763 -0.3065 -0.9109
vn -0.2763 0.3065 -0.9109
vn -0.4487 0.3065 -0.8395
vn -0.6039 0.3065 -0.7358
vn -0.7358 0.3065 -0.6039
vn -0.8395 0.3065 -0.4487
vn -0.9109 0.3065 -0.2763
vn -0.9473 0.3065 -0.0933
vn -0.9473 0.3065 0.0933
vn -0.9109 0.3065 0.2763
vn -0.8395 0.3065 0.4487
vn -0.7358 0.3065 0.6039
vn -0.6039 0.3065 0.7358
vn -0.4487 0.3065 0.8395
vn -0.2763 0.3065 0.9109
vn -0.0933 0.3065 0.9473
vn 0.0933 0.3065 0.9473
vn 0.2763 0.3065 0.9109
vn 0.4487 0.3065 0.8395
vn 0.6039 0.3065 0.7358
vn 0.7358 0.3065 0.6039
vn 0.8395 0.3065 0.4487
vn 0.9109 0.3065 0.2763
vn 0.9473 0.3065 0.0933
vn 0.9473 0.3065 -0.0933
vn 0.9109 0.3065 -0.2763
vn 0.8395 0.3065 -0.4487
vn 0.7358 0.3065 -0.6039
vn 0.6039 0.3065 -0.7358
vn 0.4487 0.3065 -0.8395
vn 0.2763 0.3065 -0.9109
vn 0.0933 0.3065 -0.9473
vn -0.0972 0.1322 -0.9864
vn -0.0972 -0.1322 -0.9864
vn -0.2877 0.1322 -0.9485
vn -0.2877 -0.1322 -0.9485
vn -0.4673 0.1322 -0.8742
vn -0.4673 -0.1322 -0.8742
vn -0.6288 0.1322 -0.7662
vn -0.6288 -0.1322 -0.7662
vn -0.7662 0.1322 -0.6288
vn -0.7662 -0.1322 -0.6288
vn -0.8742 0.1322 -0.4673
vn -0.8742 -0.1322 -0.4673
vn -0.9485 0.1322 -0.2877
vn -0.9485 -0.1322 -0.2877
vn -0.9864 0.1322 -0.0972
vn -0.9864 -0.1322 -0.0972
vn -0.9864 0.1322 0.0972
vn -0.9864 -0.1322 0.0972
vn -0.9485 0.1322 0.2877
vn -0.9485 -0.1322 0.2877
vn -0.8742 0.1322 0.4673
vn -0.8742 -0.1322 0.4673
vn -0.7662 0.1322 0.6288
vn -0.7662 -0.1322 0.6288
vn -0.6288 0.1322 0.7662
vn -0.6288 -0.1322 0.7662
vn -0.4673 0.1322 0.8742
vn -0.4673 -0.1322 0.8742
vn -0.2877 0.1322 0.9485
vn -0.2877 -0.1322 0.9485
vn -0.0972 0.1322 0.9864
vn -0.0972 -0.1322 0.9864
vn 0.0972 0.1322 0.9864
vn 0.0972 -0.1322 0.9864
vn 0.2877 0.1322 0.9485
vn 0.2877 -0.1322 0.9485
vn 0.4673 0.1322 0.8742
vn 0.4673 -0.1322 0.8742
vn 0.6288 0.1322 0.7662
vn 0.6288 -0.1322 0.7662
vn 0.7662 0.1322 0.6288
vn 0.7662 -0.1322 0.6288
vn 0.8742 0.1322 0.4673
vn 0.8742 -0.1322 0.4673
vn 0.9485 0.1322 0.2877
vn 0.9485 -0.1322 0.2877
vn 0.9864 0.1322 0.0972
vn 0.9864 -0.1322 0.0972
vn 0.9864 0.1322 -0.0972
vn 0.9864 -0.1322 -0.0972
vn 0.9485 0.1322 -0.2877
vn 0.9485 -0.1322 -0.2877
vn 0.8742 0.1322 -0.4673
vn 0.8742 -0.1322 -0.4673
vn 0.7662 0.1322 -0.6288
vn 0.7662 -0.1322 -0.6288
vn 0.6288 0.1322 -0.7662
vn 0.6288 -0.1322 -0.7662
vn 0.4673 0.1322 -0.8742
vn 0.4673 -0.1322 -0.8742
vn 0.2877 0.1322 -0.9485
vn 0.2877 -0.1322 -0.9485
vn 0.0972 0.1322 -0.9864
vn 0.0972 -0.1322 -0.9864
vn -0.0933 0.3065 -0.9473
vn 0.0980 -0.0000 -0.9952
vn 0.2903 -0.0000 -0.9569
vn 0.4714 -0.0000 -0.8819
vn 0.6344 -0.0000 -0.7730
vn 0.7730 -0.0000 -0.6344
vn 0.8819 -0.0000 -0.4714
vn 0.9569 -0.0000 -0.2903
vn 0.9952 -0.0000 -0.0980
vn 0.9952 -0.0000 0.0980
vn 0.9569 -0.0000 0.2903
vn 0.8819 -0.0000 0.4714
vn 0.7730 -0.0000 0.6344
vn 0.6344 -0.0000 0.7730
vn 0.4714 -0.0000 0.8819
vn 0.2903 -0.0000 0.9569
vn 0.0980 -0.0000 0.9952
vn -0.0980 -0.0000 0.9952
vn -0.2903 -0.0000 0.9569
vn -0.4714 -0.0000 0.8819
vn -0.6344 -0.0000 0.7730
vn -0.7730 -0.0000 0.6344
vn -0.8819 -0.0000 0.4714
vn -0.9569 -0.0000 0.2903
vn -0.9952 -0.0000 0.0980
vn -0.9952 -0.0000 -0.0980
vn -0.9569 -0.0000 -0.2903
vn -0.8819 -0.0000 -0.4714
vn -0.7730 -0.0000 -0.6344
vn -0.6344 -0.0000 -0.7730
vn -0.4714 -0.0000 -0.8819
vn -0.2903 -0.0000 -0.9569
vn -0.0980 -0.0000 -0.9952
vt 0.031250 0.500000
vt 0.031250 0.644051
vt 0.000000 0.644051
vt 0.000000 0.500000
vt 0.937500 0.500000
vt 0.937500 0.644051
vt 0.906250 0.644051
vt 0.906250 0.500000
vt 0.875000 0.644051
vt 0.875000 0.500000
vt 0.843750 0.644051
vt 0.843750 0.500000
vt 0.812500 0.644051
vt 0.812500 0.500000
vt 0.812500 0.644051
vt 0.781250 0.644051
vt 0.781250 0.500000
vt 0.750000 0.644051
vt 0.750000 0.500000
vt 0.718750 0.644051
vt 0.718750 0.500000
vt 0.687500 0.644051
vt 0.687500 0.500000
vt 0.656250 0.644051
vt 0.656250 0.500000
vt 0.625000 0.644051
vt 0.625000 0.500000
vt 0.593750 0.644051
vt 0.593750 0.500000
vt 0.562500 0.644051
vt 0.562500 0.500000
vt 0.562500 0.644051
vt 0.531250 0.644051
vt 0.531250 0.500000
vt 0.500000 0.644051
vt 0.500000 0.500000
vt 0.468750 0.644051
vt 0.468750 0.500000
vt 0.437500 0.644051
vt 0.437500 0.500000
vt 0.406250 0.644051
vt 0.406250 0.500000
vt 0.375000 0.644051
vt 0.375000 0.500000
vt 0.343750 0.644051
vt 0.343750 0.500000
vt 0.312500 0.644051
vt 0.312500 0.500000
vt 0.312500 0.644051
vt 0.281250 0.644051
vt 0.281250 0.500000
vt 0.250000 0.644051
vt 0.250000 0.500000
vt 0.218750 0.644051
vt 0.218750 0.500000
vt 0.187500 0.644051
vt 0.187500 0.500000
vt 0.156250 0.644051
vt 0.156250 0.500000
vt 0.125000 0.644051
vt 0.125000 0.500000
vt 0.093750 0.644051
vt 0.093750 0.500000
vt 0.062500 0.644051
vt 0.062500 0.500000
vt 0.062500 0.644051
vt 0.296822 0.485388
vt 0.250000 0.490000
vt 0.203178 0.485388
vt 0.158156 0.471731
vt 0.116663 0.449553
vt 0.080294 0.419706
vt 0.050447 0.383337
vt 0.028269 0.341844
vt 0.014612 0.296822
vt 0.010000 0.250000
vt 0.014612 0.203178
vt 0.028269 0.158156
vt 0.050447 0.116663
vt 0.080294 0.080294
vt 0.116663 0.050447
vt 0.158156 0.028269
vt 0.203178 0.014612
vt 0.250000 0.010000
vt 0.296822 0.014612
vt 0.341844 0.028269
vt 0.383337 0.050447
vt 0.419706 0.080294
vt 0.449553 0.116663
vt 0.471731 0.158156
vt 0.485388 0.203178
vt 0.490000 0.250000
vt 0.485388 0.296822
vt 0.471731 0.341844
vt 0.449553 0.383337
vt 0.419706 0.419706
vt 0.383337 0.449553
vt 0.341844 0.471731
vt 1.000000 0.500000
vt 1.000000 0.644051
vt 0.968750 0.644051
vt 0.968750 0.500000
vt 0.750000 0.490000
vt 0.796822 0.485388
vt 0.841844 0.471731
vt 0.883337 0.449553
vt 0.919706 0.419706
vt 0.949553 0.383337
vt 0.971731 0.341844
vt 0.985388 0.296822
vt 0.990000 0.250000
vt 0.985388 0.203178
vt 0.971731 0.158156
vt 0.949553 0.116663
vt 0.919706 0.080294
vt 0.883337 0.050447
vt 0.841844 0.028269
vt 0.796822 0.014612
vt 0.750000 0.010000
vt 0.703178 0.014612
vt 0.658156 0.028269
vt 0.616663 0.050447
vt 0.580294 0.080294
vt 0.550447 0.116663
vt 0.528269 0.158156
vt 0.514612 0.203178
vt 0.510000 0.250000
vt 0.514612 0.296822
vt 0.528269 0.341844
vt 0.550447 0.383337
vt 0.580294 0.419706
vt 0.616663 0.449553
vt 0.658156 0.471731
vt 0.703178 0.485388
vt 0.062500 0.855949
vt 0.062500 1.000000
vt 0.031250 1.000000
vt 0.031250 0.855949
vt 0.093750 0.855949
vt 0.093750 1.000000
vt 0.062500 0.855949
vt 0.125000 0.855949
vt 0.125000 1.000000
vt 0.156250 0.855949
vt 0.156250 1.000000
vt 0.187500 0.855949
vt 0.187500 1.000000
vt 0.218750 0.855949
vt 0.218750 1.000000
vt 0.187500 0.855949
vt 0.250000 0.855949
vt 0.250000 1.000000
vt 0.218750 0.855949
vt 0.281250 0.855949
vt 0.281250 1.000000
vt 0.250000 0.855949
vt 0.312500 0.855949
vt 0.312500 1.000000
vt 0.343750 0.855949
vt 0.343750 1.000000
vt 0.312500 0.855949
vt 0.375000 0.855949
vt 0.375000 1.000000
vt 0.406250 0.855949
vt 0.406250 1.000000
vt 0.437500 0.855949
vt 0.437500 1.000000
vt 0.468750 0.855949
vt 0.468750 1.000000
vt 0.437500 0.855949
vt 0.500000 0.855949
vt 0.500000 1.000000
vt 0.468750 0.855949
vt 0.531250 0.855949
vt 0.531250 1.000000
vt 0.500000 0.855949
vt 0.562500 0.855949
vt 0.562500 1.000000
vt 0.593750 0.855949
vt 0.593750 1.000000
vt 0.562500 0.855949
vt 0.625000 0.855949
vt 0.625000 1.000000
vt 0.656250 0.855949
vt 0.656250 1.000000
vt 0.687500 0.855949
vt 0.687500 1.000000
vt 0.718750 0.855949
vt 0.718750 1.000000
vt 0.687500 0.855949
vt 0.750000 0.855949
vt 0.750000 1.000000
vt 0.718750 0.855949
vt 0.781250 0.855949
vt 0.781250 1.000000
vt 0.750000 0.855949
vt 0.812500 0.855949
vt 0.812500 1.000000
vt 0.843750 0.855949
vt 0.843750 1.000000
vt 0.812500 0.855949
vt 0.875000 0.855949
vt 0.875000 1.000000
vt 0.906250 0.855949
vt 0.906250 1.000000
vt 0.937500 0.855949
vt 0.937500 1.000000
vt 0.968750 0.855949
vt 0.968750 1.000000
vt 0.937500 0.855949
vt 1.000000 0.855949
vt 1.000000 1.000000
vt 0.968750 0.855949
vt 0.000000 0.855949
vt 0.000188 0.750000
vt 0.031250 0.750000
vt 0.062500 0.750000
vt 0.093750 0.750000
vt 0.125000 0.750000
vt 0.156250 0.750000
vt 0.187500 0.750000
vt 0.218750 0.750000
vt 0.250000 0.750000
vt 0.281250 0.750000
vt 0.312500 0.750000
vt 0.343750 0.750000
vt 0.375000 0.750000
vt 0.406250 0.750000
vt 0.437500 0.750000
vt 0.468750 0.750000
vt 0.500000 0.750000
vt 0.531250 0.750000
vt 0.562500 0.750000
vt 0.593750 0.750000
vt 0.625000 0.750000
vt 0.656250 0.750000
vt 0.687500 0.750000
vt 0.718750 0.750000
vt 0.750000 0.750000
vt 0.781250 0.750000
vt 0.812500 0.750000
vt 0.843750 0.750000
vt 0.875000 0.750000
vt 0.906250 0.750000
vt 0.937500 0.750000
vt 0.968750 0.750000
vt 0.999812 0.750000
vt 0.000000 1.000000
s 0
usemtl chair
f 63/1/1 158/2/1 66/3/1 1/4/1
f 5/5/2 71/6/2 74/7/2 7/8/2
f 7/8/3 74/7/3 77/9/3 9/10/3
f 9/10/4 77/9/4 80/11/4 11/12/4
f 11/12/5 80/11/5 83/13/5 13/14/5
f 13/14/6 83/15/6 86/16/6 15/17/6
f 15/17/7 86/16/7 89/18/7 17/19/7
f 17/19/8 89/18/8 92/20/8 19/21/8
f 19/21/9 92/20/9 95/22/9 21/23/9
f 21/23/10 95/22/10 98/24/10 23/25/10
f 23/25/11 98/24/11 101/26/11 25/27/11
f 25/27/12 101/26/12 104/28/12 27/29/12
f 27/29/13 104/28/13 107/30/13 29/31/13
f 29/31/14 107/32/14 110/33/14 31/34/14
f 31/34/15 110/33/15 113/35/15 33/36/15
f 33/36/16 113/35/16 116/37/16 35/38/16
f 35/38/17 116/37/17 119/39/17 37/40/17
f 37/40/18 119/39/18 122/41/18 39/42/18
f 39/42/19 122/41/19 125/43/19 41/44/19
f 41/44/20 125/43/20 128/45/20 43/46/20
f 43/46/21 128/45/21 131/47/21 45/48/21
f 45/48/22 131/49/22 134/50/22 47/51/22
f 47/51/23 134/50/23 137/52/23 49/53/23
f 49/53/24 137/52/24 140/54/24 51/55/24
f 51/55/25 140/54/25 143/56/25 53/57/25
f 53/57/26 143/56/26 146/58/26 55/59/26
f 55/59/27 146/58/27 149/60/27 57/61/27
f 57/61/28 149/60/28 152/62/28 59/63/28
f 59/63/29 152/62/29 155/64/29 61/65/29
f 61/65/30 155/66/30 158/2/30 63/1/30
f 4/67/31 2/68/31 64/69/31 62/70/31 60/71/31 58/72/31 56/73/31 54/74/31 52/75/31 50/76/31 48/77/31 46/78/31 44/79/31 42/80/31 40/81/31 38/82/31 36/83/31 34/84/31 32/85/31 30/86/31 28/87/31 26/88/31 24/89/31 22/90/31 20/91/31 18/92/31 16/93/31 14/94/31 12/95/31 10/96/31 8/97/31 6/98/31
f 1/99/32 66/100/32 68/101/32 3/102/32
f 1/103/33 3/104/33 5/105/33 7/106/33 9/107/33 11/108/33 13/109/33 15/110/33 17/111/33 19/112/33 21/113/33 23/114/33 25/115/33 27/116/33 29/117/33 31/118/33 33/119/33 35/120/33 37/121/33 39/122/33 41/123/33 43/124/33 45/125/33 47/126/33 49/127/33 51/128/33 53/129/33 55/130/33 57/131/33 59/132/33 61/133/33 63/134/33
f 3/102/34 68/101/34 71/6/34 5/5/34
f 156/135/35 62/136/35 64/137/35 159/138/35
f 153/139/36 60/140/36 62/136/36 156/141/36
f 150/142/37 58/143/37 60/140/37 153/139/37
f 147/144/38 56/145/38 58/143/38 150/142/38
f 144/146/39 54/147/39 56/145/39 147/144/39
f 141/148/40 52/149/40 54/147/40 144/150/40
f 138/151/41 50/152/41 52/149/41 141/153/41
f 135/154/42 48/155/42 50/152/42 138/156/42
f 132/157/43 46/158/43 48/155/43 135/154/43
f 129/159/44 44/160/44 46/158/44 132/161/44
f 126/162/45 42/163/45 44/160/45 129/159/45
f 123/164/46 40/165/46 42/163/46 126/162/46
f 120/166/47 38/167/47 40/165/47 123/164/47
f 117/168/48 36/169/48 38/167/48 120/170/48
f 114/171/49 34/172/49 36/169/49 117/173/49
f 111/174/50 32/175/50 34/172/50 114/176/50
f 108/177/51 30/178/51 32/175/51 111/174/51
f 105/179/52 28/180/52 30/178/52 108/181/52
f 102/182/53 26/183/53 28/180/53 105/179/53
f 99/184/54 24/185/54 26/183/54 102/182/54
f 96/186/55 22/187/55 24/185/55 99/184/55
f 93/188/56 20/189/56 22/187/56 96/190/56
f 90/191/57 18/192/57 20/189/57 93/193/57
f 87/194/58 16/195/58 18/192/58 90/196/58
f 84/197/59 14/198/59 16/195/59 87/194/59
f 81/199/60 12/200/60 14/198/60 84/201/60
f 78/202/61 10/203/61 12/200/61 81/199/61
f 75/204/62 8/205/62 10/203/62 78/202/62
f 72/206/63 6/207/63 8/205/63 75/204/63
f 69/208/64 4/209/64 6/207/64 72/210/64
f 65/211/65 2/212/65 4/209/65 69/213/65
f 159/138/66 65/214/66 67/215/66 160/216/66
f 160/216/67 67/215/67 66/3/67 158/2/67
f 156/135/68 159/138/68 160/216/68 157/217/68
f 157/217/69 160/216/69 158/2/69 155/66/69
f 153/139/70 156/141/70 157/217/70 154/218/70
f 154/218/71 157/217/71 155/64/71 152/62/71
f 150/142/72 153/139/72 154/218/72 151/219/72
f 151/219/73 154/218/73 152/62/73 149/60/73
f 147/144/74 150/142/74 151/219/74 148/220/74
f 148/220/75 151/219/75 149/60/75 146/58/75
f 144/146/76 147/144/76 148/220/76 145/221/76
f 145/221/77 148/220/77 146/58/77 143/56/77
f 141/148/78 144/150/78 145/221/78 142/222/78
f 142/222/79 145/221/79 143/56/79 140/54/79
f 138/151/80 141/153/80 142/222/80 139/223/80
f 139/223/81 142/222/81 140/54/81 137/52/81
f 135/154/82 138/156/82 139/223/82 136/224/82
f 136/224/83 139/223/83 137/52/83 134/50/83
f 132/157/84 135/154/84 136/224/84 133/225/84
f 133/225/85 136/224/85 134/50/85 131/49/85
f 129/159/86 132/161/86 133/225/86 130/226/86
f 130/226/87 133/225/87 131/47/87 128/45/87
f 126/162/88 129/159/88 130/226/88 127/227/88
f 127/227/89 130/226/89 128/45/89 125/43/89
f 123/164/90 126/162/90 127/227/90 124/228/90
f 124/228/91 127/227/91 125/43/91 122/41/91
f 120/166/92 123/164/92 124/228/92 121/229/92
f 121/229/93 124/228/93 122/41/93 119/39/93
f 117/168/94 120/170/94 121/229/94 118/230/94
f 118/230/95 121/229/95 119/39/95 116/37/95
f 114/171/96 117/173/96 118/230/96 115/231/96
f 115/231/97 118/230/97 116/37/97 113/35/97
f 111/174/98 114/176/98 115/231/98 112/232/98
f 112/232/99 115/231/99 113/35/99 110/33/99
f 108/177/100 111/174/100 112/232/100 109/233/100
f 109/233/101 112/232/101 110/33/101 107/32/101
f 105/179/102 108/181/102 109/233/102 106/234/102
f 106/234/103 109/233/103 107/30/103 104/28/103
f 102/182/104 105/179/104 106/234/104 103/235/104
f 103/235/105 106/234/105 104/28/105 101/26/105
f 99/184/106 102/182/106 103/235/106 100/236/106
f 100/236/107 103/235/107 101/26/107 98/24/107
f 96/186/108 99/184/108 100/236/108 97/237/108
f 97/237/109 100/236/109 98/24/109 95/22/109
f 93/188/110 96/190/110 97/237/110 94/238/110
f 94/238/111 97/237/111 95/22/111 92/20/111
f 90/191/112 93/193/112 94/238/112 91/239/112
f 91/239/113 94/238/113 92/20/113 89/18/113
f 87/194/114 90/196/114 91/239/114 88/240/114
f 88/240/115 91/239/115 89/18/115 86/16/115
f 84/197/116 87/194/116 88/240/116 85/241/116
f 85/241/117 88/240/117 86/16/117 83/15/117
f 81/199/118 84/201/118 85/241/118 82/242/118
f 82/242/119 85/241/119 83/13/119 80/11/119
f 78/202/120 81/199/120 82/242/120 79/243/120
f 79/243/121 82/242/121 80/11/121 77/9/121
f 75/204/122 78/202/122 79/243/122 76/244/122
f 76/244/123 79/243/123 77/9/123 74/7/123
f 72/206/124 75/204/124 76/244/124 73/245/124
f 73/245/125 76/244/125 74/7/125 71/6/125
f 69/208/126 72/210/126 73/245/126 70/246/126
f 70/246/127 73/245/127 71/6/127 68/101/127
f 65/211/128 69/213/128 70/246/128 67/247/128
f 67/247/129 70/246/129 68/101/129 66/100/129
f 159/138/130 64/137/130 2/248/130 65/214/130
f 161/99/131 162/212/131 164/209/131 163/102/131
f 163/102/132 164/209/132 166/207/132 165/5/132
f 165/5/133 166/207/133 168/205/133 167/8/133
f 167/8/134 168/205/134 170/203/134 169/10/134
f 169/10/135 170/203/135 172/200/135 171/12/135
f 171/12/136 172/200/136 174/198/136 173/14/136
f 173/14/137 174/198/137 176/195/137 175/17/137
f 175/17/138 176/195/138 178/192/138 177/19/138
f 177/19/139 178/192/139 180/189/139 179/21/139
f 179/21/140 180/189/140 182/187/140 181/23/140
f 181/23/141 182/187/141 184/185/141 183/25/141
f 183/25/142 184/185/142 186/183/142 185/27/142
f 185/27/143 186/183/143 188/180/143 187/29/143
f 187/29/144 188/180/144 190/178/144 189/31/144
f 189/31/145 190/178/145 192/175/145 191/34/145
f 191/34/146 192/175/146 194/172/146 193/36/146
f 193/36/147 194/172/147 196/169/147 195/38/147
f 195/38/148 196/169/148 198/167/148 197/40/148
f 197/40/149 198/167/149 200/165/149 199/42/149
f 199/42/150 200/165/150 202/163/150 201/44/150
f 201/44/151 202/163/151 204/160/151 203/46/151
f 203/46/152 204/160/152 206/158/152 205/48/152
f 205/48/153 206/158/153 208/155/153 207/51/153
f 207/51/154 208/155/154 210/152/154 209/53/154
f 209/53/155 210/152/155 212/149/155 211/55/155
f 211/55/156 212/149/156 214/147/156 213/57/156
f 213/57/157 214/147/157 216/145/157 215/59/157
f 215/59/158 216/145/158 218/143/158 217/61/158
f 217/61/159 218/143/159 220/140/159 219/63/159
f 219/63/160 220/140/160 222/136/160 221/65/160
f 164/67/31 162/68/31 224/69/31 222/70/31 220/71/31 218/72/31 216/73/31 214/74/31 212/75/31 210/76/31 208/77/31 206/78/31 204/79/31 202/80/31 200/81/31 198/82/31 196/83/31 194/84/31 192/85/31 190/86/31 188/87/31 186/88/31 184/89/31 182/90/31 180/91/31 178/92/31 176/93/31 174/94/31 172/95/31 170/96/31 168/97/31 166/98/31
f 221/65/161 222/136/161 224/137/161 223/1/161
f 223/1/162 224/137/162 162/248/162 161/4/162
f 161/103/33 163/104/33 165/105/33 167/106/33 169/107/33 171/108/33 173/109/33 175/110/33 177/111/33 179/112/33 181/113/33 183/114/33 185/115/33 187/116/33 189/117/33 191/118/33 193/119/33 195/120/33 197/121/33 199/122/33 201/123/33 203/124/33 205/125/33 207/126/33 209/127/33 211/128/33 213/129/33 215/130/33 217/131/33 219/132/33 221/133/33 223/134/33
