# Blender 4.5.3 LTS
# www.blender.org
mtllib Rapture_barrel.mtl
o Cylinder
v -0.000000 -1.831650 -1.193386
v -0.000000 1.831650 -1.193386
v 0.232818 -1.831650 -1.170455
v 0.232818 1.831650 -1.170455
v 0.456689 -1.831650 -1.102545
v 0.456689 1.831650 -1.102545
v 0.663010 -1.831650 -0.992264
v 0.663010 1.831650 -0.992264
v 0.843851 -1.831650 -0.843851
v 0.843851 1.831650 -0.843851
v 0.992264 -1.831650 -0.663010
v 0.992264 1.831650 -0.663010
v 1.102545 -1.831650 -0.456689
v 1.102545 1.831650 -0.456689
v 1.170455 -1.831650 -0.232818
v 1.170455 1.831650 -0.232818
v 1.193386 -1.831650 0.000000
v 1.193386 1.831650 0.000000
v 1.170455 -1.831650 0.232818
v 1.170455 1.831650 0.232818
v 1.102545 -1.831650 0.456689
v 1.102545 1.831650 0.456689
v 0.992264 -1.831650 0.663010
v 0.992264 1.831650 0.663010
v 0.843851 -1.831650 0.843851
v 0.843851 1.831650 0.843851
v 0.663010 -1.831650 0.992264
v 0.663010 1.831650 0.992264
v 0.456689 -1.831650 1.102545
v 0.456689 1.831650 1.102545
v 0.232818 -1.831650 1.170455
v 0.232818 1.831650 1.170455
v -0.000000 -1.831650 1.193386
v -0.000000 1.831650 1.193386
v -0.232818 -1.831650 1.170455
v -0.232818 1.831650 1.170455
v -0.456689 -1.831650 1.102545
v -0.456689 1.831650 1.102545
v -0.663010 -1.831650 0.992264
v -0.663010 1.831650 0.992264
v -0.843851 -1.831650 0.843851
v -0.843851 1.831650 0.843851
v -0.992264 -1.831650 0.663010
v -0.992264 1.831650 0.663010
v -1.102545 -1.831650 0.456689
v -1.102545 1.831650 0.456689
v -1.170455 -1.831650 0.232818
v -1.170455 1.831650 0.232818
v -1.193386 -1.831650 0.000000
v -1.193386 1.831650 0.000000
v -1.170455 -1.831650 -0.232818
v -1.170455 1.831650 -0.232818
v -1.102545 -1.831650 -0.456689
v -1.102545 1.831650 -0.456689
v -0.992264 -1.831650 -0.663010
v -0.992264 1.831650 -0.663010
v -0.843851 -1.831650 -0.843851
v -0.843851 1.831650 -0.843851
v -0.663010 -1.831650 -0.992264
v -0.663010 1.831650 -0.992264
v -0.456689 -1.831650 -1.102545
v -0.456689 1.831650 -1.102545
v -0.232818 -1.831650 -1.170455
v -0.232818 1.831650 -1.170455
v -0.000000 1.252714 -1.416262
v -0.000000 -1.252714 -1.416262
v -0.000000 0.677964 -1.531572
v -0.000000 0.000000 -1.572063
v -0.000000 -0.677964 -1.531572
v 0.276299 -1.252714 -1.389049
v 0.276299 1.252714 -1.389049
v 0.298795 -0.677964 -1.502143
v 0.306694 0.000000 -1.541857
v 0.298795 0.677964 -1.502143
v 0.541980 -1.252714 -1.308456
v 0.541980 1.252714 -1.308456
v 0.586107 -0.677964 -1.414988
v 0.601603 0.000000 -1.452397
v 0.586107 0.677964 -1.414988
v 0.786833 -1.252714 -1.177579
v 0.786833 1.252714 -1.177579
v 0.850896 -0.677964 -1.273456
v 0.873392 0.000000 -1.307123
v 0.850896 0.677964 -1.273456
v 1.001449 -1.252714 -1.001449
v 1.001449 1.252714 -1.001449
v 1.082985 -0.677964 -1.082985
v 1.111617 0.000000 -1.111617
v 1.082985 0.677964 -1.082985
v 1.177579 -1.252714 -0.786833
v 1.177579 1.252714 -0.786833
v 1.273456 -0.677964 -0.850896
v 1.307123 0.000000 -0.873392
v 1.273456 0.677964 -0.850896
v 1.308456 -1.252714 -0.541980
v 1.308456 1.252714 -0.541980
v 1.414988 -0.677964 -0.586107
v 1.452397 0.000000 -0.601603
v 1.414988 0.677964 -0.586107
v 1.389049 -1.252714 -0.276299
v 1.389049 1.252714 -0.276299
v 1.502143 -0.677964 -0.298795
v 1.541857 0.000000 -0.306694
v 1.502143 0.677964 -0.298795
v 1.416262 -1.252714 0.000000
v 1.416262 1.252714 0.000000
v 1.531572 -0.677964 0.000000
v 1.572063 0.000000 0.000000
v 1.531572 0.677964 0.000000
v 1.389049 -1.252714 0.276299
v 1.389049 1.252714 0.276299
v 1.502143 -0.677964 0.298795
v 1.541857 0.000000 0.306694
v 1.502143 0.677964 0.298795
v 1.308456 -1.252714 0.541980
v 1.308456 1.252714 0.541980
v 1.414988 -0.677964 0.586107
v 1.452397 0.000000 0.601603
v 1.414988 0.677964 0.586107
v 1.177579 -1.252714 0.786833
v 1.177579 1.252714 0.786833
v 1.273456 -0.677964 0.850896
v 1.307123 0.000000 0.873392
v 1.273456 0.677964 0.850896
v 1.001449 -1.252714 1.001449
v 1.001449 1.252714 1.001449
v 1.082985 -0.677964 1.082985
v 1.111617 0.000000 1.111617
v 1.082985 0.677964 1.082985
v 0.786833 -1.252714 1.177579
v 0.786833 1.252714 1.177579
v 0.850896 -0.677964 1.273456
v 0.873392 0.000000 1.307123
v 0.850896 0.677964 1.273456
v 0.541980 -1.252714 1.308456
v 0.541980 1.252714 1.308456
v 0.586107 -0.677964 1.414988
v 0.601603 0.000000 1.452397
v 0.586107 0.677964 1.414988
v 0.276299 -1.252714 1.389049
v 0.276299 1.252714 1.389049
v 0.298795 -0.677964 1.502143
v 0.306694 0.000000 1.541857
v 0.298795 0.677964 1.502143
v -0.000000 -1.252714 1.416262
v -0.000000 1.252714 1.416262
v -0.000000 -0.677964 1.531572
v -0.000000 0.000000 1.572063
v -0.000000 0.677964 1.531572
v -0.276299 -1.252714 1.389049
v -0.276299 1.252714 1.389049
v -0.298795 -0.677964 1.502143
v -0.306694 0.000000 1.541857
v -0.298795 0.677964 1.502143
v -0.541980 -1.252714 1.308456
v -0.541980 1.252714 1.308456
v -0.586107 -0.677964 1.414988
v -0.601603 0.000000 1.452397
v -0.586107 0.677964 1.414988
v -0.786833 -1.252714 1.177579
v -0.786833 1.252714 1.177579
v -0.850896 -0.677964 1.273456
v -0.873392 0.000000 1.307123
v -0.850896 0.677964 1.273456
v -1.001449 -1.252714 1.001449
v -1.001449 1.252714 1.001449
v -1.082985 -0.677964 1.082985
v -1.111617 0.000000 1.111617
v -1.082985 0.677964 1.082985
v -1.177579 -1.252714 0.786833
v -1.177579 1.252714 0.786833
v -1.273456 -0.677964 0.850896
v -1.307123 0.000000 0.873392
v -1.273456 0.677964 0.850896
v -1.308456 -1.252714 0.541980
v -1.308456 1.252714 0.541980
v -1.414988 -0.677964 0.586107
v -1.452397 0.000000 0.601603
v -1.414988 0.677964 0.586107
v -1.389049 -1.252714 0.276299
v -1.389049 1.252714 0.276299
v -1.502143 -0.677964 0.298795
v -1.541857 0.000000 0.306694
v -1.502143 0.677964 0.298795
v -1.416262 -1.252714 0.000000
v -1.416262 1.252714 0.000000
v -1.531572 -0.677964 0.000000
v -1.572063 0.000000 0.000000
v -1.531572 0.677964 0.000000
v -1.389049 -1.252714 -0.276299
v -1.389049 1.252714 -0.276299
v -1.502143 -0.677964 -0.298795
v -1.541857 0.000000 -0.306694
v -1.502143 0.677964 -0.298795
v -1.308456 -1.252714 -0.541980
v -1.308456 1.252714 -0.541980
v -1.414988 -0.677964 -0.586107
v -1.452397 0.000000 -0.601603
v -1.414988 0.677964 -0.586107
v -1.177579 -1.252714 -0.786833
v -1.177579 1.252714 -0.786833
v -1.273456 -0.677964 -0.850896
v -1.307123 0.000000 -0.873392
v -1.273456 0.677964 -0.850896
v -1.001449 -1.252714 -1.001449
v -1.001449 1.252714 -1.001449
v -1.082985 -0.677964 -1.082985
v -1.111617 0.000000 -1.111617
v -1.082985 0.677964 -1.082985
v -0.786833 -1.252714 -1.177579
v -0.786833 1.252714 -1.177579
v -0.850896 -0.677964 -1.273456
v -0.873392 0.000000 -1.307123
v -0.850896 0.677964 -1.273456
v -0.541980 -1.252714 -1.308456
v -0.541980 1.252714 -1.308456
v -0.586107 -0.677964 -1.414988
v -0.601603 0.000000 -1.452397
v -0.586107 0.677964 -1.414988
v -0.276299 -1.252714 -1.389049
v -0.276299 1.252714 -1.389049
v -0.298795 -0.677964 -1.502143
v -0.306694 0.000000 -1.541857
v -0.298795 0.677964 -1.502143
vn -0.0915 -0.3578 -0.9293
vn 0.4402 -0.3578 -0.8235
vn 0.5924 -0.3578 -0.7218
vn 0.7218 -0.3578 -0.5924
vn 0.8235 -0.3578 -0.4402
vn 0.8936 -0.3578 -0.2711
vn 0.9293 -0.3578 -0.0915
vn 0.9293 -0.3578 0.0915
vn 0.8936 -0.3578 0.2711
vn 0.8235 -0.3578 0.4402
vn 0.7218 -0.3578 0.5924
vn 0.5924 -0.3578 0.7218
vn 0.4402 -0.3578 0.8235
vn 0.2711 -0.3578 0.8936
vn 0.0915 -0.3578 0.9293
vn -0.0915 -0.3578 0.9293
vn -0.2711 -0.3578 0.8936
vn -0.4402 -0.3578 0.8235
vn -0.5924 -0.3578 0.7218
vn -0.7218 -0.3578 0.5924
vn -0.8235 -0.3578 0.4402
vn -0.8936 -0.3578 0.2711
vn -0.9293 -0.3578 0.0915
vn -0.9293 -0.3578 -0.0915
vn -0.8936 -0.3578 -0.2711
vn -0.8235 -0.3578 -0.4402
vn -0.7218 -0.3578 -0.5924
vn -0.5924 -0.3578 -0.7218
vn -0.4402 -0.3578 -0.8235
vn -0.2711 -0.3578 -0.8936
vn -0.0000 1.0000 -0.0000
vn 0.0915 -0.3578 -0.9293
vn -0.0000 -1.0000 -0.0000
vn 0.2711 -0.3578 -0.8936
vn -0.2711 0.3578 -0.8936
vn -0.4402 0.3578 -0.8235
vn -0.5924 0.3578 -0.7218
vn -0.7218 0.3578 -0.5924
vn -0.8235 0.3578 -0.4402
vn -0.8936 0.3578 -0.2711
vn -0.9293 0.3578 -0.0915
vn -0.9293 0.3578 0.0915
vn -0.8936 0.3578 0.2711
vn -0.8235 0.3578 0.4402
vn -0.7218 0.3578 0.5924
vn -0.5924 0.3578 0.7218
vn -0.4402 0.3578 0.8235
vn -0.2711 0.3578 0.8936
vn -0.0915 0.3578 0.9293
vn 0.0915 0.3578 0.9293
vn 0.2711 0.3578 0.8936
vn 0.4402 0.3578 0.8235
vn 0.5924 0.3578 0.7218
vn 0.7218 0.3578 0.5924
vn 0.8235 0.3578 0.4402
vn 0.8936 0.3578 0.2711
vn 0.9293 0.3578 0.0915
vn 0.9293 0.3578 -0.0915
vn 0.8936 0.3578 -0.2711
vn 0.8235 0.3578 -0.4402
vn 0.7218 0.3578 -0.5924
vn 0.5924 0.3578 -0.7218
vn 0.4402 0.3578 -0.8235
vn 0.2711 0.3578 -0.8936
vn 0.0915 0.3578 -0.9293
vn -0.0961 0.1958 -0.9759
vn -0.0978 0.0593 -0.9934
vn -0.0978 -0.0593 -0.9934
vn -0.0961 -0.1958 -0.9759
vn -0.2847 0.1958 -0.9384
vn -0.2898 0.0593 -0.9553
vn -0.2898 -0.0593 -0.9553
vn -0.2847 -0.1958 -0.9384
vn -0.4623 0.1958 -0.8649
vn -0.4706 0.0593 -0.8804
vn -0.4706 -0.0593 -0.8804
vn -0.4623 -0.1958 -0.8649
vn -0.6221 0.1958 -0.7580
vn -0.6333 0.0593 -0.7716
vn -0.6333 -0.0593 -0.7716
vn -0.6221 -0.1958 -0.7580
vn -0.7580 0.1958 -0.6221
vn -0.7716 0.0593 -0.6333
vn -0.7716 -0.0593 -0.6333
vn -0.7580 -0.1958 -0.6221
vn -0.8649 0.1958 -0.4623
vn -0.8804 0.0593 -0.4706
vn -0.8804 -0.0593 -0.4706
vn -0.8649 -0.1958 -0.4623
vn -0.9384 0.1958 -0.2847
vn -0.9553 0.0593 -0.2898
vn -0.9553 -0.0593 -0.2898
vn -0.9384 -0.1958 -0.2847
vn -0.9759 0.1958 -0.0961
vn -0.9934 0.0593 -0.0978
vn -0.9934 -0.0593 -0.0978
vn -0.9759 -0.1958 -0.0961
vn -0.9759 0.1958 0.0961
vn -0.9934 0.0593 0.0978
vn -0.9934 -0.0593 0.0978
vn -0.9759 -0.1958 0.0961
vn -0.9384 0.1958 0.2847
vn -0.9553 0.0593 0.2898
vn -0.9553 -0.0593 0.2898
vn -0.9384 -0.1958 0.2847
vn -0.8649 0.1958 0.4623
vn -0.8804 0.0593 0.4706
vn -0.8804 -0.0593 0.4706
vn -0.8649 -0.1958 0.4623
vn -0.7580 0.1958 0.6221
vn -0.7716 0.0593 0.6333
vn -0.7716 -0.0593 0.6333
vn -0.7580 -0.1958 0.6221
vn -0.6221 0.1958 0.7580
vn -0.6333 0.0593 0.7716
vn -0.6333 -0.0593 0.7716
vn -0.6221 -0.1958 0.7580
vn -0.4623 0.1958 0.8649
vn -0.4706 0.0593 0.8804
vn -0.4706 -0.0593 0.8804
vn -0.4623 -0.1958 0.8649
vn -0.2847 0.1958 0.9384
vn -0.2898 0.0593 0.9553
vn -0.2898 -0.0593 0.9553
vn -0.2847 -0.1958 0.9384
vn -0.0961 0.1958 0.9759
vn -0.0978 0.0593 0.9934
vn -0.0978 -0.0593 0.9934
vn -0.0961 -0.1958 0.9759
vn 0.0961 0.1958 0.9759
vn 0.0978 0.0593 0.9934
vn 0.0978 -0.0593 0.9934
vn 0.0961 -0.1958 0.9759
vn 0.2847 0.1958 0.9384
vn 0.2898 0.0593 0.9553
vn 0.2898 -0.0593 0.9553
vn 0.2847 -0.1958 0.9384
vn 0.4623 0.1958 0.8649
vn 0.4706 0.0593 0.8804
vn 0.4706 -0.0593 0.8804
vn 0.4623 -0.1958 0.8649
vn 0.6221 0.1958 0.7580
vn 0.6333 0.0593 0.7716
vn 0.6333 -0.0593 0.7716
vn 0.6221 -0.1958 0.7580
vn 0.7580 0.1958 0.6221
vn 0.7716 0.0593 0.6333
vn 0.7716 -0.0593 0.6333
vn 0.7580 -0.1958 0.6221
vn 0.8649 0.1958 0.4623
vn 0.8804 0.0593 0.4706
vn 0.8804 -0.0593 0.4706
vn 0.8649 -0.1958 0.4623
vn 0.9384 0.1958 0.2847
vn 0.9553 0.0593 0.2898
vn 0.9553 -0.0593 0.2898
vn 0.9384 -0.1958 0.2847
vn 0.9759 0.1958 0.0961
vn 0.9934 0.0593 0.0978
vn 0.9934 -0.0593 0.0978
vn 0.9759 -0.1958 0.0961
vn 0.9759 0.1958 -0.0961
vn 0.9934 0.0593 -0.0978
vn 0.9934 -0.0593 -0.0978
vn 0.9759 -0.1958 -0.0961
vn 0.9384 0.1958 -0.2847
vn 0.9553 0.0593 -0.2898
vn 0.9553 -0.0593 -0.2898
vn 0.9384 -0.1958 -0.2847
vn 0.8649 0.1958 -0.4623
vn 0.8804 0.0593 -0.4706
vn 0.8804 -0.0593 -0.4706
vn 0.8649 -0.1958 -0.4623
vn 0.7580 0.1958 -0.6221
vn 0.7716 0.0593 -0.6333
vn 0.7716 -0.0593 -0.6333
vn 0.7580 -0.1958 -0.6221
vn 0.6221 0.1958 -0.7580
vn 0.6333 0.0593 -0.7716
vn 0.6333 -0.0593 -0.7716
vn 0.6221 -0.1958 -0.7580
vn 0.4623 0.1958 -0.8649
vn 0.4706 0.0593 -0.8804
vn 0.4706 -0.0593 -0.8804
vn 0.4623 -0.1958 -0.8649
vn 0.2847 0.1958 -0.9384
vn 0.2898 0.0593 -0.9553
vn 0.2898 -0.0593 -0.9553
vn 0.2847 -0.1958 -0.9384
vn 0.0961 0.1958 -0.9759
vn 0.0978 0.0593 -0.9934
vn 0.0978 -0.0593 -0.9934
vn 0.0961 -0.1958 -0.9759
vn -0.0915 0.3578 -0.9293
vt 0.031250 0.500000
vt 0.031250 0.631330
vt 0.000000 0.631330
vt 0.000000 0.500000
vt 0.937500 0.500000
vt 0.937500 0.631330
vt 0.906250 0.631330
vt 0.906250 0.500000
vt 0.875000 0.631330
vt 0.875000 0.500000
vt 0.843750 0.631330
vt 0.843750 0.500000
vt 0.812500 0.631330
vt 0.812500 0.500000
vt 0.781250 0.631330
vt 0.781250 0.500000
vt 0.750000 0.631330
vt 0.750000 0.500000
vt 0.718750 0.631330
vt 0.718750 0.500000
vt 0.718750 0.631330
vt 0.687500 0.631330
vt 0.687500 0.500000
vt 0.656250 0.631330
vt 0.656250 0.500000
vt 0.625000 0.631330
vt 0.625000 0.500000
vt 0.593750 0.631330
vt 0.593750 0.500000
vt 0.562500 0.631330
vt 0.562500 0.500000
vt 0.531250 0.631330
vt 0.531250 0.500000
vt 0.531250 0.631330
vt 0.500000 0.631330
vt 0.500000 0.500000
vt 0.468750 0.631330
vt 0.468750 0.500000
vt 0.437500 0.631330
vt 0.437500 0.500000
vt 0.406250 0.631330
vt 0.406250 0.500000
vt 0.375000 0.631330
vt 0.375000 0.500000
vt 0.343750 0.631330
vt 0.343750 0.500000
vt 0.312500 0.631330
vt 0.312500 0.500000
vt 0.281250 0.631330
vt 0.281250 0.500000
vt 0.250000 0.631330
vt 0.250000 0.500000
vt 0.218750 0.631330
vt 0.218750 0.500000
vt 0.218750 0.631330
vt 0.187500 0.631330
vt 0.187500 0.500000
vt 0.156250 0.631330
vt 0.156250 0.500000
vt 0.125000 0.631330
vt 0.125000 0.500000
vt 0.093750 0.631330
vt 0.093750 0.500000
vt 0.062500 0.631330
vt 0.062500 0.500000
vt 0.296822 0.485388
vt 0.250000 0.490000
vt 0.203178 0.485388
vt 0.158156 0.471731
vt 0.116663 0.449553
vt 0.080294 0.419706
vt 0.050447 0.383337
vt 0.028269 0.341844
vt 0.014612 0.296822
vt 0.010000 0.250000
vt 0.014612 0.203178
vt 0.028269 0.158156
vt 0.050447 0.116663
vt 0.080294 0.080294
vt 0.116663 0.050447
vt 0.158156 0.028269
vt 0.203178 0.014612
vt 0.250000 0.010000
vt 0.296822 0.014612
vt 0.341844 0.028269
vt 0.383337 0.050447
vt 0.419706 0.080294
vt 0.449553 0.116663
vt 0.471731 0.158156
vt 0.485388 0.203178
vt 0.490000 0.250000
vt 0.485388 0.296822
vt 0.471731 0.341844
vt 0.449553 0.383337
vt 0.419706 0.419706
vt 0.383337 0.449553
vt 0.341844 0.471731
vt 1.000000 0.500000
vt 1.000000 0.631330
vt 0.968750 0.631330
vt 0.968750 0.500000
vt 0.750000 0.490000
vt 0.796822 0.485388
vt 0.841844 0.471731
vt 0.883337 0.449553
vt 0.919706 0.419706
vt 0.949553 0.383337
vt 0.971731 0.341844
vt 0.985388 0.296822
vt 0.990000 0.250000
vt 0.985388 0.203178
vt 0.971731 0.158156
vt 0.949553 0.116663
vt 0.919706 0.080294
vt 0.883337 0.050447
vt 0.841844 0.028269
vt 0.796822 0.014612
vt 0.750000 0.010000
vt 0.703178 0.014612
vt 0.658156 0.028269
vt 0.616663 0.050447
vt 0.580294 0.080294
vt 0.550447 0.116663
vt 0.528269 0.158156
vt 0.514612 0.203178
vt 0.510000 0.250000
vt 0.514612 0.296822
vt 0.528269 0.341844
vt 0.550447 0.383337
vt 0.580294 0.419706
vt 0.616663 0.449553
vt 0.658156 0.471731
vt 0.703178 0.485388
vt 0.968750 0.631330
vt 0.062500 0.868670
vt 0.062500 1.000000
vt 0.031250 1.000000
vt 0.031250 0.868670
vt 0.093750 0.868670
vt 0.093750 1.000000
vt 0.062500 0.868670
vt 0.125000 0.868670
vt 0.125000 1.000000
vt 0.093750 0.868670
vt 0.156250 0.868670
vt 0.156250 1.000000
vt 0.187500 0.868670
vt 0.187500 1.000000
vt 0.218750 0.868670
vt 0.218750 1.000000
vt 0.250000 0.868670
vt 0.250000 1.000000
vt 0.281250 0.868670
vt 0.281250 1.000000
vt 0.312500 0.868670
vt 0.312500 1.000000
vt 0.343750 0.868670
vt 0.343750 1.000000
vt 0.312500 0.868670
vt 0.375000 0.868670
vt 0.375000 1.000000
vt 0.343750 0.868670
vt 0.406250 0.868670
vt 0.406250 1.000000
vt 0.437500 0.868670
vt 0.437500 1.000000
vt 0.468750 0.868670
vt 0.468750 1.000000
vt 0.437500 0.868670
vt 0.500000 0.868670
vt 0.500000 1.000000
vt 0.531250 0.868670
vt 0.531250 1.000000
vt 0.562500 0.868670
vt 0.562500 1.000000
vt 0.593750 0.868670
vt 0.593750 1.000000
vt 0.625000 0.868670
vt 0.625000 1.000000
vt 0.593750 0.868670
vt 0.656250 0.868670
vt 0.656250 1.000000
vt 0.687500 0.868670
vt 0.687500 1.000000
vt 0.718750 0.868670
vt 0.718750 1.000000
vt 0.750000 0.868670
vt 0.750000 1.000000
vt 0.781250 0.868670
vt 0.781250 1.000000
vt 0.812500 0.868670
vt 0.812500 1.000000
vt 0.843750 0.868670
vt 0.843750 1.000000
vt 0.812500 0.868670
vt 0.875000 0.868670
vt 0.875000 1.000000
vt 0.843750 0.868670
vt 0.906250 0.868670
vt 0.906250 1.000000
vt 0.937500 0.868670
vt 0.937500 1.000000
vt 0.968750 0.868670
vt 0.968750 1.000000
vt 0.937500 0.868670
vt 1.000000 0.868670
vt 1.000000 1.000000
vt 0.031250 0.868670
vt 0.000000 0.868670
vt 0.000356 0.821151
vt 0.031250 0.821151
vt 0.001921 0.750000
vt 0.031250 0.750000
vt 0.000356 0.678849
vt 0.031250 0.678849
vt 0.062500 0.821151
vt 0.062500 0.750000
vt 0.062500 0.678849
vt 0.093750 0.821151
vt 0.093750 0.750000
vt 0.093750 0.678849
vt 0.125000 0.821151
vt 0.125000 0.750000
vt 0.125000 0.678849
vt 0.156250 0.821151
vt 0.156250 0.750000
vt 0.156250 0.678849
vt 0.187500 0.821151
vt 0.187500 0.750000
vt 0.187500 0.678849
vt 0.218750 0.821151
vt 0.218750 0.750000
vt 0.218750 0.678849
vt 0.250000 0.821151
vt 0.250000 0.750000
vt 0.250000 0.678849
vt 0.281250 0.821151
vt 0.281250 0.750000
vt 0.281250 0.678849
vt 0.312500 0.821151
vt 0.312500 0.750000
vt 0.312500 0.678849
vt 0.343750 0.821151
vt 0.343750 0.750000
vt 0.343750 0.678849
vt 0.375000 0.821151
vt 0.375000 0.750000
vt 0.375000 0.678849
vt 0.406250 0.821151
vt 0.406250 0.750000
vt 0.406250 0.678849
vt 0.437500 0.821151
vt 0.437500 0.750000
vt 0.437500 0.678849
vt 0.468750 0.821151
vt 0.468750 0.750000
vt 0.468750 0.678849
vt 0.500000 0.821151
vt 0.500000 0.750000
vt 0.500000 0.678849
vt 0.531250 0.821151
vt 0.531250 0.750000
vt 0.531250 0.678849
vt 0.562500 0.821151
vt 0.562500 0.750000
vt 0.562500 0.678849
vt 0.593750 0.821151
vt 0.593750 0.750000
vt 0.593750 0.678849
vt 0.625000 0.821151
vt 0.625000 0.750000
vt 0.625000 0.678849
vt 0.656250 0.821151
vt 0.656250 0.750000
vt 0.656250 0.678849
vt 0.687500 0.821151
vt 0.687500 0.750000
vt 0.687500 0.678849
vt 0.718750 0.821151
vt 0.718750 0.750000
vt 0.718750 0.678849
vt 0.750000 0.821151
vt 0.750000 0.750000
vt 0.750000 0.678849
vt 0.781250 0.821151
vt 0.781250 0.750000
vt 0.781250 0.678849
vt 0.812500 0.821151
vt 0.812500 0.750000
vt 0.812500 0.678849
vt 0.843750 0.821151
vt 0.843750 0.750000
vt 0.843750 0.678849
vt 0.875000 0.821151
vt 0.875000 0.750000
vt 0.875000 0.678849
vt 0.906250 0.821151
vt 0.906250 0.750000
vt 0.906250 0.678849
vt 0.937500 0.821151
vt 0.937500 0.750000
vt 0.937500 0.678849
vt 0.968750 0.821151
vt 0.968750 0.750000
vt 0.968750 0.678849
vt 0.999644 0.821151
vt 0.998079 0.750000
vt 0.999644 0.678849
vt 0.000000 1.000000
s 0
usemtl barrel
f 63/1/1 220/2/1 66/3/1 1/4/1
f 5/5/2 75/6/2 80/7/2 7/8/2
f 7/8/3 80/7/3 85/9/3 9/10/3
f 9/10/4 85/9/4 90/11/4 11/12/4
f 11/12/5 90/11/5 95/13/5 13/14/5
f 13/14/6 95/13/6 100/15/6 15/16/6
f 15/16/7 100/15/7 105/17/7 17/18/7
f 17/18/8 105/17/8 110/19/8 19/20/8
f 19/20/9 110/21/9 115/22/9 21/23/9
f 21/23/10 115/22/10 120/24/10 23/25/10
f 23/25/11 120/24/11 125/26/11 25/27/11
f 25/27/12 125/26/12 130/28/12 27/29/12
f 27/29/13 130/28/13 135/30/13 29/31/13
f 29/31/14 135/30/14 140/32/14 31/33/14
f 31/33/15 140/34/15 145/35/15 33/36/15
f 33/36/16 145/35/16 150/37/16 35/38/16
f 35/38/17 150/37/17 155/39/17 37/40/17
f 37/40/18 155/39/18 160/41/18 39/42/18
f 39/42/19 160/41/19 165/43/19 41/44/19
f 41/44/20 165/43/20 170/45/20 43/46/20
f 43/46/21 170/45/21 175/47/21 45/48/21
f 45/48/22 175/47/22 180/49/22 47/50/22
f 47/50/23 180/49/23 185/51/23 49/52/23
f 49/52/24 185/51/24 190/53/24 51/54/24
f 51/54/25 190/55/25 195/56/25 53/57/25
f 53/57/26 195/56/26 200/58/26 55/59/26
f 55/59/27 200/58/27 205/60/27 57/61/27
f 57/61/28 205/60/28 210/62/28 59/63/28
f 59/63/29 210/62/29 215/64/29 61/65/29
f 61/65/30 215/64/30 220/2/30 63/1/30
f 4/66/31 2/67/31 64/68/31 62/69/31 60/70/31 58/71/31 56/72/31 54/73/31 52/74/31 50/75/31 48/76/31 46/77/31 44/78/31 42/79/31 40/80/31 38/81/31 36/82/31 34/83/31 32/84/31 30/85/31 28/86/31 26/87/31 24/88/31 22/89/31 20/90/31 18/91/31 16/92/31 14/93/31 12/94/31 10/95/31 8/96/31 6/97/31
f 1/98/32 66/99/32 70/100/32 3/101/32
f 1/102/33 3/103/33 5/104/33 7/105/33 9/106/33 11/107/33 13/108/33 15/109/33 17/110/33 19/111/33 21/112/33 23/113/33 25/114/33 27/115/33 29/116/33 31/117/33 33/118/33 35/119/33 37/120/33 39/121/33 41/122/33 43/123/33 45/124/33 47/125/33 49/126/33 51/127/33 53/128/33 55/129/33 57/130/33 59/131/33 61/132/33 63/133/33
f 3/101/34 70/134/34 75/6/34 5/5/34
f 216/135/35 62/136/35 64/137/35 221/138/35
f 211/139/36 60/140/36 62/136/36 216/141/36
f 206/142/37 58/143/37 60/140/37 211/144/37
f 201/145/38 56/146/38 58/143/38 206/142/38
f 196/147/39 54/148/39 56/146/39 201/145/39
f 191/149/40 52/150/40 54/148/40 196/147/40
f 186/151/41 50/152/41 52/150/41 191/149/41
f 181/153/42 48/154/42 50/152/42 186/151/42
f 176/155/43 46/156/43 48/154/43 181/153/43
f 171/157/44 44/158/44 46/156/44 176/159/44
f 166/160/45 42/161/45 44/158/45 171/162/45
f 161/163/46 40/164/46 42/161/46 166/160/46
f 156/165/47 38/166/47 40/164/47 161/163/47
f 151/167/48 36/168/48 38/166/48 156/169/48
f 146/170/49 34/171/49 36/168/49 151/167/49
f 141/172/50 32/173/50 34/171/50 146/170/50
f 136/174/51 30/175/51 32/173/51 141/172/51
f 131/176/52 28/177/52 30/175/52 136/174/52
f 126/178/53 26/179/53 28/177/53 131/180/53
f 121/181/54 24/182/54 26/179/54 126/178/54
f 116/183/55 22/184/55 24/182/55 121/181/55
f 111/185/56 20/186/56 22/184/56 116/183/56
f 106/187/57 18/188/57 20/186/57 111/185/57
f 101/189/58 16/190/58 18/188/58 106/187/58
f 96/191/59 14/192/59 16/190/59 101/189/59
f 91/193/60 12/194/60 14/192/60 96/195/60
f 86/196/61 10/197/61 12/194/61 91/198/61
f 81/199/62 8/200/62 10/197/62 86/196/62
f 76/201/63 6/202/63 8/200/63 81/199/63
f 71/203/64 4/204/64 6/202/64 76/205/64
f 65/206/65 2/207/65 4/204/65 71/203/65
f 221/208/66 65/209/66 67/210/66 224/211/66
f 224/211/67 67/210/67 68/212/67 223/213/67
f 223/213/68 68/212/68 69/214/68 222/215/68
f 222/215/69 69/214/69 66/3/69 220/2/69
f 216/135/70 221/138/70 224/211/70 219/216/70
f 219/216/71 224/211/71 223/213/71 218/217/71
f 218/217/72 223/213/72 222/215/72 217/218/72
f 217/218/73 222/215/73 220/2/73 215/64/73
f 211/139/74 216/141/74 219/216/74 214/219/74
f 214/219/75 219/216/75 218/217/75 213/220/75
f 213/220/76 218/217/76 217/218/76 212/221/76
f 212/221/77 217/218/77 215/64/77 210/62/77
f 206/142/78 211/144/78 214/219/78 209/222/78
f 209/222/79 214/219/79 213/220/79 208/223/79
f 208/223/80 213/220/80 212/221/80 207/224/80
f 207/224/81 212/221/81 210/62/81 205/60/81
f 201/145/82 206/142/82 209/222/82 204/225/82
f 204/225/83 209/222/83 208/223/83 203/226/83
f 203/226/84 208/223/84 207/224/84 202/227/84
f 202/227/85 207/224/85 205/60/85 200/58/85
f 196/147/86 201/145/86 204/225/86 199/228/86
f 199/228/87 204/225/87 203/226/87 198/229/87
f 198/229/88 203/226/88 202/227/88 197/230/88
f 197/230/89 202/227/89 200/58/89 195/56/89
f 191/149/90 196/147/90 199/228/90 194/231/90
f 194/231/91 199/228/91 198/229/91 193/232/91
f 193/232/92 198/229/92 197/230/92 192/233/92
f 192/233/93 197/230/93 195/56/93 190/55/93
f 186/151/94 191/149/94 194/231/94 189/234/94
f 189/234/95 194/231/95 193/232/95 188/235/95
f 188/235/96 193/232/96 192/233/96 187/236/96
f 187/236/97 192/233/97 190/53/97 185/51/97
f 181/153/98 186/151/98 189/234/98 184/237/98
f 184/237/99 189/234/99 188/235/99 183/238/99
f 183/238/100 188/235/100 187/236/100 182/239/100
f 182/239/101 187/236/101 185/51/101 180/49/101
f 176/155/102 181/153/102 184/237/102 179/240/102
f 179/240/103 184/237/103 183/238/103 178/241/103
f 178/241/104 183/238/104 182/239/104 177/242/104
f 177/242/105 182/239/105 180/49/105 175/47/105
f 171/157/106 176/159/106 179/240/106 174/243/106
f 174/243/107 179/240/107 178/241/107 173/244/107
f 173/244/108 178/241/108 177/242/108 172/245/108
f 172/245/109 177/242/109 175/47/109 170/45/109
f 166/160/110 171/162/110 174/243/110 169/246/110
f 169/246/111 174/243/111 173/244/111 168/247/111
f 168/247/112 173/244/112 172/245/112 167/248/112
f 167/248/113 172/245/113 170/45/113 165/43/113
f 161/163/114 166/160/114 169/246/114 164/249/114
f 164/249/115 169/246/115 168/247/115 163/250/115
f 163/250/116 168/247/116 167/248/116 162/251/116
f 162/251/117 167/248/117 165/43/117 160/41/117
f 156/165/118 161/163/118 164/249/118 159/252/118
f 159/252/119 164/249/119 163/250/119 158/253/119
f 158/253/120 163/250/120 162/251/120 157/254/120
f 157/254/121 162/251/121 160/41/121 155/39/121
f 151/167/122 156/169/122 159/252/122 154/255/122
f 154/255/123 159/252/123 158/253/123 153/256/123
f 153/256/124 158/253/124 157/254/124 152/257/124
f 152/257/125 157/254/125 155/39/125 150/37/125
f 146/170/126 151/167/126 154/255/126 149/258/126
f 149/258/127 154/255/127 153/256/127 148/259/127
f 148/259/128 153/256/128 152/257/128 147/260/128
f 147/260/129 152/257/129 150/37/129 145/35/129
f 141/172/130 146/170/130 149/258/130 144/261/130
f 144/261/131 149/258/131 148/259/131 143/262/131
f 143/262/132 148/259/132 147/260/132 142/263/132
f 142/263/133 147/260/133 145/35/133 140/34/133
f 136/174/134 141/172/134 144/261/134 139/264/134
f 139/264/135 144/261/135 143/262/135 138/265/135
f 138/265/136 143/262/136 142/263/136 137/266/136
f 137/266/137 142/263/137 140/32/137 135/30/137
f 131/176/138 136/174/138 139/264/138 134/267/138
f 134/267/139 139/264/139 138/265/139 133/268/139
f 133/268/140 138/265/140 137/266/140 132/269/140
f 132/269/141 137/266/141 135/30/141 130/28/141
f 126/178/142 131/180/142 134/267/142 129/270/142
f 129/270/143 134/267/143 133/268/143 128/271/143
f 128/271/144 133/268/144 132/269/144 127/272/144
f 127/272/145 132/269/145 130/28/145 125/26/145
f 121/181/146 126/178/146 129/270/146 124/273/146
f 124/273/147 129/270/147 128/271/147 123/274/147
f 123/274/148 128/271/148 127/272/148 122/275/148
f 122/275/149 127/272/149 125/26/149 120/24/149
f 116/183/150 121/181/150 124/273/150 119/276/150
f 119/276/151 124/273/151 123/274/151 118/277/151
f 118/277/152 123/274/152 122/275/152 117/278/152
f 117/278/153 122/275/153 120/24/153 115/22/153
f 111/185/154 116/183/154 119/276/154 114/279/154
f 114/279/155 119/276/155 118/277/155 113/280/155
f 113/280/156 118/277/156 117/278/156 112/281/156
f 112/281/157 117/278/157 115/22/157 110/21/157
f 106/187/158 111/185/158 114/279/158 109/282/158
f 109/282/159 114/279/159 113/280/159 108/283/159
f 108/283/160 113/280/160 112/281/160 107/284/160
f 107/284/161 112/281/161 110/19/161 105/17/161
f 101/189/162 106/187/162 109/282/162 104/285/162
f 104/285/163 109/282/163 108/283/163 103/286/163
f 103/286/164 108/283/164 107/284/164 102/287/164
f 102/287/165 107/284/165 105/17/165 100/15/165
f 96/191/166 101/189/166 104/285/166 99/288/166
f 99/288/167 104/285/167 103/286/167 98/289/167
f 98/289/168 103/286/168 102/287/168 97/290/168
f 97/290/169 102/287/169 100/15/169 95/13/169
f 91/193/170 96/195/170 99/288/170 94/291/170
f 94/291/171 99/288/171 98/289/171 93/292/171
f 93/292/172 98/289/172 97/290/172 92/293/172
f 92/293/173 97/290/173 95/13/173 90/11/173
f 86/196/174 91/198/174 94/291/174 89/294/174
f 89/294/175 94/291/175 93/292/175 88/295/175
f 88/295/176 93/292/176 92/293/176 87/296/176
f 87/296/177 92/293/177 90/11/177 85/9/177
f 81/199/178 86/196/178 89/294/178 84/297/178
f 84/297/179 89/294/179 88/295/179 83/298/179
f 83/298/180 88/295/180 87/296/180 82/299/180
f 82/299/181 87/296/181 85/9/181 80/7/181
f 76/201/182 81/199/182 84/297/182 79/300/182
f 79/300/183 84/297/183 83/298/183 78/301/183
f 78/301/184 83/298/184 82/299/184 77/302/184
f 77/302/185 82/299/185 80/7/185 75/6/185
f 71/203/186 76/205/186 79/300/186 74/303/186
f 74/303/187 79/300/187 78/301/187 73/304/187
f 73/304/188 78/301/188 77/302/188 72/305/188
f 72/305/189 77/302/189 75/6/189 70/134/189
f 65/206/190 71/203/190 74/303/190 67/306/190
f 67/306/191 74/303/191 73/304/191 68/307/191
f 68/307/192 73/304/192 72/305/192 69/308/192
f 69/308/193 72/305/193 70/100/193 66/99/193
f 221/208/194 64/137/194 2/309/194 65/209/194
