# Blender 4.5.3 LTS
# www.blender.org
mtllib rapture_candle_opera.mtl
o candale_opera
v 0.000000 13.262914 -0.289688
v 0.000000 14.818156 -0.289688
v 0.056515 13.262914 -0.284122
v 0.056515 14.818156 -0.284122
v 0.110859 13.262914 -0.267637
v 0.110859 14.818156 -0.267637
v 0.160942 13.262914 -0.240867
v 0.160942 14.818156 -0.240867
v 0.204840 13.262914 -0.204840
v 0.204840 14.818156 -0.204840
v 0.240867 13.262914 -0.160942
v 0.240867 14.818156 -0.160942
v 0.267637 13.262914 -0.110859
v 0.267637 14.818156 -0.110859
v 0.284122 13.262914 -0.056515
v 0.284122 14.818156 -0.056515
v 0.289688 13.262914 -0.000000
v 0.289688 14.818156 -0.000000
v 0.284122 13.262914 0.056515
v 0.284122 14.818156 0.056515
v 0.267637 13.262914 0.110859
v 0.267637 14.818156 0.110859
v 0.240867 13.262914 0.160942
v 0.240867 14.818156 0.160942
v 0.204840 13.262914 0.204840
v 0.204840 14.818156 0.204840
v 0.160942 13.262914 0.240867
v 0.160942 14.818156 0.240867
v 0.110859 13.262914 0.267637
v 0.110859 14.818156 0.267637
v 0.056515 13.262914 0.284122
v 0.056515 14.818156 0.284122
v 0.000000 13.262914 0.289688
v 0.000000 14.818156 0.289688
v -0.056515 13.262914 0.284122
v -0.056515 14.818156 0.284122
v -0.110859 13.262914 0.267637
v -0.110859 14.818156 0.267637
v -0.160942 13.262914 0.240867
v -0.160942 14.818156 0.240867
v -0.204840 13.262914 0.204840
v -0.204840 14.818156 0.204840
v -0.240867 13.262914 0.160942
v -0.240867 14.818156 0.160942
v -0.267637 13.262914 0.110859
v -0.267637 14.818156 0.110859
v -0.284122 13.262914 0.056515
v -0.284122 14.818156 0.056515
v -0.289688 13.262914 -0.000000
v -0.289688 14.818156 -0.000000
v -0.284122 13.262914 -0.056515
v -0.284122 14.818156 -0.056515
v -0.267637 13.262914 -0.110859
v -0.267637 14.818156 -0.110859
v -0.240867 13.262914 -0.160942
v -0.240867 14.818156 -0.160942
v -0.204840 13.262914 -0.204840
v -0.204840 14.818156 -0.204840
v -0.160942 13.262914 -0.240867
v -0.160942 14.818156 -0.240867
v -0.110859 13.262914 -0.267637
v -0.110859 14.818156 -0.267637
v -0.056515 13.262914 -0.284122
v -0.056515 14.818156 -0.284122
v 0.000000 2.053651 -0.405764
v 0.000000 13.073001 -0.405764
v 0.079161 2.053651 -0.397967
v 0.079161 13.073001 -0.397967
v 0.155279 2.053651 -0.374877
v 0.155279 13.073001 -0.374877
v 0.225430 2.053651 -0.337380
v 0.225430 13.073001 -0.337380
v 0.286918 2.053651 -0.286918
v 0.286918 13.073001 -0.286918
v 0.337380 2.053651 -0.225430
v 0.337380 13.073001 -0.225430
v 0.374877 2.053651 -0.155279
v 0.374877 13.073001 -0.155279
v 0.397967 2.053651 -0.079161
v 0.397967 13.073001 -0.079161
v 0.405764 2.053651 -0.000000
v 0.405764 13.073001 -0.000000
v 0.397967 2.053651 0.079161
v 0.397967 13.073001 0.079161
v 0.374877 2.053651 0.155279
v 0.374877 13.073001 0.155279
v 0.337380 2.053651 0.225430
v 0.337380 13.073001 0.225430
v 0.286918 2.053651 0.286918
v 0.286918 13.073001 0.286918
v 0.225430 2.053651 0.337380
v 0.225430 13.073001 0.337380
v 0.155279 2.053651 0.374877
v 0.155279 13.073001 0.374877
v 0.079161 2.053651 0.397967
v 0.079161 13.073001 0.397967
v 0.000000 2.053651 0.405764
v 0.000000 13.073001 0.405764
v -0.079161 2.053651 0.397967
v -0.079161 13.073001 0.397967
v -0.155279 2.053651 0.374877
v -0.155279 13.073001 0.374877
v -0.225430 2.053651 0.337380
v -0.225430 13.073001 0.337380
v -0.286918 2.053651 0.286918
v -0.286918 13.073001 0.286918
v -0.337380 2.053651 0.225430
v -0.337380 13.073001 0.225430
v -0.374877 2.053651 0.155279
v -0.374877 13.073001 0.155279
v -0.397967 2.053651 0.079161
v -0.397967 13.073001 0.079161
v -0.405764 2.053651 -0.000000
v -0.405764 13.073001 -0.000000
v -0.397967 2.053651 -0.079161
v -0.397967 13.073001 -0.079161
v -0.374877 2.053651 -0.155279
v -0.374877 13.073001 -0.155279
v -0.337380 2.053651 -0.225430
v -0.337380 13.073001 -0.225430
v -0.286918 2.053651 -0.286918
v -0.286918 13.073001 -0.286918
v -0.225430 2.053651 -0.337380
v -0.225430 13.073001 -0.337380
v -0.155279 2.053651 -0.374877
v -0.155279 13.073001 -0.374877
v -0.079161 2.053651 -0.397967
v -0.079161 13.073001 -0.397967
v 0.000000 13.474325 -1.488233
v 0.000000 13.474325 1.488233
v 0.079161 13.466529 -1.488233
v 0.079161 13.466529 1.488233
v 0.155279 13.443439 -1.488233
v 0.155279 13.443439 1.488233
v 0.225430 13.405942 -1.488233
v 0.225430 13.405942 1.488233
v 0.286918 13.355480 -1.488233
v 0.286918 13.355480 1.488233
v 0.337380 13.293992 -1.488233
v 0.337380 13.293992 1.488233
v 0.374877 13.223841 -1.488233
v 0.374877 13.223841 1.488233
v 0.397967 13.147722 -1.488233
v 0.397967 13.147722 1.488233
v 0.405764 13.068563 -1.488233
v 0.405764 13.068562 1.488233
v 0.397967 12.989402 -1.488233
v 0.397967 12.989402 1.488233
v 0.374877 12.913283 -1.488233
v 0.374877 12.913283 1.488233
v 0.337380 12.843132 -1.488233
v 0.337380 12.843132 1.488233
v 0.286918 12.781644 -1.488233
v 0.286918 12.781644 1.488233
v 0.225430 12.731182 -1.488233
v 0.225430 12.731182 1.488233
v 0.155279 12.693686 -1.488233
v 0.155279 12.693686 1.488233
v 0.079161 12.670595 -1.488233
v 0.079161 12.670595 1.488233
v 0.000000 12.662799 -1.488233
v 0.000000 12.662799 1.488233
v -0.079161 12.670595 -1.488233
v -0.079161 12.670595 1.488233
v -0.155279 12.693686 -1.488233
v -0.155279 12.693686 1.488233
v -0.225430 12.731182 -1.488233
v -0.225430 12.731182 1.488233
v -0.286918 12.781644 -1.488233
v -0.286918 12.781644 1.488233
v -0.337380 12.843132 -1.488233
v -0.337380 12.843132 1.488233
v -0.374877 12.913283 -1.488233
v -0.374877 12.913283 1.488233
v -0.397967 12.989402 -1.488233
v -0.397967 12.989402 1.488233
v -0.405764 13.068563 -1.488233
v -0.405764 13.068562 1.488233
v -0.397967 13.147722 -1.488233
v -0.397967 13.147722 1.488233
v -0.374877 13.223841 -1.488233
v -0.374877 13.223841 1.488233
v -0.337380 13.293992 -1.488233
v -0.337380 13.293992 1.488233
v -0.286918 13.355480 -1.488233
v -0.286918 13.355480 1.488233
v -0.225430 13.405942 -1.488233
v -0.225430 13.405942 1.488233
v -0.155279 13.443439 -1.488233
v -0.155279 13.443439 1.488233
v -0.079161 13.466529 -1.488233
v -0.079161 13.466529 1.488233
v 0.000000 13.284654 0.832909
v 0.000000 15.268009 0.832909
v 0.055494 13.284654 0.838374
v 0.055494 15.268009 0.838374
v 0.108855 13.284654 0.854561
v 0.108855 15.268009 0.854561
v 0.158033 13.284654 0.880847
v 0.158033 15.268009 0.880847
v 0.201138 13.284654 0.916223
v 0.201138 15.268009 0.916223
v 0.236513 13.284654 0.959328
v 0.236513 15.268009 0.959328
v 0.262800 13.284654 1.008506
v 0.262800 15.268009 1.008506
v 0.278987 13.284654 1.061867
v 0.278987 15.268009 1.061867
v 0.284452 13.284654 1.117361
v 0.284452 15.268009 1.117361
v 0.278987 13.284654 1.172855
v 0.278987 15.268009 1.172855
v 0.262800 13.284654 1.226216
v 0.262800 15.268009 1.226216
v 0.236513 13.284654 1.275394
v 0.236513 15.268009 1.275394
v 0.201138 13.284654 1.318499
v 0.201138 15.268009 1.318499
v 0.158033 13.284654 1.353874
v 0.158033 15.268009 1.353874
v 0.108855 13.284654 1.380161
v 0.108855 15.268009 1.380161
v 0.055494 13.284654 1.396348
v 0.055494 15.268009 1.396348
v 0.000000 13.284654 1.401813
v 0.000000 15.268009 1.401813
v -0.055494 13.284654 1.396348
v -0.055494 15.268009 1.396348
v -0.108855 13.284654 1.380161
v -0.108855 15.268009 1.380161
v -0.158033 13.284654 1.353874
v -0.158033 15.268009 1.353874
v -0.201138 13.284654 1.318499
v -0.201138 15.268009 1.318499
v -0.236513 13.284654 1.275394
v -0.236513 15.268009 1.275394
v -0.262800 13.284654 1.226216
v -0.262800 15.268009 1.226216
v -0.278987 13.284654 1.172855
v -0.278987 15.268009 1.172855
v -0.284452 13.284654 1.117361
v -0.284452 15.268009 1.117361
v -0.278987 13.284654 1.061867
v -0.278987 15.268009 1.061867
v -0.262800 13.284654 1.008506
v -0.262800 15.268009 1.008506
v -0.236513 13.284654 0.959328
v -0.236513 15.268009 0.959328
v -0.201138 13.284654 0.916223
v -0.201138 15.268009 0.916223
v -0.158033 13.284654 0.880847
v -0.158033 15.268009 0.880847
v -0.108855 13.284654 0.854561
v -0.108855 15.268009 0.854561
v -0.055494 13.284654 0.838374
v -0.055494 15.268009 0.838374
v 0.000000 13.284654 -0.832909
v 0.000000 15.268009 -0.832909
v 0.055494 13.284654 -0.838374
v 0.055494 15.268009 -0.838374
v 0.108855 13.284654 -0.854561
v 0.108855 15.268009 -0.854561
v 0.158033 13.284654 -0.880848
v 0.158033 15.268009 -0.880848
v 0.201138 13.284654 -0.916223
v 0.201138 15.268009 -0.916223
v 0.236513 13.284654 -0.959328
v 0.236513 15.268009 -0.959328
v 0.262800 13.284654 -1.008506
v 0.262800 15.268009 -1.008506
v 0.278987 13.284654 -1.061867
v 0.278987 15.268009 -1.061867
v 0.284452 13.284654 -1.117361
v 0.284452 15.268009 -1.117361
v 0.278987 13.284654 -1.172855
v 0.278987 15.268009 -1.172855
v 0.262800 13.284654 -1.226216
v 0.262800 15.268009 -1.226216
v 0.236513 13.284654 -1.275394
v 0.236513 15.268009 -1.275394
v 0.201138 13.284654 -1.318499
v 0.201138 15.268009 -1.318499
v 0.158033 13.284654 -1.353874
v 0.158033 15.268009 -1.353874
v 0.108855 13.284654 -1.380161
v 0.108855 15.268009 -1.380161
v 0.055494 13.284654 -1.396348
v 0.055494 15.268009 -1.396348
v 0.000000 13.284654 -1.401813
v 0.000000 15.268009 -1.401813
v -0.055494 13.284654 -1.396348
v -0.055494 15.268009 -1.396348
v -0.108855 13.284654 -1.380161
v -0.108855 15.268009 -1.380161
v -0.158033 13.284654 -1.353874
v -0.158033 15.268009 -1.353874
v -0.201138 13.284654 -1.318499
v -0.201138 15.268009 -1.318499
v -0.236513 13.284654 -1.275394
v -0.236513 15.268009 -1.275394
v -0.262800 13.284654 -1.226216
v -0.262800 15.268009 -1.226216
v -0.278987 13.284654 -1.172855
v -0.278987 15.268009 -1.172855
v -0.284452 13.284654 -1.117361
v -0.284452 15.268009 -1.117361
v -0.278987 13.284654 -1.061867
v -0.278987 15.268009 -1.061867
v -0.262800 13.284654 -1.008506
v -0.262800 15.268009 -1.008506
v -0.236513 13.284654 -0.959328
v -0.236513 15.268009 -0.959328
v -0.201138 13.284654 -0.916223
v -0.201138 15.268009 -0.916223
v -0.158033 13.284654 -0.880848
v -0.158033 15.268009 -0.880848
v -0.108855 13.284654 -0.854561
v -0.108855 15.268009 -0.854561
v -0.055494 13.284654 -0.838374
v -0.055494 15.268009 -0.838374
v 0.000000 14.748024 0.120392
v 0.000000 16.303265 0.120392
v -0.023487 14.748024 0.118079
v -0.023487 16.303265 0.118079
v -0.046072 14.748024 0.111228
v -0.046072 16.303265 0.111228
v -0.066886 14.748024 0.100102
v -0.066886 16.303265 0.100102
v -0.085130 14.748024 0.085130
v -0.085130 16.303265 0.085130
v -0.100102 14.748024 0.066886
v -0.100102 16.303265 0.066886
v -0.111228 14.748024 0.046072
v -0.111228 16.303265 0.046072
v -0.118079 14.748024 0.023487
v -0.118079 16.303265 0.023487
v -0.120392 14.748024 -0.000000
v -0.120392 16.303265 -0.000000
v -0.118079 14.748024 -0.023487
v -0.118079 16.303265 -0.023487
v -0.111228 14.748024 -0.046072
v -0.111228 16.303265 -0.046072
v -0.100102 14.748024 -0.066886
v -0.100102 16.303265 -0.066886
v -0.085130 14.748024 -0.085130
v -0.085130 16.303265 -0.085130
v -0.066886 14.748024 -0.100102
v -0.066886 16.303265 -0.100102
v -0.046072 14.748024 -0.111228
v -0.046072 16.303265 -0.111228
v -0.023487 14.748024 -0.118079
v -0.023487 16.303265 -0.118079
v 0.000000 14.748024 -0.120392
v 0.000000 16.303265 -0.120392
v 0.023487 14.748024 -0.118079
v 0.023487 16.303265 -0.118079
v 0.046072 14.748024 -0.111228
v 0.046072 16.303265 -0.111228
v 0.066886 14.748024 -0.100102
v 0.066886 16.303265 -0.100102
v 0.085130 14.748024 -0.085130
v 0.085130 16.303265 -0.085130
v 0.100102 14.748024 -0.066886
v 0.100102 16.303265 -0.066886
v 0.111228 14.748024 -0.046072
v 0.111228 16.303265 -0.046072
v 0.118079 14.748024 -0.023487
v 0.118079 16.303265 -0.023487
v 0.120392 14.748024 -0.000000
v 0.120392 16.303265 -0.000000
v 0.118079 14.748024 0.023487
v 0.118079 16.303265 0.023487
v 0.111228 14.748024 0.046072
v 0.111228 16.303265 0.046072
v 0.100102 14.748024 0.066886
v 0.100102 16.303265 0.066886
v 0.085130 14.748024 0.085130
v 0.085130 16.303265 0.085130
v 0.066886 14.748024 0.100102
v 0.066886 16.303265 0.100102
v 0.046072 14.748024 0.111228
v 0.046072 16.303265 0.111228
v 0.023487 14.748024 0.118079
v 0.023487 16.303265 0.118079
v 0.000000 14.769763 1.235577
v 0.000000 16.753119 1.235577
v -0.023063 14.769763 1.233306
v -0.023063 16.753119 1.233306
v -0.045239 14.769763 1.226578
v -0.045239 16.753119 1.226578
v -0.065677 14.769763 1.215654
v -0.065677 16.753119 1.215654
v -0.083592 14.769763 1.200952
v -0.083592 16.753119 1.200952
v -0.098293 14.769763 1.183038
v -0.098293 16.753119 1.183038
v -0.109218 14.769763 1.162600
v -0.109218 16.753119 1.162600
v -0.115945 14.769763 1.140424
v -0.115945 16.753119 1.140424
v -0.118216 14.769763 1.117361
v -0.118216 16.753119 1.117361
v -0.115945 14.769763 1.094298
v -0.115945 16.753119 1.094298
v -0.109218 14.769763 1.072122
v -0.109218 16.753119 1.072122
v -0.098293 14.769763 1.051683
v -0.098293 16.753119 1.051683
v -0.083592 14.769763 1.033769
v -0.083592 16.753119 1.033769
v -0.065677 14.769763 1.019068
v -0.065677 16.753119 1.019068
v -0.045239 14.769763 1.008143
v -0.045239 16.753119 1.008143
v -0.023063 14.769763 1.001416
v -0.023063 16.753119 1.001416
v 0.000000 14.769763 0.999145
v 0.000000 16.753119 0.999145
v 0.023063 14.769763 1.001416
v 0.023063 16.753119 1.001416
v 0.045239 14.769763 1.008143
v 0.045239 16.753119 1.008143
v 0.065677 14.769763 1.019068
v 0.065677 16.753119 1.019068
v 0.083592 14.769763 1.033769
v 0.083592 16.753119 1.033769
v 0.098293 14.769763 1.051683
v 0.098293 16.753119 1.051683
v 0.109218 14.769763 1.072122
v 0.109218 16.753119 1.072122
v 0.115945 14.769763 1.094298
v 0.115945 16.753119 1.094298
v 0.118216 14.769763 1.117361
v 0.118216 16.753119 1.117361
v 0.115945 14.769763 1.140424
v 0.115945 16.753119 1.140424
v 0.109218 14.769763 1.162600
v 0.109218 16.753119 1.162600
v 0.098293 14.769763 1.183038
v 0.098293 16.753119 1.183038
v 0.083592 14.769763 1.200952
v 0.083592 16.753119 1.200952
v 0.065677 14.769763 1.215654
v 0.065677 16.753119 1.215654
v 0.045239 14.769763 1.226578
v 0.045239 16.753119 1.226578
v 0.023063 14.769763 1.233306
v 0.023063 16.753119 1.233306
v 0.000000 14.769763 -1.235577
v 0.000000 16.753119 -1.235577
v -0.023063 14.769763 -1.233306
v -0.023063 16.753119 -1.233306
v -0.045239 14.769763 -1.226578
v -0.045239 16.753119 -1.226578
v -0.065677 14.769763 -1.215654
v -0.065677 16.753119 -1.215654
v -0.083592 14.769763 -1.200952
v -0.083592 16.753119 -1.200952
v -0.098293 14.769763 -1.183038
v -0.098293 16.753119 -1.183038
v -0.109218 14.769763 -1.162600
v -0.109218 16.753119 -1.162600
v -0.115945 14.769763 -1.140424
v -0.115945 16.753119 -1.140424
v -0.118216 14.769763 -1.117361
v -0.118216 16.753119 -1.117361
v -0.115945 14.769763 -1.094298
v -0.115945 16.753119 -1.094298
v -0.109218 14.769763 -1.072121
v -0.109218 16.753119 -1.072121
v -0.098293 14.769763 -1.051683
v -0.098293 16.753119 -1.051683
v -0.083592 14.769763 -1.033769
v -0.083592 16.753119 -1.033769
v -0.065677 14.769763 -1.019068
v -0.065677 16.753119 -1.019068
v -0.045239 14.769763 -1.008143
v -0.045239 16.753119 -1.008143
v -0.023063 14.769763 -1.001416
v -0.023063 16.753119 -1.001416
v 0.000000 14.769763 -0.999145
v 0.000000 16.753119 -0.999145
v 0.023063 14.769763 -1.001416
v 0.023063 16.753119 -1.001416
v 0.045239 14.769763 -1.008143
v 0.045239 16.753119 -1.008143
v 0.065677 14.769763 -1.019068
v 0.065677 16.753119 -1.019068
v 0.083592 14.769763 -1.033769
v 0.083592 16.753119 -1.033769
v 0.098293 14.769763 -1.051683
v 0.098293 16.753119 -1.051683
v 0.109218 14.769763 -1.072121
v 0.109218 16.753119 -1.072121
v 0.115945 14.769763 -1.094298
v 0.115945 16.753119 -1.094298
v 0.118216 14.769763 -1.117361
v 0.118216 16.753119 -1.117361
v 0.115945 14.769763 -1.140424
v 0.115945 16.753119 -1.140424
v 0.109218 14.769763 -1.162600
v 0.109218 16.753119 -1.162600
v 0.098293 14.769763 -1.183038
v 0.098293 16.753119 -1.183038
v 0.083592 14.769763 -1.200952
v 0.083592 16.753119 -1.200952
v 0.065677 14.769763 -1.215654
v 0.065677 16.753119 -1.215654
v 0.045239 14.769763 -1.226578
v 0.045239 16.753119 -1.226578
v 0.023063 14.769763 -1.233306
v 0.023063 16.753119 -1.233306
v 0.000000 0.803984 -1.090539
v 0.212754 0.803984 -1.069585
v 0.417331 0.803984 -1.007527
v 0.605871 0.803984 -0.906750
v 0.771128 0.803984 -0.771128
v 0.906750 0.803984 -0.605871
v 1.007527 0.803984 -0.417331
v 1.069585 0.803984 -0.212754
v 1.090539 0.803984 -0.000000
v 1.069585 0.803984 0.212754
v 1.007527 0.803984 0.417331
v 0.906750 0.803984 0.605871
v 0.771128 0.803984 0.771128
v 0.605871 0.803984 0.906750
v 0.417331 0.803984 1.007527
v 0.212754 0.803984 1.069585
v 0.000000 0.803984 1.090539
v -0.212754 0.803984 1.069585
v -0.417331 0.803984 1.007527
v -0.605871 0.803984 0.906750
v -0.771128 0.803984 0.771128
v -0.906750 0.803984 0.605871
v -1.007527 0.803984 0.417331
v -1.069585 0.803984 0.212754
v -1.090539 0.803984 -0.000000
v -1.069585 0.803984 -0.212754
v -1.007527 0.803984 -0.417331
v -0.906750 0.803984 -0.605871
v -0.771128 0.803984 -0.771128
v -0.605871 0.803984 -0.906750
v -0.417331 0.803984 -1.007527
v -0.212754 0.803984 -1.069585
v 0.000000 2.985063 -0.000000
vn 0.0980 -0.0000 -0.9952
vn 0.2903 -0.0000 -0.9569
vn 0.4714 -0.0000 -0.8819
vn 0.6344 -0.0000 -0.7730
vn 0.7730 -0.0000 -0.6344
vn 0.8819 -0.0000 -0.4714
vn 0.9569 -0.0000 -0.2903
vn 0.9952 -0.0000 -0.0980
vn 0.9952 -0.0000 0.0980
vn 0.9569 -0.0000 0.2903
vn 0.8819 -0.0000 0.4714
vn 0.7730 -0.0000 0.6344
vn 0.6344 -0.0000 0.7730
vn 0.4714 -0.0000 0.8819
vn 0.2903 -0.0000 0.9569
vn 0.0980 -0.0000 0.9952
vn -0.0980 -0.0000 0.9952
vn -0.2903 -0.0000 0.9569
vn -0.4714 -0.0000 0.8819
vn -0.6344 -0.0000 0.7730
vn -0.7730 -0.0000 0.6344
vn -0.8819 -0.0000 0.4714
vn -0.9569 -0.0000 0.2903
vn -0.9952 -0.0000 0.0980
vn -0.9952 -0.0000 -0.0980
vn -0.9569 -0.0000 -0.2903
vn -0.8819 -0.0000 -0.4714
vn -0.7730 -0.0000 -0.6344
vn -0.6344 -0.0000 -0.7730
vn -0.4714 -0.0000 -0.8819
vn -0.0000 1.0000 -0.0000
vn -0.2903 -0.0000 -0.9569
vn -0.0980 -0.0000 -0.9952
vn -0.0000 -1.0000 -0.0000
vn 0.0980 0.9952 -0.0000
vn 0.2903 0.9569 -0.0000
vn 0.4714 0.8819 -0.0000
vn 0.6344 0.7730 -0.0000
vn 0.7730 0.6344 -0.0000
vn 0.8819 0.4714 -0.0000
vn 0.9569 0.2903 -0.0000
vn 0.9952 0.0980 -0.0000
vn 0.9952 -0.0980 -0.0000
vn 0.9569 -0.2903 -0.0000
vn 0.8819 -0.4714 -0.0000
vn 0.7730 -0.6344 -0.0000
vn 0.6344 -0.7730 -0.0000
vn 0.4714 -0.8819 -0.0000
vn 0.2903 -0.9569 -0.0000
vn 0.0980 -0.9952 -0.0000
vn -0.0980 -0.9952 -0.0000
vn -0.2903 -0.9569 -0.0000
vn -0.4714 -0.8819 -0.0000
vn -0.6344 -0.7730 -0.0000
vn -0.7730 -0.6344 -0.0000
vn -0.8819 -0.4714 -0.0000
vn -0.9569 -0.2903 -0.0000
vn -0.9952 -0.0980 -0.0000
vn -0.9952 0.0980 -0.0000
vn -0.9569 0.2903 -0.0000
vn -0.8819 0.4714 -0.0000
vn -0.7730 0.6344 -0.0000
vn -0.6344 0.7730 -0.0000
vn -0.4714 0.8819 -0.0000
vn -0.0000 -0.0000 1.0000
vn -0.2903 0.9569 -0.0000
vn -0.0980 0.9952 -0.0000
vn -0.0000 -0.0000 -1.0000
vn 0.0878 0.4455 -0.8910
vn 0.2599 0.4455 -0.8567
vn 0.4220 0.4455 -0.7896
vn 0.5680 0.4455 -0.6921
vn 0.6921 0.4455 -0.5680
vn 0.7896 0.4455 -0.4220
vn 0.8567 0.4455 -0.2599
vn 0.8910 0.4455 -0.0878
vn 0.8910 0.4455 0.0878
vn 0.8567 0.4455 0.2599
vn 0.7896 0.4455 0.4220
vn 0.6921 0.4455 0.5680
vn 0.5680 0.4455 0.6921
vn 0.4220 0.4455 0.7896
vn 0.2599 0.4455 0.8567
vn 0.0878 0.4455 0.8910
vn -0.0878 0.4455 0.8910
vn -0.2599 0.4455 0.8567
vn -0.4220 0.4455 0.7896
vn -0.5680 0.4455 0.6921
vn -0.6921 0.4455 0.5680
vn -0.7896 0.4455 0.4220
vn -0.8567 0.4455 0.2599
vn -0.8910 0.4455 0.0878
vn -0.8910 0.4455 -0.0878
vn -0.8567 0.4455 -0.2599
vn -0.7896 0.4455 -0.4220
vn -0.6921 0.4455 -0.5680
vn -0.5680 0.4455 -0.6921
vn -0.4220 0.4455 -0.7896
vn -0.2599 0.4455 -0.8567
vn -0.0878 0.4455 -0.8910
vt 1.000000 0.500000
vt 1.000000 1.000000
vt 0.968750 1.000000
vt 0.968750 0.500000
vt 0.937500 1.000000
vt 0.937500 0.500000
vt 0.906250 1.000000
vt 0.906250 0.500000
vt 0.875000 1.000000
vt 0.875000 0.500000
vt 0.843750 1.000000
vt 0.843750 0.500000
vt 0.812500 1.000000
vt 0.812500 0.500000
vt 0.781250 1.000000
vt 0.781250 0.500000
vt 0.750000 1.000000
vt 0.750000 0.500000
vt 0.718750 1.000000
vt 0.718750 0.500000
vt 0.687500 1.000000
vt 0.687500 0.500000
vt 0.656250 1.000000
vt 0.656250 0.500000
vt 0.625000 1.000000
vt 0.625000 0.500000
vt 0.593750 1.000000
vt 0.593750 0.500000
vt 0.562500 1.000000
vt 0.562500 0.500000
vt 0.531250 1.000000
vt 0.531250 0.500000
vt 0.500000 1.000000
vt 0.500000 0.500000
vt 0.468750 1.000000
vt 0.468750 0.500000
vt 0.437500 1.000000
vt 0.437500 0.500000
vt 0.406250 1.000000
vt 0.406250 0.500000
vt 0.375000 1.000000
vt 0.375000 0.500000
vt 0.343750 1.000000
vt 0.343750 0.500000
vt 0.312500 1.000000
vt 0.312500 0.500000
vt 0.281250 1.000000
vt 0.281250 0.500000
vt 0.250000 1.000000
vt 0.250000 0.500000
vt 0.218750 1.000000
vt 0.218750 0.500000
vt 0.187500 1.000000
vt 0.187500 0.500000
vt 0.156250 1.000000
vt 0.156250 0.500000
vt 0.125000 1.000000
vt 0.125000 0.500000
vt 0.093750 1.000000
vt 0.093750 0.500000
vt 0.062500 1.000000
vt 0.062500 0.500000
vt 0.296822 0.485388
vt 0.250000 0.490000
vt 0.203178 0.485388
vt 0.158156 0.471731
vt 0.116663 0.449553
vt 0.080294 0.419706
vt 0.050447 0.383337
vt 0.028269 0.341844
vt 0.014612 0.296822
vt 0.010000 0.250000
vt 0.014612 0.203178
vt 0.028269 0.158156
vt 0.050447 0.116663
vt 0.080294 0.080294
vt 0.116663 0.050447
vt 0.158156 0.028269
vt 0.203178 0.014612
vt 0.250000 0.010000
vt 0.296822 0.014612
vt 0.341844 0.028269
vt 0.383337 0.050447
vt 0.419706 0.080294
vt 0.449553 0.116663
vt 0.471731 0.158156
vt 0.485388 0.203178
vt 0.490000 0.250000
vt 0.485388 0.296822
vt 0.471731 0.341844
vt 0.449553 0.383337
vt 0.419706 0.419706
vt 0.383337 0.449553
vt 0.341844 0.471731
vt 0.031250 1.000000
vt 0.031250 0.500000
vt 0.000000 1.000000
vt 0.000000 0.500000
vt 0.750000 0.490000
vt 0.796822 0.485388
vt 0.841844 0.471731
vt 0.883337 0.449553
vt 0.919706 0.419706
vt 0.949553 0.383337
vt 0.971731 0.341844
vt 0.985388 0.296822
vt 0.990000 0.250000
vt 0.985388 0.203178
vt 0.971731 0.158156
vt 0.949553 0.116663
vt 0.919706 0.080294
vt 0.883337 0.050447
vt 0.841844 0.028269
vt 0.796822 0.014612
vt 0.750000 0.010000
vt 0.703178 0.014612
vt 0.658156 0.028269
vt 0.616663 0.050447
vt 0.580294 0.080294
vt 0.550447 0.116663
vt 0.528269 0.158156
vt 0.514612 0.203178
vt 0.510000 0.250000
vt 0.514612 0.296822
vt 0.528269 0.341844
vt 0.550447 0.383337
vt 0.580294 0.419706
vt 0.616663 0.449553
vt 0.658156 0.471731
vt 0.703178 0.485388
vt 0.250000 0.250000
s 0
usemtl candale_opera
f 1/1/1 2/2/1 4/3/1 3/4/1
f 3/4/2 4/3/2 6/5/2 5/6/2
f 5/6/3 6/5/3 8/7/3 7/8/3
f 7/8/4 8/7/4 10/9/4 9/10/4
f 9/10/5 10/9/5 12/11/5 11/12/5
f 11/12/6 12/11/6 14/13/6 13/14/6
f 13/14/7 14/13/7 16/15/7 15/16/7
f 15/16/8 16/15/8 18/17/8 17/18/8
f 17/18/9 18/17/9 20/19/9 19/20/9
f 19/20/10 20/19/10 22/21/10 21/22/10
f 21/22/11 22/21/11 24/23/11 23/24/11
f 23/24/12 24/23/12 26/25/12 25/26/12
f 25/26/13 26/25/13 28/27/13 27/28/13
f 27/28/14 28/27/14 30/29/14 29/30/14
f 29/30/15 30/29/15 32/31/15 31/32/15
f 31/32/16 32/31/16 34/33/16 33/34/16
f 33/34/17 34/33/17 36/35/17 35/36/17
f 35/36/18 36/35/18 38/37/18 37/38/18
f 37/38/19 38/37/19 40/39/19 39/40/19
f 39/40/20 40/39/20 42/41/20 41/42/20
f 41/42/21 42/41/21 44/43/21 43/44/21
f 43/44/22 44/43/22 46/45/22 45/46/22
f 45/46/23 46/45/23 48/47/23 47/48/23
f 47/48/24 48/47/24 50/49/24 49/50/24
f 49/50/25 50/49/25 52/51/25 51/52/25
f 51/52/26 52/51/26 54/53/26 53/54/26
f 53/54/27 54/53/27 56/55/27 55/56/27
f 55/56/28 56/55/28 58/57/28 57/58/28
f 57/58/29 58/57/29 60/59/29 59/60/29
f 59/60/30 60/59/30 62/61/30 61/62/30
f 4/63/31 2/64/31 64/65/31 62/66/31 60/67/31 58/68/31 56/69/31 54/70/31 52/71/31 50/72/31 48/73/31 46/74/31 44/75/31 42/76/31 40/77/31 38/78/31 36/79/31 34/80/31 32/81/31 30/82/31 28/83/31 26/84/31 24/85/31 22/86/31 20/87/31 18/88/31 16/89/31 14/90/31 12/91/31 10/92/31 8/93/31 6/94/31
f 61/62/32 62/61/32 64/95/32 63/96/32
f 63/96/33 64/95/33 2/97/33 1/98/33
f 1/99/34 3/100/34 5/101/34 7/102/34 9/103/34 11/104/34 13/105/34 15/106/34 17/107/34 19/108/34 21/109/34 23/110/34 25/111/34 27/112/34 29/113/34 31/114/34 33/115/34 35/116/34 37/117/34 39/118/34 41/119/34 43/120/34 45/121/34 47/122/34 49/123/34 51/124/34 53/125/34 55/126/34 57/127/34 59/128/34 61/129/34 63/130/34
f 65/1/1 66/2/1 68/3/1 67/4/1
f 67/4/2 68/3/2 70/5/2 69/6/2
f 69/6/3 70/5/3 72/7/3 71/8/3
f 71/8/4 72/7/4 74/9/4 73/10/4
f 73/10/5 74/9/5 76/11/5 75/12/5
f 75/12/6 76/11/6 78/13/6 77/14/6
f 77/14/7 78/13/7 80/15/7 79/16/7
f 79/16/8 80/15/8 82/17/8 81/18/8
f 81/18/9 82/17/9 84/19/9 83/20/9
f 83/20/10 84/19/10 86/21/10 85/22/10
f 85/22/11 86/21/11 88/23/11 87/24/11
f 87/24/12 88/23/12 90/25/12 89/26/12
f 89/26/13 90/25/13 92/27/13 91/28/13
f 91/28/14 92/27/14 94/29/14 93/30/14
f 93/30/15 94/29/15 96/31/15 95/32/15
f 95/32/16 96/31/16 98/33/16 97/34/16
f 97/34/17 98/33/17 100/35/17 99/36/17
f 99/36/18 100/35/18 102/37/18 101/38/18
f 101/38/19 102/37/19 104/39/19 103/40/19
f 103/40/20 104/39/20 106/41/20 105/42/20
f 105/42/21 106/41/21 108/43/21 107/44/21
f 107/44/22 108/43/22 110/45/22 109/46/22
f 109/46/23 110/45/23 112/47/23 111/48/23
f 111/48/24 112/47/24 114/49/24 113/50/24
f 113/50/25 114/49/25 116/51/25 115/52/25
f 115/52/26 116/51/26 118/53/26 117/54/26
f 117/54/27 118/53/27 120/55/27 119/56/27
f 119/56/28 120/55/28 122/57/28 121/58/28
f 121/58/29 122/57/29 124/59/29 123/60/29
f 123/60/30 124/59/30 126/61/30 125/62/30
f 68/63/31 66/64/31 128/65/31 126/66/31 124/67/31 122/68/31 120/69/31 118/70/31 116/71/31 114/72/31 112/73/31 110/74/31 108/75/31 106/76/31 104/77/31 102/78/31 100/79/31 98/80/31 96/81/31 94/82/31 92/83/31 90/84/31 88/85/31 86/86/31 84/87/31 82/88/31 80/89/31 78/90/31 76/91/31 74/92/31 72/93/31 70/94/31
f 125/62/32 126/61/32 128/95/32 127/96/32
f 127/96/33 128/95/33 66/97/33 65/98/33
f 65/99/34 67/100/34 69/101/34 71/102/34 73/103/34 75/104/34 77/105/34 79/106/34 81/107/34 83/108/34 85/109/34 87/110/34 89/111/34 91/112/34 93/113/34 95/114/34 97/115/34 99/116/34 101/117/34 103/118/34 105/119/34 107/120/34 109/121/34 111/122/34 113/123/34 115/124/34 117/125/34 119/126/34 121/127/34 123/128/34 125/129/34 127/130/34
f 129/1/35 130/2/35 132/3/35 131/4/35
f 131/4/36 132/3/36 134/5/36 133/6/36
f 133/6/37 134/5/37 136/7/37 135/8/37
f 135/8/38 136/7/38 138/9/38 137/10/38
f 137/10/39 138/9/39 140/11/39 139/12/39
f 139/12/40 140/11/40 142/13/40 141/14/40
f 141/14/41 142/13/41 144/15/41 143/16/41
f 143/16/42 144/15/42 146/17/42 145/18/42
f 145/18/43 146/17/43 148/19/43 147/20/43
f 147/20/44 148/19/44 150/21/44 149/22/44
f 149/22/45 150/21/45 152/23/45 151/24/45
f 151/24/46 152/23/46 154/25/46 153/26/46
f 153/26/47 154/25/47 156/27/47 155/28/47
f 155/28/48 156/27/48 158/29/48 157/30/48
f 157/30/49 158/29/49 160/31/49 159/32/49
f 159/32/50 160/31/50 162/33/50 161/34/50
f 161/34/51 162/33/51 164/35/51 163/36/51
f 163/36/52 164/35/52 166/37/52 165/38/52
f 165/38/53 166/37/53 168/39/53 167/40/53
f 167/40/54 168/39/54 170/41/54 169/42/54
f 169/42/55 170/41/55 172/43/55 171/44/55
f 171/44/56 172/43/56 174/45/56 173/46/56
f 173/46/57 174/45/57 176/47/57 175/48/57
f 175/48/58 176/47/58 178/49/58 177/50/58
f 177/50/59 178/49/59 180/51/59 179/52/59
f 179/52/60 180/51/60 182/53/60 181/54/60
f 181/54/61 182/53/61 184/55/61 183/56/61
f 183/56/62 184/55/62 186/57/62 185/58/62
f 185/58/63 186/57/63 188/59/63 187/60/63
f 187/60/64 188/59/64 190/61/64 189/62/64
f 132/63/65 130/64/65 192/65/65 190/66/65 188/67/65 186/68/65 184/69/65 182/70/65 180/71/65 178/72/65 176/73/65 174/74/65 172/75/65 170/76/65 168/77/65 166/78/65 164/79/65 162/80/65 160/81/65 158/82/65 156/83/65 154/84/65 152/85/65 150/86/65 148/87/65 146/88/65 144/89/65 142/90/65 140/91/65 138/92/65 136/93/65 134/94/65
f 189/62/66 190/61/66 192/95/66 191/96/66
f 191/96/67 192/95/67 130/97/67 129/98/67
f 129/99/68 131/100/68 133/101/68 135/102/68 137/103/68 139/104/68 141/105/68 143/106/68 145/107/68 147/108/68 149/109/68 151/110/68 153/111/68 155/112/68 157/113/68 159/114/68 161/115/68 163/116/68 165/117/68 167/118/68 169/119/68 171/120/68 173/121/68 175/122/68 177/123/68 179/124/68 181/125/68 183/126/68 185/127/68 187/128/68 189/129/68 191/130/68
f 193/1/1 194/2/1 196/3/1 195/4/1
f 195/4/2 196/3/2 198/5/2 197/6/2
f 197/6/3 198/5/3 200/7/3 199/8/3
f 199/8/4 200/7/4 202/9/4 201/10/4
f 201/10/5 202/9/5 204/11/5 203/12/5
f 203/12/6 204/11/6 206/13/6 205/14/6
f 205/14/7 206/13/7 208/15/7 207/16/7
f 207/16/8 208/15/8 210/17/8 209/18/8
f 209/18/9 210/17/9 212/19/9 211/20/9
f 211/20/10 212/19/10 214/21/10 213/22/10
f 213/22/11 214/21/11 216/23/11 215/24/11
f 215/24/12 216/23/12 218/25/12 217/26/12
f 217/26/13 218/25/13 220/27/13 219/28/13
f 219/28/14 220/27/14 222/29/14 221/30/14
f 221/30/15 222/29/15 224/31/15 223/32/15
f 223/32/16 224/31/16 226/33/16 225/34/16
f 225/34/17 226/33/17 228/35/17 227/36/17
f 227/36/18 228/35/18 230/37/18 229/38/18
f 229/38/19 230/37/19 232/39/19 231/40/19
f 231/40/20 232/39/20 234/41/20 233/42/20
f 233/42/21 234/41/21 236/43/21 235/44/21
f 235/44/22 236/43/22 238/45/22 237/46/22
f 237/46/23 238/45/23 240/47/23 239/48/23
f 239/48/24 240/47/24 242/49/24 241/50/24
f 241/50/25 242/49/25 244/51/25 243/52/25
f 243/52/26 244/51/26 246/53/26 245/54/26
f 245/54/27 246/53/27 248/55/27 247/56/27
f 247/56/28 248/55/28 250/57/28 249/58/28
f 249/58/29 250/57/29 252/59/29 251/60/29
f 251/60/30 252/59/30 254/61/30 253/62/30
f 196/63/31 194/64/31 256/65/31 254/66/31 252/67/31 250/68/31 248/69/31 246/70/31 244/71/31 242/72/31 240/73/31 238/74/31 236/75/31 234/76/31 232/77/31 230/78/31 228/79/31 226/80/31 224/81/31 222/82/31 220/83/31 218/84/31 216/85/31 214/86/31 212/87/31 210/88/31 208/89/31 206/90/31 204/91/31 202/92/31 200/93/31 198/94/31
f 253/62/32 254/61/32 256/95/32 255/96/32
f 255/96/33 256/95/33 194/97/33 193/98/33
f 193/99/34 195/100/34 197/101/34 199/102/34 201/103/34 203/104/34 205/105/34 207/106/34 209/107/34 211/108/34 213/109/34 215/110/34 217/111/34 219/112/34 221/113/34 223/114/34 225/115/34 227/116/34 229/117/34 231/118/34 233/119/34 235/120/34 237/121/34 239/122/34 241/123/34 243/124/34 245/125/34 247/126/34 249/127/34 251/128/34 253/129/34 255/130/34
f 257/1/16 259/4/16 260/3/16 258/2/16
f 259/4/15 261/6/15 262/5/15 260/3/15
f 261/6/14 263/8/14 264/7/14 262/5/14
f 263/8/13 265/10/13 266/9/13 264/7/13
f 265/10/12 267/12/12 268/11/12 266/9/12
f 267/12/11 269/14/11 270/13/11 268/11/11
f 269/14/10 271/16/10 272/15/10 270/13/10
f 271/16/9 273/18/9 274/17/9 272/15/9
f 273/18/8 275/20/8 276/19/8 274/17/8
f 275/20/7 277/22/7 278/21/7 276/19/7
f 277/22/6 279/24/6 280/23/6 278/21/6
f 279/24/5 281/26/5 282/25/5 280/23/5
f 281/26/4 283/28/4 284/27/4 282/25/4
f 283/28/3 285/30/3 286/29/3 284/27/3
f 285/30/2 287/32/2 288/31/2 286/29/2
f 287/32/1 289/34/1 290/33/1 288/31/1
f 289/34/33 291/36/33 292/35/33 290/33/33
f 291/36/32 293/38/32 294/37/32 292/35/32
f 293/38/30 295/40/30 296/39/30 294/37/30
f 295/40/29 297/42/29 298/41/29 296/39/29
f 297/42/28 299/44/28 300/43/28 298/41/28
f 299/44/27 301/46/27 302/45/27 300/43/27
f 301/46/26 303/48/26 304/47/26 302/45/26
f 303/48/25 305/50/25 306/49/25 304/47/25
f 305/50/24 307/52/24 308/51/24 306/49/24
f 307/52/23 309/54/23 310/53/23 308/51/23
f 309/54/22 311/56/22 312/55/22 310/53/22
f 311/56/21 313/58/21 314/57/21 312/55/21
f 313/58/20 315/60/20 316/59/20 314/57/20
f 315/60/19 317/62/19 318/61/19 316/59/19
f 260/63/31 262/94/31 264/93/31 266/92/31 268/91/31 270/90/31 272/89/31 274/88/31 276/87/31 278/86/31 280/85/31 282/84/31 284/83/31 286/82/31 288/81/31 290/80/31 292/79/31 294/78/31 296/77/31 298/76/31 300/75/31 302/74/31 304/73/31 306/72/31 308/71/31 310/70/31 312/69/31 314/68/31 316/67/31 318/66/31 320/65/31 258/64/31
f 317/62/18 319/96/18 320/95/18 318/61/18
f 319/96/17 257/98/17 258/97/17 320/95/17
f 257/99/34 319/130/34 317/129/34 315/128/34 313/127/34 311/126/34 309/125/34 307/124/34 305/123/34 303/122/34 301/121/34 299/120/34 297/119/34 295/118/34 293/117/34 291/116/34 289/115/34 287/114/34 285/113/34 283/112/34 281/111/34 279/110/34 277/109/34 275/108/34 273/107/34 271/106/34 269/105/34 267/104/34 265/103/34 263/102/34 261/101/34 259/100/34
f 321/1/17 322/2/17 324/3/17 323/4/17
f 323/4/18 324/3/18 326/5/18 325/6/18
f 325/6/19 326/5/19 328/7/19 327/8/19
f 327/8/20 328/7/20 330/9/20 329/10/20
f 329/10/21 330/9/21 332/11/21 331/12/21
f 331/12/22 332/11/22 334/13/22 333/14/22
f 333/14/23 334/13/23 336/15/23 335/16/23
f 335/16/24 336/15/24 338/17/24 337/18/24
f 337/18/25 338/17/25 340/19/25 339/20/25
f 339/20/26 340/19/26 342/21/26 341/22/26
f 341/22/27 342/21/27 344/23/27 343/24/27
f 343/24/28 344/23/28 346/25/28 345/26/28
f 345/26/29 346/25/29 348/27/29 347/28/29
f 347/28/30 348/27/30 350/29/30 349/30/30
f 349/30/32 350/29/32 352/31/32 351/32/32
f 351/32/33 352/31/33 354/33/33 353/34/33
f 353/34/1 354/33/1 356/35/1 355/36/1
f 355/36/2 356/35/2 358/37/2 357/38/2
f 357/38/3 358/37/3 360/39/3 359/40/3
f 359/40/4 360/39/4 362/41/4 361/42/4
f 361/42/5 362/41/5 364/43/5 363/44/5
f 363/44/6 364/43/6 366/45/6 365/46/6
f 365/46/7 366/45/7 368/47/7 367/48/7
f 367/48/8 368/47/8 370/49/8 369/50/8
f 369/50/9 370/49/9 372/51/9 371/52/9
f 371/52/10 372/51/10 374/53/10 373/54/10
f 373/54/11 374/53/11 376/55/11 375/56/11
f 375/56/12 376/55/12 378/57/12 377/58/12
f 377/58/13 378/57/13 380/59/13 379/60/13
f 379/60/14 380/59/14 382/61/14 381/62/14
f 324/63/31 322/64/31 384/65/31 382/66/31 380/67/31 378/68/31 376/69/31 374/70/31 372/71/31 370/72/31 368/73/31 366/74/31 364/75/31 362/76/31 360/77/31 358/78/31 356/79/31 354/80/31 352/81/31 350/82/31 348/83/31 346/84/31 344/85/31 342/86/31 340/87/31 338/88/31 336/89/31 334/90/31 332/91/31 330/92/31 328/93/31 326/94/31
f 381/62/15 382/61/15 384/95/15 383/96/15
f 383/96/16 384/95/16 322/97/16 321/98/16
f 321/99/34 323/100/34 325/101/34 327/102/34 329/103/34 331/104/34 333/105/34 335/106/34 337/107/34 339/108/34 341/109/34 343/110/34 345/111/34 347/112/34 349/113/34 351/114/34 353/115/34 355/116/34 357/117/34 359/118/34 361/119/34 363/120/34 365/121/34 367/122/34 369/123/34 371/124/34 373/125/34 375/126/34 377/127/34 379/128/34 381/129/34 383/130/34
f 385/1/17 386/2/17 388/3/17 387/4/17
f 387/4/18 388/3/18 390/5/18 389/6/18
f 389/6/19 390/5/19 392/7/19 391/8/19
f 391/8/20 392/7/20 394/9/20 393/10/20
f 393/10/21 394/9/21 396/11/21 395/12/21
f 395/12/22 396/11/22 398/13/22 397/14/22
f 397/14/23 398/13/23 400/15/23 399/16/23
f 399/16/24 400/15/24 402/17/24 401/18/24
f 401/18/25 402/17/25 404/19/25 403/20/25
f 403/20/26 404/19/26 406/21/26 405/22/26
f 405/22/27 406/21/27 408/23/27 407/24/27
f 407/24/28 408/23/28 410/25/28 409/26/28
f 409/26/29 410/25/29 412/27/29 411/28/29
f 411/28/30 412/27/30 414/29/30 413/30/30
f 413/30/32 414/29/32 416/31/32 415/32/32
f 415/32/33 416/31/33 418/33/33 417/34/33
f 417/34/1 418/33/1 420/35/1 419/36/1
f 419/36/2 420/35/2 422/37/2 421/38/2
f 421/38/3 422/37/3 424/39/3 423/40/3
f 423/40/4 424/39/4 426/41/4 425/42/4
f 425/42/5 426/41/5 428/43/5 427/44/5
f 427/44/6 428/43/6 430/45/6 429/46/6
f 429/46/7 430/45/7 432/47/7 431/48/7
f 431/48/8 432/47/8 434/49/8 433/50/8
f 433/50/9 434/49/9 436/51/9 435/52/9
f 435/52/10 436/51/10 438/53/10 437/54/10
f 437/54/11 438/53/11 440/55/11 439/56/11
f 439/56/12 440/55/12 442/57/12 441/58/12
f 441/58/13 442/57/13 444/59/13 443/60/13
f 443/60/14 444/59/14 446/61/14 445/62/14
f 388/63/31 386/64/31 448/65/31 446/66/31 444/67/31 442/68/31 440/69/31 438/70/31 436/71/31 434/72/31 432/73/31 430/74/31 428/75/31 426/76/31 424/77/31 422/78/31 420/79/31 418/80/31 416/81/31 414/82/31 412/83/31 410/84/31 408/85/31 406/86/31 404/87/31 402/88/31 400/89/31 398/90/31 396/91/31 394/92/31 392/93/31 390/94/31
f 445/62/15 446/61/15 448/95/15 447/96/15
f 447/96/16 448/95/16 386/97/16 385/98/16
f 385/99/34 387/100/34 389/101/34 391/102/34 393/103/34 395/104/34 397/105/34 399/106/34 401/107/34 403/108/34 405/109/34 407/110/34 409/111/34 411/112/34 413/113/34 415/114/34 417/115/34 419/116/34 421/117/34 423/118/34 425/119/34 427/120/34 429/121/34 431/122/34 433/123/34 435/124/34 437/125/34 439/126/34 441/127/34 443/128/34 445/129/34 447/130/34
f 449/1/33 451/4/33 452/3/33 450/2/33
f 451/4/32 453/6/32 454/5/32 452/3/32
f 453/6/30 455/8/30 456/7/30 454/5/30
f 455/8/29 457/10/29 458/9/29 456/7/29
f 457/10/28 459/12/28 460/11/28 458/9/28
f 459/12/27 461/14/27 462/13/27 460/11/27
f 461/14/26 463/16/26 464/15/26 462/13/26
f 463/16/25 465/18/25 466/17/25 464/15/25
f 465/18/24 467/20/24 468/19/24 466/17/24
f 467/20/23 469/22/23 470/21/23 468/19/23
f 469/22/22 471/24/22 472/23/22 470/21/22
f 471/24/21 473/26/21 474/25/21 472/23/21
f 473/26/20 475/28/20 476/27/20 474/25/20
f 475/28/19 477/30/19 478/29/19 476/27/19
f 477/30/18 479/32/18 480/31/18 478/29/18
f 479/32/17 481/34/17 482/33/17 480/31/17
f 481/34/16 483/36/16 484/35/16 482/33/16
f 483/36/15 485/38/15 486/37/15 484/35/15
f 485/38/14 487/40/14 488/39/14 486/37/14
f 487/40/13 489/42/13 490/41/13 488/39/13
f 489/42/12 491/44/12 492/43/12 490/41/12
f 491/44/11 493/46/11 494/45/11 492/43/11
f 493/46/10 495/48/10 496/47/10 494/45/10
f 495/48/9 497/50/9 498/49/9 496/47/9
f 497/50/8 499/52/8 500/51/8 498/49/8
f 499/52/7 501/54/7 502/53/7 500/51/7
f 501/54/6 503/56/6 504/55/6 502/53/6
f 503/56/5 505/58/5 506/57/5 504/55/5
f 505/58/4 507/60/4 508/59/4 506/57/4
f 507/60/3 509/62/3 510/61/3 508/59/3
f 452/63/31 454/94/31 456/93/31 458/92/31 460/91/31 462/90/31 464/89/31 466/88/31 468/87/31 470/86/31 472/85/31 474/84/31 476/83/31 478/82/31 480/81/31 482/80/31 484/79/31 486/78/31 488/77/31 490/76/31 492/75/31 494/74/31 496/73/31 498/72/31 500/71/31 502/70/31 504/69/31 506/68/31 508/67/31 510/66/31 512/65/31 450/64/31
f 509/62/2 511/96/2 512/95/2 510/61/2
f 511/96/1 449/98/1 450/97/1 512/95/1
f 449/99/34 511/130/34 509/129/34 507/128/34 505/127/34 503/126/34 501/125/34 499/124/34 497/123/34 495/122/34 493/121/34 491/120/34 489/119/34 487/118/34 485/117/34 483/116/34 481/115/34 479/114/34 477/113/34 475/112/34 473/111/34 471/110/34 469/109/34 467/108/34 465/107/34 463/106/34 461/105/34 459/104/34 457/103/34 455/102/34 453/101/34 451/100/34
f 513/64/69 545/131/69 514/63/69
f 514/63/70 545/131/70 515/94/70
f 515/94/71 545/131/71 516/93/71
f 516/93/72 545/131/72 517/92/72
f 517/92/73 545/131/73 518/91/73
f 518/91/74 545/131/74 519/90/74
f 519/90/75 545/131/75 520/89/75
f 520/89/76 545/131/76 521/88/76
f 521/88/77 545/131/77 522/87/77
f 522/87/78 545/131/78 523/86/78
f 523/86/79 545/131/79 524/85/79
f 524/85/80 545/131/80 525/84/80
f 525/84/81 545/131/81 526/83/81
f 526/83/82 545/131/82 527/82/82
f 527/82/83 545/131/83 528/81/83
f 528/81/84 545/131/84 529/80/84
f 529/80/85 545/131/85 530/79/85
f 530/79/86 545/131/86 531/78/86
f 531/78/87 545/131/87 532/77/87
f 532/77/88 545/131/88 533/76/88
f 533/76/89 545/131/89 534/75/89
f 534/75/90 545/131/90 535/74/90
f 535/74/91 545/131/91 536/73/91
f 536/73/92 545/131/92 537/72/92
f 537/72/93 545/131/93 538/71/93
f 538/71/94 545/131/94 539/70/94
f 539/70/95 545/131/95 540/69/95
f 540/69/96 545/131/96 541/68/96
f 541/68/97 545/131/97 542/67/97
f 542/67/98 545/131/98 543/66/98
f 513/99/34 514/100/34 515/101/34 516/102/34 517/103/34 518/104/34 519/105/34 520/106/34 521/107/34 522/108/34 523/109/34 524/110/34 525/111/34 526/112/34 527/113/34 528/114/34 529/115/34 530/116/34 531/117/34 532/118/34 533/119/34 534/120/34 535/121/34 536/122/34 537/123/34 538/124/34 539/125/34 540/126/34 541/127/34 542/128/34 543/129/34 544/130/34
f 543/66/99 545/131/99 544/65/99
f 544/65/100 545/131/100 513/64/100
