# Blender 4.5.3 LTS
# www.blender.org
mtllib Rapture_bible.mtl
o book
v -3.362894 -0.510045 2.572583
v -3.362894 0.510045 2.572583
v -3.362894 -0.510045 -2.653461
v -3.362894 0.510045 -2.653461
v 3.362894 -0.510045 2.730064
v 3.362894 0.510045 2.730064
v 3.362894 -0.510045 -2.653461
v 3.362894 0.510045 -2.653461
v -3.476316 -0.589009 -2.901728
v -3.476316 -0.589009 2.901728
v -3.476316 0.589009 2.901728
v -3.476316 0.589009 -2.901728
v 3.476316 -0.589009 -2.901728
v 3.476316 0.589009 -2.901728
v 3.476316 -0.589009 2.901728
v 3.476316 0.589009 2.901728
v -3.362894 0.000000 -2.653461
v 3.362894 0.000000 -2.653461
v -3.362894 0.000000 2.572583
v 3.362894 0.000000 2.730064
v -3.476316 -0.360770 2.984570
v -3.476316 0.360770 2.984570
v -3.362923 0.000000 2.572726
v -3.476316 -0.132051 3.032499
v -3.476316 0.132051 3.032499
v 3.476316 0.360770 2.984570
v 3.476316 -0.360770 2.984570
v 3.362935 0.000000 2.730205
v 3.476316 0.132051 3.032499
v 3.476316 -0.132051 3.032499
vn -1.0000 -0.0000 -0.0000
vn -0.0000 -0.0000 -1.0000
vn 1.0000 -0.0000 -0.0000
vn 0.9015 0.0483 -0.4300
vn -0.0000 -1.0000 -0.0000
vn -0.0000 1.0000 -0.0000
vn -0.5714 0.8207 -0.0000
vn -0.0000 0.3412 0.9400
vn -0.5714 -0.8207 -0.0000
vn -0.0000 0.9530 -0.3031
vn -0.0000 -0.9530 -0.3031
vn 0.5714 0.8207 -0.0000
vn 0.5714 -0.8207 -0.0000
vn 0.9015 -0.0483 -0.4300
vn -0.0000 -0.3412 0.9400
vn -0.9607 0.0309 -0.2757
vn -0.9729 0.0474 -0.2263
vn -0.9709 -0.0000 -0.2395
vn -0.9729 -0.0474 -0.2263
vn 0.9435 -0.0679 -0.3242
vn 0.9363 -0.0000 -0.3512
vn 0.9435 0.0679 -0.3242
vn -0.0000 0.2051 0.9787
vn -0.0000 -0.0000 1.0000
vn -0.0000 -0.2051 0.9787
vn -0.9607 -0.0309 -0.2757
vt 0.500000 0.010268
vt 0.614732 0.010268
vt 0.614732 0.250000
vt 0.500000 0.250000
vt 0.614732 0.500000
vt 0.500000 0.500000
vt 0.614732 0.739732
vt 0.500000 0.739732
vt 0.385268 0.739732
vt 0.500000 0.739736
vt 0.423437 0.750000
vt 0.375000 0.750000
vt 0.125000 0.500000
vt 0.375000 0.500000
vt 0.125000 0.750000
vt 0.625000 0.500000
vt 0.875000 0.500000
vt 0.875000 0.750000
vt 0.625000 0.750000
vt 0.385268 0.010268
vt 0.385268 0.250000
vt 0.375000 0.250000
vt 0.375000 0.000000
vt 0.576563 0.750000
vt 0.625000 1.000000
vt 0.576563 1.000000
vt 0.625000 0.000000
vt 0.625000 0.250000
vt 0.385268 0.500000
vt 0.500000 0.739736
vt 0.423437 1.000000
vt 0.375000 1.000000
vt 0.423437 0.000000
vt 0.500000 0.010265
vt 0.471877 0.000000
vt 0.500000 0.001524
vt 0.500000 0.002403
vt 0.528123 0.750000
vt 0.472344 0.750000
vt 0.424173 0.750000
vt 0.528123 1.000000
vt 0.471877 1.000000
vt 0.471877 0.750000
vt 0.576563 0.000000
s 0
usemtl book
f 19/1/1 2/2/1 4/3/1 17/4/1
f 17/4/2 4/3/2 8/5/2 18/6/2
f 18/6/3 8/5/3 6/7/3 20/8/3
f 5/9/4 20/8/4 28/10/4 27/11/4 15/12/4
f 9/13/5 13/14/5 15/12/5 10/15/5
f 14/16/6 12/17/6 11/18/6 16/19/6
f 1/20/7 3/21/7 9/22/7 10/23/7
f 26/24/8 16/19/8 11/25/8 22/26/8
f 4/3/9 2/2/9 11/27/9 12/28/9
f 3/21/10 7/29/10 13/14/10 9/22/10
f 8/5/11 4/3/11 12/28/11 14/16/11
f 7/29/12 5/9/12 15/12/12 13/14/12
f 6/7/13 8/5/13 14/16/13 16/19/13
f 20/8/14 6/7/14 16/19/14 26/24/14 28/30/14
f 15/12/15 27/11/15 21/31/15 10/32/15
f 19/1/16 1/20/16 10/23/16 21/33/16 23/34/16
f 7/29/3 18/6/3 20/8/3 5/9/3
f 3/21/2 17/4/2 18/6/2 7/29/2
f 1/20/1 19/1/1 17/4/1 3/21/1
f 21/33/17 24/35/17 23/34/17
f 24/35/18 25/36/18 23/34/18
f 25/36/19 22/37/19 23/34/19
f 26/24/20 29/38/20 28/10/20
f 29/38/21 30/39/21 28/10/21
f 30/39/22 27/40/22 28/10/22
f 26/24/23 22/26/23 25/41/23 29/38/23
f 29/38/24 25/41/24 24/42/24 30/43/24
f 30/43/25 24/42/25 21/31/25 27/11/25
f 2/2/26 19/1/26 23/34/26 22/44/26 11/27/26
