# Blender 4.5.3 LTS
# www.blender.org
mtllib table.mtl
o table
v -1.928555 2.123855 1.655971
v -2.734164 2.610570 2.347714
v -1.928555 2.123855 -1.655971
v -2.734164 2.610570 -2.347714
v 1.928555 2.123855 1.655971
v 2.734164 2.610570 2.347714
v 1.928555 2.123855 -1.655971
v 2.734164 2.610570 -2.347714
v -2.734164 2.123855 -2.347714
v -2.734164 2.123855 2.347714
v 2.734164 2.123855 -2.347714
v 2.734164 2.123855 2.347714
v -1.928555 -0.137430 -1.655971
v -1.928555 -0.137430 1.655971
v 1.928555 -0.137430 -1.655971
v 1.928555 -0.137430 1.655971
vn -1.0000 -0.0000 -0.0000
vn -0.0000 -0.0000 -1.0000
vn 1.0000 -0.0000 -0.0000
vn -0.0000 -0.0000 1.0000
vn -0.0000 1.0000 -0.0000
vn -0.0000 -1.0000 -0.0000
vt 0.375000 0.000000
vt 0.625000 0.000000
vt 0.625000 0.250000
vt 0.375000 0.250000
vt 0.625000 0.500000
vt 0.375000 0.500000
vt 0.625000 0.750000
vt 0.375000 0.750000
vt 0.625000 1.000000
vt 0.375000 1.000000
vt 0.161831 0.536831
vt 0.338169 0.536831
vt 0.875000 0.500000
vt 0.875000 0.750000
vt 0.161831 0.713169
vt 0.125000 0.750000
vt 0.125000 0.500000
vt 0.338169 0.713169
s 0
usemtl table
f 10/1/1 2/2/1 4/3/1 9/4/1
f 9/4/2 4/3/2 8/5/2 11/6/2
f 11/6/3 8/5/3 6/7/3 12/8/3
f 12/8/4 6/7/4 2/9/4 10/10/4
f 3/11/2 7/12/2 15/12/2 13/11/2
f 8/5/5 4/13/5 2/14/5 6/7/5
f 3/11/6 1/15/6 10/16/6 9/17/6
f 7/12/6 3/11/6 9/17/6 11/6/6
f 5/18/6 7/12/6 11/6/6 12/8/6
f 1/15/6 5/18/6 12/8/6 10/16/6
f 13/11/6 15/12/6 16/18/6 14/15/6
f 7/12/3 5/18/3 16/18/3 15/12/3
f 1/15/1 3/11/1 13/11/1 14/15/1
f 5/18/4 1/15/4 14/15/4 16/18/4
