# Blender 4.5.3 LTS
# www.blender.org
mtllib torch.mtl
o torch
v -0.933002 -0.694501 0.289268
v 0.482990 1.058086 0.289268
v -0.933002 -0.694501 -0.289268
v 0.482990 1.058086 -0.289268
v -0.482990 -1.058086 0.289268
v 0.933002 0.694501 0.289268
v -0.482990 -1.058086 -0.289268
v 0.933002 0.694501 -0.289268
v -1.058005 -1.646711 1.042857
v -1.058005 0.606419 1.042857
v -1.058005 -1.646711 -1.042857
v -1.058005 0.606419 -1.042857
v -0.479468 -1.646711 1.042857
v -0.479468 0.606419 1.042857
v -0.479468 -1.646711 -1.042857
v -0.479468 0.606419 -1.042857
vn -0.7778 0.6285 -0.0000
vn -0.0000 -0.0000 -1.0000
vn 0.7778 -0.6285 -0.0000
vn -0.0000 -0.0000 1.0000
vn -0.6285 -0.7778 -0.0000
vn 0.6285 0.7778 -0.0000
vn -1.0000 -0.0000 -0.0000
vn 1.0000 -0.0000 -0.0000
vn -0.0000 -1.0000 -0.0000
vn -0.0000 1.0000 -0.0000
vt 0.375000 0.000000
vt 0.625000 0.000000
vt 0.625000 0.250000
vt 0.375000 0.250000
vt 0.625000 0.500000
vt 0.375000 0.500000
vt 0.625000 0.750000
vt 0.375000 0.750000
vt 0.625000 1.000000
vt 0.375000 1.000000
vt 0.125000 0.500000
vt 0.125000 0.750000
vt 0.875000 0.500000
vt 0.875000 0.750000
s 0
usemtl torch_mat
f 1/1/1 2/2/1 4/3/1 3/4/1
f 3/4/2 4/3/2 8/5/2 7/6/2
f 7/6/3 8/5/3 6/7/3 5/8/3
f 5/8/4 6/7/4 2/9/4 1/10/4
f 3/11/5 7/6/5 5/8/5 1/12/5
f 8/5/6 4/13/6 2/14/6 6/7/6
f 9/1/7 10/2/7 12/3/7 11/4/7
f 11/4/2 12/3/2 16/5/2 15/6/2
f 15/6/8 16/5/8 14/7/8 13/8/8
f 13/8/4 14/7/4 10/9/4 9/10/4
f 11/11/9 15/6/9 13/8/9 9/12/9
f 16/5/10 12/13/10 10/14/10 14/7/10
