# Blender 4.5.3 LTS
# www.blender.org
mtllib big_room_4_two_doors.mtl
o big_room_4_diff_path
v 40.576511 -0.002895 -36.844231
v 40.576511 4.053428 -36.844231
v 40.029488 -0.002895 -36.844231
v 40.029488 4.053428 -36.844231
v 40.576511 -0.002895 -38.847660
v 40.576511 5.442761 -38.847660
v 40.029488 -0.002895 -38.847660
v 40.029488 5.442761 -38.847660
v 40.576511 0.002835 -36.566368
v 40.576511 4.482465 -36.566368
v 40.029488 4.482465 -36.566368
v 40.029488 0.002835 -36.566368
v 40.029488 0.002835 -39.125523
v 40.029488 6.257178 -39.125523
v 40.576511 6.257178 -39.125523
v 40.576511 0.002835 -39.125523
v 40.562584 4.053428 -36.844231
v 40.562584 5.442761 -38.847660
v 40.562584 -0.002895 -38.847660
v 40.562584 -0.002895 -36.844231
v 40.576511 5.411151 -39.125523
v 40.029488 5.426171 -39.125523
v 40.029488 5.415151 -39.125427
v 40.562584 5.415151 -39.125427
v 40.029488 0.089141 -36.566368
v 40.576511 0.089141 -36.566368
v 40.029488 0.089141 -39.125523
v 40.576511 0.089141 -39.125523
v 40.576511 -0.002895 -41.378403
v 40.576511 4.053428 -41.378403
v 40.029488 -0.002895 -41.378403
v 40.029488 4.053428 -41.378403
v 40.576511 -0.002895 -39.374973
v 40.576511 5.442761 -39.374973
v 40.029488 -0.002895 -39.374973
v 40.029488 5.442761 -39.374973
v 40.576511 0.002835 -41.656265
v 40.576511 4.482465 -41.656265
v 40.029488 4.482465 -41.656265
v 40.029488 0.002835 -41.656265
v 40.029488 0.002835 -39.097111
v 40.029488 6.257178 -39.097111
v 40.576511 6.257178 -39.097111
v 40.576511 0.002835 -39.097111
v 40.562584 4.053428 -41.378403
v 40.562584 5.442761 -39.374973
v 40.562584 -0.002895 -39.374973
v 40.562584 -0.002895 -41.378403
v 40.576511 5.411151 -39.097111
v 40.029488 5.426171 -39.097111
v 40.029488 5.415151 -39.097206
v 40.562584 5.415151 -39.097206
v 40.029488 0.089141 -41.656265
v 40.576511 0.089141 -41.656265
v 40.029488 0.089141 -39.097111
v 40.576511 0.089141 -39.097111
v 18.312246 8.371691 -27.067215
v 18.312246 -8.371691 -27.067215
v 18.312246 8.371691 -50.989693
v 18.312246 -8.371691 -50.989693
v 41.774940 8.371692 -27.067215
v 41.774937 8.371692 -50.989693
v 26.986267 8.371692 -27.067215
v 26.986265 8.371692 -50.989693
v 18.257748 0.000000 -28.096840
v 40.296192 0.000000 -28.096840
v 18.257751 0.000000 -50.135284
v 40.296196 0.000000 -50.135284
v 26.752209 0.000000 -28.096840
v 31.719631 0.000000 -28.096840
v 31.719631 0.000000 -50.135284
v 26.752209 0.000000 -50.135284
v 18.257748 9.679085 -28.096840
v 40.296192 9.679085 -28.096840
v 18.257751 9.679085 -50.135284
v 40.296196 9.679085 -50.135284
v 29.204880 9.679085 -28.096840
v 28.948751 9.679085 -28.096840
v 28.793652 9.679085 -50.135284
v 30.773724 9.679085 -50.135284
v 26.752209 4.226079 -28.096840
v 18.257748 4.226079 -28.096840
v 40.296192 4.294242 -28.096840
v 31.719631 4.294242 -28.096840
v 18.257748 6.100550 -28.096840
v 29.291306 6.100550 -28.096840
v 29.279671 6.100550 -28.096840
v 40.296192 6.100550 -28.096840
v 31.719631 4.271449 -50.135284
v 40.296196 4.271449 -50.135284
v 18.257751 4.214249 -50.135284
v 26.752209 4.214249 -50.135284
v 40.296196 5.839862 -50.135284
v 29.355160 5.839862 -50.135284
v 29.106371 5.781538 -50.135284
v 18.257751 5.781538 -50.135284
v 18.257750 0.000000 -39.116062
v 40.296196 0.000000 -39.116062
v 26.752209 0.000000 -39.116062
v 31.719631 0.000000 -39.116062
v 40.296196 0.000000 -28.096840
v 40.296192 0.000000 -50.135284
v 40.296196 0.000000 -36.591297
v 40.296192 0.000000 -41.558723
v 40.296196 9.679085 -28.096840
v 40.296192 9.679085 -50.135284
v 40.296196 9.679085 -39.043968
v 40.296196 9.679085 -38.787842
v 40.296196 4.226079 -36.591297
v 40.296196 4.226079 -28.096840
v 40.296192 4.294242 -50.135284
v 40.296192 4.294242 -41.558723
v 40.296196 6.100550 -28.096840
v 40.296196 6.100550 -39.130394
v 40.296196 6.100550 -39.118759
v 40.296192 6.100550 -50.135284
v 27.009884 -0.002895 -27.887333
v 27.009884 4.053428 -27.887333
v 27.009884 -0.002895 -28.434357
v 27.009884 4.053428 -28.434357
v 29.013317 -0.002895 -27.887333
v 29.013317 5.442761 -27.887333
v 29.013317 -0.002895 -28.434359
v 29.013317 5.442761 -28.434359
v 26.732025 0.002835 -27.887333
v 26.732025 4.482465 -27.887333
v 26.732023 4.482465 -28.434357
v 26.732023 0.002835 -28.434357
v 29.291178 0.002835 -28.434359
v 29.291178 6.257178 -28.434359
v 29.291180 6.257178 -27.887333
v 29.291180 0.002835 -27.887333
v 27.009884 4.053428 -27.901258
v 29.013317 5.442761 -27.901260
v 29.013317 -0.002895 -27.901260
v 27.009884 -0.002895 -27.901258
v 29.291180 5.411151 -27.887333
v 29.291178 5.426171 -28.434359
v 29.291080 5.415151 -28.434359
v 29.291082 5.415151 -27.901260
v 26.732023 0.089141 -28.434357
v 26.732025 0.089141 -27.887333
v 29.291178 0.089141 -28.434359
v 29.291180 0.089141 -27.887333
v 31.544060 -0.002895 -27.887333
v 31.544060 4.053428 -27.887333
v 31.544060 -0.002895 -28.434359
v 31.544060 4.053428 -28.434359
v 29.540628 -0.002895 -27.887333
v 29.540628 5.442761 -27.887333
v 29.540627 -0.002895 -28.434359
v 29.540627 5.442761 -28.434359
v 31.821920 0.002835 -27.887333
v 31.821920 4.482465 -27.887333
v 31.821920 4.482465 -28.434359
v 31.821920 0.002835 -28.434359
v 29.262766 0.002835 -28.434359
v 29.262766 6.257178 -28.434359
v 29.262768 6.257178 -27.887333
v 29.262768 0.002835 -27.887333
v 31.544060 4.053428 -27.901258
v 29.540627 5.442761 -27.901260
v 29.540628 -0.002895 -27.901260
v 31.544060 -0.002895 -27.901258
v 29.262768 5.411151 -27.887333
v 29.262766 5.426171 -28.434359
v 29.262863 5.415151 -28.434359
v 29.262863 5.415151 -27.901260
v 31.821920 0.089141 -28.434359
v 31.821920 0.089141 -27.887333
v 29.262766 0.089141 -28.434359
v 29.262768 0.089141 -27.887333
v 27.009884 -0.002895 -49.810055
v 27.009884 4.053428 -49.810055
v 27.009884 -0.002895 -50.357079
v 27.009884 4.053428 -50.357079
v 29.013317 -0.002895 -49.810055
v 29.013317 5.442761 -49.810055
v 29.013315 -0.002895 -50.357079
v 29.013315 5.442761 -50.357079
v 26.732023 0.002835 -49.810055
v 26.732023 4.482465 -49.810055
v 26.732021 4.482465 -50.357079
v 26.732021 0.002835 -50.357079
v 29.291176 0.002835 -50.357079
v 29.291176 6.257178 -50.357079
v 29.291178 6.257178 -49.810055
v 29.291178 0.002835 -49.810055
v 27.009884 4.053428 -49.823982
v 29.013317 5.442761 -49.823982
v 29.013317 -0.002895 -49.823982
v 27.009884 -0.002895 -49.823982
v 29.291178 5.411151 -49.810055
v 29.291176 5.426171 -50.357079
v 29.291080 5.415151 -50.357079
v 29.291080 5.415151 -49.823982
v 26.732021 0.089141 -50.357079
v 26.732023 0.089141 -49.810055
v 29.291176 0.089141 -50.357079
v 29.291178 0.089141 -49.810055
v 31.544060 -0.002895 -49.810055
v 31.544060 4.053428 -49.810055
v 31.544060 -0.002895 -50.357079
v 31.544060 4.053428 -50.357079
v 29.540627 -0.002895 -49.810055
v 29.540627 5.442761 -49.810055
v 29.540627 -0.002895 -50.357079
v 29.540627 5.442761 -50.357079
v 31.821920 0.002835 -49.810055
v 31.821920 4.482465 -49.810055
v 31.821920 4.482465 -50.357079
v 31.821920 0.002835 -50.357079
v 29.262764 0.002835 -50.357079
v 29.262764 6.257178 -50.357079
v 29.262766 6.257178 -49.810055
v 29.262766 0.002835 -49.810055
v 31.544060 4.053428 -49.823982
v 29.540627 5.442761 -49.823982
v 29.540627 -0.002895 -49.823982
v 31.544060 -0.002895 -49.823982
v 29.262766 5.411151 -49.810055
v 29.262764 5.426171 -50.357079
v 29.262861 5.415151 -50.357079
v 29.262863 5.415151 -49.823982
v 31.821920 0.089141 -50.357079
v 31.821920 0.089141 -49.810055
v 29.262764 0.089141 -50.357079
v 29.262766 0.089141 -49.810055
vn -0.0000 -0.0000 1.0000
vn -0.0000 -0.8217 -0.5699
vn -1.0000 -0.0000 -0.0000
vn -0.0000 0.8217 0.5699
vn 1.0000 -0.0000 -0.0000
vn -0.0000 -0.0000 -1.0000
vn -0.0000 1.0000 -0.0000
vn -0.0000 -0.9951 0.0989
vn -0.0000 -1.0000 -0.0000
vn -0.0000 -0.8217 0.5699
vn -0.0000 0.8217 -0.5699
vn -0.0000 -0.9951 -0.0989
vn 0.5699 -0.8217 -0.0000
vn -0.5699 0.8217 -0.0000
vn -0.0989 -0.9951 -0.0000
vn -0.5699 -0.8217 -0.0000
vn 0.5699 0.8217 -0.0000
vn 0.0989 -0.9951 -0.0000
vt 0.375000 0.000000
vt 0.625000 0.000000
vt 0.625000 0.250000
vt 0.375000 0.250000
vt 0.608854 0.277144
vt 0.611003 0.472856
vt 0.611003 0.472856
vt 0.375000 0.750000
vt 0.375000 1.000000
vt 0.625000 0.500000
vt 0.875000 0.500000
vt 0.875000 0.750000
vt 0.625000 0.750000
vt 0.389297 0.972856
vt 0.608854 0.972856
vt 0.625000 1.000000
vt 0.389297 0.277144
vt 0.387218 0.472856
vt 0.375000 0.500000
vt 0.611003 0.777144
vt 0.592444 0.750000
vt 0.387218 0.777144
vt 0.389297 0.277144
vt 0.591783 0.500000
vt 0.125000 0.500000
vt 0.125000 0.750000
vt 0.000000 0.000000
vt 1.000000 0.000000
vt 1.000000 1.000000
vt 0.000000 1.000000
vt 0.666667 0.500000
vt 1.000000 0.500000
vt 0.666667 1.000000
vt 0.000000 0.500000
vt 0.333333 0.500000
vt 0.333333 1.000000
vt 0.666667 0.000000
vt 0.333333 0.000000
vt 0.666667 1.000000
s 0
usemtl Material.020
f 9/1/1 10/2/1 11/3/1 12/4/1
f 4/5/2 8/6/2 18/7/2 17/5/2
f 16/8/3 9/9/3 26/9/3 28/8/3
f 14/10/4 11/11/4 10/12/4 15/13/4
f 1/14/5 2/15/5 10/16/5 9/9/5
f 4/5/3 3/17/3 12/4/3 11/3/3
f 3/17/5 7/18/5 13/19/5 12/4/5
f 8/6/3 4/5/3 11/3/3 14/10/3
f 6/20/5 21/21/5 15/13/5
f 5/22/3 1/14/3 9/9/3 16/8/3
f 2/15/5 6/20/5 15/13/5 10/16/5
f 3/17/6 4/5/6 17/5/6 20/23/6
f 7/18/7 3/17/7 20/23/7 19/18/7
f 22/24/3 8/6/3 14/10/3
f 18/7/8 8/6/8 23/6/8 24/7/8
f 25/25/9 27/19/9 28/8/9 26/26/9
f 13/27/1 16/27/1 28/27/1 27/27/1
f 12/4/5 13/19/5 27/19/5 25/4/5
f 9/1/6 12/4/6 25/4/6 26/1/6
f 37/1/6 40/4/6 39/3/6 38/2/6
f 32/5/10 45/5/10 46/7/10 36/6/10
f 44/8/3 56/8/3 54/9/3 37/9/3
f 42/10/11 43/13/11 38/12/11 39/11/11
f 29/14/5 37/9/5 38/16/5 30/15/5
f 32/5/3 39/3/3 40/4/3 31/17/3
f 31/17/5 40/4/5 41/19/5 35/18/5
f 36/6/3 42/10/3 39/3/3 32/5/3
f 34/20/5 43/13/5 49/21/5
f 33/22/3 44/8/3 37/9/3 29/14/3
f 30/15/5 38/16/5 43/13/5 34/20/5
f 31/17/1 48/23/1 45/5/1 32/5/1
f 35/18/7 47/18/7 48/23/7 31/17/7
f 50/24/3 42/10/3 36/6/3
f 46/7/12 52/7/12 51/6/12 36/6/12
f 53/25/9 54/26/9 56/8/9 55/19/9
f 41/27/6 55/27/6 56/27/6 44/27/6
f 40/4/5 53/4/5 55/19/5 41/19/5
f 37/1/1 54/1/1 53/4/1 40/4/1
usemtl 
f 57/27/5 58/28/5 60/29/5 59/30/5
f 63/27/9 64/30/9 62/30/9 61/27/9
f 57/27/9 59/30/9 64/30/9 63/27/9
f 100/31/7 98/32/7 68/29/7 71/33/7
f 97/34/7 99/35/7 72/36/7 67/30/7
f 99/35/7 100/31/7 71/33/7 72/36/7
f 96/30/1 95/36/1 80/36/1 75/30/1
f 88/28/6 87/37/6 78/37/6 74/28/6
f 94/33/1 93/29/1 76/29/1 79/33/1
f 86/38/6 85/27/6 73/27/6 77/38/6
f 69/38/6 65/27/6 82/27/6 81/38/6
f 66/28/6 70/37/6 84/37/6 83/28/6
f 81/38/6 82/27/6 85/27/6 86/38/6
f 83/28/6 84/37/6 87/37/6 88/28/6
f 71/33/1 68/29/1 90/29/1 89/39/1
f 67/30/1 72/36/1 92/36/1 91/30/1
f 89/39/1 90/29/1 93/29/1 94/33/1
f 91/30/1 92/36/1 95/36/1 96/30/1
f 69/38/7 70/37/7 100/31/7 99/35/7
f 65/27/7 69/38/7 99/35/7 97/34/7
f 70/37/7 66/28/7 98/32/7 100/31/7
f 116/28/3 115/37/3 108/37/3 106/28/3
f 114/38/3 113/27/3 105/27/3 107/38/3
f 103/38/3 101/27/3 110/27/3 109/38/3
f 102/28/3 104/37/3 112/37/3 111/28/3
f 109/38/3 110/27/3 113/27/3 114/38/3
f 111/28/3 112/37/3 115/37/3 116/28/3
usemtl Material.022
f 125/1/3 126/2/3 127/3/3 128/4/3
f 120/5/13 124/6/13 134/7/13 133/5/13
f 132/8/6 125/9/6 142/9/6 144/8/6
f 130/10/14 127/11/14 126/12/14 131/13/14
f 117/14/1 118/15/1 126/16/1 125/9/1
f 120/5/6 119/17/6 128/4/6 127/3/6
f 119/17/1 123/18/1 129/19/1 128/4/1
f 124/6/6 120/5/6 127/3/6 130/10/6
f 122/20/1 137/21/1 131/13/1
f 121/22/6 117/14/6 125/9/6 132/8/6
f 118/15/1 122/20/1 131/13/1 126/16/1
f 119/17/5 120/5/5 133/5/5 136/23/5
f 123/18/7 119/17/7 136/23/7 135/18/7
f 138/24/6 124/6/6 130/10/6
f 134/7/15 124/6/15 139/6/15 140/7/15
f 141/25/9 143/19/9 144/8/9 142/26/9
f 129/27/3 132/27/3 144/27/3 143/27/3
f 128/4/1 129/19/1 143/19/1 141/4/1
f 125/1/5 128/4/5 141/4/5 142/1/5
f 153/1/5 156/4/5 155/3/5 154/2/5
f 148/5/16 161/5/16 162/7/16 152/6/16
f 160/8/6 172/8/6 170/9/6 153/9/6
f 158/10/17 159/13/17 154/12/17 155/11/17
f 145/14/1 153/9/1 154/16/1 146/15/1
f 148/5/6 155/3/6 156/4/6 147/17/6
f 147/17/1 156/4/1 157/19/1 151/18/1
f 152/6/6 158/10/6 155/3/6 148/5/6
f 150/20/1 159/13/1 165/21/1
f 149/22/6 160/8/6 153/9/6 145/14/6
f 146/15/1 154/16/1 159/13/1 150/20/1
f 147/17/3 164/23/3 161/5/3 148/5/3
f 151/18/7 163/18/7 164/23/7 147/17/7
f 166/24/6 158/10/6 152/6/6
f 162/7/18 168/7/18 167/6/18 152/6/18
f 169/25/9 170/26/9 172/8/9 171/19/9
f 157/27/5 171/27/5 172/27/5 160/27/5
f 156/4/1 169/4/1 171/19/1 157/19/1
f 153/1/3 170/1/3 169/4/3 156/4/3
usemtl Material.021
f 181/1/3 182/2/3 183/3/3 184/4/3
f 176/5/13 180/6/13 190/7/13 189/5/13
f 188/8/6 181/9/6 198/9/6 200/8/6
f 186/10/14 183/11/14 182/12/14 187/13/14
f 173/14/1 174/15/1 182/16/1 181/9/1
f 176/5/6 175/17/6 184/4/6 183/3/6
f 175/17/1 179/18/1 185/19/1 184/4/1
f 180/6/6 176/5/6 183/3/6 186/10/6
f 178/20/1 193/21/1 187/13/1
f 177/22/6 173/14/6 181/9/6 188/8/6
f 174/15/1 178/20/1 187/13/1 182/16/1
f 175/17/5 176/5/5 189/5/5 192/23/5
f 179/18/7 175/17/7 192/23/7 191/18/7
f 194/24/6 180/6/6 186/10/6
f 190/7/15 180/6/15 195/6/15 196/7/15
f 197/25/9 199/19/9 200/8/9 198/26/9
f 185/27/3 188/27/3 200/27/3 199/27/3
f 184/4/1 185/19/1 199/19/1 197/4/1
f 181/1/5 184/4/5 197/4/5 198/1/5
f 209/1/5 212/4/5 211/3/5 210/2/5
f 204/5/16 217/5/16 218/7/16 208/6/16
f 216/8/6 228/8/6 226/9/6 209/9/6
f 214/10/17 215/13/17 210/12/17 211/11/17
f 201/14/1 209/9/1 210/16/1 202/15/1
f 204/5/6 211/3/6 212/4/6 203/17/6
f 203/17/1 212/4/1 213/19/1 207/18/1
f 208/6/6 214/10/6 211/3/6 204/5/6
f 206/20/1 215/13/1 221/21/1
f 205/22/6 216/8/6 209/9/6 201/14/6
f 202/15/1 210/16/1 215/13/1 206/20/1
f 203/17/3 220/23/3 217/5/3 204/5/3
f 207/18/7 219/18/7 220/23/7 203/17/7
f 222/24/6 214/10/6 208/6/6
f 218/7/18 224/7/18 223/6/18 208/6/18
f 225/25/9 226/26/9 228/8/9 227/19/9
f 213/27/5 227/27/5 228/27/5 216/27/5
f 212/4/1 225/4/1 227/19/1 213/19/1
f 209/1/3 226/1/3 225/4/3 212/4/3
