# Blender 4.5.3 LTS
# www.blender.org
mtllib big_room_3_two_doors.mtl
o big_room_3_diff_path
v -2.267088 -0.002895 -49.810055
v -2.267088 4.053428 -49.810055
v -2.267088 -0.002895 -50.357079
v -2.267088 4.053428 -50.357079
v -0.263655 -0.002895 -49.810055
v -0.263655 5.442761 -49.810055
v -0.263655 -0.002895 -50.357079
v -0.263655 5.442761 -50.357079
v -2.544949 0.002835 -49.810055
v -2.544949 4.482465 -49.810055
v -2.544949 4.482465 -50.357079
v -2.544949 0.002835 -50.357079
v 0.014206 0.002835 -50.357079
v 0.014206 6.257178 -50.357079
v 0.014206 6.257178 -49.810055
v 0.014206 0.002835 -49.810055
v -2.267088 4.053428 -49.823982
v -0.263655 5.442761 -49.823982
v -0.263655 -0.002895 -49.823982
v -2.267088 -0.002895 -49.823982
v 0.014206 5.411151 -49.810055
v 0.014206 5.426171 -50.357079
v 0.014110 5.415151 -50.357079
v 0.014110 5.415151 -49.823982
v -2.544949 0.089141 -50.357079
v -2.544949 0.089141 -49.810055
v 0.014206 0.089141 -50.357079
v 0.014206 0.089141 -49.810055
v 2.267088 -0.002895 -49.810055
v 2.267088 4.053428 -49.810055
v 2.267088 -0.002895 -50.357079
v 2.267088 4.053428 -50.357079
v 0.263655 -0.002895 -49.810055
v 0.263655 5.442761 -49.810055
v 0.263655 -0.002895 -50.357079
v 0.263655 5.442761 -50.357079
v 2.544949 0.002835 -49.810055
v 2.544949 4.482465 -49.810055
v 2.544949 4.482465 -50.357079
v 2.544949 0.002835 -50.357079
v -0.014206 0.002835 -50.357079
v -0.014206 6.257178 -50.357079
v -0.014206 6.257178 -49.810055
v -0.014206 0.002835 -49.810055
v 2.267088 4.053428 -49.823982
v 0.263655 5.442761 -49.823982
v 0.263655 -0.002895 -49.823982
v 2.267088 -0.002895 -49.823982
v -0.014206 5.411151 -49.810055
v -0.014206 5.426171 -50.357079
v -0.014110 5.415151 -50.357079
v -0.014110 5.415151 -49.823982
v 2.544949 0.089141 -50.357079
v 2.544949 0.089141 -49.810055
v -0.014206 0.089141 -50.357079
v -0.014206 0.089141 -49.810055
v -10.964725 8.371691 -27.067215
v -10.964725 -8.371691 -27.067215
v -10.964725 8.371691 -50.989693
v -10.964725 -8.371691 -50.989693
v 12.497967 8.371692 -27.067215
v 12.497967 8.371692 -50.989693
v -2.290707 8.371692 -27.067215
v -2.290707 8.371692 -50.989693
v 11.019223 0.000000 -28.096840
v 11.019221 0.000000 -50.135284
v 11.019222 0.000000 -36.591301
v 11.019222 0.000000 -41.558723
v 11.019223 9.679085 -28.096840
v 11.019221 9.679085 -50.135284
v 11.019222 9.679085 -39.043968
v 11.019222 9.679085 -38.787842
v 11.019222 4.226079 -36.591301
v 11.019223 4.226079 -28.096840
v 11.019221 4.294242 -50.135284
v 11.019222 4.294242 -41.558723
v 11.019223 6.100550 -28.096840
v 11.019222 6.100550 -39.130394
v 11.019222 6.100550 -39.118759
v 11.019221 6.100550 -50.135284
v -2.267088 -0.002895 -27.887335
v -2.267088 4.053428 -27.887335
v -2.267088 -0.002895 -28.434361
v -2.267088 4.053428 -28.434361
v -0.263655 -0.002895 -27.887335
v -0.263655 5.442761 -27.887335
v -0.263655 -0.002895 -28.434361
v -0.263655 5.442761 -28.434361
v -2.544949 0.002835 -27.887335
v -2.544949 4.482465 -27.887335
v -2.544949 4.482465 -28.434361
v -2.544949 0.002835 -28.434361
v 0.014206 0.002835 -28.434361
v 0.014206 6.257178 -28.434361
v 0.014206 6.257178 -27.887335
v 0.014206 0.002835 -27.887335
v -2.267088 4.053428 -27.901260
v -0.263655 5.442761 -27.901260
v -0.263655 -0.002895 -27.901260
v -2.267088 -0.002895 -27.901260
v 0.014206 5.411151 -27.887335
v 0.014206 5.426171 -28.434361
v 0.014110 5.415151 -28.434361
v 0.014110 5.415151 -27.901260
v -2.544949 0.089141 -28.434361
v -2.544949 0.089141 -27.887335
v 0.014206 0.089141 -28.434361
v 0.014206 0.089141 -27.887335
v 2.267088 -0.002895 -27.887335
v 2.267088 4.053428 -27.887335
v 2.267088 -0.002895 -28.434361
v 2.267088 4.053428 -28.434361
v 0.263655 -0.002895 -27.887335
v 0.263655 5.442761 -27.887335
v 0.263655 -0.002895 -28.434361
v 0.263655 5.442761 -28.434361
v 2.544949 0.002835 -27.887335
v 2.544949 4.482465 -27.887335
v 2.544949 4.482465 -28.434361
v 2.544949 0.002835 -28.434361
v -0.014206 0.002835 -28.434361
v -0.014206 6.257178 -28.434361
v -0.014206 6.257178 -27.887335
v -0.014206 0.002835 -27.887335
v 2.267088 4.053428 -27.901260
v 0.263655 5.442761 -27.901260
v 0.263655 -0.002895 -27.901260
v 2.267088 -0.002895 -27.901260
v -0.014206 5.411151 -27.887335
v -0.014206 5.426171 -28.434361
v -0.014110 5.415151 -28.434361
v -0.014110 5.415151 -27.901260
v 2.544949 0.089141 -28.434361
v 2.544949 0.089141 -27.887335
v -0.014206 0.089141 -28.434361
v -0.014206 0.089141 -27.887335
v -11.019222 0.000000 -28.096840
v 11.019222 0.000000 -28.096840
v -11.019222 0.000000 -50.135284
v 11.019222 0.000000 -50.135284
v -2.524763 0.000000 -28.096840
v 2.442660 0.000000 -28.096840
v 2.442660 0.000000 -50.135284
v -2.524763 0.000000 -50.135284
v -11.019222 9.679085 -28.096840
v 11.019222 9.679085 -28.096840
v -11.019222 9.679085 -50.135284
v 11.019222 9.679085 -50.135284
v -0.072093 9.679085 -28.096840
v -0.328221 9.679085 -28.096840
v -0.483319 9.679085 -50.135284
v 1.496752 9.679085 -50.135284
v -2.524763 4.226079 -28.096840
v -11.019222 4.226079 -28.096840
v 11.019222 4.294242 -28.096840
v 2.442660 4.294242 -28.096840
v -11.019222 6.100550 -28.096840
v 0.014333 6.100550 -28.096840
v 0.002699 6.100550 -28.096840
v 11.019222 6.100550 -28.096840
v 2.442660 4.271449 -50.135284
v 11.019222 4.271449 -50.135284
v -11.019222 4.214249 -50.135284
v -2.524763 4.214249 -50.135284
v 11.019222 5.839862 -50.135284
v 0.078189 5.839862 -50.135284
v -0.170601 5.781538 -50.135284
v -11.019222 5.781538 -50.135284
v -11.019222 0.000000 -39.116062
v 11.019222 0.000000 -39.116062
v -2.524763 0.000000 -39.116062
v 2.442660 0.000000 -39.116062
v 11.299541 -0.002895 -36.844231
v 11.299541 4.053428 -36.844231
v 10.752516 -0.002895 -36.844231
v 10.752516 4.053428 -36.844231
v 11.299541 -0.002895 -38.847660
v 11.299541 5.442761 -38.847660
v 10.752516 -0.002895 -38.847660
v 10.752516 5.442761 -38.847660
v 11.299541 0.002835 -36.566368
v 11.299541 4.482465 -36.566368
v 10.752516 4.482465 -36.566368
v 10.752516 0.002835 -36.566368
v 10.752516 0.002835 -39.125523
v 10.752516 6.257178 -39.125523
v 11.299541 6.257178 -39.125523
v 11.299541 0.002835 -39.125523
v 11.285616 4.053428 -36.844231
v 11.285615 5.442761 -38.847664
v 11.285615 -0.002895 -38.847660
v 11.285616 -0.002895 -36.844231
v 11.299541 5.411151 -39.125523
v 10.752516 5.426171 -39.125523
v 10.752516 5.415151 -39.125427
v 11.285615 5.415151 -39.125427
v 10.752516 0.089141 -36.566368
v 11.299541 0.089141 -36.566368
v 10.752516 0.089141 -39.125523
v 11.299541 0.089141 -39.125523
v 11.299541 -0.002895 -41.378403
v 11.299541 4.053428 -41.378403
v 10.752516 -0.002895 -41.378403
v 10.752516 4.053428 -41.378403
v 11.299541 -0.002895 -39.374973
v 11.299541 5.442761 -39.374973
v 10.752516 -0.002895 -39.374973
v 10.752516 5.442761 -39.374973
v 11.299541 0.002835 -41.656265
v 11.299541 4.482465 -41.656265
v 10.752516 4.482465 -41.656265
v 10.752516 0.002835 -41.656265
v 10.752516 0.002835 -39.097111
v 10.752516 6.257178 -39.097111
v 11.299541 6.257178 -39.097111
v 11.299541 0.002835 -39.097111
v 11.285615 4.053428 -41.378403
v 11.285615 5.442761 -39.374973
v 11.285615 -0.002895 -39.374973
v 11.285615 -0.002895 -41.378403
v 11.299541 5.411151 -39.097111
v 10.752516 5.426171 -39.097111
v 10.752516 5.415151 -39.097206
v 11.285615 5.415151 -39.097206
v 10.752516 0.089141 -41.656265
v 11.299541 0.089141 -41.656265
v 10.752516 0.089141 -39.097111
v 11.299541 0.089141 -39.097111
vn -1.0000 -0.0000 -0.0000
vn 0.5699 -0.8217 -0.0000
vn -0.0000 -0.0000 -1.0000
vn -0.5699 0.8217 -0.0000
vn -0.0000 -0.0000 1.0000
vn 1.0000 -0.0000 -0.0000
vn -0.0000 1.0000 -0.0000
vn -0.0989 -0.9951 -0.0000
vn -0.0000 -1.0000 -0.0000
vn -0.5699 -0.8217 -0.0000
vn 0.5699 0.8217 -0.0000
vn 0.0989 -0.9951 -0.0000
vn -0.0000 0.0003 1.0000
vn -0.0000 -0.0003 -1.0000
vn -0.0000 -0.0002 -1.0000
vn -0.0000 -0.8217 -0.5699
vn -0.0000 0.8217 0.5699
vn -0.0000 -0.9951 0.0989
vn -0.0000 -0.8217 0.5699
vn -0.0000 0.8217 -0.5699
vn -0.0000 -0.9951 -0.0989
vt 0.375000 0.000000
vt 0.625000 0.000000
vt 0.625000 0.250000
vt 0.375000 0.250000
vt 0.608854 0.277144
vt 0.611003 0.472856
vt 0.611003 0.472856
vt 0.375000 0.750000
vt 0.375000 1.000000
vt 0.625000 0.500000
vt 0.875000 0.500000
vt 0.875000 0.750000
vt 0.625000 0.750000
vt 0.389297 0.972856
vt 0.608854 0.972856
vt 0.625000 1.000000
vt 0.389297 0.277144
vt 0.387218 0.472856
vt 0.375000 0.500000
vt 0.611003 0.777144
vt 0.592444 0.750000
vt 0.387218 0.777144
vt 0.389297 0.277144
vt 0.591783 0.500000
vt 0.125000 0.500000
vt 0.125000 0.750000
vt 0.000000 0.000000
vt 1.000000 0.000000
vt 1.000000 1.000000
vt 0.000000 1.000000
vt 0.666667 0.000000
vt 0.333333 0.000000
vt 0.666667 0.500000
vt 1.000000 0.500000
vt 0.666667 1.000000
vt 0.000000 0.500000
vt 0.333333 0.500000
vt 0.333333 1.000000
vt 0.666667 1.000000
s 0
usemtl Material.018
f 9/1/1 10/2/1 11/3/1 12/4/1
f 4/5/2 8/6/2 18/7/2 17/5/2
f 16/8/3 9/9/3 26/9/3 28/8/3
f 14/10/4 11/11/4 10/12/4 15/13/4
f 1/14/5 2/15/5 10/16/5 9/9/5
f 4/5/3 3/17/3 12/4/3 11/3/3
f 3/17/5 7/18/5 13/19/5 12/4/5
f 8/6/3 4/5/3 11/3/3 14/10/3
f 6/20/5 21/21/5 15/13/5
f 5/22/3 1/14/3 9/9/3 16/8/3
f 2/15/5 6/20/5 15/13/5 10/16/5
f 3/17/6 4/5/6 17/5/6 20/23/6
f 7/18/7 3/17/7 20/23/7 19/18/7
f 22/24/3 8/6/3 14/10/3
f 18/7/8 8/6/8 23/6/8 24/7/8
f 25/25/9 27/19/9 28/8/9 26/26/9
f 13/27/1 16/27/1 28/27/1 27/27/1
f 12/4/5 13/19/5 27/19/5 25/4/5
f 9/1/6 12/4/6 25/4/6 26/1/6
f 37/1/6 40/4/6 39/3/6 38/2/6
f 32/5/10 45/5/10 46/7/10 36/6/10
f 44/8/3 56/8/3 54/9/3 37/9/3
f 42/10/11 43/13/11 38/12/11 39/11/11
f 29/14/5 37/9/5 38/16/5 30/15/5
f 32/5/3 39/3/3 40/4/3 31/17/3
f 31/17/5 40/4/5 41/19/5 35/18/5
f 36/6/3 42/10/3 39/3/3 32/5/3
f 34/20/5 43/13/5 49/21/5
f 33/22/3 44/8/3 37/9/3 29/14/3
f 30/15/5 38/16/5 43/13/5 34/20/5
f 31/17/1 48/23/1 45/5/1 32/5/1
f 35/18/7 47/18/7 48/23/7 31/17/7
f 50/24/3 42/10/3 36/6/3
f 46/7/12 52/7/12 51/6/12 36/6/12
f 53/25/9 54/26/9 56/8/9 55/19/9
f 41/27/6 55/27/6 56/27/6 44/27/6
f 40/4/5 53/4/5 55/19/5 41/19/5
f 37/1/1 54/1/1 53/4/1 40/4/1
usemtl 
f 57/27/6 58/28/6 60/29/6 59/30/6
f 63/27/9 64/30/9 62/30/9 61/27/9
f 57/27/9 59/30/9 64/30/9 63/27/9
f 80/28/1 79/31/1 72/31/1 70/28/1
f 78/32/1 77/27/1 69/27/1 71/32/1
f 67/32/1 65/27/1 74/27/1 73/32/1
f 66/28/1 68/31/1 76/31/1 75/28/1
f 73/32/1 74/27/1 77/27/1 78/32/1
f 75/28/1 76/31/1 79/31/1 80/28/1
f 172/33/7 170/34/7 140/29/7 143/35/7
f 169/36/7 171/37/7 144/38/7 139/30/7
f 171/37/7 172/33/7 143/35/7 144/38/7
f 168/30/5 167/38/5 152/38/5 147/30/5
f 160/28/3 159/31/3 150/31/3 146/28/3
f 166/35/5 165/29/5 148/29/5 151/35/5
f 158/32/3 157/27/3 145/27/3 149/32/3
f 141/32/3 137/27/3 154/27/3 153/32/3
f 138/28/3 142/31/3 156/31/3 155/28/3
f 153/32/3 154/27/3 157/27/3 158/32/3
f 155/28/3 156/31/3 159/31/3 160/28/3
f 143/35/5 140/29/5 162/29/5 161/39/5
f 139/30/5 144/38/5 164/38/5 163/30/5
f 161/39/5 162/29/5 165/29/5 166/35/5
f 163/30/5 164/38/5 167/38/5 168/30/5
f 141/32/7 142/31/7 172/33/7 171/37/7
f 137/27/7 141/32/7 171/37/7 169/36/7
f 142/31/7 138/28/7 170/34/7 172/33/7
usemtl Material.017
f 89/1/1 90/2/1 91/3/1 92/4/1
f 84/5/2 88/6/2 98/7/2 97/5/2
f 96/8/3 89/9/3 106/9/3 108/8/3
f 94/10/4 91/11/4 90/12/4 95/13/4
f 81/14/5 82/15/5 90/16/5 89/9/5
f 84/5/3 83/17/3 92/4/3 91/3/3
f 83/17/13 87/18/13 93/19/13 92/4/13
f 88/6/3 84/5/3 91/3/3 94/10/3
f 86/20/5 101/21/5 95/13/5
f 85/22/14 81/14/14 89/9/14 96/8/14
f 82/15/5 86/20/5 95/13/5 90/16/5
f 83/17/6 84/5/6 97/5/6 100/23/6
f 87/18/7 83/17/7 100/23/7 99/18/7
f 102/24/3 88/6/3 94/10/3
f 98/7/8 88/6/8 103/6/8 104/7/8
f 105/25/9 107/19/9 108/8/9 106/26/9
f 93/27/1 96/27/1 108/27/1 107/27/1
f 92/4/5 93/19/5 107/19/5 105/4/5
f 89/1/6 92/4/6 105/4/6 106/1/6
f 117/1/6 120/4/6 119/3/6 118/2/6
f 112/5/10 125/5/10 126/7/10 116/6/10
f 124/8/3 136/8/3 134/9/3 117/9/3
f 122/10/11 123/13/11 118/12/11 119/11/11
f 109/14/5 117/9/5 118/16/5 110/15/5
f 112/5/3 119/3/3 120/4/3 111/17/3
f 111/17/13 120/4/13 121/19/13 115/18/13
f 116/6/3 122/10/3 119/3/3 112/5/3
f 114/20/5 123/13/5 129/21/5
f 113/22/15 124/8/15 117/9/15 109/14/15
f 110/15/5 118/16/5 123/13/5 114/20/5
f 111/17/1 128/23/1 125/5/1 112/5/1
f 115/18/7 127/18/7 128/23/7 111/17/7
f 130/24/3 122/10/3 116/6/3
f 126/7/12 132/7/12 131/6/12 116/6/12
f 133/25/9 134/26/9 136/8/9 135/19/9
f 121/27/6 135/27/6 136/27/6 124/27/6
f 120/4/5 133/4/5 135/19/5 121/19/5
f 117/1/1 134/1/1 133/4/1 120/4/1
usemtl Material.019
f 181/1/5 182/2/5 183/3/5 184/4/5
f 176/5/16 180/6/16 190/7/16 189/5/16
f 188/8/1 181/9/1 198/9/1 200/8/1
f 186/10/17 183/11/17 182/12/17 187/13/17
f 173/14/6 174/15/6 182/16/6 181/9/6
f 176/5/1 175/17/1 184/4/1 183/3/1
f 175/17/6 179/18/6 185/19/6 184/4/6
f 180/6/1 176/5/1 183/3/1 186/10/1
f 178/20/6 193/21/6 187/13/6
f 177/22/1 173/14/1 181/9/1 188/8/1
f 174/15/6 178/20/6 187/13/6 182/16/6
f 175/17/3 176/5/3 189/5/3 192/23/3
f 179/18/7 175/17/7 192/23/7 191/18/7
f 194/24/1 180/6/1 186/10/1
f 190/7/18 180/6/18 195/6/18 196/7/18
f 197/25/9 199/19/9 200/8/9 198/26/9
f 185/27/5 188/27/5 200/27/5 199/27/5
f 184/4/6 185/19/6 199/19/6 197/4/6
f 181/1/3 184/4/3 197/4/3 198/1/3
f 209/1/3 212/4/3 211/3/3 210/2/3
f 204/5/19 217/5/19 218/7/19 208/6/19
f 216/8/1 228/8/1 226/9/1 209/9/1
f 214/10/20 215/13/20 210/12/20 211/11/20
f 201/14/6 209/9/6 210/16/6 202/15/6
f 204/5/1 211/3/1 212/4/1 203/17/1
f 203/17/6 212/4/6 213/19/6 207/18/6
f 208/6/1 214/10/1 211/3/1 204/5/1
f 206/20/6 215/13/6 221/21/6
f 205/22/1 216/8/1 209/9/1 201/14/1
f 202/15/6 210/16/6 215/13/6 206/20/6
f 203/17/5 220/23/5 217/5/5 204/5/5
f 207/18/7 219/18/7 220/23/7 203/17/7
f 222/24/1 214/10/1 208/6/1
f 218/7/21 224/7/21 223/6/21 208/6/21
f 225/25/9 226/26/9 228/8/9 227/19/9
f 213/27/3 227/27/3 228/27/3 216/27/3
f 212/4/6 225/4/6 227/19/6 213/19/6
f 209/1/5 226/1/5 225/4/5 212/4/5
