# Blender 4.5.3 LTS
# www.blender.org
mtllib big_room_2.mtl
o big_room_2
v 18.425745 8.371691 11.961239
v 18.425745 -8.371691 11.961239
v 18.425745 8.371691 -11.961239
v 18.425745 -8.371691 -11.961239
v 29.906967 8.371691 11.961239
v 29.906967 8.371691 -11.961239
v 27.099764 8.371692 11.961239
v 27.099764 8.371692 -11.961239
v 40.355202 8.371691 11.961239
v 40.355202 -8.371691 11.961239
v 40.355202 8.371691 -11.961239
v 40.355202 -8.371691 -11.961239
v 28.873978 8.371692 11.961239
v 28.873978 8.371692 -11.961239
v 31.681179 8.371691 11.961239
v 31.681179 8.371691 -11.961239
v 18.371248 -0.000000 10.931614
v 40.409691 -0.000000 10.931614
v 18.371248 -0.000000 -11.106829
v 40.409691 -0.000000 -11.106829
v 26.865707 -0.000000 10.931614
v 31.833130 0.000000 10.931614
v 31.833130 0.000000 -11.106829
v 26.865707 -0.000000 -11.106829
v 18.371248 9.679085 10.931614
v 40.409691 9.679084 10.931614
v 18.371248 9.679085 -11.106829
v 40.409691 9.679084 -11.106829
v 29.318377 9.679085 10.931614
v 29.062248 9.679085 10.931614
v 28.907150 9.679085 -11.106829
v 30.887222 9.679084 -11.106829
v 26.865707 4.226079 10.931614
v 18.371248 4.226079 10.931614
v 40.409691 4.294241 10.931614
v 31.833130 4.294241 10.931614
v 18.371248 6.100549 10.931614
v 29.404804 6.100549 10.931614
v 29.393169 6.100549 10.931614
v 40.409691 6.100549 10.931614
v 31.833130 4.271449 -11.106829
v 40.409691 4.271449 -11.106829
v 18.371248 4.214249 -11.106829
v 26.865707 4.214249 -11.106829
v 40.409691 5.839861 -11.106829
v 29.468658 5.839861 -11.106829
v 29.219870 5.781538 -11.106829
v 18.371248 5.781538 -11.106829
v 27.123383 -0.002895 -10.781600
v 27.123383 4.053428 -10.781600
v 27.123383 -0.002895 -11.328626
v 27.123383 4.053428 -11.328626
v 29.126816 -0.002895 -10.781600
v 29.126816 5.442760 -10.781600
v 29.126816 -0.002895 -11.328626
v 29.126816 5.442760 -11.328626
v 26.845522 0.002835 -10.781600
v 26.845522 4.482465 -10.781600
v 26.845522 4.482465 -11.328626
v 26.845522 0.002835 -11.328626
v 29.404676 0.002835 -11.328626
v 29.404675 6.257177 -11.328626
v 29.404675 6.257177 -10.781600
v 29.404676 0.002835 -10.781600
v 27.123383 4.053428 -10.795527
v 29.126816 5.442760 -10.795527
v 29.126816 -0.002895 -10.795527
v 27.123383 -0.002895 -10.795527
v 29.404675 5.411150 -10.781600
v 29.404675 5.426170 -11.328626
v 29.404579 5.415150 -11.328626
v 29.404579 5.415150 -10.795527
v 26.845522 0.089141 -11.328626
v 26.845522 0.089141 -10.781600
v 29.404676 0.089141 -11.328626
v 29.404676 0.089141 -10.781600
v 31.657558 -0.002895 -10.781600
v 31.657558 4.053428 -10.781600
v 31.657558 -0.002895 -11.328626
v 31.657558 4.053428 -11.328626
v 29.654125 -0.002895 -10.781600
v 29.654125 5.442760 -10.781600
v 29.654125 -0.002895 -11.328626
v 29.654125 5.442760 -11.328626
v 31.935419 0.002835 -10.781600
v 31.935419 4.482465 -10.781600
v 31.935419 4.482465 -11.328626
v 31.935419 0.002835 -11.328626
v 29.376265 0.002835 -11.328626
v 29.376265 6.257177 -11.328626
v 29.376265 6.257177 -10.781600
v 29.376265 0.002835 -10.781600
v 31.657558 4.053428 -10.795527
v 29.654125 5.442760 -10.795527
v 29.654125 -0.002895 -10.795527
v 31.657558 -0.002895 -10.795527
v 29.376265 5.411150 -10.781600
v 29.376265 5.426170 -11.328626
v 29.376362 5.415150 -11.328626
v 29.376362 5.415150 -10.795527
v 31.935419 0.089141 -11.328626
v 31.935419 0.089141 -10.781600
v 29.376265 0.089141 -11.328626
v 29.376265 0.089141 -10.781600
v 27.123383 -0.002895 11.141118
v 27.123383 4.053428 11.141118
v 27.123383 -0.002895 10.594092
v 27.123383 4.053428 10.594092
v 29.126816 -0.002895 11.141118
v 29.126816 5.442760 11.141118
v 29.126816 -0.002895 10.594092
v 29.126816 5.442760 10.594092
v 26.845522 0.002835 11.141118
v 26.845522 4.482465 11.141118
v 26.845522 4.482465 10.594092
v 26.845522 0.002835 10.594092
v 29.404676 0.002835 10.594092
v 29.404675 6.257177 10.594092
v 29.404675 6.257177 11.141118
v 29.404676 0.002835 11.141118
v 27.123383 4.053428 11.127192
v 29.126816 5.442760 11.127192
v 29.126816 -0.002895 11.127192
v 27.123383 -0.002895 11.127192
v 29.404675 5.411150 11.141118
v 29.404675 5.426170 10.594092
v 29.404579 5.415150 10.594092
v 29.404579 5.415150 11.127192
v 26.845522 0.089141 10.594092
v 26.845522 0.089141 11.141118
v 29.404676 0.089141 10.594092
v 29.404676 0.089141 11.141118
v 31.657558 -0.002895 11.141118
v 31.657558 4.053428 11.141118
v 31.657558 -0.002895 10.594092
v 31.657558 4.053428 10.594092
v 29.654125 -0.002895 11.141118
v 29.654125 5.442760 11.141118
v 29.654125 -0.002895 10.594092
v 29.654125 5.442760 10.594092
v 31.935419 0.002835 11.141118
v 31.935419 4.482465 11.141118
v 31.935419 4.482465 10.594092
v 31.935419 0.002835 10.594092
v 29.376265 0.002835 10.594092
v 29.376265 6.257177 10.594092
v 29.376265 6.257177 11.141118
v 29.376265 0.002835 11.141118
v 31.657558 4.053428 11.127192
v 29.654125 5.442760 11.127192
v 29.654125 -0.002895 11.127192
v 31.657558 -0.002895 11.127192
v 29.376265 5.411150 11.141118
v 29.376265 5.426170 10.594092
v 29.376362 5.415150 10.594092
v 29.376362 5.415150 11.127192
v 31.935419 0.089141 10.594092
v 31.935419 0.089141 11.141118
v 29.376265 0.089141 10.594092
v 29.376265 0.089141 11.141118
vn 1.0000 -0.0000 -0.0000
vn -0.0000 -1.0000 -0.0000
vn -1.0000 -0.0000 -0.0000
vn -0.0000 1.0000 -0.0000
vn -0.0000 -0.0000 1.0000
vn -0.0000 -0.0000 -1.0000
vn 0.5699 -0.8217 -0.0000
vn -0.5699 0.8217 -0.0000
vn -0.0989 -0.9951 -0.0000
vn -0.5699 -0.8217 -0.0000
vn 0.5699 0.8217 -0.0000
vn 0.0989 -0.9951 -0.0000
vt 0.000000 0.000000
vt 1.000000 0.000000
vt 1.000000 1.000000
vt 0.000000 1.000000
vt 0.666667 0.000000
vt 0.666667 1.000000
vt 0.333333 0.000000
vt 0.333333 1.000000
vt 0.666667 1.000000
vt 0.375000 0.000000
vt 0.625000 0.000000
vt 0.625000 0.250000
vt 0.375000 0.250000
vt 0.608854 0.277144
vt 0.611003 0.472856
vt 0.611003 0.472856
vt 0.375000 0.750000
vt 0.375000 1.000000
vt 0.625000 0.500000
vt 0.875000 0.500000
vt 0.875000 0.750000
vt 0.625000 0.750000
vt 0.389297 0.972856
vt 0.608854 0.972856
vt 0.625000 1.000000
vt 0.389297 0.277144
vt 0.387218 0.472856
vt 0.375000 0.500000
vt 0.611003 0.777144
vt 0.592444 0.750000
vt 0.387218 0.777144
vt 0.389297 0.277144
vt 0.591783 0.500000
vt 0.125000 0.500000
vt 0.125000 0.750000
s 0
usemtl 
f 1/1/1 2/2/1 4/3/1 3/4/1
f 7/1/2 8/4/2 6/4/2 5/1/2
f 1/1/2 3/4/2 8/4/2 7/1/2
f 9/1/3 11/4/3 12/3/3 10/2/3
f 15/1/2 13/1/2 14/4/2 16/4/2
f 9/1/2 15/1/2 16/4/2 11/4/2
f 22/5/4 18/2/4 20/3/4 23/6/4
f 17/1/4 21/7/4 24/8/4 19/4/4
f 21/7/4 22/5/4 23/6/4 24/8/4
f 48/4/5 47/8/5 32/8/5 27/4/5
f 40/2/6 39/5/6 30/5/6 26/2/6
f 46/6/5 45/3/5 28/3/5 31/6/5
f 38/7/6 37/1/6 25/1/6 29/7/6
f 21/7/6 17/1/6 34/1/6 33/7/6
f 18/2/6 22/5/6 36/5/6 35/2/6
f 33/7/6 34/1/6 37/1/6 38/7/6
f 35/2/6 36/5/6 39/5/6 40/2/6
f 23/6/5 20/3/5 42/3/5 41/9/5
f 19/4/5 24/8/5 44/8/5 43/4/5
f 41/9/5 42/3/5 45/3/5 46/6/5
f 43/4/5 44/8/5 47/8/5 48/4/5
usemtl Material.014
f 57/10/3 58/11/3 59/12/3 60/13/3
f 52/14/7 56/15/7 66/16/7 65/14/7
f 64/17/6 57/18/6 74/18/6 76/17/6
f 62/19/8 59/20/8 58/21/8 63/22/8
f 49/23/5 50/24/5 58/25/5 57/18/5
f 52/14/6 51/26/6 60/13/6 59/12/6
f 51/26/5 55/27/5 61/28/5 60/13/5
f 56/15/6 52/14/6 59/12/6 62/19/6
f 54/29/5 69/30/5 63/22/5
f 53/31/6 49/23/6 57/18/6 64/17/6
f 50/24/5 54/29/5 63/22/5 58/25/5
f 51/26/1 52/14/1 65/14/1 68/32/1
f 55/27/4 51/26/4 68/32/4 67/27/4
f 70/33/6 56/15/6 62/19/6
f 66/16/9 56/15/9 71/15/9 72/16/9
f 73/34/2 75/28/2 76/17/2 74/35/2
f 61/1/3 64/1/3 76/1/3 75/1/3
f 60/13/5 61/28/5 75/28/5 73/13/5
f 57/10/1 60/13/1 73/13/1 74/10/1
f 85/10/1 88/13/1 87/12/1 86/11/1
f 80/14/10 93/14/10 94/16/10 84/15/10
f 92/17/6 104/17/6 102/18/6 85/18/6
f 90/19/11 91/22/11 86/21/11 87/20/11
f 77/23/5 85/18/5 86/25/5 78/24/5
f 80/14/6 87/12/6 88/13/6 79/26/6
f 79/26/5 88/13/5 89/28/5 83/27/5
f 84/15/6 90/19/6 87/12/6 80/14/6
f 82/29/5 91/22/5 97/30/5
f 81/31/6 92/17/6 85/18/6 77/23/6
f 78/24/5 86/25/5 91/22/5 82/29/5
f 79/26/3 96/32/3 93/14/3 80/14/3
f 83/27/4 95/27/4 96/32/4 79/26/4
f 98/33/6 90/19/6 84/15/6
f 94/16/12 100/16/12 99/15/12 84/15/12
f 101/34/2 102/35/2 104/17/2 103/28/2
f 89/1/1 103/1/1 104/1/1 92/1/1
f 88/13/5 101/13/5 103/28/5 89/28/5
f 85/10/3 102/10/3 101/13/3 88/13/3
usemtl Material.013
f 113/10/3 114/11/3 115/12/3 116/13/3
f 108/14/7 112/15/7 122/16/7 121/14/7
f 120/17/6 113/18/6 130/18/6 132/17/6
f 118/19/8 115/20/8 114/21/8 119/22/8
f 105/23/5 106/24/5 114/25/5 113/18/5
f 108/14/6 107/26/6 116/13/6 115/12/6
f 107/26/5 111/27/5 117/28/5 116/13/5
f 112/15/6 108/14/6 115/12/6 118/19/6
f 110/29/5 125/30/5 119/22/5
f 109/31/6 105/23/6 113/18/6 120/17/6
f 106/24/5 110/29/5 119/22/5 114/25/5
f 107/26/1 108/14/1 121/14/1 124/32/1
f 111/27/4 107/26/4 124/32/4 123/27/4
f 126/33/6 112/15/6 118/19/6
f 122/16/9 112/15/9 127/15/9 128/16/9
f 129/34/2 131/28/2 132/17/2 130/35/2
f 117/1/3 120/1/3 132/1/3 131/1/3
f 116/13/5 117/28/5 131/28/5 129/13/5
f 113/10/1 116/13/1 129/13/1 130/10/1
f 141/10/1 144/13/1 143/12/1 142/11/1
f 136/14/10 149/14/10 150/16/10 140/15/10
f 148/17/6 160/17/6 158/18/6 141/18/6
f 146/19/11 147/22/11 142/21/11 143/20/11
f 133/23/5 141/18/5 142/25/5 134/24/5
f 136/14/6 143/12/6 144/13/6 135/26/6
f 135/26/5 144/13/5 145/28/5 139/27/5
f 140/15/6 146/19/6 143/12/6 136/14/6
f 138/29/5 147/22/5 153/30/5
f 137/31/6 148/17/6 141/18/6 133/23/6
f 134/24/5 142/25/5 147/22/5 138/29/5
f 135/26/3 152/32/3 149/14/3 136/14/3
f 139/27/4 151/27/4 152/32/4 135/26/4
f 154/33/6 146/19/6 140/15/6
f 150/16/12 156/16/12 155/15/12 140/15/12
f 157/34/2 158/35/2 160/17/2 159/28/2
f 145/1/1 159/1/1 160/1/1 148/1/1
f 144/13/5 157/13/5 159/28/5 145/28/5
f 141/10/3 158/10/3 157/13/3 144/13/3
