# Blender 4.5.3 LTS
# www.blender.org
mtllib big_room_1.mtl
o big_room_1
v -2.267088 -0.002895 11.141119
v -2.267088 4.053428 11.141119
v -2.267088 -0.002895 10.594093
v -2.267088 4.053428 10.594093
v -0.263655 -0.002895 11.141119
v -0.263655 5.442761 11.141119
v -0.263655 -0.002895 10.594093
v -0.263655 5.442761 10.594093
v -2.544949 0.002835 11.141119
v -2.544949 4.482465 11.141119
v -2.544949 4.482465 10.594093
v -2.544949 0.002835 10.594093
v 0.014206 0.002835 10.594093
v 0.014206 6.257178 10.594093
v 0.014206 6.257178 11.141119
v 0.014206 0.002835 11.141119
v -2.267088 4.053428 11.127192
v -0.263655 5.442761 11.127192
v -0.263655 -0.002895 11.127192
v -2.267088 -0.002895 11.127192
v 0.014206 5.411151 11.141119
v 0.014206 5.426171 10.594093
v 0.014110 5.415151 10.594093
v 0.014110 5.415151 11.127192
v -2.544949 0.089141 10.594093
v -2.544949 0.089141 11.141119
v 0.014206 0.089141 10.594093
v 0.014206 0.089141 11.141119
v 2.267088 -0.002895 11.141119
v 2.267088 4.053428 11.141119
v 2.267088 -0.002895 10.594093
v 2.267088 4.053428 10.594093
v 0.263655 -0.002895 11.141119
v 0.263655 5.442761 11.141119
v 0.263655 -0.002895 10.594093
v 0.263655 5.442761 10.594093
v 2.544949 0.002835 11.141119
v 2.544949 4.482465 11.141119
v 2.544949 4.482465 10.594093
v 2.544949 0.002835 10.594093
v -0.014206 0.002835 10.594093
v -0.014206 6.257178 10.594093
v -0.014206 6.257178 11.141119
v -0.014206 0.002835 11.141119
v 2.267088 4.053428 11.127192
v 0.263655 5.442761 11.127192
v 0.263655 -0.002895 11.127192
v 2.267088 -0.002895 11.127192
v -0.014206 5.411151 11.141119
v -0.014206 5.426171 10.594093
v -0.014110 5.415151 10.594093
v -0.014110 5.415151 11.127192
v 2.544949 0.089141 10.594093
v 2.544949 0.089141 11.141119
v -0.014206 0.089141 10.594093
v -0.014206 0.089141 11.141119
v -11.019222 0.000000 10.931615
v 11.019222 0.000000 10.931615
v -11.019222 0.000000 -11.106829
v 11.019222 0.000000 -11.106829
v -2.524763 0.000000 10.931615
v 2.442660 0.000000 10.931615
v 2.442660 0.000000 -11.106829
v -2.524763 0.000000 -11.106829
v -11.019222 9.679085 10.931615
v 11.019222 9.679085 10.931615
v -11.019222 9.679085 -11.106829
v 11.019222 9.679085 -11.106829
v -0.072093 9.679085 10.931615
v -0.328221 9.679085 10.931615
v -0.483319 9.679085 -11.106829
v 1.496752 9.679085 -11.106829
v -2.524763 4.226079 10.931615
v -11.019222 4.226079 10.931615
v 11.019222 4.294242 10.931615
v 2.442660 4.294242 10.931615
v -11.019222 6.100550 10.931615
v 0.014333 6.100550 10.931615
v 0.002699 6.100550 10.931615
v 11.019222 6.100550 10.931615
v 2.442660 4.271449 -11.106829
v 11.019222 4.271449 -11.106829
v -11.019222 4.214249 -11.106829
v -2.524763 4.214249 -11.106829
v 11.019222 5.839862 -11.106829
v 0.078189 5.839862 -11.106829
v -0.170601 5.781538 -11.106829
v -11.019222 5.781538 -11.106829
v -2.267088 -0.002895 -10.781601
v -2.267088 4.053428 -10.781601
v -2.267088 -0.002895 -11.328627
v -2.267088 4.053428 -11.328627
v -0.263655 -0.002895 -10.781601
v -0.263655 5.442761 -10.781601
v -0.263655 -0.002895 -11.328627
v -0.263655 5.442761 -11.328627
v -2.544949 0.002835 -10.781601
v -2.544949 4.482465 -10.781601
v -2.544949 4.482465 -11.328627
v -2.544949 0.002835 -11.328627
v 0.014206 0.002835 -11.328627
v 0.014206 6.257178 -11.328627
v 0.014206 6.257178 -10.781601
v 0.014206 0.002835 -10.781601
v -2.267088 4.053428 -10.795527
v -0.263655 5.442761 -10.795527
v -0.263655 -0.002895 -10.795527
v -2.267088 -0.002895 -10.795527
v 0.014206 5.411151 -10.781601
v 0.014206 5.426171 -11.328627
v 0.014110 5.415151 -11.328627
v 0.014110 5.415151 -10.795527
v -2.544949 0.089141 -11.328627
v -2.544949 0.089141 -10.781601
v 0.014206 0.089141 -11.328627
v 0.014206 0.089141 -10.781601
v 2.267088 -0.002895 -10.781601
v 2.267088 4.053428 -10.781601
v 2.267088 -0.002895 -11.328627
v 2.267088 4.053428 -11.328627
v 0.263655 -0.002895 -10.781601
v 0.263655 5.442761 -10.781601
v 0.263655 -0.002895 -11.328627
v 0.263655 5.442761 -11.328627
v 2.544949 0.002835 -10.781601
v 2.544949 4.482465 -10.781601
v 2.544949 4.482465 -11.328627
v 2.544949 0.002835 -11.328627
v -0.014206 0.002835 -11.328627
v -0.014206 6.257178 -11.328627
v -0.014206 6.257178 -10.781601
v -0.014206 0.002835 -10.781601
v 2.267088 4.053428 -10.795527
v 0.263655 5.442761 -10.795527
v 0.263655 -0.002895 -10.795527
v 2.267088 -0.002895 -10.795527
v -0.014206 5.411151 -10.781601
v -0.014206 5.426171 -11.328627
v -0.014110 5.415151 -11.328627
v -0.014110 5.415151 -10.795527
v 2.544949 0.089141 -11.328627
v 2.544949 0.089141 -10.781601
v -0.014206 0.089141 -11.328627
v -0.014206 0.089141 -10.781601
v -10.964725 8.371691 11.961239
v -10.964725 -8.371691 11.961239
v -10.964725 8.371691 -11.961239
v -10.964725 -8.371691 -11.961239
v 0.516497 8.371691 11.961239
v 0.516497 8.371691 -11.961239
v -2.290707 8.371692 11.961239
v -2.290707 8.371692 -11.961239
v 10.964725 8.371691 11.961239
v 10.964725 -8.371691 11.961239
v 10.964725 8.371691 -11.961239
v 10.964725 -8.371691 -11.961239
v -0.516498 8.371692 11.961239
v -0.516498 8.371692 -11.961239
v 2.290706 8.371691 11.961239
v 2.290706 8.371691 -11.961239
vn -1.0000 -0.0000 -0.0000
vn 0.5699 -0.8217 -0.0000
vn -0.0000 -0.0000 -1.0000
vn -0.5699 0.8217 -0.0000
vn -0.0000 -0.0000 1.0000
vn 1.0000 -0.0000 -0.0000
vn -0.0000 1.0000 -0.0000
vn -0.0989 -0.9951 -0.0000
vn -0.0000 -1.0000 -0.0000
vn -0.5699 -0.8217 -0.0000
vn 0.5699 0.8217 -0.0000
vn 0.0989 -0.9951 -0.0000
vn -0.0000 -0.0001 1.0000
vt 0.375000 0.000000
vt 0.625000 0.000000
vt 0.625000 0.250000
vt 0.375000 0.250000
vt 0.608854 0.277144
vt 0.611003 0.472856
vt 0.611003 0.472856
vt 0.375000 0.750000
vt 0.375000 1.000000
vt 0.625000 0.500000
vt 0.875000 0.500000
vt 0.875000 0.750000
vt 0.625000 0.750000
vt 0.389297 0.972856
vt 0.608854 0.972856
vt 0.625000 1.000000
vt 0.389297 0.277144
vt 0.387218 0.472856
vt 0.375000 0.500000
vt 0.611003 0.777144
vt 0.592444 0.750000
vt 0.387218 0.777144
vt 0.389297 0.277144
vt 0.591783 0.500000
vt 0.125000 0.500000
vt 0.125000 0.750000
vt 0.000000 0.000000
vt 0.666667 0.000000
vt 1.000000 0.000000
vt 1.000000 1.000000
vt 0.666667 1.000000
vt 0.333333 0.000000
vt 0.333333 1.000000
vt 0.000000 1.000000
vt 0.666667 1.000000
s 0
usemtl Material.008
f 9/1/1 10/2/1 11/3/1 12/4/1
f 4/5/2 8/6/2 18/7/2 17/5/2
f 16/8/3 9/9/3 26/9/3 28/8/3
f 14/10/4 11/11/4 10/12/4 15/13/4
f 1/14/5 2/15/5 10/16/5 9/9/5
f 4/5/3 3/17/3 12/4/3 11/3/3
f 3/17/5 7/18/5 13/19/5 12/4/5
f 8/6/3 4/5/3 11/3/3 14/10/3
f 6/20/5 21/21/5 15/13/5
f 5/22/3 1/14/3 9/9/3 16/8/3
f 2/15/5 6/20/5 15/13/5 10/16/5
f 3/17/6 4/5/6 17/5/6 20/23/6
f 7/18/7 3/17/7 20/23/7 19/18/7
f 22/24/3 8/6/3 14/10/3
f 18/7/8 8/6/8 23/6/8 24/7/8
f 25/25/9 27/19/9 28/8/9 26/26/9
f 13/27/1 16/27/1 28/27/1 27/27/1
f 12/4/5 13/19/5 27/19/5 25/4/5
f 9/1/6 12/4/6 25/4/6 26/1/6
f 37/1/6 40/4/6 39/3/6 38/2/6
f 32/5/10 45/5/10 46/7/10 36/6/10
f 44/8/3 56/8/3 54/9/3 37/9/3
f 42/10/11 43/13/11 38/12/11 39/11/11
f 29/14/5 37/9/5 38/16/5 30/15/5
f 32/5/3 39/3/3 40/4/3 31/17/3
f 31/17/5 40/4/5 41/19/5 35/18/5
f 36/6/3 42/10/3 39/3/3 32/5/3
f 34/20/5 43/13/5 49/21/5
f 33/22/3 44/8/3 37/9/3 29/14/3
f 30/15/5 38/16/5 43/13/5 34/20/5
f 31/17/1 48/23/1 45/5/1 32/5/1
f 35/18/7 47/18/7 48/23/7 31/17/7
f 50/24/3 42/10/3 36/6/3
f 46/7/12 52/7/12 51/6/12 36/6/12
f 53/25/9 54/26/9 56/8/9 55/19/9
f 41/27/6 55/27/6 56/27/6 44/27/6
f 40/4/5 53/4/5 55/19/5 41/19/5
f 37/1/1 54/1/1 53/4/1 40/4/1
usemtl 
f 62/28/7 58/29/7 60/30/7 63/31/7
f 57/27/7 61/32/7 64/33/7 59/34/7
f 61/32/7 62/28/7 63/31/7 64/33/7
f 88/34/5 87/33/5 72/33/5 67/34/5
f 80/29/3 79/28/3 70/28/3 66/29/3
f 86/31/5 85/30/5 68/30/5 71/31/5
f 78/32/3 77/27/3 65/27/3 69/32/3
f 61/32/3 57/27/3 74/27/3 73/32/3
f 58/29/3 62/28/3 76/28/3 75/29/3
f 73/32/3 74/27/3 77/27/3 78/32/3
f 75/29/3 76/28/3 79/28/3 80/29/3
f 63/31/5 60/30/5 82/30/5 81/35/5
f 59/34/5 64/33/5 84/33/5 83/34/5
f 81/35/5 82/30/5 85/30/5 86/31/5
f 83/34/5 84/33/5 87/33/5 88/34/5
f 145/27/6 146/29/6 148/30/6 147/34/6
f 151/27/9 152/34/9 150/34/9 149/27/9
f 145/27/9 147/34/9 152/34/9 151/27/9
f 153/27/1 155/34/1 156/30/1 154/29/1
f 159/27/9 157/27/9 158/34/9 160/34/9
f 153/27/9 159/27/9 160/34/9 155/34/9
usemtl Material.001
f 97/1/1 98/2/1 99/3/1 100/4/1
f 92/5/2 96/6/2 106/7/2 105/5/2
f 104/8/3 97/9/3 114/9/3 116/8/3
f 102/10/4 99/11/4 98/12/4 103/13/4
f 89/14/5 90/15/5 98/16/5 97/9/5
f 92/5/3 91/17/3 100/4/3 99/3/3
f 91/17/5 95/18/5 101/19/5 100/4/5
f 96/6/3 92/5/3 99/3/3 102/10/3
f 94/20/5 109/21/5 103/13/5
f 93/22/3 89/14/3 97/9/3 104/8/3
f 90/15/5 94/20/5 103/13/5 98/16/5
f 91/17/6 92/5/6 105/5/6 108/23/6
f 95/18/7 91/17/7 108/23/7 107/18/7
f 110/24/3 96/6/3 102/10/3
f 106/7/8 96/6/8 111/6/8 112/7/8
f 113/25/9 115/19/9 116/8/9 114/26/9
f 101/27/1 104/27/1 116/27/1 115/27/1
f 100/4/5 101/19/5 115/19/5 113/4/5
f 97/1/6 100/4/6 113/4/6 114/1/6
f 125/1/6 128/4/6 127/3/6 126/2/6
f 120/5/10 133/5/10 134/7/10 124/6/10
f 132/8/3 144/8/3 142/9/3 125/9/3
f 130/10/11 131/13/11 126/12/11 127/11/11
f 117/14/5 125/9/5 126/16/5 118/15/5
f 120/5/3 127/3/3 128/4/3 119/17/3
f 119/17/13 128/4/13 129/19/13 123/18/13
f 124/6/3 130/10/3 127/3/3 120/5/3
f 122/20/5 131/13/5 137/21/5
f 121/22/3 132/8/3 125/9/3 117/14/3
f 118/15/5 126/16/5 131/13/5 122/20/5
f 119/17/1 136/23/1 133/5/1 120/5/1
f 123/18/7 135/18/7 136/23/7 119/17/7
f 138/24/3 130/10/3 124/6/3
f 134/7/12 140/7/12 139/6/12 124/6/12
f 141/25/9 142/26/9 144/8/9 143/19/9
f 129/27/6 143/27/6 144/27/6 132/27/6
f 128/4/5 141/4/5 143/19/5 129/19/5
f 125/1/1 142/1/1 141/4/1 128/4/1
