# Blender 4.5.3 LTS
# www.blender.org
mtllib line_hall.mtl
o line_hall
v -84.672806 -0.002895 -10.781601
v -84.672806 4.053428 -10.781601
v -84.672806 -0.002895 -11.328627
v -84.672806 4.053428 -11.328627
v -82.669373 -0.002895 -10.781601
v -82.669373 5.442761 -10.781601
v -82.669373 -0.002895 -11.328627
v -82.669373 5.442761 -11.328627
v -84.950668 0.002835 -10.781601
v -84.950668 4.482465 -10.781601
v -84.950668 4.482465 -11.328627
v -84.950668 0.002835 -11.328627
v -82.391510 0.002835 -11.328627
v -82.391510 6.257178 -11.328627
v -82.391510 6.257178 -10.781601
v -82.391510 0.002835 -10.781601
v -84.672806 4.053428 -10.795527
v -82.669373 5.442761 -10.795527
v -82.669373 -0.002895 -10.795527
v -84.672806 -0.002895 -10.795527
v -82.391510 5.411151 -10.781601
v -82.391510 5.426171 -11.328627
v -82.391609 5.415151 -11.328627
v -82.391609 5.415151 -10.795527
v -84.950668 0.089141 -11.328627
v -84.950668 0.089141 -10.781601
v -82.391510 0.089141 -11.328627
v -82.391510 0.089141 -10.781601
v -80.138626 -0.002895 -10.781601
v -80.138626 4.053428 -10.781601
v -80.138626 -0.002895 -11.328627
v -80.138626 4.053428 -11.328627
v -82.142059 -0.002895 -10.781601
v -82.142059 5.442761 -10.781601
v -82.142059 -0.002895 -11.328627
v -82.142059 5.442761 -11.328627
v -79.860764 0.002835 -10.781601
v -79.860764 4.482465 -10.781601
v -79.860764 4.482465 -11.328627
v -79.860764 0.002835 -11.328627
v -82.419922 0.002835 -11.328627
v -82.419922 6.257178 -11.328627
v -82.419922 6.257178 -10.781601
v -82.419922 0.002835 -10.781601
v -80.138626 4.053428 -10.795527
v -82.142059 5.442761 -10.795527
v -82.142059 -0.002895 -10.795527
v -80.138626 -0.002895 -10.795527
v -82.419922 5.411151 -10.781601
v -82.419922 5.426171 -11.328627
v -82.419823 5.415151 -11.328627
v -82.419823 5.415151 -10.795527
v -79.860764 0.089141 -11.328627
v -79.860764 0.089141 -10.781601
v -82.419922 0.089141 -11.328627
v -82.419922 0.089141 -10.781601
v -82.441284 6.155654 -4.780286
v -79.988297 -2.468450 -4.780286
v -82.441284 6.155654 -11.197007
v -79.988297 -2.468450 -11.197007
v -79.988297 4.300481 -4.780286
v -79.988297 4.300481 -11.197007
v -82.370148 6.155653 -4.780286
v -84.823128 -2.468450 -4.780286
v -82.370148 6.155653 -11.197007
v -84.823128 -2.468450 -11.197007
v -84.823128 4.300481 -4.780286
v -84.823128 4.300481 -11.197007
v -82.441284 6.155654 4.605072
v -79.988297 -2.468450 4.605072
v -82.441284 6.155654 11.021793
v -79.988297 -2.468450 11.021793
v -79.988297 4.300481 4.605072
v -79.988297 4.300481 11.021793
v -82.370148 6.155653 4.605072
v -84.823128 -2.468450 4.605072
v -82.370148 6.155653 11.021793
v -84.823128 -2.468450 11.021793
v -84.823128 4.300481 4.605072
v -84.823128 4.300481 11.021793
v -82.441284 6.155654 -5.198185
v -79.988297 -2.468450 -5.198185
v -79.988297 4.300481 -5.198185
v -82.370148 6.155653 -5.198185
v -84.823128 -2.468450 -5.198185
v -84.823128 4.300481 -5.198185
v -93.424942 0.000000 10.931614
v -71.386490 0.000000 10.931614
v -93.424942 0.000000 -11.106830
v -71.386490 0.000000 -11.106830
v -84.672806 -0.002895 11.141119
v -84.672806 4.053428 11.141119
v -84.672806 -0.002895 10.594093
v -84.672806 4.053428 10.594093
v -82.669373 -0.002895 11.141119
v -82.669373 5.442761 11.141119
v -82.669373 -0.002895 10.594093
v -82.669373 5.442761 10.594093
v -84.950668 0.002835 11.141119
v -84.950668 4.482465 11.141119
v -84.950668 4.482465 10.594093
v -84.950668 0.002835 10.594093
v -82.391510 0.002835 10.594093
v -82.391510 6.257178 10.594093
v -82.391510 6.257178 11.141119
v -82.391510 0.002835 11.141119
v -84.672806 4.053428 11.127193
v -82.669373 5.442761 11.127193
v -82.669373 -0.002895 11.127193
v -84.672806 -0.002895 11.127193
v -82.391510 5.411151 11.141119
v -82.391510 5.426171 10.594093
v -82.391609 5.415151 10.594093
v -82.391609 5.415151 11.127193
v -84.950668 0.089141 10.594093
v -84.950668 0.089141 11.141119
v -82.391510 0.089141 10.594093
v -82.391510 0.089141 11.141119
v -80.138626 -0.002895 11.141119
v -80.138626 4.053428 11.141119
v -80.138626 -0.002895 10.594093
v -80.138626 4.053428 10.594093
v -82.142059 -0.002895 11.141119
v -82.142059 5.442761 11.141119
v -82.142059 -0.002895 10.594093
v -82.142059 5.442761 10.594093
v -79.860764 0.002835 11.141119
v -79.860764 4.482465 11.141119
v -79.860764 4.482465 10.594093
v -79.860764 0.002835 10.594093
v -82.419922 0.002835 10.594093
v -82.419922 6.257178 10.594093
v -82.419922 6.257178 11.141119
v -82.419922 0.002835 11.141119
v -80.138626 4.053428 11.127193
v -82.142059 5.442761 11.127193
v -82.142059 -0.002895 11.127193
v -80.138626 -0.002895 11.127193
v -82.419922 5.411151 11.141119
v -82.419922 5.426171 10.594093
v -82.419823 5.415151 10.594093
v -82.419823 5.415151 11.127193
v -79.860764 0.089141 10.594093
v -79.860764 0.089141 11.141119
v -82.419922 0.089141 10.594093
v -82.419922 0.089141 11.141119
vn -1.0000 -0.0000 -0.0000
vn 0.5699 -0.8217 -0.0000
vn -0.0000 -0.0000 -1.0000
vn -0.5699 0.8217 -0.0000
vn -0.0000 -0.0000 1.0000
vn 1.0000 -0.0000 -0.0000
vn -0.0000 1.0000 -0.0000
vn -0.0989 -0.9951 -0.0000
vn -0.0000 -1.0000 -0.0000
vn -0.5699 -0.8217 -0.0000
vn 0.5699 0.8217 -0.0000
vn 0.0989 -0.9951 -0.0000
vn 0.6032 0.7976 -0.0000
vn -0.6032 0.7976 -0.0000
vn -0.0000 0.0003 1.0000
vn -0.0000 -0.0003 -1.0000
vn -0.0000 -0.0002 -1.0000
vt 0.375000 0.000000
vt 0.625000 0.000000
vt 0.625000 0.250000
vt 0.375000 0.250000
vt 0.608854 0.277144
vt 0.611003 0.472856
vt 0.611003 0.472856
vt 0.375000 0.750000
vt 0.375000 1.000000
vt 0.625000 0.500000
vt 0.875000 0.500000
vt 0.875000 0.750000
vt 0.625000 0.750000
vt 0.389297 0.972856
vt 0.608854 0.972856
vt 0.625000 1.000000
vt 0.389297 0.277144
vt 0.387218 0.472856
vt 0.375000 0.500000
vt 0.611003 0.777144
vt 0.592444 0.750000
vt 0.387218 0.777144
vt 0.389297 0.277144
vt 0.591783 0.500000
vt 0.125000 0.500000
vt 0.125000 0.750000
vt 0.000000 0.000000
vt 0.215115 0.000000
vt 1.000000 0.000000
vt 1.000000 1.000000
vt 0.215115 1.000000
vt 0.000000 1.000000
s 0
usemtl Material.015
f 9/1/1 10/2/1 11/3/1 12/4/1
f 4/5/2 8/6/2 18/7/2 17/5/2
f 16/8/3 9/9/3 26/9/3 28/8/3
f 14/10/4 11/11/4 10/12/4 15/13/4
f 1/14/5 2/15/5 10/16/5 9/9/5
f 4/5/3 3/17/3 12/4/3 11/3/3
f 3/17/5 7/18/5 13/19/5 12/4/5
f 8/6/3 4/5/3 11/3/3 14/10/3
f 6/20/5 21/21/5 15/13/5
f 5/22/3 1/14/3 9/9/3 16/8/3
f 2/15/5 6/20/5 15/13/5 10/16/5
f 3/17/6 4/5/6 17/5/6 20/23/6
f 7/18/7 3/17/7 20/23/7 19/18/7
f 22/24/3 8/6/3 14/10/3
f 18/7/8 8/6/8 23/6/8 24/7/8
f 25/25/9 27/19/9 28/8/9 26/26/9
f 13/27/1 16/27/1 28/27/1 27/27/1
f 12/4/5 13/19/5 27/19/5 25/4/5
f 9/1/6 12/4/6 25/4/6 26/1/6
f 37/1/6 40/4/6 39/3/6 38/2/6
f 32/5/10 45/5/10 46/7/10 36/6/10
f 44/8/3 56/8/3 54/9/3 37/9/3
f 42/10/11 43/13/11 38/12/11 39/11/11
f 29/14/5 37/9/5 38/16/5 30/15/5
f 32/5/3 39/3/3 40/4/3 31/17/3
f 31/17/5 40/4/5 41/19/5 35/18/5
f 36/6/3 42/10/3 39/3/3 32/5/3
f 34/20/5 43/13/5 49/21/5
f 33/22/3 44/8/3 37/9/3 29/14/3
f 30/15/5 38/16/5 43/13/5 34/20/5
f 31/17/1 48/23/1 45/5/1 32/5/1
f 35/18/7 47/18/7 48/23/7 31/17/7
f 50/24/3 42/10/3 36/6/3
f 46/7/12 52/7/12 51/6/12 36/6/12
f 53/25/9 54/26/9 56/8/9 55/19/9
f 41/27/6 55/27/6 56/27/6 44/27/6
f 40/4/5 53/4/5 55/19/5 41/19/5
f 37/1/1 54/1/1 53/4/1 40/4/1
usemtl 
f 61/28/6 58/29/6 60/30/6 62/31/6
f 57/27/13 61/28/13 62/31/13 59/32/13
f 67/28/1 68/31/1 66/30/1 64/29/1
f 63/27/14 65/32/14 68/31/14 67/28/14
f 73/28/6 74/31/6 72/30/6 70/29/6
f 69/27/13 71/32/13 74/31/13 73/28/13
f 79/28/1 76/29/1 78/30/1 80/31/1
f 75/27/14 79/28/14 80/31/14 77/32/14
f 73/28/6 70/29/6 82/29/6 83/28/6
f 76/29/1 79/28/1 86/28/1 85/29/1
f 69/27/13 73/28/13 83/28/13 81/27/13
f 79/28/14 75/27/14 84/27/14 86/28/14
f 87/27/7 88/29/7 90/30/7 89/32/7
usemtl Material.016
f 99/1/1 100/2/1 101/3/1 102/4/1
f 94/5/2 98/6/2 108/7/2 107/5/2
f 106/8/3 99/9/3 116/9/3 118/8/3
f 104/10/4 101/11/4 100/12/4 105/13/4
f 91/14/5 92/15/5 100/16/5 99/9/5
f 94/5/3 93/17/3 102/4/3 101/3/3
f 93/17/15 97/18/15 103/19/15 102/4/15
f 98/6/3 94/5/3 101/3/3 104/10/3
f 96/20/5 111/21/5 105/13/5
f 95/22/16 91/14/16 99/9/16 106/8/16
f 92/15/5 96/20/5 105/13/5 100/16/5
f 93/17/6 94/5/6 107/5/6 110/23/6
f 97/18/7 93/17/7 110/23/7 109/18/7
f 112/24/3 98/6/3 104/10/3
f 108/7/8 98/6/8 113/6/8 114/7/8
f 115/25/9 117/19/9 118/8/9 116/26/9
f 103/27/1 106/27/1 118/27/1 117/27/1
f 102/4/5 103/19/5 117/19/5 115/4/5
f 99/1/6 102/4/6 115/4/6 116/1/6
f 127/1/6 130/4/6 129/3/6 128/2/6
f 122/5/10 135/5/10 136/7/10 126/6/10
f 134/8/3 146/8/3 144/9/3 127/9/3
f 132/10/11 133/13/11 128/12/11 129/11/11
f 119/14/5 127/9/5 128/16/5 120/15/5
f 122/5/3 129/3/3 130/4/3 121/17/3
f 121/17/15 130/4/15 131/19/15 125/18/15
f 126/6/3 132/10/3 129/3/3 122/5/3
f 124/20/5 133/13/5 139/21/5
f 123/22/17 134/8/17 127/9/17 119/14/17
f 120/15/5 128/16/5 133/13/5 124/20/5
f 121/17/1 138/23/1 135/5/1 122/5/1
f 125/18/7 137/18/7 138/23/7 121/17/7
f 140/24/3 132/10/3 126/6/3
f 136/7/12 142/7/12 141/6/12 126/6/12
f 143/25/9 144/26/9 146/8/9 145/19/9
f 131/27/6 145/27/6 146/27/6 134/27/6
f 130/4/5 143/4/5 145/19/5 131/19/5
f 127/1/1 144/1/1 143/4/1 130/4/1
