# Blender 4.5.3 LTS
# www.blender.org
mtllib small_room_1.mtl
o small_room_1
v -33.130985 4.544495 6.872567
v -33.130985 -3.072794 6.872567
v -33.130985 4.544495 -6.872567
v -33.130985 -3.072794 -6.872567
v -27.628798 6.127526 6.872567
v -27.628798 6.269863 -6.872567
v -29.731506 4.681018 -6.872567
v -30.099792 -3.072794 -6.872567
v -29.738117 4.569713 6.872567
v -30.106401 -3.072794 6.872567
v -33.130985 6.720728 6.872567
v -30.106401 6.720728 6.872567
v -33.130985 6.654787 -6.872567
v -30.099791 6.654787 -6.872567
v -27.643902 6.174655 -6.872567
v -27.650513 6.169413 6.872567
v -27.650511 6.720728 6.872567
v -27.643902 6.654786 -6.872567
v -28.878456 5.223707 6.872567
v -28.878456 6.720728 6.872567
v -28.871845 6.654787 -6.872567
v -28.871847 5.237198 -6.872567
v -33.130985 4.294150 6.872567
v -33.130985 4.294150 -6.872567
v -30.099791 4.294150 -6.872567
v -30.106401 4.294150 6.872567
v -29.492428 4.777952 6.872567
v -29.492428 6.720728 6.872567
v -22.183952 4.544495 6.872567
v -22.183952 -3.072794 6.872567
v -22.183952 4.544495 -6.872567
v -22.183952 -3.072794 -6.872567
v -27.686142 6.127526 6.872567
v -27.686140 6.269863 -6.872567
v -25.583431 4.681018 -6.872567
v -25.215147 -3.072793 -6.872567
v -25.576820 4.569713 6.872567
v -25.208536 -3.072793 6.872567
v -22.183952 6.720728 6.872567
v -25.208538 6.720728 6.872567
v -22.183952 6.654787 -6.872567
v -25.215147 6.654786 -6.872567
v -27.671036 6.174655 -6.872567
v -27.664427 6.169413 6.872567
v -27.664427 6.720728 6.872567
v -27.671036 6.654786 -6.872567
v -26.436481 5.223706 6.872567
v -26.436481 6.720728 6.872567
v -26.443092 6.654786 -6.872567
v -26.443092 5.237197 -6.872567
v -22.183952 4.294150 6.872567
v -22.183952 4.294150 -6.872567
v -25.215147 4.294150 -6.872567
v -25.208538 4.294150 6.872567
v -25.822510 4.777951 6.872567
v -25.822510 6.720728 6.872567
v -29.924553 -0.002895 -10.781600
v -29.924553 4.053428 -10.781600
v -29.924553 -0.002895 -11.328627
v -29.924553 4.053428 -11.328627
v -27.921122 -0.002895 -10.781600
v -27.921122 5.442761 -10.781600
v -27.921122 -0.002895 -11.328627
v -27.921122 5.442761 -11.328627
v -30.202415 0.002835 -10.781600
v -30.202415 4.482465 -10.781600
v -30.202415 4.482465 -11.328627
v -30.202415 0.002835 -11.328627
v -27.643261 0.002835 -11.328627
v -27.643261 6.257177 -11.328627
v -27.643261 6.257177 -10.781600
v -27.643261 0.002835 -10.781600
v -29.924553 4.053428 -10.795527
v -27.921122 5.442761 -10.795527
v -27.921122 -0.002895 -10.795527
v -29.924553 -0.002895 -10.795527
v -27.643261 5.411151 -10.781600
v -27.643261 5.426170 -11.328627
v -27.643356 5.415151 -11.328627
v -27.643356 5.415151 -10.795527
v -30.202415 0.089141 -11.328627
v -30.202415 0.089141 -10.781600
v -27.643261 0.089141 -11.328627
v -27.643261 0.089141 -10.781600
v -25.390377 -0.002895 -10.781600
v -25.390377 4.053428 -10.781600
v -25.390377 -0.002895 -11.328627
v -25.390377 4.053428 -11.328627
v -27.393810 -0.002895 -10.781600
v -27.393810 5.442760 -10.781600
v -27.393810 -0.002895 -11.328627
v -27.393810 5.442760 -11.328627
v -25.112518 0.002835 -10.781600
v -25.112518 4.482465 -10.781600
v -25.112518 4.482465 -11.328627
v -25.112518 0.002835 -11.328627
v -27.671671 0.002835 -11.328627
v -27.671671 6.257177 -11.328627
v -27.671671 6.257177 -10.781600
v -27.671671 0.002835 -10.781600
v -25.390377 4.053428 -10.795527
v -27.393810 5.442760 -10.795527
v -27.393810 -0.002895 -10.795527
v -25.390377 -0.002895 -10.795527
v -27.671671 5.411151 -10.781600
v -27.671671 5.426170 -11.328627
v -27.671576 5.415151 -11.328627
v -27.671576 5.415151 -10.795527
v -25.112518 0.089141 -11.328627
v -25.112518 0.089141 -10.781600
v -27.671671 0.089141 -11.328627
v -27.671671 0.089141 -10.781600
v -29.924553 -0.002895 11.141120
v -29.924553 4.053428 11.141120
v -29.924553 -0.002895 10.594094
v -29.924553 4.053428 10.594094
v -27.921122 -0.002895 11.141120
v -27.921122 5.442761 11.141120
v -27.921122 -0.002895 10.594094
v -27.921122 5.442761 10.594094
v -30.202415 0.002835 11.141120
v -30.202415 4.482465 11.141120
v -30.202415 4.482465 10.594094
v -30.202415 0.002835 10.594094
v -27.643261 0.002835 10.594094
v -27.643261 6.257177 10.594094
v -27.643261 6.257177 11.141120
v -27.643261 0.002835 11.141120
v -29.924553 4.053428 11.127193
v -27.921122 5.442761 11.127193
v -27.921122 -0.002895 11.127193
v -29.924553 -0.002895 11.127193
v -27.643261 5.411151 11.141120
v -27.643261 5.426170 10.594094
v -27.643356 5.415151 10.594094
v -27.643356 5.415151 11.127193
v -30.202415 0.089141 10.594094
v -30.202415 0.089141 11.141120
v -27.643261 0.089141 10.594094
v -27.643261 0.089141 11.141120
v -25.390377 -0.002895 11.141120
v -25.390377 4.053428 11.141120
v -25.390377 -0.002895 10.594094
v -25.390377 4.053428 10.594094
v -27.393810 -0.002895 11.141120
v -27.393810 5.442760 11.141120
v -27.393810 -0.002895 10.594094
v -27.393810 5.442760 10.594094
v -25.112518 0.002835 11.141120
v -25.112518 4.482465 11.141120
v -25.112518 4.482465 10.594094
v -25.112518 0.002835 10.594094
v -27.671671 0.002835 10.594094
v -27.671671 6.257177 10.594094
v -27.671671 6.257177 11.141120
v -27.671671 0.002835 11.141120
v -25.390377 4.053428 11.127193
v -27.393810 5.442760 11.127193
v -27.393810 -0.002895 11.127193
v -25.390377 -0.002895 11.127193
v -27.671671 5.411151 11.141120
v -27.671671 5.426170 10.594094
v -27.671576 5.415151 10.594094
v -27.671576 5.415151 11.127193
v -25.112518 0.089141 10.594094
v -25.112518 0.089141 11.141120
v -27.671671 0.089141 10.594094
v -27.671671 0.089141 11.141120
v -38.676689 0.000000 10.931615
v -16.638243 -0.000000 10.931615
v -38.676689 0.000000 -11.106830
v -16.638243 -0.000000 -11.106830
v -29.924553 -0.002895 -4.633521
v -29.924553 4.053428 -4.633521
v -29.924553 -0.002895 -5.180547
v -29.924553 4.053428 -5.180547
v -27.921122 -0.002895 -4.633521
v -27.921122 5.442761 -4.633521
v -27.921122 -0.002895 -5.180547
v -27.921122 5.442761 -5.180547
v -30.202415 0.002835 -4.633521
v -30.202415 4.482465 -4.633521
v -30.202415 4.482465 -5.180547
v -30.202415 0.002835 -5.180547
v -27.643261 0.002835 -5.180547
v -27.643261 6.257177 -5.180547
v -27.643261 6.257177 -4.633521
v -27.643261 0.002835 -4.633521
v -29.924553 4.053428 -4.647447
v -27.921122 5.442761 -4.647447
v -27.921122 -0.002895 -4.647447
v -29.924553 -0.002895 -4.647447
v -27.643261 5.411151 -4.633521
v -27.643261 5.426170 -5.180547
v -27.643356 5.415151 -5.180547
v -27.643356 5.415151 -4.647447
v -30.202415 0.089141 -5.180547
v -30.202415 0.089141 -4.633521
v -27.643261 0.089141 -5.180547
v -27.643261 0.089141 -4.633521
v -25.390377 -0.002895 -4.633521
v -25.390377 4.053428 -4.633521
v -25.390377 -0.002895 -5.180547
v -25.390377 4.053428 -5.180547
v -27.393810 -0.002895 -4.633521
v -27.393810 5.442760 -4.633521
v -27.393810 -0.002895 -5.180547
v -27.393810 5.442760 -5.180547
v -25.112518 0.002835 -4.633521
v -25.112518 4.482465 -4.633521
v -25.112518 4.482465 -5.180547
v -25.112518 0.002835 -5.180547
v -27.671671 0.002835 -5.180547
v -27.671671 6.257177 -5.180547
v -27.671671 6.257177 -4.633521
v -27.671671 0.002835 -4.633521
v -25.390377 4.053428 -4.647447
v -27.393810 5.442760 -4.647447
v -27.393810 -0.002895 -4.647447
v -25.390377 -0.002895 -4.647447
v -27.671671 5.411151 -4.633521
v -27.671671 5.426170 -5.180547
v -27.671576 5.415151 -5.180547
v -27.671576 5.415151 -4.647447
v -25.112518 0.089141 -5.180547
v -25.112518 0.089141 -4.633521
v -27.671671 0.089141 -5.180547
v -27.671671 0.089141 -4.633521
v -29.924553 -0.002895 4.641720
v -29.924553 4.053428 4.641720
v -29.924553 -0.002895 4.094695
v -29.924553 4.053428 4.094695
v -27.921122 -0.002895 4.641720
v -27.921122 5.442761 4.641720
v -27.921122 -0.002895 4.094695
v -27.921122 5.442761 4.094695
v -30.202415 0.002835 4.641720
v -30.202415 4.482465 4.641720
v -30.202415 4.482465 4.094695
v -30.202415 0.002835 4.094695
v -27.643261 0.002835 4.094695
v -27.643261 6.257177 4.094695
v -27.643261 6.257177 4.641720
v -27.643261 0.002835 4.641720
v -29.924553 4.053428 4.627795
v -27.921122 5.442761 4.627795
v -27.921122 -0.002895 4.627795
v -29.924553 -0.002895 4.627795
v -27.643261 5.411151 4.641720
v -27.643261 5.426170 4.094695
v -27.643356 5.415151 4.094695
v -27.643356 5.415151 4.627795
v -30.202415 0.089141 4.094695
v -30.202415 0.089141 4.641720
v -27.643261 0.089141 4.094695
v -27.643261 0.089141 4.641720
v -25.390377 -0.002895 4.641720
v -25.390377 4.053428 4.641720
v -25.390377 -0.002895 4.094695
v -25.390377 4.053428 4.094695
v -27.393810 -0.002895 4.641720
v -27.393810 5.442760 4.641720
v -27.393810 -0.002895 4.094695
v -27.393810 5.442760 4.094695
v -25.112518 0.002835 4.641720
v -25.112518 4.482465 4.641720
v -25.112518 4.482465 4.094695
v -25.112518 0.002835 4.094695
v -27.671671 0.002835 4.094695
v -27.671671 6.257177 4.094695
v -27.671671 6.257177 4.641720
v -27.671671 0.002835 4.641720
v -25.390377 4.053428 4.627795
v -27.393810 5.442760 4.627795
v -27.393810 -0.002895 4.627795
v -25.390377 -0.002895 4.627795
v -27.671671 5.411151 4.641720
v -27.671671 5.426170 4.094695
v -27.671576 5.415151 4.094695
v -27.671576 5.415151 4.627795
v -25.112518 0.089141 4.094695
v -25.112518 0.089141 4.641720
v -27.671671 0.089141 4.094695
v -27.671671 0.089141 4.641720
v -27.693039 6.155655 -4.780286
v -25.240053 -2.468450 -4.780286
v -27.693039 6.155655 -11.197007
v -25.240053 -2.468450 -11.197007
v -25.240053 4.300481 -4.780286
v -25.240053 4.300481 -11.197007
v -27.621901 6.155654 -4.780286
v -30.074886 -2.468450 -4.780286
v -27.621901 6.155654 -11.197007
v -30.074886 -2.468450 -11.197007
v -30.074886 4.300481 -4.780286
v -30.074886 4.300481 -11.197007
v -27.693039 6.155655 4.605072
v -25.240053 -2.468450 4.605072
v -27.693039 6.155655 11.021793
v -25.240053 -2.468450 11.021793
v -25.240053 4.300481 4.605072
v -25.240053 4.300481 11.021793
v -27.621901 6.155654 4.605072
v -30.074886 -2.468450 4.605072
v -27.621901 6.155654 11.021793
v -30.074886 -2.468450 11.021793
v -30.074886 4.300481 4.605072
v -30.074886 4.300481 11.021793
vn 1.0000 -0.0000 -0.0000
vn 0.2879 -0.9576 -0.0050
vn -0.0000 -0.0000 1.0000
vn -0.0000 -0.0000 -1.0000
vn -1.0000 -0.0000 -0.0000
vn -0.2879 -0.9576 -0.0050
vn 0.5699 -0.8217 -0.0000
vn -0.5699 0.8217 -0.0000
vn -0.0000 1.0000 -0.0000
vn -0.0989 -0.9951 -0.0000
vn -0.0000 -1.0000 -0.0000
vn -0.5699 -0.8217 -0.0000
vn 0.5699 0.8217 -0.0000
vn 0.0989 -0.9951 -0.0000
vn 0.6032 0.7976 -0.0000
vn -0.6032 0.7976 -0.0000
vt 0.032865 0.000000
vt 1.000000 0.000000
vt 1.000000 1.000000
vt 0.032865 1.000000
vt 0.000000 0.000000
vt 0.000000 1.000000
vt 0.375000 0.000000
vt 0.625000 0.000000
vt 0.625000 0.250000
vt 0.375000 0.250000
vt 0.608854 0.277144
vt 0.611003 0.472856
vt 0.611003 0.472856
vt 0.375000 0.750000
vt 0.375000 1.000000
vt 0.625000 0.500000
vt 0.875000 0.500000
vt 0.875000 0.750000
vt 0.625000 0.750000
vt 0.389297 0.972856
vt 0.608854 0.972856
vt 0.625000 1.000000
vt 0.389297 0.277144
vt 0.387218 0.472856
vt 0.375000 0.500000
vt 0.611003 0.777144
vt 0.592444 0.750000
vt 0.387218 0.777144
vt 0.389297 0.277144
vt 0.591783 0.500000
vt 0.125000 0.500000
vt 0.125000 0.750000
vt 0.215115 0.000000
vt 0.215115 1.000000
s 0
usemtl 
f 23/1/1 2/2/1 4/3/1 24/4/1
f 1/5/2 3/6/2 6/6/2 5/5/2
f 24/4/3 4/3/3 8/3/3 25/4/3
f 23/1/4 1/5/4 9/5/4 26/1/4
f 9/5/4 1/5/4 11/5/4 12/5/4
f 3/6/3 7/6/3 14/6/3 13/6/3
f 21/6/3 22/6/3 15/6/3 18/6/3
f 19/5/4 20/5/4 17/5/4 16/5/4
f 27/5/4 28/5/4 20/5/4 19/5/4
f 14/6/3 7/6/3 22/6/3 21/6/3
f 2/2/4 23/1/4 26/1/4 10/2/4
f 3/6/3 24/4/3 25/4/3 7/6/3
f 1/5/1 23/1/1 24/4/1 3/6/1
f 9/5/4 12/5/4 28/5/4 27/5/4
f 51/1/5 52/4/5 32/3/5 30/2/5
f 29/5/6 33/5/6 34/6/6 31/6/6
f 52/4/3 53/4/3 36/3/3 32/3/3
f 51/1/4 54/1/4 37/5/4 29/5/4
f 37/5/4 40/5/4 39/5/4 29/5/4
f 31/6/3 41/6/3 42/6/3 35/6/3
f 49/6/3 46/6/3 43/6/3 50/6/3
f 47/5/4 44/5/4 45/5/4 48/5/4
f 55/5/4 47/5/4 48/5/4 56/5/4
f 42/6/3 49/6/3 50/6/3 35/6/3
f 30/2/4 38/2/4 54/1/4 51/1/4
f 31/6/3 35/6/3 53/4/3 52/4/3
f 29/5/5 31/6/5 52/4/5 51/1/5
f 37/5/4 55/5/4 56/5/4 40/5/4
f 169/5/9 170/2/9 172/3/9 171/6/9
f 289/33/1 286/2/1 288/3/1 290/34/1
f 285/5/15 289/33/15 290/34/15 287/6/15
f 295/33/5 296/34/5 294/3/5 292/2/5
f 291/5/16 293/6/16 296/34/16 295/33/16
f 301/33/1 302/34/1 300/3/1 298/2/1
f 297/5/15 299/6/15 302/34/15 301/33/15
f 307/33/5 304/2/5 306/3/5 308/34/5
f 303/5/16 307/33/16 308/34/16 305/6/16
usemtl Material.004
f 65/7/5 66/8/5 67/9/5 68/10/5
f 60/11/7 64/12/7 74/13/7 73/11/7
f 72/14/4 65/15/4 82/15/4 84/14/4
f 70/16/8 67/17/8 66/18/8 71/19/8
f 57/20/3 58/21/3 66/22/3 65/15/3
f 60/11/4 59/23/4 68/10/4 67/9/4
f 59/23/3 63/24/3 69/25/3 68/10/3
f 64/12/4 60/11/4 67/9/4 70/16/4
f 62/26/3 77/27/3 71/19/3
f 61/28/4 57/20/4 65/15/4 72/14/4
f 58/21/3 62/26/3 71/19/3 66/22/3
f 59/23/1 60/11/1 73/11/1 76/29/1
f 63/24/9 59/23/9 76/29/9 75/24/9
f 78/30/4 64/12/4 70/16/4
f 74/13/10 64/12/10 79/12/10 80/13/10
f 81/31/11 83/25/11 84/14/11 82/32/11
f 69/5/5 72/5/5 84/5/5 83/5/5
f 68/10/3 69/25/3 83/25/3 81/10/3
f 65/7/1 68/10/1 81/10/1 82/7/1
f 93/7/1 96/10/1 95/9/1 94/8/1
f 88/11/12 101/11/12 102/13/12 92/12/12
f 100/14/4 112/14/4 110/15/4 93/15/4
f 98/16/13 99/19/13 94/18/13 95/17/13
f 85/20/3 93/15/3 94/22/3 86/21/3
f 88/11/4 95/9/4 96/10/4 87/23/4
f 87/23/3 96/10/3 97/25/3 91/24/3
f 92/12/4 98/16/4 95/9/4 88/11/4
f 90/26/3 99/19/3 105/27/3
f 89/28/4 100/14/4 93/15/4 85/20/4
f 86/21/3 94/22/3 99/19/3 90/26/3
f 87/23/5 104/29/5 101/11/5 88/11/5
f 91/24/9 103/24/9 104/29/9 87/23/9
f 106/30/4 98/16/4 92/12/4
f 102/13/14 108/13/14 107/12/14 92/12/14
f 109/31/11 110/32/11 112/14/11 111/25/11
f 97/5/1 111/5/1 112/5/1 100/5/1
f 96/10/3 109/10/3 111/25/3 97/25/3
f 93/7/5 110/7/5 109/10/5 96/10/5
usemtl Material.005
f 121/7/5 122/8/5 123/9/5 124/10/5
f 116/11/7 120/12/7 130/13/7 129/11/7
f 128/14/4 121/15/4 138/15/4 140/14/4
f 126/16/8 123/17/8 122/18/8 127/19/8
f 113/20/3 114/21/3 122/22/3 121/15/3
f 116/11/4 115/23/4 124/10/4 123/9/4
f 115/23/3 119/24/3 125/25/3 124/10/3
f 120/12/4 116/11/4 123/9/4 126/16/4
f 118/26/3 133/27/3 127/19/3
f 117/28/4 113/20/4 121/15/4 128/14/4
f 114/21/3 118/26/3 127/19/3 122/22/3
f 115/23/1 116/11/1 129/11/1 132/29/1
f 119/24/9 115/23/9 132/29/9 131/24/9
f 134/30/4 120/12/4 126/16/4
f 130/13/10 120/12/10 135/12/10 136/13/10
f 137/31/11 139/25/11 140/14/11 138/32/11
f 125/5/5 128/5/5 140/5/5 139/5/5
f 124/10/3 125/25/3 139/25/3 137/10/3
f 121/7/1 124/10/1 137/10/1 138/7/1
f 149/7/1 152/10/1 151/9/1 150/8/1
f 144/11/12 157/11/12 158/13/12 148/12/12
f 156/14/4 168/14/4 166/15/4 149/15/4
f 154/16/13 155/19/13 150/18/13 151/17/13
f 141/20/3 149/15/3 150/22/3 142/21/3
f 144/11/4 151/9/4 152/10/4 143/23/4
f 143/23/3 152/10/3 153/25/3 147/24/3
f 148/12/4 154/16/4 151/9/4 144/11/4
f 146/26/3 155/19/3 161/27/3
f 145/28/4 156/14/4 149/15/4 141/20/4
f 142/21/3 150/22/3 155/19/3 146/26/3
f 143/23/5 160/29/5 157/11/5 144/11/5
f 147/24/9 159/24/9 160/29/9 143/23/9
f 162/30/4 154/16/4 148/12/4
f 158/13/14 164/13/14 163/12/14 148/12/14
f 165/31/11 166/32/11 168/14/11 167/25/11
f 153/5/1 167/5/1 168/5/1 156/5/1
f 152/10/3 165/10/3 167/25/3 153/25/3
f 149/7/5 166/7/5 165/10/5 152/10/5
usemtl Material.006
f 181/7/5 182/8/5 183/9/5 184/10/5
f 176/11/7 180/12/7 190/13/7 189/11/7
f 188/14/4 181/15/4 198/15/4 200/14/4
f 186/16/8 183/17/8 182/18/8 187/19/8
f 173/20/3 174/21/3 182/22/3 181/15/3
f 176/11/4 175/23/4 184/10/4 183/9/4
f 175/23/3 179/24/3 185/25/3 184/10/3
f 180/12/4 176/11/4 183/9/4 186/16/4
f 178/26/3 193/27/3 187/19/3
f 177/28/4 173/20/4 181/15/4 188/14/4
f 174/21/3 178/26/3 187/19/3 182/22/3
f 175/23/1 176/11/1 189/11/1 192/29/1
f 179/24/9 175/23/9 192/29/9 191/24/9
f 194/30/4 180/12/4 186/16/4
f 190/13/10 180/12/10 195/12/10 196/13/10
f 197/31/11 199/25/11 200/14/11 198/32/11
f 185/5/5 188/5/5 200/5/5 199/5/5
f 184/10/3 185/25/3 199/25/3 197/10/3
f 181/7/1 184/10/1 197/10/1 198/7/1
f 209/7/1 212/10/1 211/9/1 210/8/1
f 204/11/12 217/11/12 218/13/12 208/12/12
f 216/14/4 228/14/4 226/15/4 209/15/4
f 214/16/13 215/19/13 210/18/13 211/17/13
f 201/20/3 209/15/3 210/22/3 202/21/3
f 204/11/4 211/9/4 212/10/4 203/23/4
f 203/23/3 212/10/3 213/25/3 207/24/3
f 208/12/4 214/16/4 211/9/4 204/11/4
f 206/26/3 215/19/3 221/27/3
f 205/28/4 216/14/4 209/15/4 201/20/4
f 202/21/3 210/22/3 215/19/3 206/26/3
f 203/23/5 220/29/5 217/11/5 204/11/5
f 207/24/9 219/24/9 220/29/9 203/23/9
f 222/30/4 214/16/4 208/12/4
f 218/13/14 224/13/14 223/12/14 208/12/14
f 225/31/11 226/32/11 228/14/11 227/25/11
f 213/5/1 227/5/1 228/5/1 216/5/1
f 212/10/3 225/10/3 227/25/3 213/25/3
f 209/7/5 226/7/5 225/10/5 212/10/5
usemtl Material.007
f 237/7/5 238/8/5 239/9/5 240/10/5
f 232/11/7 236/12/7 246/13/7 245/11/7
f 244/14/4 237/15/4 254/15/4 256/14/4
f 242/16/8 239/17/8 238/18/8 243/19/8
f 229/20/3 230/21/3 238/22/3 237/15/3
f 232/11/4 231/23/4 240/10/4 239/9/4
f 231/23/3 235/24/3 241/25/3 240/10/3
f 236/12/4 232/11/4 239/9/4 242/16/4
f 234/26/3 249/27/3 243/19/3
f 233/28/4 229/20/4 237/15/4 244/14/4
f 230/21/3 234/26/3 243/19/3 238/22/3
f 231/23/1 232/11/1 245/11/1 248/29/1
f 235/24/9 231/23/9 248/29/9 247/24/9
f 250/30/4 236/12/4 242/16/4
f 246/13/10 236/12/10 251/12/10 252/13/10
f 253/31/11 255/25/11 256/14/11 254/32/11
f 241/5/5 244/5/5 256/5/5 255/5/5
f 240/10/3 241/25/3 255/25/3 253/10/3
f 237/7/1 240/10/1 253/10/1 254/7/1
f 265/7/1 268/10/1 267/9/1 266/8/1
f 260/11/12 273/11/12 274/13/12 264/12/12
f 272/14/4 284/14/4 282/15/4 265/15/4
f 270/16/13 271/19/13 266/18/13 267/17/13
f 257/20/3 265/15/3 266/22/3 258/21/3
f 260/11/4 267/9/4 268/10/4 259/23/4
f 259/23/3 268/10/3 269/25/3 263/24/3
f 264/12/4 270/16/4 267/9/4 260/11/4
f 262/26/3 271/19/3 277/27/3
f 261/28/4 272/14/4 265/15/4 257/20/4
f 258/21/3 266/22/3 271/19/3 262/26/3
f 259/23/5 276/29/5 273/11/5 260/11/5
f 263/24/9 275/24/9 276/29/9 259/23/9
f 278/30/4 270/16/4 264/12/4
f 274/13/14 280/13/14 279/12/14 264/12/14
f 281/31/11 282/32/11 284/14/11 283/25/11
f 269/5/1 283/5/1 284/5/1 272/5/1
f 268/10/3 281/10/3 283/25/3 269/25/3
f 265/7/5 282/7/5 281/10/5 268/10/5
