# Blender 4.5.3 LTS
# www.blender.org
mtllib small_room_2.mtl
o small_room_2
v -55.819534 -0.002895 4.641721
v -55.819534 4.053428 4.641721
v -55.819534 -0.002895 4.094695
v -55.819534 4.053428 4.094695
v -53.816101 -0.002895 4.641721
v -53.816101 5.442761 4.641721
v -53.816101 -0.002895 4.094695
v -53.816101 5.442761 4.094695
v -56.097393 0.002835 4.641721
v -56.097393 4.482465 4.641721
v -56.097393 4.482465 4.094695
v -56.097393 0.002835 4.094695
v -53.538239 0.002835 4.094695
v -53.538239 6.257178 4.094695
v -53.538239 6.257178 4.641721
v -53.538239 0.002835 4.641721
v -55.819534 4.053428 4.627794
v -53.816101 5.442761 4.627794
v -53.816101 -0.002895 4.627794
v -55.819534 -0.002895 4.627794
v -53.538239 5.411151 4.641721
v -53.538239 5.426171 4.094695
v -53.538334 5.415151 4.094695
v -53.538334 5.415151 4.627794
v -56.097393 0.089141 4.094695
v -56.097393 0.089141 4.641721
v -53.538239 0.089141 4.094695
v -53.538239 0.089141 4.641721
v -51.285355 -0.002895 4.641721
v -51.285355 4.053428 4.641721
v -51.285355 -0.002895 4.094695
v -51.285355 4.053428 4.094695
v -53.288788 -0.002895 4.641721
v -53.288788 5.442761 4.641721
v -53.288788 -0.002895 4.094695
v -53.288788 5.442761 4.094695
v -51.007496 0.002835 4.641721
v -51.007496 4.482465 4.641721
v -51.007496 4.482465 4.094695
v -51.007496 0.002835 4.094695
v -53.566650 0.002835 4.094695
v -53.566650 6.257178 4.094695
v -53.566650 6.257178 4.641721
v -53.566650 0.002835 4.641721
v -51.285355 4.053428 4.627794
v -53.288788 5.442761 4.627794
v -53.288788 -0.002895 4.627794
v -51.285355 -0.002895 4.627794
v -53.566650 5.411151 4.641721
v -53.566650 5.426171 4.094695
v -53.566555 5.415151 4.094695
v -53.566555 5.415151 4.627794
v -51.007496 0.089141 4.094695
v -51.007496 0.089141 4.641721
v -53.566650 0.089141 4.094695
v -53.566650 0.089141 4.641721
v -59.025963 4.544495 6.872567
v -59.025963 -3.072794 6.872567
v -59.025963 4.544495 -6.872568
v -59.025963 -3.072794 -6.872568
v -53.523777 6.127526 6.872567
v -53.523773 6.269863 -6.872568
v -55.626484 4.681018 -6.872568
v -55.994770 -3.072794 -6.872568
v -55.633095 4.569713 6.872567
v -56.001381 -3.072794 6.872567
v -59.025963 6.720728 6.872567
v -56.001377 6.720728 6.872567
v -59.025963 6.654787 -6.872568
v -55.994770 6.654787 -6.872568
v -53.538879 6.174655 -6.872568
v -53.545490 6.169413 6.872567
v -53.545490 6.720728 6.872567
v -53.538879 6.654787 -6.872568
v -54.773434 5.223707 6.872567
v -54.773434 6.720728 6.872567
v -54.766823 6.654787 -6.872568
v -54.766823 5.237198 -6.872568
v -59.025963 4.294150 6.872567
v -59.025963 4.294150 -6.872568
v -55.994770 4.294150 -6.872568
v -56.001377 4.294150 6.872567
v -55.387405 4.777952 6.872567
v -55.387405 6.720728 6.872567
v -48.078934 4.544495 6.872567
v -48.078934 -3.072794 6.872567
v -48.078934 4.544495 -6.872568
v -48.078934 -3.072794 -6.872568
v -53.581123 6.127527 6.872567
v -53.581123 6.269864 -6.872568
v -51.478413 4.681018 -6.872568
v -51.110130 -3.072793 -6.872568
v -51.471806 4.569713 6.872567
v -51.103519 -3.072793 6.872567
v -48.078938 6.720728 6.872567
v -51.103519 6.720728 6.872567
v -48.078938 6.654787 -6.872568
v -51.110130 6.654787 -6.872568
v -53.566017 6.174655 -6.872568
v -53.559410 6.169413 6.872567
v -53.559410 6.720728 6.872567
v -53.566017 6.654787 -6.872568
v -52.331463 5.223707 6.872567
v -52.331463 6.720728 6.872567
v -52.338074 6.654787 -6.872568
v -52.338074 5.237197 -6.872568
v -48.078934 4.294150 6.872567
v -48.078934 4.294150 -6.872568
v -51.110130 4.294150 -6.872568
v -51.103519 4.294150 6.872567
v -51.717491 4.777952 6.872567
v -51.717491 6.720728 6.872567
v -53.588013 6.155654 -4.780286
v -51.135025 -2.468450 -4.780286
v -53.588013 6.155654 -11.197008
v -51.135025 -2.468450 -11.197008
v -51.135025 4.300481 -4.780286
v -51.135025 4.300481 -11.197008
v -53.516872 6.155653 -4.780286
v -55.969860 -2.468450 -4.780286
v -53.516872 6.155653 -11.197008
v -55.969860 -2.468450 -11.197008
v -55.969860 4.300481 -4.780286
v -55.969860 4.300481 -11.197008
v -53.588013 6.155654 4.605071
v -51.135025 -2.468450 4.605071
v -53.588013 6.155654 11.021791
v -51.135025 -2.468450 11.021791
v -51.135025 4.300481 4.605071
v -51.135025 4.300481 11.021791
v -53.516872 6.155653 4.605071
v -55.969860 -2.468450 4.605071
v -53.516872 6.155653 11.021791
v -55.969860 -2.468450 11.021791
v -55.969860 4.300481 4.605071
v -55.969860 4.300481 11.021791
v -64.571671 0.000000 10.931615
v -42.533222 0.000000 10.931615
v -64.571671 0.000000 -11.106831
v -42.533222 0.000000 -11.106831
v -55.819534 -0.002895 -4.633522
v -55.819534 4.053428 -4.633522
v -55.819534 -0.002895 -5.180547
v -55.819534 4.053428 -5.180547
v -53.816101 -0.002895 -4.633522
v -53.816101 5.442761 -4.633522
v -53.816101 -0.002895 -5.180547
v -53.816101 5.442761 -5.180547
v -56.097393 0.002835 -4.633522
v -56.097393 4.482465 -4.633522
v -56.097393 4.482465 -5.180547
v -56.097393 0.002835 -5.180547
v -53.538239 0.002835 -5.180547
v -53.538239 6.257178 -5.180547
v -53.538239 6.257178 -4.633522
v -53.538239 0.002835 -4.633522
v -55.819534 4.053428 -4.647448
v -53.816101 5.442761 -4.647448
v -53.816101 -0.002895 -4.647448
v -55.819534 -0.002895 -4.647448
v -53.538239 5.411151 -4.633522
v -53.538239 5.426171 -5.180547
v -53.538334 5.415151 -5.180547
v -53.538334 5.415151 -4.647448
v -56.097393 0.089141 -5.180547
v -56.097393 0.089141 -4.633522
v -53.538239 0.089141 -5.180547
v -53.538239 0.089141 -4.633522
v -51.285355 -0.002895 -4.633522
v -51.285355 4.053428 -4.633522
v -51.285355 -0.002895 -5.180547
v -51.285355 4.053428 -5.180547
v -53.288788 -0.002895 -4.633522
v -53.288788 5.442761 -4.633522
v -53.288788 -0.002895 -5.180547
v -53.288788 5.442761 -5.180547
v -51.007496 0.002835 -4.633522
v -51.007496 4.482465 -4.633522
v -51.007496 4.482465 -5.180547
v -51.007496 0.002835 -5.180547
v -53.566650 0.002835 -5.180547
v -53.566650 6.257178 -5.180547
v -53.566650 6.257178 -4.633522
v -53.566650 0.002835 -4.633522
v -51.285355 4.053428 -4.647448
v -53.288788 5.442761 -4.647448
v -53.288788 -0.002895 -4.647448
v -51.285355 -0.002895 -4.647448
v -53.566650 5.411151 -4.633522
v -53.566650 5.426171 -5.180547
v -53.566555 5.415151 -5.180547
v -53.566555 5.415151 -4.647448
v -51.007496 0.089141 -5.180547
v -51.007496 0.089141 -4.633522
v -53.566650 0.089141 -5.180547
v -53.566650 0.089141 -4.633522
v -55.819534 -0.002895 11.141119
v -55.819534 4.053428 11.141119
v -55.819534 -0.002895 10.594093
v -55.819534 4.053428 10.594093
v -53.816101 -0.002895 11.141119
v -53.816101 5.442761 11.141119
v -53.816101 -0.002895 10.594093
v -53.816101 5.442761 10.594093
v -56.097393 0.002835 11.141119
v -56.097393 4.482465 11.141119
v -56.097393 4.482465 10.594093
v -56.097393 0.002835 10.594093
v -53.538239 0.002835 10.594093
v -53.538239 6.257178 10.594093
v -53.538239 6.257178 11.141119
v -53.538239 0.002835 11.141119
v -55.819534 4.053428 11.127193
v -53.816101 5.442761 11.127193
v -53.816101 -0.002895 11.127193
v -55.819534 -0.002895 11.127193
v -53.538239 5.411151 11.141119
v -53.538239 5.426171 10.594093
v -53.538334 5.415151 10.594093
v -53.538334 5.415151 11.127193
v -56.097393 0.089141 10.594093
v -56.097393 0.089141 11.141119
v -53.538239 0.089141 10.594093
v -53.538239 0.089141 11.141119
v -51.285355 -0.002895 11.141119
v -51.285355 4.053428 11.141119
v -51.285355 -0.002895 10.594093
v -51.285355 4.053428 10.594093
v -53.288788 -0.002895 11.141119
v -53.288788 5.442761 11.141119
v -53.288788 -0.002895 10.594093
v -53.288788 5.442761 10.594093
v -51.007496 0.002835 11.141119
v -51.007496 4.482465 11.141119
v -51.007496 4.482465 10.594093
v -51.007496 0.002835 10.594093
v -53.566650 0.002835 10.594093
v -53.566650 6.257178 10.594093
v -53.566650 6.257178 11.141119
v -53.566650 0.002835 11.141119
v -51.285355 4.053428 11.127193
v -53.288788 5.442761 11.127193
v -53.288788 -0.002895 11.127193
v -51.285355 -0.002895 11.127193
v -53.566650 5.411151 11.141119
v -53.566650 5.426171 10.594093
v -53.566555 5.415151 10.594093
v -53.566555 5.415151 11.127193
v -51.007496 0.089141 10.594093
v -51.007496 0.089141 11.141119
v -53.566650 0.089141 10.594093
v -53.566650 0.089141 11.141119
v -55.819534 -0.002895 -10.781601
v -55.819534 4.053428 -10.781601
v -55.819534 -0.002895 -11.328627
v -55.819534 4.053428 -11.328627
v -53.816101 -0.002895 -10.781601
v -53.816101 5.442761 -10.781601
v -53.816101 -0.002895 -11.328627
v -53.816101 5.442761 -11.328627
v -56.097393 0.002835 -10.781601
v -56.097393 4.482465 -10.781601
v -56.097393 4.482465 -11.328627
v -56.097393 0.002835 -11.328627
v -53.538239 0.002835 -11.328627
v -53.538239 6.257178 -11.328627
v -53.538239 6.257178 -10.781601
v -53.538239 0.002835 -10.781601
v -55.819534 4.053428 -10.795527
v -53.816101 5.442761 -10.795527
v -53.816101 -0.002895 -10.795527
v -55.819534 -0.002895 -10.795527
v -53.538239 5.411151 -10.781601
v -53.538239 5.426171 -11.328627
v -53.538334 5.415151 -11.328627
v -53.538334 5.415151 -10.795527
v -56.097393 0.089141 -11.328627
v -56.097393 0.089141 -10.781601
v -53.538239 0.089141 -11.328627
v -53.538239 0.089141 -10.781601
v -51.285355 -0.002895 -10.781601
v -51.285355 4.053428 -10.781601
v -51.285355 -0.002895 -11.328627
v -51.285355 4.053428 -11.328627
v -53.288788 -0.002895 -10.781601
v -53.288788 5.442761 -10.781601
v -53.288788 -0.002895 -11.328627
v -53.288788 5.442761 -11.328627
v -51.007496 0.002835 -10.781601
v -51.007496 4.482465 -10.781601
v -51.007496 4.482465 -11.328627
v -51.007496 0.002835 -11.328627
v -53.566650 0.002835 -11.328627
v -53.566650 6.257178 -11.328627
v -53.566650 6.257178 -10.781601
v -53.566650 0.002835 -10.781601
v -51.285355 4.053428 -10.795527
v -53.288788 5.442761 -10.795527
v -53.288788 -0.002895 -10.795527
v -51.285355 -0.002895 -10.795527
v -53.566650 5.411151 -10.781601
v -53.566650 5.426171 -11.328627
v -53.566555 5.415151 -11.328627
v -53.566555 5.415151 -10.795527
v -51.007496 0.089141 -11.328627
v -51.007496 0.089141 -10.781601
v -53.566650 0.089141 -11.328627
v -53.566650 0.089141 -10.781601
vn -1.0000 -0.0000 -0.0000
vn 0.5699 -0.8217 -0.0000
vn -0.0000 -0.0000 -1.0000
vn -0.5699 0.8217 -0.0000
vn -0.0000 -0.0000 1.0000
vn 1.0000 -0.0000 -0.0000
vn -0.0000 1.0000 -0.0000
vn -0.0989 -0.9951 -0.0000
vn -0.0000 -1.0000 -0.0000
vn -0.5699 -0.8217 -0.0000
vn 0.5699 0.8217 -0.0000
vn 0.0989 -0.9951 -0.0000
vn 0.2879 -0.9576 -0.0050
vn -0.2879 -0.9576 -0.0050
vn 0.6032 0.7976 -0.0000
vn -0.6032 0.7976 -0.0000
vn -0.0000 -0.0001 1.0000
vn -0.0000 0.0001 -1.0000
vn -0.0000 0.0002 -1.0000
vn -0.0000 0.0001 1.0000
vn -0.0000 -0.0001 -1.0000
vn -0.0000 -0.0003 1.0000
vn -0.0000 0.0003 -1.0000
vt 0.375000 0.000000
vt 0.625000 0.000000
vt 0.625000 0.250000
vt 0.375000 0.250000
vt 0.608854 0.277144
vt 0.611003 0.472856
vt 0.611003 0.472856
vt 0.375000 0.750000
vt 0.375000 1.000000
vt 0.625000 0.500000
vt 0.875000 0.500000
vt 0.875000 0.750000
vt 0.625000 0.750000
vt 0.389297 0.972856
vt 0.608854 0.972856
vt 0.625000 1.000000
vt 0.389297 0.277144
vt 0.387218 0.472856
vt 0.375000 0.500000
vt 0.611003 0.777144
vt 0.592444 0.750000
vt 0.387218 0.777144
vt 0.389297 0.277144
vt 0.591783 0.500000
vt 0.125000 0.500000
vt 0.125000 0.750000
vt 0.000000 0.000000
vt 0.032865 0.000000
vt 1.000000 0.000000
vt 1.000000 1.000000
vt 0.032865 1.000000
vt 0.000000 1.000000
vt 0.215115 0.000000
vt 0.215115 1.000000
s 0
usemtl Material.009
f 9/1/1 10/2/1 11/3/1 12/4/1
f 4/5/2 8/6/2 18/7/2 17/5/2
f 16/8/3 9/9/3 26/9/3 28/8/3
f 14/10/4 11/11/4 10/12/4 15/13/4
f 1/14/5 2/15/5 10/16/5 9/9/5
f 4/5/3 3/17/3 12/4/3 11/3/3
f 3/17/5 7/18/5 13/19/5 12/4/5
f 8/6/3 4/5/3 11/3/3 14/10/3
f 6/20/5 21/21/5 15/13/5
f 5/22/3 1/14/3 9/9/3 16/8/3
f 2/15/5 6/20/5 15/13/5 10/16/5
f 3/17/6 4/5/6 17/5/6 20/23/6
f 7/18/7 3/17/7 20/23/7 19/18/7
f 22/24/3 8/6/3 14/10/3
f 18/7/8 8/6/8 23/6/8 24/7/8
f 25/25/9 27/19/9 28/8/9 26/26/9
f 13/27/1 16/27/1 28/27/1 27/27/1
f 12/4/5 13/19/5 27/19/5 25/4/5
f 9/1/6 12/4/6 25/4/6 26/1/6
f 37/1/6 40/4/6 39/3/6 38/2/6
f 32/5/10 45/5/10 46/7/10 36/6/10
f 44/8/3 56/8/3 54/9/3 37/9/3
f 42/10/11 43/13/11 38/12/11 39/11/11
f 29/14/5 37/9/5 38/16/5 30/15/5
f 32/5/3 39/3/3 40/4/3 31/17/3
f 31/17/5 40/4/5 41/19/5 35/18/5
f 36/6/3 42/10/3 39/3/3 32/5/3
f 34/20/5 43/13/5 49/21/5
f 33/22/3 44/8/3 37/9/3 29/14/3
f 30/15/5 38/16/5 43/13/5 34/20/5
f 31/17/1 48/23/1 45/5/1 32/5/1
f 35/18/7 47/18/7 48/23/7 31/17/7
f 50/24/3 42/10/3 36/6/3
f 46/7/12 52/7/12 51/6/12 36/6/12
f 53/25/9 54/26/9 56/8/9 55/19/9
f 41/27/6 55/27/6 56/27/6 44/27/6
f 40/4/5 53/4/5 55/19/5 41/19/5
f 37/1/1 54/1/1 53/4/1 40/4/1
usemtl 
f 79/28/6 58/29/6 60/30/6 80/31/6
f 57/27/13 59/32/13 62/32/13 61/27/13
f 80/31/5 60/30/5 64/30/5 81/31/5
f 79/28/3 57/27/3 65/27/3 82/28/3
f 65/27/3 57/27/3 67/27/3 68/27/3
f 59/32/5 63/32/5 70/32/5 69/32/5
f 77/32/5 78/32/5 71/32/5 74/32/5
f 75/27/3 76/27/3 73/27/3 72/27/3
f 83/27/3 84/27/3 76/27/3 75/27/3
f 70/32/5 63/32/5 78/32/5 77/32/5
f 58/29/3 79/28/3 82/28/3 66/29/3
f 59/32/5 80/31/5 81/31/5 63/32/5
f 57/27/6 79/28/6 80/31/6 59/32/6
f 65/27/3 68/27/3 84/27/3 83/27/3
f 107/28/1 108/31/1 88/30/1 86/29/1
f 85/27/14 89/27/14 90/32/14 87/32/14
f 108/31/5 109/31/5 92/30/5 88/30/5
f 107/28/3 110/28/3 93/27/3 85/27/3
f 93/27/3 96/27/3 95/27/3 85/27/3
f 87/32/5 97/32/5 98/32/5 91/32/5
f 105/32/5 102/32/5 99/32/5 106/32/5
f 103/27/3 100/27/3 101/27/3 104/27/3
f 111/27/3 103/27/3 104/27/3 112/27/3
f 98/32/5 105/32/5 106/32/5 91/32/5
f 86/29/3 94/29/3 110/28/3 107/28/3
f 87/32/5 91/32/5 109/31/5 108/31/5
f 85/27/1 87/32/1 108/31/1 107/28/1
f 93/27/3 111/27/3 112/27/3 96/27/3
f 117/33/6 114/29/6 116/30/6 118/34/6
f 113/27/15 117/33/15 118/34/15 115/32/15
f 123/33/1 124/34/1 122/30/1 120/29/1
f 119/27/16 121/32/16 124/34/16 123/33/16
f 129/33/6 130/34/6 128/30/6 126/29/6
f 125/27/15 127/32/15 130/34/15 129/33/15
f 135/33/1 132/29/1 134/30/1 136/34/1
f 131/27/16 135/33/16 136/34/16 133/32/16
f 137/27/7 138/29/7 140/30/7 139/32/7
usemtl Material.010
f 149/1/1 150/2/1 151/3/1 152/4/1
f 144/5/2 148/6/2 158/7/2 157/5/2
f 156/8/3 149/9/3 166/9/3 168/8/3
f 154/10/4 151/11/4 150/12/4 155/13/4
f 141/14/5 142/15/5 150/16/5 149/9/5
f 144/5/3 143/17/3 152/4/3 151/3/3
f 143/17/17 147/18/17 153/19/17 152/4/17
f 148/6/3 144/5/3 151/3/3 154/10/3
f 146/20/5 161/21/5 155/13/5
f 145/22/18 141/14/18 149/9/18 156/8/18
f 142/15/5 146/20/5 155/13/5 150/16/5
f 143/17/6 144/5/6 157/5/6 160/23/6
f 147/18/7 143/17/7 160/23/7 159/18/7
f 162/24/3 148/6/3 154/10/3
f 158/7/8 148/6/8 163/6/8 164/7/8
f 165/25/9 167/19/9 168/8/9 166/26/9
f 153/27/1 156/27/1 168/27/1 167/27/1
f 152/4/5 153/19/5 167/19/5 165/4/5
f 149/1/6 152/4/6 165/4/6 166/1/6
f 177/1/6 180/4/6 179/3/6 178/2/6
f 172/5/10 185/5/10 186/7/10 176/6/10
f 184/8/3 196/8/3 194/9/3 177/9/3
f 182/10/11 183/13/11 178/12/11 179/11/11
f 169/14/5 177/9/5 178/16/5 170/15/5
f 172/5/3 179/3/3 180/4/3 171/17/3
f 171/17/17 180/4/17 181/19/17 175/18/17
f 176/6/3 182/10/3 179/3/3 172/5/3
f 174/20/5 183/13/5 189/21/5
f 173/22/19 184/8/19 177/9/19 169/14/19
f 170/15/5 178/16/5 183/13/5 174/20/5
f 171/17/1 188/23/1 185/5/1 172/5/1
f 175/18/7 187/18/7 188/23/7 171/17/7
f 190/24/3 182/10/3 176/6/3
f 186/7/12 192/7/12 191/6/12 176/6/12
f 193/25/9 194/26/9 196/8/9 195/19/9
f 181/27/6 195/27/6 196/27/6 184/27/6
f 180/4/5 193/4/5 195/19/5 181/19/5
f 177/1/1 194/1/1 193/4/1 180/4/1
usemtl Material.011
f 205/1/1 206/2/1 207/3/1 208/4/1
f 200/5/2 204/6/2 214/7/2 213/5/2
f 212/8/3 205/9/3 222/9/3 224/8/3
f 210/10/4 207/11/4 206/12/4 211/13/4
f 197/14/5 198/15/5 206/16/5 205/9/5
f 200/5/3 199/17/3 208/4/3 207/3/3
f 199/17/20 203/18/20 209/19/20 208/4/20
f 204/6/3 200/5/3 207/3/3 210/10/3
f 202/20/5 217/21/5 211/13/5
f 201/22/21 197/14/21 205/9/21 212/8/21
f 198/15/5 202/20/5 211/13/5 206/16/5
f 199/17/6 200/5/6 213/5/6 216/23/6
f 203/18/7 199/17/7 216/23/7 215/18/7
f 218/24/3 204/6/3 210/10/3
f 214/7/8 204/6/8 219/6/8 220/7/8
f 221/25/9 223/19/9 224/8/9 222/26/9
f 209/27/1 212/27/1 224/27/1 223/27/1
f 208/4/5 209/19/5 223/19/5 221/4/5
f 205/1/6 208/4/6 221/4/6 222/1/6
f 233/1/6 236/4/6 235/3/6 234/2/6
f 228/5/10 241/5/10 242/7/10 232/6/10
f 240/8/3 252/8/3 250/9/3 233/9/3
f 238/10/11 239/13/11 234/12/11 235/11/11
f 225/14/5 233/9/5 234/16/5 226/15/5
f 228/5/3 235/3/3 236/4/3 227/17/3
f 227/17/20 236/4/20 237/19/20 231/18/20
f 232/6/3 238/10/3 235/3/3 228/5/3
f 230/20/5 239/13/5 245/21/5
f 229/22/21 240/8/21 233/9/21 225/14/21
f 226/15/5 234/16/5 239/13/5 230/20/5
f 227/17/1 244/23/1 241/5/1 228/5/1
f 231/18/7 243/18/7 244/23/7 227/17/7
f 246/24/3 238/10/3 232/6/3
f 242/7/12 248/7/12 247/6/12 232/6/12
f 249/25/9 250/26/9 252/8/9 251/19/9
f 237/27/6 251/27/6 252/27/6 240/27/6
f 236/4/5 249/4/5 251/19/5 237/19/5
f 233/1/1 250/1/1 249/4/1 236/4/1
usemtl Material.012
f 261/1/1 262/2/1 263/3/1 264/4/1
f 256/5/2 260/6/2 270/7/2 269/5/2
f 268/8/3 261/9/3 278/9/3 280/8/3
f 266/10/4 263/11/4 262/12/4 267/13/4
f 253/14/5 254/15/5 262/16/5 261/9/5
f 256/5/3 255/17/3 264/4/3 263/3/3
f 255/17/22 259/18/22 265/19/22 264/4/22
f 260/6/3 256/5/3 263/3/3 266/10/3
f 258/20/5 273/21/5 267/13/5
f 257/22/23 253/14/23 261/9/23 268/8/23
f 254/15/5 258/20/5 267/13/5 262/16/5
f 255/17/6 256/5/6 269/5/6 272/23/6
f 259/18/7 255/17/7 272/23/7 271/18/7
f 274/24/3 260/6/3 266/10/3
f 270/7/8 260/6/8 275/6/8 276/7/8
f 277/25/9 279/19/9 280/8/9 278/26/9
f 265/27/1 268/27/1 280/27/1 279/27/1
f 264/4/5 265/19/5 279/19/5 277/4/5
f 261/1/6 264/4/6 277/4/6 278/1/6
f 289/1/6 292/4/6 291/3/6 290/2/6
f 284/5/10 297/5/10 298/7/10 288/6/10
f 296/8/3 308/8/3 306/9/3 289/9/3
f 294/10/11 295/13/11 290/12/11 291/11/11
f 281/14/5 289/9/5 290/16/5 282/15/5
f 284/5/3 291/3/3 292/4/3 283/17/3
f 283/17/22 292/4/22 293/19/22 287/18/22
f 288/6/3 294/10/3 291/3/3 284/5/3
f 286/20/5 295/13/5 301/21/5
f 285/22/18 296/8/18 289/9/18 281/14/18
f 282/15/5 290/16/5 295/13/5 286/20/5
f 283/17/1 300/23/1 297/5/1 284/5/1
f 287/18/7 299/18/7 300/23/7 283/17/7
f 302/24/3 294/10/3 288/6/3
f 298/7/12 304/7/12 303/6/12 288/6/12
f 305/25/9 306/26/9 308/8/9 307/19/9
f 293/27/6 307/27/6 308/27/6 296/27/6
f 292/4/5 305/4/5 307/19/5 293/19/5
f 289/1/1 306/1/1 305/4/1 292/4/1
