# Blender 4.5.3 LTS
# www.blender.org
mtllib small_room_4_two_doors.mtl
o small_room_4_diff_path
v -64.413895 -0.002895 -37.542755
v -64.413895 4.053428 -37.542755
v -64.960922 -0.002895 -37.542755
v -64.960922 4.053428 -37.542755
v -64.413895 -0.002895 -39.546185
v -64.413895 5.442761 -39.546185
v -64.960922 -0.002895 -39.546185
v -64.960922 5.442761 -39.546185
v -64.413895 0.002835 -37.264893
v -64.413895 4.482465 -37.264893
v -64.960922 4.482465 -37.264893
v -64.960922 0.002835 -37.264893
v -64.960922 0.002835 -39.824047
v -64.960922 6.257178 -39.824047
v -64.413895 6.257178 -39.824047
v -64.413895 0.002835 -39.824047
v -64.427818 4.053428 -37.542755
v -64.427818 5.442761 -39.546185
v -64.427818 -0.002895 -39.546185
v -64.427818 -0.002895 -37.542755
v -64.413895 5.411151 -39.824047
v -64.960922 5.426171 -39.824047
v -64.960922 5.415151 -39.823952
v -64.427818 5.415151 -39.823952
v -64.960922 0.089141 -37.264893
v -64.413895 0.089141 -37.264893
v -64.960922 0.089141 -39.824047
v -64.413895 0.089141 -39.824047
v -64.413895 -0.002895 -42.076927
v -64.413895 4.053428 -42.076927
v -64.960922 -0.002895 -42.076927
v -64.960922 4.053428 -42.076927
v -64.413895 -0.002895 -40.073498
v -64.413895 5.442761 -40.073498
v -64.960922 -0.002895 -40.073498
v -64.960922 5.442761 -40.073498
v -64.413895 0.002835 -42.354790
v -64.413895 4.482465 -42.354790
v -64.960922 4.482465 -42.354790
v -64.960922 0.002835 -42.354790
v -64.960922 0.002835 -39.795635
v -64.960922 6.257178 -39.795635
v -64.413895 6.257178 -39.795635
v -64.413895 0.002835 -39.795635
v -64.427818 4.053428 -42.076927
v -64.427818 5.442761 -40.073498
v -64.427818 -0.002895 -40.073498
v -64.427818 -0.002895 -42.076927
v -64.413895 5.411151 -39.795635
v -64.960922 5.426171 -39.795635
v -64.960922 5.415151 -39.795731
v -64.427818 5.415151 -39.795731
v -64.960922 0.089141 -42.354790
v -64.413895 0.089141 -42.354790
v -64.960922 0.089141 -39.795635
v -64.413895 0.089141 -39.795635
v -59.162109 4.544495 -32.862530
v -59.162109 -3.072794 -32.862530
v -59.162109 4.544495 -46.607662
v -59.162109 -3.072794 -46.607662
v -53.659920 6.127526 -32.862530
v -53.659920 6.269863 -46.607662
v -55.762630 4.681018 -46.607662
v -56.130917 -3.072794 -46.607662
v -55.769241 4.569713 -32.862530
v -56.137527 -3.072794 -32.862530
v -59.162109 6.720728 -32.862530
v -56.137527 6.720728 -32.862530
v -59.162109 6.654787 -46.607662
v -56.130913 6.654787 -46.607662
v -53.675026 6.174655 -46.607662
v -53.681637 6.169413 -32.862530
v -53.681637 6.720728 -32.862530
v -53.675026 6.654787 -46.607662
v -54.909580 5.223707 -32.862530
v -54.909580 6.720728 -32.862530
v -54.902969 6.654787 -46.607662
v -54.902969 5.237198 -46.607662
v -59.162109 4.294150 -32.862530
v -59.162109 4.294150 -46.607662
v -56.130913 4.294150 -46.607662
v -56.137527 4.294150 -32.862530
v -55.523552 4.777952 -32.862530
v -55.523552 6.720728 -32.862530
v -48.215076 4.544495 -32.862530
v -48.215076 -3.072794 -32.862530
v -48.215076 4.544495 -46.607662
v -48.215076 -3.072794 -46.607662
v -53.717266 6.127527 -32.862530
v -53.717262 6.269864 -46.607662
v -51.614555 4.681018 -46.607662
v -51.246269 -3.072793 -46.607662
v -51.607944 4.569713 -32.862530
v -51.239662 -3.072793 -32.862530
v -48.215076 6.720728 -32.862530
v -51.239662 6.720728 -32.862530
v -48.215076 6.654787 -46.607662
v -51.246269 6.654787 -46.607662
v -53.702160 6.174655 -46.607662
v -53.695549 6.169413 -32.862530
v -53.695549 6.720728 -32.862530
v -53.702160 6.654787 -46.607662
v -52.467606 5.223707 -32.862530
v -52.467606 6.720728 -32.862530
v -52.474216 6.654787 -46.607662
v -52.474216 5.237197 -46.607662
v -48.215076 4.294150 -32.862530
v -48.215076 4.294150 -46.607662
v -51.246269 4.294150 -46.607662
v -51.239662 4.294150 -32.862530
v -51.853634 4.777952 -32.862530
v -51.853634 6.720728 -32.862530
v -59.162109 6.145929 -39.735096
v -53.659920 6.198695 -39.735096
v -59.162109 6.375190 -39.735096
v -59.162109 5.537385 -37.123520
v -53.659920 6.171651 -37.123520
v -59.162109 -3.072794 -37.123520
v -59.162109 4.294150 -37.123520
v -59.162109 -3.072794 -42.140495
v -59.162109 4.294150 -42.140495
v -59.162109 5.585427 -42.140495
v -53.659920 6.223604 -42.140495
v -53.724159 6.155654 -44.199924
v -51.271172 -2.468450 -44.199924
v -53.724159 6.155654 -50.616646
v -51.271172 -2.468450 -50.616646
v -51.271172 4.300481 -44.199924
v -51.271172 4.300481 -50.616646
v -53.653019 6.155653 -44.199924
v -56.106007 -2.468450 -44.199924
v -53.653019 6.155653 -50.616646
v -56.106003 -2.468450 -50.616646
v -56.106007 4.300481 -44.199924
v -56.106003 4.300481 -50.616646
v -53.724159 6.155654 -34.814568
v -51.271172 -2.468450 -34.814568
v -53.724159 6.155654 -28.397846
v -51.271172 -2.468450 -28.397846
v -51.271172 4.300481 -34.814568
v -51.271172 4.300481 -28.397846
v -53.653019 6.155653 -34.814568
v -56.106007 -2.468450 -34.814568
v -53.653019 6.155653 -28.397846
v -56.106007 -2.468450 -28.397844
v -56.106007 4.300481 -34.814568
v -56.106007 4.300481 -28.397844
v -58.214737 6.155654 -39.757534
v -58.214737 -2.468449 -42.210522
v -64.631454 6.155653 -39.757534
v -64.631454 -2.468450 -42.210522
v -58.214737 4.300481 -42.210522
v -64.631454 4.300481 -42.210522
v -58.214737 6.155654 -39.828674
v -58.214737 -2.468449 -37.375687
v -64.631454 6.155653 -39.828674
v -64.631454 -2.468450 -37.375687
v -58.214737 4.300481 -37.375687
v -64.631454 4.300480 -37.375687
v -64.707817 0.000000 -28.488022
v -42.669369 0.000000 -28.488022
v -64.707809 0.000000 -50.526466
v -42.669369 0.000000 -50.526466
v -55.955681 -0.002895 -34.777916
v -55.955681 4.053428 -34.777916
v -55.955681 -0.002895 -35.324944
v -55.955681 4.053428 -35.324944
v -53.952248 -0.002895 -34.777916
v -53.952248 5.442761 -34.777916
v -53.952248 -0.002895 -35.324944
v -53.952248 5.442761 -35.324944
v -56.233540 0.002835 -34.777916
v -56.233540 4.482465 -34.777916
v -56.233540 4.482465 -35.324944
v -56.233540 0.002835 -35.324944
v -53.674385 0.002835 -35.324944
v -53.674385 6.257178 -35.324944
v -53.674385 6.257178 -34.777916
v -53.674385 0.002835 -34.777916
v -55.955681 4.053428 -34.791843
v -53.952248 5.442761 -34.791843
v -53.952248 -0.002895 -34.791843
v -55.955681 -0.002895 -34.791843
v -53.674385 5.411151 -34.777916
v -53.674385 5.426171 -35.324944
v -53.674480 5.415151 -35.324944
v -53.674480 5.415151 -34.791843
v -56.233540 0.089141 -35.324944
v -56.233540 0.089141 -34.777916
v -53.674385 0.089141 -35.324944
v -53.674385 0.089141 -34.777916
v -51.421501 -0.002895 -34.777916
v -51.421501 4.053428 -34.777916
v -51.421501 -0.002895 -35.324944
v -51.421501 4.053428 -35.324944
v -53.424934 -0.002895 -34.777916
v -53.424934 5.442761 -34.777916
v -53.424934 -0.002895 -35.324944
v -53.424934 5.442761 -35.324944
v -51.143642 0.002835 -34.777916
v -51.143642 4.482465 -34.777916
v -51.143642 4.482465 -35.324944
v -51.143642 0.002835 -35.324944
v -53.702797 0.002835 -35.324944
v -53.702797 6.257178 -35.324944
v -53.702797 6.257178 -34.777916
v -53.702797 0.002835 -34.777916
v -51.421501 4.053428 -34.791843
v -53.424934 5.442761 -34.791843
v -53.424934 -0.002895 -34.791843
v -51.421501 -0.002895 -34.791843
v -53.702797 5.411151 -34.777916
v -53.702797 5.426171 -35.324944
v -53.702702 5.415151 -35.324944
v -53.702702 5.415151 -34.791843
v -51.143642 0.089141 -35.324944
v -51.143642 0.089141 -34.777916
v -53.702797 0.089141 -35.324944
v -53.702797 0.089141 -34.777916
v -55.955673 -0.002895 -50.201237
v -55.955673 4.053428 -50.201237
v -55.955677 -0.002895 -50.748260
v -55.955677 4.053428 -50.748260
v -53.952244 -0.002895 -50.201237
v -53.952244 5.442761 -50.201237
v -53.952244 -0.002895 -50.748264
v -53.952244 5.442761 -50.748264
v -56.233536 0.002835 -50.201237
v -56.233536 4.482465 -50.201237
v -56.233536 4.482465 -50.748260
v -56.233536 0.002835 -50.748260
v -53.674381 0.002835 -50.748264
v -53.674381 6.257178 -50.748264
v -53.674381 6.257178 -50.201237
v -53.674381 0.002835 -50.201237
v -55.955673 4.053428 -50.215164
v -53.952244 5.442761 -50.215164
v -53.952244 -0.002895 -50.215164
v -55.955673 -0.002895 -50.215164
v -53.674381 5.411151 -50.201237
v -53.674381 5.426171 -50.748264
v -53.674477 5.415151 -50.748264
v -53.674477 5.415151 -50.215164
v -56.233536 0.089141 -50.748260
v -56.233536 0.089141 -50.201237
v -53.674381 0.089141 -50.748264
v -53.674381 0.089141 -50.201237
v -51.421501 -0.002895 -50.201237
v -51.421501 4.053428 -50.201237
v -51.421501 -0.002895 -50.748264
v -51.421501 4.053428 -50.748264
v -53.424931 -0.002895 -50.201237
v -53.424931 5.442761 -50.201237
v -53.424934 -0.002895 -50.748264
v -53.424934 5.442761 -50.748264
v -51.143639 0.002835 -50.201237
v -51.143639 4.482465 -50.201237
v -51.143639 4.482465 -50.748264
v -51.143639 0.002835 -50.748264
v -53.702793 0.002835 -50.748264
v -53.702793 6.257178 -50.748264
v -53.702793 6.257178 -50.201237
v -53.702793 0.002835 -50.201237
v -51.421501 4.053428 -50.215164
v -53.424934 5.442761 -50.215164
v -53.424931 -0.002895 -50.215164
v -51.421501 -0.002895 -50.215164
v -53.702793 5.411151 -50.201237
v -53.702793 5.426171 -50.748264
v -53.702698 5.415151 -50.748264
v -53.702698 5.415151 -50.215164
v -51.143639 0.089141 -50.748264
v -51.143639 0.089141 -50.201237
v -53.702793 0.089141 -50.748264
v -53.702793 0.089141 -50.201237
v -55.955677 -0.002895 -28.278515
v -55.955677 4.053428 -28.278515
v -55.955677 -0.002895 -28.825541
v -55.955677 4.053428 -28.825541
v -53.952248 -0.002895 -28.278515
v -53.952248 5.442761 -28.278515
v -53.952248 -0.002895 -28.825542
v -53.952248 5.442761 -28.825542
v -56.233540 0.002835 -28.278515
v -56.233540 4.482465 -28.278515
v -56.233540 4.482465 -28.825541
v -56.233540 0.002835 -28.825541
v -53.674385 0.002835 -28.825542
v -53.674385 6.257178 -28.825542
v -53.674385 6.257178 -28.278515
v -53.674385 0.002835 -28.278515
v -55.955677 4.053428 -28.292442
v -53.952248 5.442761 -28.292442
v -53.952248 -0.002895 -28.292442
v -55.955677 -0.002895 -28.292442
v -53.674385 5.411151 -28.278515
v -53.674385 5.426171 -28.825542
v -53.674480 5.415151 -28.825542
v -53.674480 5.415151 -28.292442
v -56.233540 0.089141 -28.825541
v -56.233540 0.089141 -28.278515
v -53.674385 0.089141 -28.825542
v -53.674385 0.089141 -28.278515
v -51.421501 -0.002895 -28.278515
v -51.421501 4.053428 -28.278515
v -51.421501 -0.002895 -28.825542
v -51.421501 4.053428 -28.825542
v -53.424934 -0.002895 -28.278515
v -53.424934 5.442761 -28.278515
v -53.424934 -0.002895 -28.825542
v -53.424934 5.442761 -28.825542
v -51.143642 0.002835 -28.278515
v -51.143642 4.482465 -28.278515
v -51.143642 4.482465 -28.825542
v -51.143642 0.002835 -28.825542
v -53.702797 0.002835 -28.825542
v -53.702797 6.257178 -28.825542
v -53.702797 6.257178 -28.278515
v -53.702797 0.002835 -28.278515
v -51.421501 4.053428 -28.292442
v -53.424934 5.442761 -28.292442
v -53.424934 -0.002895 -28.292442
v -51.421501 -0.002895 -28.292442
v -53.702797 5.411151 -28.278515
v -53.702797 5.426171 -28.825542
v -53.702698 5.415151 -28.825542
v -53.702698 5.415151 -28.292442
v -51.143642 0.089141 -28.825542
v -51.143642 0.089141 -28.278515
v -53.702797 0.089141 -28.825542
v -53.702797 0.089141 -28.278515
v -55.955673 -0.002895 -44.053158
v -55.955673 4.053428 -44.053158
v -55.955673 -0.002895 -44.600185
v -55.955673 4.053428 -44.600185
v -53.952244 -0.002895 -44.053158
v -53.952244 5.442761 -44.053158
v -53.952244 -0.002895 -44.600185
v -53.952244 5.442761 -44.600185
v -56.233536 0.002835 -44.053158
v -56.233536 4.482465 -44.053158
v -56.233536 4.482465 -44.600185
v -56.233536 0.002835 -44.600185
v -53.674381 0.002835 -44.600185
v -53.674381 6.257178 -44.600185
v -53.674381 6.257178 -44.053158
v -53.674381 0.002835 -44.053158
v -55.955673 4.053428 -44.067085
v -53.952244 5.442761 -44.067085
v -53.952244 -0.002895 -44.067085
v -55.955673 -0.002895 -44.067085
v -53.674381 5.411151 -44.053158
v -53.674381 5.426171 -44.600185
v -53.674477 5.415151 -44.600185
v -53.674477 5.415151 -44.067085
v -56.233536 0.089141 -44.600185
v -56.233536 0.089141 -44.053158
v -53.674381 0.089141 -44.600185
v -53.674381 0.089141 -44.053158
v -51.421501 -0.002895 -44.053158
v -51.421501 4.053428 -44.053158
v -51.421501 -0.002895 -44.600182
v -51.421501 4.053428 -44.600182
v -53.424931 -0.002895 -44.053158
v -53.424931 5.442761 -44.053158
v -53.424931 -0.002895 -44.600185
v -53.424931 5.442761 -44.600185
v -51.143639 0.002835 -44.053158
v -51.143639 4.482465 -44.053158
v -51.143639 4.482465 -44.600182
v -51.143639 0.002835 -44.600182
v -53.702793 0.002835 -44.600185
v -53.702793 6.257178 -44.600185
v -53.702793 6.257178 -44.053158
v -53.702793 0.002835 -44.053158
v -51.421501 4.053428 -44.067085
v -53.424934 5.442761 -44.067085
v -53.424931 -0.002895 -44.067085
v -51.421501 -0.002895 -44.067085
v -53.702793 5.411151 -44.053158
v -53.702793 5.426171 -44.600185
v -53.702698 5.415151 -44.600185
v -53.702698 5.415151 -44.067085
v -51.143639 0.089141 -44.600182
v -51.143639 0.089141 -44.053158
v -53.702793 0.089141 -44.600185
v -53.702793 0.089141 -44.053158
v -58.207920 -0.002895 -37.387531
v -58.207920 4.053428 -37.387531
v -58.754944 -0.002895 -37.387531
v -58.754944 4.053428 -37.387531
v -58.207920 -0.002895 -39.390961
v -58.207920 5.442761 -39.390961
v -58.754944 -0.002895 -39.390961
v -58.754944 5.442761 -39.390961
v -58.207920 0.002835 -37.109669
v -58.207920 4.482465 -37.109669
v -58.754944 4.482465 -37.109669
v -58.754944 0.002835 -37.109669
v -58.754944 0.002835 -39.668823
v -58.754944 6.257178 -39.668823
v -58.207920 6.257178 -39.668823
v -58.207920 0.002835 -39.668823
v -58.221848 4.053428 -37.387531
v -58.221848 5.442761 -39.390961
v -58.221848 -0.002895 -39.390961
v -58.221848 -0.002895 -37.387531
v -58.207920 5.411151 -39.668823
v -58.754944 5.426171 -39.668823
v -58.754944 5.415151 -39.668728
v -58.221848 5.415151 -39.668728
v -58.754944 0.089141 -37.109669
v -58.207920 0.089141 -37.109669
v -58.754944 0.089141 -39.668823
v -58.207920 0.089141 -39.668823
v -58.207920 -0.002895 -41.921707
v -58.207920 4.053428 -41.921707
v -58.754944 -0.002895 -41.921707
v -58.754944 4.053428 -41.921707
v -58.207920 -0.002895 -39.918274
v -58.207920 5.442761 -39.918274
v -58.754944 -0.002895 -39.918274
v -58.754944 5.442761 -39.918274
v -58.207920 0.002835 -42.199566
v -58.207920 4.482465 -42.199566
v -58.754944 4.482465 -42.199566
v -58.754944 0.002835 -42.199566
v -58.754944 0.002835 -39.640411
v -58.754944 6.257178 -39.640411
v -58.207920 6.257178 -39.640411
v -58.207920 0.002835 -39.640411
v -58.221848 4.053428 -41.921707
v -58.221848 5.442761 -39.918274
v -58.221848 -0.002895 -39.918274
v -58.221848 -0.002895 -41.921707
v -58.207920 5.411151 -39.640411
v -58.754944 5.426171 -39.640411
v -58.754944 5.415151 -39.640507
v -58.221848 5.415151 -39.640507
v -58.754944 0.089141 -42.199566
v -58.207920 0.089141 -42.199566
v -58.754944 0.089141 -39.640411
v -58.207920 0.089141 -39.640411
vn -0.0000 -0.0000 1.0000
vn -0.0000 -0.8217 -0.5699
vn -1.0000 -0.0000 -0.0000
vn -0.0000 0.8217 0.5699
vn 1.0000 -0.0000 -0.0000
vn -0.0000 -0.0000 -1.0000
vn -0.0000 1.0000 -0.0000
vn -0.0000 -0.9951 0.0989
vn -0.0000 -1.0000 -0.0000
vn -0.0000 -0.8217 0.5699
vn -0.0000 0.8217 -0.5699
vn -0.0000 -0.9951 -0.0989
vn 0.2088 -0.9720 0.1082
vn -0.2879 -0.9576 -0.0050
vn 0.0619 -0.9908 -0.1206
vn 0.1961 -0.9734 -0.1184
vn 0.0623 -0.9919 0.1104
vn 0.6032 0.7976 -0.0000
vn -0.6032 0.7976 -0.0000
vn -0.0000 0.7976 -0.6032
vn -0.0000 0.7976 0.6032
vn 0.5699 -0.8217 -0.0000
vn -0.5699 0.8217 -0.0000
vn -0.0989 -0.9951 -0.0000
vn -0.5699 -0.8217 -0.0000
vn 0.5699 0.8217 -0.0000
vn 0.0989 -0.9951 -0.0000
vt 0.375000 0.000000
vt 0.625000 0.000000
vt 0.625000 0.250000
vt 0.375000 0.250000
vt 0.608854 0.277144
vt 0.611003 0.472856
vt 0.611003 0.472856
vt 0.375000 0.750000
vt 0.375000 1.000000
vt 0.625000 0.500000
vt 0.875000 0.500000
vt 0.875000 0.750000
vt 0.625000 0.750000
vt 0.389297 0.972856
vt 0.608854 0.972856
vt 0.625000 1.000000
vt 0.389297 0.277144
vt 0.387218 0.472856
vt 0.375000 0.500000
vt 0.611003 0.777144
vt 0.592444 0.750000
vt 0.387218 0.777144
vt 0.389297 0.277144
vt 0.591783 0.500000
vt 0.125000 0.500000
vt 0.125000 0.750000
vt 0.000000 0.000000
vt 0.032865 0.675000
vt 1.000000 0.675000
vt 1.000000 1.000000
vt 0.032865 1.000000
vt 0.000000 0.675000
vt 0.000000 1.000000
vt 0.000000 0.675000
vt 0.032865 0.000000
vt 1.000000 0.000000
vt 0.000000 0.310000
vt 0.032865 0.310000
vt 0.032865 0.500000
vt 0.000000 0.500000
vt 0.000000 0.310000
vt 1.000000 0.310000
vt 0.215115 0.000000
vt 0.215115 1.000000
s 0
usemtl Material.029
f 9/1/1 10/2/1 11/3/1 12/4/1
f 4/5/2 8/6/2 18/7/2 17/5/2
f 16/8/3 9/9/3 26/9/3 28/8/3
f 14/10/4 11/11/4 10/12/4 15/13/4
f 1/14/5 2/15/5 10/16/5 9/9/5
f 4/5/3 3/17/3 12/4/3 11/3/3
f 3/17/5 7/18/5 13/19/5 12/4/5
f 8/6/3 4/5/3 11/3/3 14/10/3
f 6/20/5 21/21/5 15/13/5
f 5/22/3 1/14/3 9/9/3 16/8/3
f 2/15/5 6/20/5 15/13/5 10/16/5
f 3/17/6 4/5/6 17/5/6 20/23/6
f 7/18/7 3/17/7 20/23/7 19/18/7
f 22/24/3 8/6/3 14/10/3
f 18/7/8 8/6/8 23/6/8 24/7/8
f 25/25/9 27/19/9 28/8/9 26/26/9
f 13/27/1 16/27/1 28/27/1 27/27/1
f 12/4/5 13/19/5 27/19/5 25/4/5
f 9/1/6 12/4/6 25/4/6 26/1/6
f 37/1/6 40/4/6 39/3/6 38/2/6
f 32/5/10 45/5/10 46/7/10 36/6/10
f 44/8/3 56/8/3 54/9/3 37/9/3
f 42/10/11 43/13/11 38/12/11 39/11/11
f 29/14/5 37/9/5 38/16/5 30/15/5
f 32/5/3 39/3/3 40/4/3 31/17/3
f 31/17/5 40/4/5 41/19/5 35/18/5
f 36/6/3 42/10/3 39/3/3 32/5/3
f 34/20/5 43/13/5 49/21/5
f 33/22/3 44/8/3 37/9/3 29/14/3
f 30/15/5 38/16/5 43/13/5 34/20/5
f 31/17/1 48/23/1 45/5/1 32/5/1
f 35/18/7 47/18/7 48/23/7 31/17/7
f 50/24/3 42/10/3 36/6/3
f 46/7/12 52/7/12 51/6/12 36/6/12
f 53/25/9 54/26/9 56/8/9 55/19/9
f 41/27/6 55/27/6 56/27/6 44/27/6
f 40/4/5 53/4/5 55/19/5 41/19/5
f 37/1/1 54/1/1 53/4/1 40/4/1
usemtl 
f 121/28/5 120/29/5 60/30/5 80/31/5
f 122/32/13 59/33/13 62/33/13 123/34/13
f 80/31/1 60/30/1 64/30/1 81/31/1
f 79/35/6 57/27/6 65/27/6 82/35/6
f 65/27/6 57/27/6 67/27/6 68/27/6
f 59/33/1 63/33/1 70/33/1 69/33/1
f 77/33/1 78/33/1 71/33/1 74/33/1
f 75/27/6 76/27/6 73/27/6 72/27/6
f 83/27/6 84/27/6 76/27/6 75/27/6
f 70/33/1 63/33/1 78/33/1 77/33/1
f 58/36/6 79/35/6 82/35/6 66/36/6
f 59/33/1 80/31/1 81/31/1 63/33/1
f 122/32/5 121/28/5 80/31/5 59/33/5
f 65/27/6 68/27/6 84/27/6 83/27/6
f 107/35/3 108/31/3 88/30/3 86/36/3
f 85/27/14 89/27/14 90/33/14 87/33/14
f 108/31/1 109/31/1 92/30/1 88/30/1
f 107/35/6 110/35/6 93/27/6 85/27/6
f 93/27/6 96/27/6 95/27/6 85/27/6
f 87/33/1 97/33/1 98/33/1 91/33/1
f 105/33/1 102/33/1 99/33/1 106/33/1
f 103/27/6 100/27/6 101/27/6 104/27/6
f 111/27/6 103/27/6 104/27/6 112/27/6
f 98/33/1 105/33/1 106/33/1 91/33/1
f 86/36/6 94/36/6 110/35/6 107/35/6
f 87/33/1 91/33/1 109/31/1 108/31/1
f 85/27/3 87/33/3 108/31/3 107/35/3
f 93/27/6 111/27/6 112/27/6 96/27/6
f 116/37/5 119/38/5 115/39/5 113/40/5
f 116/37/15 113/40/15 114/40/15 117/41/15
f 79/35/5 58/36/5 118/42/5 119/38/5
f 57/27/16 116/37/16 117/41/16 61/27/16
f 57/27/5 79/35/5 119/38/5 116/37/5
f 113/40/5 115/39/5 121/28/5 122/32/5
f 113/40/17 122/32/17 123/34/17 114/40/17
f 128/43/5 125/36/5 127/30/5 129/44/5
f 124/27/18 128/43/18 129/44/18 126/33/18
f 134/43/3 135/44/3 133/30/3 131/36/3
f 130/27/19 132/33/19 135/44/19 134/43/19
f 140/43/5 141/44/5 139/30/5 137/36/5
f 136/27/18 138/33/18 141/44/18 140/43/18
f 146/43/3 143/36/3 145/30/3 147/44/3
f 142/27/19 146/43/19 147/44/19 144/33/19
f 152/43/6 149/36/6 151/30/6 153/44/6
f 148/27/20 152/43/20 153/44/20 150/33/20
f 158/43/1 159/44/1 157/30/1 155/36/1
f 154/27/21 156/33/21 159/44/21 158/43/21
f 160/27/7 161/36/7 163/30/7 162/33/7
usemtl Material.030
f 172/1/3 173/2/3 174/3/3 175/4/3
f 167/5/22 171/6/22 181/7/22 180/5/22
f 179/8/6 172/9/6 189/9/6 191/8/6
f 177/10/23 174/11/23 173/12/23 178/13/23
f 164/14/1 165/15/1 173/16/1 172/9/1
f 167/5/6 166/17/6 175/4/6 174/3/6
f 166/17/1 170/18/1 176/19/1 175/4/1
f 171/6/6 167/5/6 174/3/6 177/10/6
f 169/20/1 184/21/1 178/13/1
f 168/22/6 164/14/6 172/9/6 179/8/6
f 165/15/1 169/20/1 178/13/1 173/16/1
f 166/17/5 167/5/5 180/5/5 183/23/5
f 170/18/7 166/17/7 183/23/7 182/18/7
f 185/24/6 171/6/6 177/10/6
f 181/7/24 171/6/24 186/6/24 187/7/24
f 188/25/9 190/19/9 191/8/9 189/26/9
f 176/27/3 179/27/3 191/27/3 190/27/3
f 175/4/1 176/19/1 190/19/1 188/4/1
f 172/1/5 175/4/5 188/4/5 189/1/5
f 200/1/5 203/4/5 202/3/5 201/2/5
f 195/5/25 208/5/25 209/7/25 199/6/25
f 207/8/6 219/8/6 217/9/6 200/9/6
f 205/10/26 206/13/26 201/12/26 202/11/26
f 192/14/1 200/9/1 201/16/1 193/15/1
f 195/5/6 202/3/6 203/4/6 194/17/6
f 194/17/1 203/4/1 204/19/1 198/18/1
f 199/6/6 205/10/6 202/3/6 195/5/6
f 197/20/1 206/13/1 212/21/1
f 196/22/6 207/8/6 200/9/6 192/14/6
f 193/15/1 201/16/1 206/13/1 197/20/1
f 194/17/3 211/23/3 208/5/3 195/5/3
f 198/18/7 210/18/7 211/23/7 194/17/7
f 213/24/6 205/10/6 199/6/6
f 209/7/27 215/7/27 214/6/27 199/6/27
f 216/25/9 217/26/9 219/8/9 218/19/9
f 204/27/5 218/27/5 219/27/5 207/27/5
f 203/4/1 216/4/1 218/19/1 204/19/1
f 200/1/3 217/1/3 216/4/3 203/4/3
usemtl Material.031
f 228/1/3 229/2/3 230/3/3 231/4/3
f 223/5/22 227/6/22 237/7/22 236/5/22
f 235/8/6 228/9/6 245/9/6 247/8/6
f 233/10/23 230/11/23 229/12/23 234/13/23
f 220/14/1 221/15/1 229/16/1 228/9/1
f 223/5/6 222/17/6 231/4/6 230/3/6
f 222/17/1 226/18/1 232/19/1 231/4/1
f 227/6/6 223/5/6 230/3/6 233/10/6
f 225/20/1 240/21/1 234/13/1
f 224/22/6 220/14/6 228/9/6 235/8/6
f 221/15/1 225/20/1 234/13/1 229/16/1
f 222/17/5 223/5/5 236/5/5 239/23/5
f 226/18/7 222/17/7 239/23/7 238/18/7
f 241/24/6 227/6/6 233/10/6
f 237/7/24 227/6/24 242/6/24 243/7/24
f 244/25/9 246/19/9 247/8/9 245/26/9
f 232/27/3 235/27/3 247/27/3 246/27/3
f 231/4/1 232/19/1 246/19/1 244/4/1
f 228/1/5 231/4/5 244/4/5 245/1/5
f 256/1/5 259/4/5 258/3/5 257/2/5
f 251/5/25 264/5/25 265/7/25 255/6/25
f 263/8/6 275/8/6 273/9/6 256/9/6
f 261/10/26 262/13/26 257/12/26 258/11/26
f 248/14/1 256/9/1 257/16/1 249/15/1
f 251/5/6 258/3/6 259/4/6 250/17/6
f 250/17/1 259/4/1 260/19/1 254/18/1
f 255/6/6 261/10/6 258/3/6 251/5/6
f 253/20/1 262/13/1 268/21/1
f 252/22/6 263/8/6 256/9/6 248/14/6
f 249/15/1 257/16/1 262/13/1 253/20/1
f 250/17/3 267/23/3 264/5/3 251/5/3
f 254/18/7 266/18/7 267/23/7 250/17/7
f 269/24/6 261/10/6 255/6/6
f 265/7/27 271/7/27 270/6/27 255/6/27
f 272/25/9 273/26/9 275/8/9 274/19/9
f 260/27/5 274/27/5 275/27/5 263/27/5
f 259/4/1 272/4/1 274/19/1 260/19/1
f 256/1/3 273/1/3 272/4/3 259/4/3
usemtl Material.032
f 284/1/3 285/2/3 286/3/3 287/4/3
f 279/5/22 283/6/22 293/7/22 292/5/22
f 291/8/6 284/9/6 301/9/6 303/8/6
f 289/10/23 286/11/23 285/12/23 290/13/23
f 276/14/1 277/15/1 285/16/1 284/9/1
f 279/5/6 278/17/6 287/4/6 286/3/6
f 278/17/1 282/18/1 288/19/1 287/4/1
f 283/6/6 279/5/6 286/3/6 289/10/6
f 281/20/1 296/21/1 290/13/1
f 280/22/6 276/14/6 284/9/6 291/8/6
f 277/15/1 281/20/1 290/13/1 285/16/1
f 278/17/5 279/5/5 292/5/5 295/23/5
f 282/18/7 278/17/7 295/23/7 294/18/7
f 297/24/6 283/6/6 289/10/6
f 293/7/24 283/6/24 298/6/24 299/7/24
f 300/25/9 302/19/9 303/8/9 301/26/9
f 288/27/3 291/27/3 303/27/3 302/27/3
f 287/4/1 288/19/1 302/19/1 300/4/1
f 284/1/5 287/4/5 300/4/5 301/1/5
f 312/1/5 315/4/5 314/3/5 313/2/5
f 307/5/25 320/5/25 321/7/25 311/6/25
f 319/8/6 331/8/6 329/9/6 312/9/6
f 317/10/26 318/13/26 313/12/26 314/11/26
f 304/14/1 312/9/1 313/16/1 305/15/1
f 307/5/6 314/3/6 315/4/6 306/17/6
f 306/17/1 315/4/1 316/19/1 310/18/1
f 311/6/6 317/10/6 314/3/6 307/5/6
f 309/20/1 318/13/1 324/21/1
f 308/22/6 319/8/6 312/9/6 304/14/6
f 305/15/1 313/16/1 318/13/1 309/20/1
f 306/17/3 323/23/3 320/5/3 307/5/3
f 310/18/7 322/18/7 323/23/7 306/17/7
f 325/24/6 317/10/6 311/6/6
f 321/7/27 327/7/27 326/6/27 311/6/27
f 328/25/9 329/26/9 331/8/9 330/19/9
f 316/27/5 330/27/5 331/27/5 319/27/5
f 315/4/1 328/4/1 330/19/1 316/19/1
f 312/1/3 329/1/3 328/4/3 315/4/3
usemtl Material.033
f 340/1/3 341/2/3 342/3/3 343/4/3
f 335/5/22 339/6/22 349/7/22 348/5/22
f 347/8/6 340/9/6 357/9/6 359/8/6
f 345/10/23 342/11/23 341/12/23 346/13/23
f 332/14/1 333/15/1 341/16/1 340/9/1
f 335/5/6 334/17/6 343/4/6 342/3/6
f 334/17/1 338/18/1 344/19/1 343/4/1
f 339/6/6 335/5/6 342/3/6 345/10/6
f 337/20/1 352/21/1 346/13/1
f 336/22/6 332/14/6 340/9/6 347/8/6
f 333/15/1 337/20/1 346/13/1 341/16/1
f 334/17/5 335/5/5 348/5/5 351/23/5
f 338/18/7 334/17/7 351/23/7 350/18/7
f 353/24/6 339/6/6 345/10/6
f 349/7/24 339/6/24 354/6/24 355/7/24
f 356/25/9 358/19/9 359/8/9 357/26/9
f 344/27/3 347/27/3 359/27/3 358/27/3
f 343/4/1 344/19/1 358/19/1 356/4/1
f 340/1/5 343/4/5 356/4/5 357/1/5
f 368/1/5 371/4/5 370/3/5 369/2/5
f 363/5/25 376/5/25 377/7/25 367/6/25
f 375/8/6 387/8/6 385/9/6 368/9/6
f 373/10/26 374/13/26 369/12/26 370/11/26
f 360/14/1 368/9/1 369/16/1 361/15/1
f 363/5/6 370/3/6 371/4/6 362/17/6
f 362/17/1 371/4/1 372/19/1 366/18/1
f 367/6/6 373/10/6 370/3/6 363/5/6
f 365/20/1 374/13/1 380/21/1
f 364/22/6 375/8/6 368/9/6 360/14/6
f 361/15/1 369/16/1 374/13/1 365/20/1
f 362/17/3 379/23/3 376/5/3 363/5/3
f 366/18/7 378/18/7 379/23/7 362/17/7
f 381/24/6 373/10/6 367/6/6
f 377/7/27 383/7/27 382/6/27 367/6/27
f 384/25/9 385/26/9 387/8/9 386/19/9
f 372/27/5 386/27/5 387/27/5 375/27/5
f 371/4/1 384/4/1 386/19/1 372/19/1
f 368/1/3 385/1/3 384/4/3 371/4/3
usemtl Material.034
f 396/1/1 397/2/1 398/3/1 399/4/1
f 391/5/2 395/6/2 405/7/2 404/5/2
f 403/8/3 396/9/3 413/9/3 415/8/3
f 401/10/4 398/11/4 397/12/4 402/13/4
f 388/14/5 389/15/5 397/16/5 396/9/5
f 391/5/3 390/17/3 399/4/3 398/3/3
f 390/17/5 394/18/5 400/19/5 399/4/5
f 395/6/3 391/5/3 398/3/3 401/10/3
f 393/20/5 408/21/5 402/13/5
f 392/22/3 388/14/3 396/9/3 403/8/3
f 389/15/5 393/20/5 402/13/5 397/16/5
f 390/17/6 391/5/6 404/5/6 407/23/6
f 394/18/7 390/17/7 407/23/7 406/18/7
f 409/24/3 395/6/3 401/10/3
f 405/7/8 395/6/8 410/6/8 411/7/8
f 412/25/9 414/19/9 415/8/9 413/26/9
f 400/27/1 403/27/1 415/27/1 414/27/1
f 399/4/5 400/19/5 414/19/5 412/4/5
f 396/1/6 399/4/6 412/4/6 413/1/6
f 424/1/6 427/4/6 426/3/6 425/2/6
f 419/5/10 432/5/10 433/7/10 423/6/10
f 431/8/3 443/8/3 441/9/3 424/9/3
f 429/10/11 430/13/11 425/12/11 426/11/11
f 416/14/5 424/9/5 425/16/5 417/15/5
f 419/5/3 426/3/3 427/4/3 418/17/3
f 418/17/5 427/4/5 428/19/5 422/18/5
f 423/6/3 429/10/3 426/3/3 419/5/3
f 421/20/5 430/13/5 436/21/5
f 420/22/3 431/8/3 424/9/3 416/14/3
f 417/15/5 425/16/5 430/13/5 421/20/5
f 418/17/1 435/23/1 432/5/1 419/5/1
f 422/18/7 434/18/7 435/23/7 418/17/7
f 437/24/3 429/10/3 423/6/3
f 433/7/12 439/7/12 438/6/12 423/6/12
f 440/25/9 441/26/9 443/8/9 442/19/9
f 428/27/6 442/27/6 443/27/6 431/27/6
f 427/4/5 440/4/5 442/19/5 428/19/5
f 424/1/1 441/1/1 440/4/1 427/4/1
