# Blender 4.5.3 LTS
# www.blender.org
mtllib small_room_3_two_doors.mtl
o small_room_3_diff_path
v -32.176796 -0.002895 -37.387527
v -32.176796 4.053428 -37.387527
v -32.723820 -0.002895 -37.387527
v -32.723820 4.053428 -37.387527
v -32.176796 -0.002895 -39.390961
v -32.176796 5.442761 -39.390961
v -32.723820 -0.002895 -39.390961
v -32.723820 5.442761 -39.390961
v -32.176796 0.002835 -37.109669
v -32.176796 4.482465 -37.109669
v -32.723820 4.482465 -37.109669
v -32.723820 0.002835 -37.109669
v -32.723820 0.002835 -39.668823
v -32.723820 6.257178 -39.668823
v -32.176796 6.257178 -39.668823
v -32.176796 0.002835 -39.668823
v -32.190723 4.053428 -37.387527
v -32.190723 5.442761 -39.390961
v -32.190723 -0.002895 -39.390961
v -32.190723 -0.002895 -37.387527
v -32.176796 5.411151 -39.668823
v -32.723820 5.426171 -39.668823
v -32.723820 5.415151 -39.668728
v -32.190723 5.415151 -39.668728
v -32.723820 0.089141 -37.109669
v -32.176796 0.089141 -37.109669
v -32.723820 0.089141 -39.668823
v -32.176796 0.089141 -39.668823
v -32.176796 -0.002895 -41.921707
v -32.176796 4.053428 -41.921707
v -32.723820 -0.002895 -41.921707
v -32.723820 4.053428 -41.921707
v -32.176796 -0.002895 -39.918274
v -32.176796 5.442761 -39.918274
v -32.723820 -0.002895 -39.918274
v -32.723820 5.442761 -39.918274
v -32.176796 0.002835 -42.199566
v -32.176796 4.482465 -42.199566
v -32.723820 4.482465 -42.199566
v -32.723820 0.002835 -42.199566
v -32.723820 0.002835 -39.640411
v -32.723820 6.257178 -39.640411
v -32.176796 6.257178 -39.640411
v -32.176796 0.002835 -39.640411
v -32.190723 4.053428 -41.921707
v -32.190723 5.442761 -39.918274
v -32.190723 -0.002895 -39.918274
v -32.190723 -0.002895 -41.921707
v -32.176796 5.411151 -39.640411
v -32.723820 5.426171 -39.640411
v -32.723820 5.415151 -39.640507
v -32.190723 5.415151 -39.640507
v -32.723820 0.089141 -42.199566
v -32.176796 0.089141 -42.199566
v -32.723820 0.089141 -39.640411
v -32.176796 0.089141 -39.640411
v -27.693035 6.155654 -44.199921
v -25.240049 -2.468450 -44.199924
v -27.693037 6.155654 -50.616646
v -25.240049 -2.468450 -50.616646
v -25.240049 4.300481 -44.199924
v -25.240049 4.300481 -50.616646
v -27.621897 6.155653 -44.199921
v -30.074884 -2.468450 -44.199924
v -27.621897 6.155653 -50.616646
v -30.074883 -2.468450 -50.616646
v -30.074884 4.300481 -44.199924
v -30.074883 4.300481 -50.616646
v -27.693037 6.155654 -34.814568
v -25.240051 -2.468450 -34.814568
v -27.693037 6.155654 -28.397844
v -25.240049 -2.468450 -28.397844
v -25.240049 4.300481 -34.814568
v -25.240049 4.300481 -28.397844
v -27.621899 6.155653 -34.814568
v -30.074884 -2.468450 -34.814568
v -27.621897 6.155653 -28.397844
v -30.074883 -2.468450 -28.397844
v -30.074884 4.300481 -34.814568
v -30.074884 4.300481 -28.397844
v -38.676689 0.000000 -28.488022
v -16.638245 0.000000 -28.488022
v -38.676685 0.000000 -50.526466
v -16.638241 0.000000 -50.526466
v -29.924553 -0.002895 -44.053158
v -29.924553 4.053428 -44.053158
v -29.924553 -0.002895 -44.600182
v -29.924553 4.053428 -44.600182
v -27.921120 -0.002895 -44.053158
v -27.921120 5.442761 -44.053158
v -27.921120 -0.002895 -44.600182
v -27.921120 5.442761 -44.600182
v -30.202414 0.002835 -44.053158
v -30.202414 4.482465 -44.053158
v -30.202414 4.482465 -44.600182
v -30.202414 0.002835 -44.600182
v -27.643259 0.002835 -44.600182
v -27.643259 6.257178 -44.600182
v -27.643259 6.257178 -44.053158
v -27.643259 0.002835 -44.053158
v -29.924553 4.053428 -44.067085
v -27.921120 5.442761 -44.067085
v -27.921120 -0.002895 -44.067085
v -29.924553 -0.002895 -44.067085
v -27.643259 5.411151 -44.053158
v -27.643259 5.426171 -44.600182
v -27.643356 5.415151 -44.600182
v -27.643356 5.415151 -44.067085
v -30.202414 0.089141 -44.600182
v -30.202414 0.089141 -44.053158
v -27.643259 0.089141 -44.600182
v -27.643259 0.089141 -44.053158
v -25.390377 -0.002895 -44.053158
v -25.390377 4.053428 -44.053158
v -25.390377 -0.002895 -44.600182
v -25.390377 4.053428 -44.600182
v -27.393810 -0.002895 -44.053158
v -27.393810 5.442761 -44.053158
v -27.393810 -0.002895 -44.600185
v -27.393810 5.442761 -44.600185
v -25.112516 0.002835 -44.053158
v -25.112516 4.482465 -44.053158
v -25.112516 4.482465 -44.600182
v -25.112516 0.002835 -44.600182
v -27.671671 0.002835 -44.600182
v -27.671671 6.257178 -44.600182
v -27.671671 6.257178 -44.053158
v -27.671671 0.002835 -44.053158
v -25.390377 4.053428 -44.067085
v -27.393810 5.442761 -44.067085
v -27.393810 -0.002895 -44.067085
v -25.390377 -0.002895 -44.067085
v -27.671671 5.411151 -44.053158
v -27.671671 5.426171 -44.600182
v -27.671574 5.415151 -44.600182
v -27.671574 5.415151 -44.067085
v -25.112516 0.089141 -44.600182
v -25.112516 0.089141 -44.053158
v -27.671671 0.089141 -44.600182
v -27.671671 0.089141 -44.053158
v -29.924553 -0.002895 -28.278519
v -29.924553 4.053428 -28.278519
v -29.924553 -0.002895 -28.825544
v -29.924553 4.053428 -28.825544
v -27.921120 -0.002895 -28.278519
v -27.921120 5.442761 -28.278519
v -27.921120 -0.002895 -28.825544
v -27.921120 5.442761 -28.825544
v -30.202414 0.002835 -28.278519
v -30.202414 4.482465 -28.278519
v -30.202414 4.482465 -28.825544
v -30.202414 0.002835 -28.825544
v -27.643259 0.002835 -28.825544
v -27.643259 6.257178 -28.825544
v -27.643259 6.257178 -28.278519
v -27.643259 0.002835 -28.278519
v -29.924553 4.053428 -28.292446
v -27.921120 5.442761 -28.292446
v -27.921120 -0.002895 -28.292446
v -29.924553 -0.002895 -28.292446
v -27.643259 5.411151 -28.278519
v -27.643259 5.426171 -28.825544
v -27.643354 5.415151 -28.825544
v -27.643354 5.415151 -28.292446
v -30.202414 0.089141 -28.825544
v -30.202414 0.089141 -28.278519
v -27.643259 0.089141 -28.825544
v -27.643259 0.089141 -28.278519
v -25.390377 -0.002895 -28.278519
v -25.390377 4.053428 -28.278519
v -25.390377 -0.002895 -28.825544
v -25.390377 4.053428 -28.825544
v -27.393810 -0.002895 -28.278519
v -27.393810 5.442761 -28.278519
v -27.393810 -0.002895 -28.825544
v -27.393810 5.442761 -28.825544
v -25.112516 0.002835 -28.278519
v -25.112516 4.482465 -28.278519
v -25.112516 4.482465 -28.825544
v -25.112516 0.002835 -28.825544
v -27.671669 0.002835 -28.825544
v -27.671669 6.257178 -28.825544
v -27.671669 6.257178 -28.278519
v -27.671669 0.002835 -28.278519
v -25.390377 4.053428 -28.292444
v -27.393810 5.442761 -28.292446
v -27.393810 -0.002895 -28.292446
v -25.390377 -0.002895 -28.292444
v -27.671669 5.411151 -28.278519
v -27.671669 5.426171 -28.825544
v -27.671574 5.415151 -28.825544
v -27.671574 5.415151 -28.292446
v -25.112516 0.089141 -28.825544
v -25.112516 0.089141 -28.278519
v -27.671669 0.089141 -28.825544
v -27.671669 0.089141 -28.278519
v -29.924553 -0.002895 -50.201237
v -29.924553 4.053428 -50.201237
v -29.924553 -0.002895 -50.748260
v -29.924553 4.053428 -50.748260
v -27.921120 -0.002895 -50.201237
v -27.921120 5.442761 -50.201237
v -27.921120 -0.002895 -50.748260
v -27.921120 5.442761 -50.748260
v -30.202414 0.002835 -50.201237
v -30.202414 4.482465 -50.201237
v -30.202414 4.482465 -50.748260
v -30.202414 0.002835 -50.748260
v -27.643261 0.002835 -50.748260
v -27.643261 6.257178 -50.748260
v -27.643261 6.257178 -50.201237
v -27.643261 0.002835 -50.201237
v -29.924553 4.053428 -50.215164
v -27.921120 5.442761 -50.215164
v -27.921120 -0.002895 -50.215164
v -29.924553 -0.002895 -50.215164
v -27.643261 5.411151 -50.201237
v -27.643261 5.426171 -50.748260
v -27.643356 5.415151 -50.748260
v -27.643356 5.415151 -50.215164
v -30.202414 0.089141 -50.748260
v -30.202414 0.089141 -50.201237
v -27.643261 0.089141 -50.748260
v -27.643261 0.089141 -50.201237
v -25.390377 -0.002895 -50.201237
v -25.390377 4.053428 -50.201237
v -25.390377 -0.002895 -50.748260
v -25.390377 4.053428 -50.748260
v -27.393810 -0.002895 -50.201237
v -27.393810 5.442761 -50.201237
v -27.393810 -0.002895 -50.748260
v -27.393810 5.442761 -50.748260
v -25.112516 0.002835 -50.201237
v -25.112516 4.482465 -50.201237
v -25.112516 4.482465 -50.748260
v -25.112516 0.002835 -50.748260
v -27.671671 0.002835 -50.748260
v -27.671671 6.257178 -50.748260
v -27.671671 6.257178 -50.201237
v -27.671671 0.002835 -50.201237
v -25.390377 4.053428 -50.215164
v -27.393810 5.442761 -50.215164
v -27.393810 -0.002895 -50.215164
v -25.390377 -0.002895 -50.215164
v -27.671671 5.411151 -50.201237
v -27.671671 5.426171 -50.748260
v -27.671576 5.415151 -50.748260
v -27.671576 5.415151 -50.215164
v -25.112516 0.089141 -50.748260
v -25.112516 0.089141 -50.201237
v -27.671671 0.089141 -50.748260
v -27.671671 0.089141 -50.201237
v -32.183613 6.155654 -39.757534
v -32.183613 -2.468449 -42.210522
v -38.600334 6.155653 -39.757534
v -38.600330 -2.468450 -42.210522
v -32.183613 4.300481 -42.210522
v -38.600334 4.300481 -42.210522
v -32.183613 6.155654 -39.828674
v -32.183609 -2.468449 -37.375687
v -38.600334 6.155653 -39.828674
v -38.600330 -2.468450 -37.375687
v -32.183613 4.300481 -37.375687
v -38.600334 4.300480 -37.375687
v -29.924553 -0.002895 -34.777916
v -29.924553 4.053428 -34.777916
v -29.924553 -0.002895 -35.324944
v -29.924553 4.053428 -35.324944
v -27.921120 -0.002895 -34.777916
v -27.921120 5.442761 -34.777916
v -27.921120 -0.002895 -35.324944
v -27.921120 5.442761 -35.324944
v -30.202414 0.002835 -34.777916
v -30.202414 4.482465 -34.777916
v -30.202414 4.482465 -35.324944
v -30.202414 0.002835 -35.324944
v -27.643259 0.002835 -35.324944
v -27.643259 6.257178 -35.324944
v -27.643259 6.257178 -34.777916
v -27.643259 0.002835 -34.777916
v -29.924553 4.053428 -34.791843
v -27.921120 5.442761 -34.791843
v -27.921120 -0.002895 -34.791843
v -29.924553 -0.002895 -34.791843
v -27.643259 5.411151 -34.777916
v -27.643259 5.426171 -35.324944
v -27.643356 5.415151 -35.324944
v -27.643356 5.415151 -34.791843
v -30.202414 0.089141 -35.324944
v -30.202414 0.089141 -34.777916
v -27.643259 0.089141 -35.324944
v -27.643259 0.089141 -34.777916
v -25.390377 -0.002895 -34.777916
v -25.390377 4.053428 -34.777916
v -25.390377 -0.002895 -35.324944
v -25.390377 4.053428 -35.324944
v -27.393810 -0.002895 -34.777916
v -27.393810 5.442761 -34.777916
v -27.393810 -0.002895 -35.324944
v -27.393810 5.442761 -35.324944
v -25.112516 0.002835 -34.777916
v -25.112516 4.482465 -34.777916
v -25.112516 4.482465 -35.324944
v -25.112516 0.002835 -35.324944
v -27.671671 0.002835 -35.324944
v -27.671671 6.257178 -35.324944
v -27.671671 6.257178 -34.777916
v -27.671671 0.002835 -34.777916
v -25.390377 4.053428 -34.791843
v -27.393810 5.442761 -34.791843
v -27.393810 -0.002895 -34.791843
v -25.390377 -0.002895 -34.791843
v -27.671671 5.411151 -34.777916
v -27.671671 5.426171 -35.324944
v -27.671574 5.415151 -35.324944
v -27.671574 5.415151 -34.791843
v -25.112516 0.089141 -35.324944
v -25.112516 0.089141 -34.777916
v -27.671671 0.089141 -35.324944
v -27.671671 0.089141 -34.777916
v -38.382771 -0.002895 -37.542751
v -38.382771 4.053428 -37.542751
v -38.929794 -0.002895 -37.542751
v -38.929794 4.053428 -37.542751
v -38.382771 -0.002895 -39.546185
v -38.382771 5.442761 -39.546185
v -38.929794 -0.002895 -39.546185
v -38.929794 5.442761 -39.546185
v -38.382771 0.002835 -37.264893
v -38.382771 4.482465 -37.264893
v -38.929794 4.482465 -37.264893
v -38.929794 0.002835 -37.264893
v -38.929794 0.002835 -39.824047
v -38.929794 6.257178 -39.824047
v -38.382771 6.257178 -39.824047
v -38.382771 0.002835 -39.824047
v -38.396698 4.053428 -37.542751
v -38.396698 5.442761 -39.546185
v -38.396698 -0.002895 -39.546185
v -38.396698 -0.002895 -37.542751
v -38.382771 5.411151 -39.824047
v -38.929794 5.426171 -39.824047
v -38.929794 5.415151 -39.823952
v -38.396698 5.415151 -39.823952
v -38.929794 0.089141 -37.264893
v -38.382771 0.089141 -37.264893
v -38.929794 0.089141 -39.824047
v -38.382771 0.089141 -39.824047
v -38.382771 -0.002895 -42.076927
v -38.382771 4.053428 -42.076927
v -38.929794 -0.002895 -42.076927
v -38.929794 4.053428 -42.076927
v -38.382771 -0.002895 -40.073498
v -38.382771 5.442761 -40.073498
v -38.929794 -0.002895 -40.073498
v -38.929794 5.442761 -40.073498
v -38.382771 0.002835 -42.354790
v -38.382771 4.482465 -42.354790
v -38.929794 4.482465 -42.354790
v -38.929794 0.002835 -42.354790
v -38.929794 0.002835 -39.795635
v -38.929794 6.257178 -39.795635
v -38.382771 6.257178 -39.795635
v -38.382771 0.002835 -39.795635
v -38.396698 4.053428 -42.076927
v -38.396698 5.442761 -40.073498
v -38.396698 -0.002895 -40.073498
v -38.396698 -0.002895 -42.076927
v -38.382771 5.411151 -39.795635
v -38.929794 5.426171 -39.795635
v -38.929794 5.415151 -39.795731
v -38.396698 5.415151 -39.795731
v -38.929794 0.089141 -42.354790
v -38.382771 0.089141 -42.354790
v -38.929794 0.089141 -39.795635
v -38.382771 0.089141 -39.795635
v -33.130985 4.544495 -32.862530
v -33.130985 -3.072794 -32.862530
v -33.130985 4.544495 -46.607662
v -33.130985 -3.072794 -46.607662
v -27.628798 6.127526 -32.862530
v -27.628798 6.269863 -46.607662
v -29.731506 4.681018 -46.607662
v -30.099792 -3.072794 -46.607662
v -29.738117 4.569713 -32.862530
v -30.106401 -3.072794 -32.862530
v -33.130985 6.720728 -32.862530
v -30.106401 6.720728 -32.862530
v -33.130985 6.654787 -46.607662
v -30.099791 6.654787 -46.607662
v -27.643902 6.174655 -46.607662
v -27.650511 6.169413 -32.862530
v -27.650511 6.720728 -32.862530
v -27.643902 6.654787 -46.607662
v -28.878456 5.223707 -32.862530
v -28.878456 6.720728 -32.862530
v -28.871847 6.654787 -46.607662
v -28.871847 5.237198 -46.607662
v -33.130985 4.294150 -32.862530
v -33.130985 4.294150 -46.607662
v -30.099791 4.294150 -46.607662
v -30.106401 4.294150 -32.862530
v -29.492430 4.777952 -32.862530
v -29.492428 6.720728 -32.862530
v -22.183952 4.544495 -32.862530
v -22.183952 -3.072794 -32.862530
v -22.183952 4.544495 -46.607662
v -22.183952 -3.072794 -46.607662
v -27.686140 6.127527 -32.862530
v -27.686142 6.269864 -46.607662
v -25.583431 4.681018 -46.607662
v -25.215147 -3.072793 -46.607662
v -25.576820 4.569713 -32.862530
v -25.208536 -3.072793 -32.862530
v -22.183952 6.720728 -32.862530
v -25.208538 6.720728 -32.862530
v -22.183952 6.654787 -46.607662
v -25.215147 6.654787 -46.607662
v -27.671036 6.174655 -46.607662
v -27.664427 6.169413 -32.862530
v -27.664427 6.720728 -32.862530
v -27.671036 6.654787 -46.607662
v -26.436481 5.223707 -32.862530
v -26.436481 6.720728 -32.862530
v -26.443092 6.654787 -46.607662
v -26.443092 5.237197 -46.607662
v -22.183952 4.294150 -32.862530
v -22.183952 4.294150 -46.607662
v -25.215147 4.294150 -46.607662
v -25.208538 4.294150 -32.862530
v -25.822510 4.777952 -32.862530
v -25.822510 6.720728 -32.862530
v -33.130985 6.145929 -39.735096
v -27.628798 6.198695 -39.735096
v -33.130985 6.375190 -39.735096
v -33.130985 5.537385 -37.123520
v -27.628798 6.171651 -37.123520
v -33.130985 -3.072794 -37.123520
v -33.130985 4.294150 -37.123520
v -33.130985 -3.072794 -42.140495
v -33.130985 4.294150 -42.140495
v -33.130985 5.585427 -42.140495
v -27.628798 6.223604 -42.140495
vn -0.0000 -0.0000 1.0000
vn -0.0000 -0.8217 -0.5699
vn -1.0000 -0.0000 -0.0000
vn -0.0000 0.8217 0.5699
vn 1.0000 -0.0000 -0.0000
vn -0.0000 -0.0000 -1.0000
vn -0.0000 1.0000 -0.0000
vn -0.0000 -0.9951 0.0989
vn -0.0000 -1.0000 -0.0000
vn -0.0000 -0.8217 0.5699
vn -0.0000 0.8217 -0.5699
vn -0.0000 -0.9951 -0.0989
vn 0.6032 0.7976 -0.0000
vn -0.6032 0.7976 -0.0000
vn 0.5699 -0.8217 -0.0000
vn -0.5699 0.8217 -0.0000
vn -0.0989 -0.9951 -0.0000
vn -0.5699 -0.8217 -0.0000
vn 0.5699 0.8217 -0.0000
vn 0.0989 -0.9951 -0.0000
vn -0.0000 0.7976 -0.6032
vn -0.0000 0.7976 0.6032
vn 1.0000 -0.0001 -0.0000
vn 0.2088 -0.9720 0.1082
vn -0.2879 -0.9576 -0.0050
vn 0.0619 -0.9908 -0.1206
vn 0.1961 -0.9734 -0.1184
vn 0.0623 -0.9919 0.1104
vt 0.375000 0.000000
vt 0.625000 0.000000
vt 0.625000 0.250000
vt 0.375000 0.250000
vt 0.608854 0.277144
vt 0.611003 0.472856
vt 0.611003 0.472856
vt 0.375000 0.750000
vt 0.375000 1.000000
vt 0.625000 0.500000
vt 0.875000 0.500000
vt 0.875000 0.750000
vt 0.625000 0.750000
vt 0.389297 0.972856
vt 0.608854 0.972856
vt 0.625000 1.000000
vt 0.389297 0.277144
vt 0.387218 0.472856
vt 0.375000 0.500000
vt 0.611003 0.777144
vt 0.592444 0.750000
vt 0.387218 0.777144
vt 0.389297 0.277144
vt 0.591783 0.500000
vt 0.125000 0.500000
vt 0.125000 0.750000
vt 0.000000 0.000000
vt 0.215115 0.000000
vt 1.000000 0.000000
vt 1.000000 1.000000
vt 0.215115 1.000000
vt 0.000000 1.000000
vt 0.032865 0.675000
vt 1.000000 0.675000
vt 0.032865 1.000000
vt 0.000000 0.675000
vt 0.000000 0.675000
vt 0.032865 0.000000
vt 0.000000 0.310000
vt 0.032865 0.310000
vt 0.032865 0.500000
vt 0.000000 0.500000
vt 0.000000 0.310000
vt 1.000000 0.310000
s 0
usemtl Material.023
f 9/1/1 10/2/1 11/3/1 12/4/1
f 4/5/2 8/6/2 18/7/2 17/5/2
f 16/8/3 9/9/3 26/9/3 28/8/3
f 14/10/4 11/11/4 10/12/4 15/13/4
f 1/14/5 2/15/5 10/16/5 9/9/5
f 4/5/3 3/17/3 12/4/3 11/3/3
f 3/17/5 7/18/5 13/19/5 12/4/5
f 8/6/3 4/5/3 11/3/3 14/10/3
f 6/20/5 21/21/5 15/13/5
f 5/22/3 1/14/3 9/9/3 16/8/3
f 2/15/5 6/20/5 15/13/5 10/16/5
f 3/17/6 4/5/6 17/5/6 20/23/6
f 7/18/7 3/17/7 20/23/7 19/18/7
f 22/24/3 8/6/3 14/10/3
f 18/7/8 8/6/8 23/6/8 24/7/8
f 25/25/9 27/19/9 28/8/9 26/26/9
f 13/27/1 16/27/1 28/27/1 27/27/1
f 12/4/5 13/19/5 27/19/5 25/4/5
f 9/1/6 12/4/6 25/4/6 26/1/6
f 37/1/6 40/4/6 39/3/6 38/2/6
f 32/5/10 45/5/10 46/7/10 36/6/10
f 44/8/3 56/8/3 54/9/3 37/9/3
f 42/10/11 43/13/11 38/12/11 39/11/11
f 29/14/5 37/9/5 38/16/5 30/15/5
f 32/5/3 39/3/3 40/4/3 31/17/3
f 31/17/5 40/4/5 41/19/5 35/18/5
f 36/6/3 42/10/3 39/3/3 32/5/3
f 34/20/5 43/13/5 49/21/5
f 33/22/3 44/8/3 37/9/3 29/14/3
f 30/15/5 38/16/5 43/13/5 34/20/5
f 31/17/1 48/23/1 45/5/1 32/5/1
f 35/18/7 47/18/7 48/23/7 31/17/7
f 50/24/3 42/10/3 36/6/3
f 46/7/12 52/7/12 51/6/12 36/6/12
f 53/25/9 54/26/9 56/8/9 55/19/9
f 41/27/6 55/27/6 56/27/6 44/27/6
f 40/4/5 53/4/5 55/19/5 41/19/5
f 37/1/1 54/1/1 53/4/1 40/4/1
usemtl 
f 61/28/5 58/29/5 60/30/5 62/31/5
f 57/27/13 61/28/13 62/31/13 59/32/13
f 67/28/3 68/31/3 66/30/3 64/29/3
f 63/27/14 65/32/14 68/31/14 67/28/14
f 73/28/5 74/31/5 72/30/5 70/29/5
f 69/27/13 71/32/13 74/31/13 73/28/13
f 79/28/3 76/29/3 78/30/3 80/31/3
f 75/27/14 79/28/14 80/31/14 77/32/14
f 81/27/7 82/29/7 84/30/7 83/32/7
f 257/28/6 254/29/6 256/30/6 258/31/6
f 253/27/21 257/28/21 258/31/21 255/32/21
f 263/28/1 264/31/1 262/30/1 260/29/1
f 259/27/22 261/32/22 264/31/22 263/28/22
f 441/33/5 440/34/5 380/30/5 400/35/5
f 442/36/24 379/32/24 382/32/24 443/37/24
f 400/35/1 380/30/1 384/30/1 401/35/1
f 399/38/6 377/27/6 385/27/6 402/38/6
f 385/27/6 377/27/6 387/27/6 388/27/6
f 379/32/1 383/32/1 390/32/1 389/32/1
f 397/32/1 398/32/1 391/32/1 394/32/1
f 395/27/6 396/27/6 393/27/6 392/27/6
f 403/27/6 404/27/6 396/27/6 395/27/6
f 390/32/1 383/32/1 398/32/1 397/32/1
f 378/29/6 399/38/6 402/38/6 386/29/6
f 379/32/1 400/35/1 401/35/1 383/32/1
f 442/36/5 441/33/5 400/35/5 379/32/5
f 385/27/6 388/27/6 404/27/6 403/27/6
f 427/38/3 428/35/3 408/30/3 406/29/3
f 405/27/25 409/27/25 410/32/25 407/32/25
f 428/35/1 429/35/1 412/30/1 408/30/1
f 427/38/6 430/38/6 413/27/6 405/27/6
f 413/27/6 416/27/6 415/27/6 405/27/6
f 407/32/1 417/32/1 418/32/1 411/32/1
f 425/32/1 422/32/1 419/32/1 426/32/1
f 423/27/6 420/27/6 421/27/6 424/27/6
f 431/27/6 423/27/6 424/27/6 432/27/6
f 418/32/1 425/32/1 426/32/1 411/32/1
f 406/29/6 414/29/6 430/38/6 427/38/6
f 407/32/1 411/32/1 429/35/1 428/35/1
f 405/27/3 407/32/3 428/35/3 427/38/3
f 413/27/6 431/27/6 432/27/6 416/27/6
f 436/39/5 439/40/5 435/41/5 433/42/5
f 436/39/26 433/42/26 434/42/26 437/43/26
f 399/38/5 378/29/5 438/44/5 439/40/5
f 377/27/27 436/39/27 437/43/27 381/27/27
f 377/27/5 399/38/5 439/40/5 436/39/5
f 433/42/5 435/41/5 441/33/5 442/36/5
f 433/42/28 442/36/28 443/37/28 434/42/28
usemtl Material.024
f 93/1/3 94/2/3 95/3/3 96/4/3
f 88/5/15 92/6/15 102/7/15 101/5/15
f 100/8/6 93/9/6 110/9/6 112/8/6
f 98/10/16 95/11/16 94/12/16 99/13/16
f 85/14/1 86/15/1 94/16/1 93/9/1
f 88/5/6 87/17/6 96/4/6 95/3/6
f 87/17/1 91/18/1 97/19/1 96/4/1
f 92/6/6 88/5/6 95/3/6 98/10/6
f 90/20/1 105/21/1 99/13/1
f 89/22/6 85/14/6 93/9/6 100/8/6
f 86/15/1 90/20/1 99/13/1 94/16/1
f 87/17/5 88/5/5 101/5/5 104/23/5
f 91/18/7 87/17/7 104/23/7 103/18/7
f 106/24/6 92/6/6 98/10/6
f 102/7/17 92/6/17 107/6/17 108/7/17
f 109/25/9 111/19/9 112/8/9 110/26/9
f 97/27/3 100/27/3 112/27/3 111/27/3
f 96/4/1 97/19/1 111/19/1 109/4/1
f 93/1/5 96/4/5 109/4/5 110/1/5
f 121/1/5 124/4/5 123/3/5 122/2/5
f 116/5/18 129/5/18 130/7/18 120/6/18
f 128/8/6 140/8/6 138/9/6 121/9/6
f 126/10/19 127/13/19 122/12/19 123/11/19
f 113/14/1 121/9/1 122/16/1 114/15/1
f 116/5/6 123/3/6 124/4/6 115/17/6
f 115/17/1 124/4/1 125/19/1 119/18/1
f 120/6/6 126/10/6 123/3/6 116/5/6
f 118/20/1 127/13/1 133/21/1
f 117/22/6 128/8/6 121/9/6 113/14/6
f 114/15/1 122/16/1 127/13/1 118/20/1
f 115/17/3 132/23/3 129/5/3 116/5/3
f 119/18/7 131/18/7 132/23/7 115/17/7
f 134/24/6 126/10/6 120/6/6
f 130/7/20 136/7/20 135/6/20 120/6/20
f 137/25/9 138/26/9 140/8/9 139/19/9
f 125/27/5 139/27/5 140/27/5 128/27/5
f 124/4/1 137/4/1 139/19/1 125/19/1
f 121/1/3 138/1/3 137/4/3 124/4/3
usemtl Material.025
f 149/1/3 150/2/3 151/3/3 152/4/3
f 144/5/15 148/6/15 158/7/15 157/5/15
f 156/8/6 149/9/6 166/9/6 168/8/6
f 154/10/16 151/11/16 150/12/16 155/13/16
f 141/14/1 142/15/1 150/16/1 149/9/1
f 144/5/6 143/17/6 152/4/6 151/3/6
f 143/17/1 147/18/1 153/19/1 152/4/1
f 148/6/6 144/5/6 151/3/6 154/10/6
f 146/20/1 161/21/1 155/13/1
f 145/22/6 141/14/6 149/9/6 156/8/6
f 142/15/1 146/20/1 155/13/1 150/16/1
f 143/17/5 144/5/5 157/5/5 160/23/5
f 147/18/7 143/17/7 160/23/7 159/18/7
f 162/24/6 148/6/6 154/10/6
f 158/7/17 148/6/17 163/6/17 164/7/17
f 165/25/9 167/19/9 168/8/9 166/26/9
f 153/27/3 156/27/3 168/27/3 167/27/3
f 152/4/1 153/19/1 167/19/1 165/4/1
f 149/1/5 152/4/5 165/4/5 166/1/5
f 177/1/5 180/4/5 179/3/5 178/2/5
f 172/5/18 185/5/18 186/7/18 176/6/18
f 184/8/6 196/8/6 194/9/6 177/9/6
f 182/10/19 183/13/19 178/12/19 179/11/19
f 169/14/1 177/9/1 178/16/1 170/15/1
f 172/5/6 179/3/6 180/4/6 171/17/6
f 171/17/1 180/4/1 181/19/1 175/18/1
f 176/6/6 182/10/6 179/3/6 172/5/6
f 174/20/1 183/13/1 189/21/1
f 173/22/6 184/8/6 177/9/6 169/14/6
f 170/15/1 178/16/1 183/13/1 174/20/1
f 171/17/3 188/23/3 185/5/3 172/5/3
f 175/18/7 187/18/7 188/23/7 171/17/7
f 190/24/6 182/10/6 176/6/6
f 186/7/20 192/7/20 191/6/20 176/6/20
f 193/25/9 194/26/9 196/8/9 195/19/9
f 181/27/5 195/27/5 196/27/5 184/27/5
f 180/4/1 193/4/1 195/19/1 181/19/1
f 177/1/3 194/1/3 193/4/3 180/4/3
usemtl Material.026
f 205/1/3 206/2/3 207/3/3 208/4/3
f 200/5/15 204/6/15 214/7/15 213/5/15
f 212/8/6 205/9/6 222/9/6 224/8/6
f 210/10/16 207/11/16 206/12/16 211/13/16
f 197/14/1 198/15/1 206/16/1 205/9/1
f 200/5/6 199/17/6 208/4/6 207/3/6
f 199/17/1 203/18/1 209/19/1 208/4/1
f 204/6/6 200/5/6 207/3/6 210/10/6
f 202/20/1 217/21/1 211/13/1
f 201/22/6 197/14/6 205/9/6 212/8/6
f 198/15/1 202/20/1 211/13/1 206/16/1
f 199/17/5 200/5/5 213/5/5 216/23/5
f 203/18/7 199/17/7 216/23/7 215/18/7
f 218/24/6 204/6/6 210/10/6
f 214/7/17 204/6/17 219/6/17 220/7/17
f 221/25/9 223/19/9 224/8/9 222/26/9
f 209/27/3 212/27/3 224/27/3 223/27/3
f 208/4/1 209/19/1 223/19/1 221/4/1
f 205/1/5 208/4/5 221/4/5 222/1/5
f 233/1/5 236/4/5 235/3/5 234/2/5
f 228/5/18 241/5/18 242/7/18 232/6/18
f 240/8/6 252/8/6 250/9/6 233/9/6
f 238/10/19 239/13/19 234/12/19 235/11/19
f 225/14/1 233/9/1 234/16/1 226/15/1
f 228/5/6 235/3/6 236/4/6 227/17/6
f 227/17/1 236/4/1 237/19/1 231/18/1
f 232/6/6 238/10/6 235/3/6 228/5/6
f 230/20/1 239/13/1 245/21/1
f 229/22/6 240/8/6 233/9/6 225/14/6
f 226/15/1 234/16/1 239/13/1 230/20/1
f 227/17/3 244/23/3 241/5/3 228/5/3
f 231/18/7 243/18/7 244/23/7 227/17/7
f 246/24/6 238/10/6 232/6/6
f 242/7/20 248/7/20 247/6/20 232/6/20
f 249/25/9 250/26/9 252/8/9 251/19/9
f 237/27/5 251/27/5 252/27/5 240/27/5
f 236/4/1 249/4/1 251/19/1 237/19/1
f 233/1/3 250/1/3 249/4/3 236/4/3
usemtl Material.027
f 273/1/3 274/2/3 275/3/3 276/4/3
f 268/5/15 272/6/15 282/7/15 281/5/15
f 280/8/6 273/9/6 290/9/6 292/8/6
f 278/10/16 275/11/16 274/12/16 279/13/16
f 265/14/1 266/15/1 274/16/1 273/9/1
f 268/5/6 267/17/6 276/4/6 275/3/6
f 267/17/1 271/18/1 277/19/1 276/4/1
f 272/6/6 268/5/6 275/3/6 278/10/6
f 270/20/1 285/21/1 279/13/1
f 269/22/6 265/14/6 273/9/6 280/8/6
f 266/15/1 270/20/1 279/13/1 274/16/1
f 267/17/5 268/5/5 281/5/5 284/23/5
f 271/18/7 267/17/7 284/23/7 283/18/7
f 286/24/6 272/6/6 278/10/6
f 282/7/17 272/6/17 287/6/17 288/7/17
f 289/25/9 291/19/9 292/8/9 290/26/9
f 277/27/3 280/27/3 292/27/3 291/27/3
f 276/4/1 277/19/1 291/19/1 289/4/1
f 273/1/5 276/4/5 289/4/5 290/1/5
f 301/1/5 304/4/5 303/3/5 302/2/5
f 296/5/18 309/5/18 310/7/18 300/6/18
f 308/8/6 320/8/6 318/9/6 301/9/6
f 306/10/19 307/13/19 302/12/19 303/11/19
f 293/14/1 301/9/1 302/16/1 294/15/1
f 296/5/6 303/3/6 304/4/6 295/17/6
f 295/17/1 304/4/1 305/19/1 299/18/1
f 300/6/6 306/10/6 303/3/6 296/5/6
f 298/20/1 307/13/1 313/21/1
f 297/22/6 308/8/6 301/9/6 293/14/6
f 294/15/1 302/16/1 307/13/1 298/20/1
f 295/17/3 312/23/3 309/5/3 296/5/3
f 299/18/7 311/18/7 312/23/7 295/17/7
f 314/24/6 306/10/6 300/6/6
f 310/7/20 316/7/20 315/6/20 300/6/20
f 317/25/9 318/26/9 320/8/9 319/19/9
f 305/27/5 319/27/5 320/27/5 308/27/5
f 304/4/1 317/4/1 319/19/1 305/19/1
f 301/1/3 318/1/3 317/4/3 304/4/3
usemtl Material.028
f 329/1/1 330/2/1 331/3/1 332/4/1
f 324/5/2 328/6/2 338/7/2 337/5/2
f 336/8/3 329/9/3 346/9/3 348/8/3
f 334/10/4 331/11/4 330/12/4 335/13/4
f 321/14/5 322/15/5 330/16/5 329/9/5
f 324/5/3 323/17/3 332/4/3 331/3/3
f 323/17/23 327/18/23 333/19/23 332/4/23
f 328/6/3 324/5/3 331/3/3 334/10/3
f 326/20/5 341/21/5 335/13/5
f 325/22/3 321/14/3 329/9/3 336/8/3
f 322/15/5 326/20/5 335/13/5 330/16/5
f 323/17/6 324/5/6 337/5/6 340/23/6
f 327/18/7 323/17/7 340/23/7 339/18/7
f 342/24/3 328/6/3 334/10/3
f 338/7/8 328/6/8 343/6/8 344/7/8
f 345/25/9 347/19/9 348/8/9 346/26/9
f 333/27/1 336/27/1 348/27/1 347/27/1
f 332/4/5 333/19/5 347/19/5 345/4/5
f 329/1/6 332/4/6 345/4/6 346/1/6
f 357/1/6 360/4/6 359/3/6 358/2/6
f 352/5/10 365/5/10 366/7/10 356/6/10
f 364/8/3 376/8/3 374/9/3 357/9/3
f 362/10/11 363/13/11 358/12/11 359/11/11
f 349/14/5 357/9/5 358/16/5 350/15/5
f 352/5/3 359/3/3 360/4/3 351/17/3
f 351/17/23 360/4/23 361/19/23 355/18/23
f 356/6/3 362/10/3 359/3/3 352/5/3
f 354/20/5 363/13/5 369/21/5
f 353/22/3 364/8/3 357/9/3 349/14/3
f 350/15/5 358/16/5 363/13/5 354/20/5
f 351/17/1 368/23/1 365/5/1 352/5/1
f 355/18/7 367/18/7 368/23/7 351/17/7
f 370/24/3 362/10/3 356/6/3
f 366/7/12 372/7/12 371/6/12 356/6/12
f 373/25/9 374/26/9 376/8/9 375/19/9
f 361/27/6 375/27/6 376/27/6 364/27/6
f 360/4/5 373/4/5 375/19/5 361/19/5
f 357/1/1 374/1/1 373/4/1 360/4/1
