# Blender 4.4.3
# www.blender.org
mtllib staircase.mtl
o spiral_stairs
v -2.102875 -0.002897 11.199175
v -2.102875 4.053425 11.192212
v -2.102875 -0.002897 10.652149
v -2.102875 4.053425 10.652149
v 0.000000 -0.002897 11.199175
v 0.000000 5.442758 11.199175
v 0.000000 -0.002897 10.652149
v 0.000000 5.430130 10.652148
v -2.380737 0.002832 11.199175
v -2.380737 4.482463 11.199175
v -2.380737 4.482463 10.652149
v 0.000000 6.257175 10.652149
v 0.000000 6.257175 11.199175
v 0.000000 0.002832 11.199175
v 0.000000 5.442758 11.185249
v 0.000000 5.411149 11.199175
v 0.000000 5.415149 11.185249
v 2.431305 -0.002897 11.199175
v 2.431305 4.053425 11.192212
v 2.431305 -0.002897 10.652149
v 2.431305 4.053425 10.652149
v 0.000000 -0.002897 11.199175
v 0.000000 5.442758 11.199175
v 2.709160 0.002832 11.199175
v 2.709160 4.482463 11.199175
v 2.709160 4.482463 10.652149
v 0.000000 6.257175 10.652149
v 0.000000 6.257175 11.199175
v 0.000000 0.002832 11.199175
v 0.000000 5.442758 11.185249
v 0.000000 5.411149 11.199175
v 0.000000 5.415149 11.185249
v -2.102875 12.115579 -10.795014
v -2.102875 16.215921 -10.794811
v -2.102875 12.115579 -11.342042
v -2.102875 16.171902 -11.342042
v 0.000000 12.115579 -10.795014
v 0.000000 17.546429 -10.801978
v 0.000000 12.115579 -11.342042
v 0.000000 17.561234 -11.342042
v -2.414449 12.117490 -10.799657
v -2.380737 16.600939 -10.795014
v -2.380737 16.600939 -11.342042
v -2.380737 12.121308 -11.342042
v 0.000000 12.121308 -11.342042
v 0.000000 18.375650 -11.342042
v 0.000000 18.375650 -10.795014
v 0.000000 12.121308 -10.795014
v 0.000000 12.115579 -10.808942
v -2.102875 12.115579 -10.808942
v 0.000000 17.544643 -11.342042
v 0.000000 17.533623 -11.342042
v -2.380737 12.207615 -11.342042
v -2.406021 12.205615 -10.791329
v 0.000000 12.207615 -11.342042
v 0.000000 12.207615 -10.795014
v 2.431305 12.115579 -10.795014
v 2.431305 16.201248 -10.797200
v 2.431305 12.115579 -11.342042
v 2.431305 16.171902 -11.342042
v 0.000000 12.115579 -10.795014
v 0.000000 12.115579 -11.342042
v 0.000000 17.561234 -11.342042
v 2.709160 12.121308 -10.795014
v 2.709160 16.600939 -10.795014
v 2.709160 16.600939 -11.342042
v 2.709160 12.121308 -11.342042
v 0.000000 12.121308 -11.342042
v 0.000000 18.375650 -11.342042
v 0.000000 18.375650 -10.795014
v 0.000000 12.121308 -10.795014
v 0.000000 12.115579 -10.808942
v 2.431305 12.115579 -10.808942
v 0.000000 17.544643 -11.342042
v 0.000000 17.533623 -11.342042
v 2.709160 12.207615 -11.342042
v 2.709160 12.207615 -10.795014
v 0.000000 12.207615 -11.342042
v 0.000000 12.207615 -10.795014
v -2.102875 4.053425 10.652149
v 2.431305 -0.002897 10.652149
v 2.431305 4.053425 10.652149
v -2.102875 4.053425 10.652149
v 2.431305 -0.002897 10.652149
v 2.431305 4.053425 10.652149
v -2.102875 12.203616 -10.787644
v 0.000000 12.203616 -10.787644
v 0.000000 17.638224 -10.787644
v 2.406021 12.205615 -10.791329
v 2.102875 -0.002897 11.199175
v 2.102875 4.053425 11.192212
v 2.102875 -0.002897 10.652149
v 2.102875 4.053425 10.652149
v 2.380737 0.002832 11.199175
v 2.380737 4.482463 11.199175
v 2.380737 4.482463 10.652149
v -2.431305 -0.002897 11.199175
v -2.431305 4.053425 11.192212
v -2.431305 -0.002897 10.652149
v -2.431305 4.053425 10.652149
v -2.709160 0.002832 11.199175
v -2.709160 4.482463 11.199175
v -2.709160 4.482463 10.652149
v 2.102875 12.115579 -10.795014
v 2.102875 16.201248 -10.797200
v 2.102875 12.115579 -11.342042
v 2.102875 16.171902 -11.342042
v 2.380737 12.121308 -10.795014
v 2.380737 16.600939 -10.795014
v 2.380737 16.600939 -11.342042
v 2.380737 12.121308 -11.342042
v 2.102875 12.115579 -10.808942
v 2.380737 12.207615 -11.342042
v -2.431305 16.215921 -10.794811
v -2.431305 12.115579 -11.342042
v -2.431305 16.171902 -11.342042
v -2.709160 12.121308 -10.795014
v -2.709160 16.600939 -10.795014
v -2.709160 16.600939 -11.342042
v -2.709160 12.121308 -11.342042
v -2.709160 12.207615 -11.342042
v -2.709160 12.207615 -10.795014
v 2.102875 4.053425 10.652149
v -2.431305 -0.002897 10.652149
v -2.431305 4.053425 10.652149
v 2.102875 4.053425 10.652149
v -2.431305 -0.002897 10.652149
v -2.431305 4.053425 10.652149
v 2.102875 12.203616 -10.787644
vn 0.5512 -0.8344 -0.0000
vn 0.5512 -0.8343 -0.0000
vn -0.5977 0.8017 -0.0000
vn -0.0000 -0.0000 1.0000
vn -0.0000 -0.0000 -1.0000
vn -0.0002 0.0004 1.0000
vn -0.0015 -0.0002 1.0000
vn -0.0010 0.0001 1.0000
vn -0.0004 0.0004 1.0000
vn -1.0000 -0.0000 -0.0000
vn -0.4961 -0.8682 -0.0000
vn 1.0000 -0.0000 -0.0000
vn 0.5480 0.8365 -0.0000
vn 0.0005 0.0004 1.0000
vn 0.0004 0.0004 1.0000
vn 0.0010 0.0002 1.0000
vn 0.0016 -0.0002 1.0000
vn 0.0001 -0.0000 -1.0000
vn -0.0001 -0.0000 1.0000
vn -0.0000 1.0000 -0.0000
vn -0.0000 -1.0000 -0.0000
vn 1.0000 0.0001 -0.0000
vn 0.0003 0.0001 1.0000
vn 0.0001 1.0000 0.0003
vn -0.4979 0.7536 0.4291
vn -0.4979 0.7537 0.4291
vn -0.0000 0.8690 0.4948
vn -0.0000 -0.8690 -0.4948
vn 0.4447 0.7784 0.4431
vn 0.4448 0.7784 0.4431
vn -0.5512 -0.8344 -0.0000
vn -0.5512 -0.8343 -0.0000
vn 0.5977 0.8017 -0.0000
vn 0.0003 0.0004 1.0000
vn 0.0010 0.0001 1.0000
vn 0.0014 -0.0003 1.0000
vn 0.4961 -0.8682 -0.0000
vn -0.5480 0.8365 -0.0000
vn -0.0005 0.0004 1.0000
vn -0.0016 -0.0002 1.0000
vn -0.0010 0.0002 1.0000
vn -1.0000 0.0004 0.0001
vn -1.0000 0.0003 0.0001
vn -1.0000 0.0003 -0.0000
vn 0.4961 -0.8683 -0.0000
vn 0.0002 -0.0000 1.0000
vn -0.0003 0.0001 1.0000
vn -0.0000 -0.0001 -1.0000
vn 0.0011 -0.0001 -1.0000
vn -0.0002 1.0000 0.0005
vn -0.0000 1.0000 -0.0001
vn 0.4980 0.7536 0.4291
vn 0.4980 0.7536 0.4290
vn -0.4448 0.7783 0.4431
vn -0.4447 0.7784 0.4431
vt 0.608854 0.277144
vt 0.611003 0.472856
vt 0.625000 0.500000
vt 0.875000 0.500000
vt 0.875000 0.750000
vt 0.625000 0.750000
vt 0.389297 0.972856
vt 0.608854 0.972856
vt 0.625000 1.000000
vt 0.375000 1.000000
vt 0.625000 0.250000
vt 0.611003 0.777144
vt 0.592444 0.750000
vt 0.387218 0.777144
vt 0.375000 0.750000
vt 0.000000 0.000000
vt 0.375000 0.000000
vt 0.625000 0.000000
vt 0.375000 0.250000
vt 0.389297 0.277144
vt 0.387218 0.472856
vt 0.375000 0.500000
vt 0.591783 0.500000
vt 0.125000 0.500000
vt 0.125000 0.750000
s 0
usemtl Material.001
f 3/16/20 1/16/20 18/16/20 20/16/20
f 3/16/4 20/16/4 81/16/4
f 3/16/4 81/16/4 84/16/4
f 3/16/27 84/16/27 89/16/27 86/16/27
f 7/16/28 3/16/28 86/16/28 87/16/28
f 92/16/20 99/16/20 97/16/20 90/16/20
f 92/16/4 124/16/4 99/16/4
f 92/16/4 127/16/4 124/16/4
f 92/16/27 129/16/27 54/16/27 127/16/27
f 7/16/28 87/16/28 129/16/28 92/16/28
usemtl Material.035
f 4/1/1 8/2/2 15/2/2 2/1/2
f 12/3/3 11/4/3 10/5/3 13/6/3
f 1/7/4 2/8/4 10/9/4 9/10/4
f 8/2/5 4/1/5 11/11/5 12/3/5
f 6/12/4 16/13/4 13/6/4
f 5/14/5 1/7/5 9/10/5 14/15/5
f 2/8/6 6/12/7 13/6/8 10/9/9
f 15/2/10 8/2/10 17/2/10
f 21/1/11 19/1/11 30/2/11 8/2/11
f 3/16/12 4/1/12 2/1/12 1/16/12
f 27/3/13 28/6/13 25/5/13 26/4/13
f 18/7/4 24/10/4 25/9/4 19/8/4
f 21/16/10 20/16/10 18/16/10 19/8/10
f 8/2/5 27/3/5 26/11/5 21/1/5
f 23/12/4 28/6/4 31/13/4
f 22/14/5 29/15/5 24/10/5 18/7/5
f 19/8/14 25/9/15 28/6/16 23/12/17
f 30/2/12 32/2/12 8/2/12
f 20/16/4 21/16/4 82/16/4 81/16/4
f 8/2/4 21/1/4 82/1/4
f 4/1/4 8/2/4 80/1/4
f 4/1/4 3/16/4 80/1/4
f 8/2/4 82/1/4 85/1/4
f 81/16/4 82/16/4 85/16/4 84/16/4
f 80/1/4 8/2/4 83/1/4
f 80/1/4 3/16/4 83/1/4
f 84/16/10 85/16/10 58/16/10 89/16/10
f 83/1/25 8/2/26 88/2/25 34/1/25
f 83/1/12 3/16/12 86/16/12 34/1/12
f 8/2/29 85/1/29 58/1/30 88/2/29
f 93/1/31 91/1/32 15/2/31 8/2/32
f 12/3/33 13/6/33 95/5/33 96/4/33
f 90/7/4 94/10/4 95/9/4 91/8/4
f 8/2/5 12/3/5 96/11/5 93/1/5
f 5/14/5 14/15/5 94/10/5 90/7/5
f 91/8/34 95/9/15 13/6/35 6/12/36
f 100/1/37 8/2/37 30/2/37 98/1/37
f 92/16/10 90/16/10 91/1/10 93/1/10
f 27/3/38 103/4/38 102/5/38 28/6/38
f 97/7/4 98/8/4 102/9/4 101/10/4
f 100/16/12 98/8/12 97/16/12 99/16/12
f 8/2/5 100/1/5 103/11/5 27/3/5
f 22/14/5 97/7/5 101/10/5 29/15/5
f 98/8/39 23/12/40 28/6/41 102/9/9
f 99/16/4 124/16/4 125/16/4 100/16/4
f 8/2/4 125/1/4 100/1/4
f 93/1/4 123/1/4 8/2/4
f 93/1/4 123/1/4 92/16/4
f 8/2/4 128/1/4 125/1/4
f 124/16/4 127/16/4 128/16/4 125/16/4
f 123/1/4 126/1/4 8/2/4
f 123/1/4 126/1/4 92/16/4
f 127/16/12 54/16/12 114/16/12 128/16/12
f 126/1/52 105/1/52 88/2/53 8/2/52
f 126/1/10 105/1/10 129/16/10 92/16/10
f 8/2/54 88/2/55 114/1/55 128/1/55
usemtl Material.037
f 41/17/10 42/18/10 43/11/10 44/19/10
f 36/1/1 40/2/1 38/2/2 34/1/2
f 48/15/5 41/10/5 54/10/5 56/15/18
f 46/3/3 43/4/3 42/5/3 47/6/3
f 33/7/4 34/8/19 42/9/4 41/10/4
f 36/1/5 35/20/5 44/19/5 43/11/5
f 35/20/4 39/21/4 45/22/4 44/19/4
f 40/2/5 36/1/5 43/11/5 46/3/5
f 37/14/5 33/7/5 41/10/5 48/15/5
f 34/8/4 38/12/4 47/6/4 42/9/4
f 35/20/12 36/1/12 34/1/12 50/20/12
f 39/21/20 35/20/20 50/20/20 49/21/20
f 51/23/4 40/2/4 46/3/4
f 38/2/10 40/2/10 52/2/10
f 53/24/21 55/22/21 56/15/21 54/25/21
f 45/16/10 48/16/10 56/16/10 55/16/10
f 44/19/4 45/22/4 55/22/4 53/19/4
f 41/17/22 44/19/12 53/19/12 54/17/12
f 64/17/12 67/19/12 66/11/12 65/18/12
f 60/1/11 58/1/11 38/2/11 63/2/11
f 71/15/5 79/15/5 77/10/5 64/10/5
f 69/3/13 70/6/13 65/5/13 66/4/13
f 57/7/4 64/10/4 65/9/4 58/8/4
f 60/1/5 66/11/5 67/19/5 59/20/5
f 59/20/4 67/19/4 68/22/4 62/21/23
f 63/2/5 69/3/5 66/11/5 60/1/5
f 61/14/5 71/15/5 64/10/5 57/7/5
f 58/8/4 65/9/4 70/6/4 38/12/4
f 59/20/10 73/20/10 58/1/10 60/1/10
f 62/21/24 72/21/20 73/20/20 59/20/20
f 74/23/4 69/3/4 63/2/4
f 38/2/12 75/2/12 63/2/12
f 76/24/21 77/25/21 79/15/21 78/22/21
f 68/16/12 78/16/12 79/16/12 71/16/12
f 67/19/4 76/19/4 78/22/4 68/22/4
f 64/17/10 77/17/10 76/19/10 67/19/10
f 108/17/12 111/19/12 110/11/12 109/18/12
f 107/1/32 105/1/31 38/2/32 40/2/31
f 48/15/5 56/15/5 89/10/5 108/10/5
f 46/3/33 47/6/33 109/5/33 110/4/33
f 104/7/4 108/10/4 109/9/4 105/8/4
f 107/1/5 110/11/5 111/19/5 106/20/5
f 106/20/4 111/19/4 45/22/4 39/21/4
f 40/2/5 46/3/5 110/11/5 107/1/5
f 37/14/5 48/15/5 108/10/5 104/7/5
f 105/8/4 109/9/4 47/6/4 38/12/4
f 106/20/10 112/20/10 105/1/10 107/1/10
f 39/21/20 49/21/20 112/20/20 106/20/20
f 113/24/21 89/25/21 56/15/21 55/22/21
f 111/19/4 113/19/4 55/22/4 45/22/4
f 108/17/42 89/17/43 113/19/44 111/19/43
f 117/17/10 118/18/10 119/11/10 120/19/10
f 116/1/37 63/2/37 38/2/37 114/1/45
f 71/15/5 117/10/5 122/10/5 79/15/5
f 69/3/38 119/4/38 118/5/38 70/6/38
f 41/7/46 114/8/46 118/9/46 117/10/46
f 116/1/5 115/20/5 120/19/5 119/11/5
f 115/20/4 62/21/47 68/22/4 120/19/4
f 63/2/5 116/1/5 119/11/5 69/3/5
f 61/14/48 41/7/48 117/10/48 71/15/49
f 114/8/4 38/12/4 70/6/4 118/9/4
f 115/20/12 116/1/12 114/1/12 41/20/12
f 62/21/50 115/20/51 41/20/20 72/21/51
f 121/24/21 78/22/21 79/15/21 122/25/21
f 120/19/4 68/22/4 78/22/4 121/19/4
f 117/17/12 120/19/12 121/19/12 122/17/12
l 99 7
l 20 7
