# Blender 4.5.3 LTS
# www.blender.org
mtllib turn_hall.mtl
o turn_hall
v -112.115295 -0.002895 -10.781601
v -112.115295 4.053428 -10.781601
v -112.115295 -0.002895 -11.328627
v -112.115295 4.053428 -11.328627
v -110.111862 -0.002895 -10.781601
v -110.111862 5.442761 -10.781601
v -110.111862 -0.002895 -11.328627
v -110.111862 5.442761 -11.328627
v -112.393158 0.002835 -10.781601
v -112.393158 4.482465 -10.781601
v -112.393158 4.482465 -11.328627
v -112.393158 0.002835 -11.328627
v -109.834000 0.002835 -11.328627
v -109.834000 6.257178 -11.328627
v -109.834000 6.257178 -10.781601
v -109.834000 0.002835 -10.781601
v -112.115295 4.053428 -10.795527
v -110.111862 5.442761 -10.795527
v -110.111862 -0.002895 -10.795527
v -112.115295 -0.002895 -10.795527
v -109.834000 5.411151 -10.781601
v -109.834000 5.426171 -11.328627
v -109.834099 5.415151 -11.328627
v -109.834099 5.415151 -10.795527
v -112.393158 0.089141 -11.328627
v -112.393158 0.089141 -10.781601
v -109.834000 0.089141 -11.328627
v -109.834000 0.089141 -10.781601
v -107.581116 -0.002895 -10.781601
v -107.581116 4.053428 -10.781601
v -107.581116 -0.002895 -11.328627
v -107.581116 4.053428 -11.328627
v -109.584549 -0.002895 -10.781601
v -109.584549 5.442761 -10.781601
v -109.584549 -0.002895 -11.328627
v -109.584549 5.442761 -11.328627
v -107.303253 0.002835 -10.781601
v -107.303253 4.482465 -10.781601
v -107.303253 4.482465 -11.328627
v -107.303253 0.002835 -11.328627
v -109.862411 0.002835 -11.328627
v -109.862411 6.257178 -11.328627
v -109.862411 6.257178 -10.781601
v -109.862411 0.002835 -10.781601
v -107.581116 4.053428 -10.795527
v -109.584549 5.442761 -10.795527
v -109.584549 -0.002895 -10.795527
v -107.581116 -0.002895 -10.795527
v -109.862411 5.411151 -10.781601
v -109.862411 5.426171 -11.328627
v -109.862312 5.415151 -11.328627
v -109.862312 5.415151 -10.795527
v -107.303253 0.089141 -11.328627
v -107.303253 0.089141 -10.781601
v -109.862411 0.089141 -11.328627
v -109.862411 0.089141 -10.781601
v -120.867432 0.000000 10.931614
v -98.828979 0.000000 10.931614
v -120.867432 0.000000 -11.106830
v -98.828979 0.000000 -11.106830
v -120.510857 -0.002895 2.256374
v -120.510857 4.053428 2.256374
v -121.057884 -0.002895 2.256374
v -121.057884 4.053428 2.256374
v -120.510857 -0.002895 0.252942
v -120.510857 5.442761 0.252942
v -121.057884 -0.002895 0.252942
v -121.057884 5.442761 0.252942
v -120.510857 0.002835 2.534235
v -120.510857 4.482465 2.534235
v -121.057884 4.482465 2.534235
v -121.057884 0.002835 2.534235
v -121.057884 0.002835 -0.024920
v -121.057884 6.257178 -0.024920
v -120.510857 6.257178 -0.024920
v -120.510857 0.002835 -0.024920
v -120.524780 4.053428 2.256374
v -120.524780 5.442761 0.252941
v -120.524780 -0.002895 0.252942
v -120.524780 -0.002895 2.256374
v -120.510857 5.411151 -0.024920
v -121.057884 5.426171 -0.024920
v -121.057884 5.415151 -0.024823
v -120.524780 5.415151 -0.024823
v -121.057884 0.089141 2.534235
v -120.510857 0.089141 2.534235
v -121.057884 0.089141 -0.024920
v -120.510857 0.089141 -0.024920
v -120.510857 -0.002895 -2.277802
v -120.510857 4.053428 -2.277802
v -121.057884 -0.002895 -2.277802
v -121.057884 4.053428 -2.277802
v -120.510857 -0.002895 -0.274369
v -120.510857 5.442761 -0.274369
v -121.057884 -0.002895 -0.274369
v -121.057884 5.442761 -0.274369
v -120.510857 0.002835 -2.555662
v -120.510857 4.482465 -2.555662
v -121.057884 4.482465 -2.555662
v -121.057884 0.002835 -2.555662
v -121.057884 0.002835 0.003492
v -121.057884 6.257178 0.003492
v -120.510857 6.257178 0.003492
v -120.510857 0.002835 0.003492
v -120.524780 4.053428 -2.277802
v -120.524780 5.442761 -0.274369
v -120.524780 -0.002895 -0.274369
v -120.524780 -0.002895 -2.277802
v -120.510857 5.411151 0.003492
v -121.057884 5.426171 0.003492
v -121.057884 5.415151 0.003396
v -120.524780 5.415151 0.003396
v -121.057884 0.089141 -2.555662
v -120.510857 0.089141 -2.555662
v -121.057884 0.089141 0.003492
v -120.510857 0.089141 0.003492
v -109.916389 6.155654 -4.780286
v -107.463402 -2.468450 -4.780286
v -109.916389 6.155654 -11.197007
v -107.463402 -2.468450 -11.197007
v -107.463402 4.300481 -4.780286
v -107.463402 4.300481 -11.197007
v -109.845253 6.155653 -4.780286
v -112.298233 -2.468450 -4.780286
v -109.845253 6.155653 -11.197007
v -112.298233 -2.468450 -11.197007
v -112.298233 4.300481 -4.780286
v -112.298233 4.300481 -11.197007
v -109.916389 6.155654 -5.198185
v -107.463402 -2.468450 -5.198185
v -107.463402 4.300481 -5.198185
v -107.463402 4.300481 -2.433626
v -107.463402 -2.468450 -2.433626
v -109.916389 6.155654 -2.433626
v -112.298233 -2.468450 -2.397997
v -112.298233 4.300481 -2.397997
v -114.867477 6.155653 0.069114
v -114.867477 -2.468450 -2.383873
v -121.284195 6.155653 0.069114
v -121.284195 -2.468450 -2.383873
v -114.867477 4.300480 -2.383873
v -121.284195 4.300481 -2.383873
v -114.867477 6.155653 -0.002026
v -114.867477 -2.468450 2.450959
v -121.284195 6.155653 -0.002026
v -121.284195 -2.468450 2.450959
v -114.867477 4.300480 2.450961
v -121.284195 4.300480 2.450961
v -115.285378 6.155653 0.069114
v -115.285378 -2.468450 -2.383873
v -115.285378 4.300480 -2.383873
v -112.520813 4.300480 -2.383873
v -112.520813 -2.468450 -2.383873
v -112.520813 6.155653 0.069114
v -112.286552 4.300480 -2.383873
v -112.286552 -2.468450 -2.383873
v -107.545937 -2.468450 2.450959
v -107.545937 4.300480 2.450961
v -107.463402 4.300481 4.407402
v -107.463402 -2.468450 4.407402
v -106.664734 -2.468450 2.450959
v -106.664734 4.300480 2.450961
v -107.463402 4.300481 4.809402
v -109.916389 6.155654 0.003376
v -106.007828 6.155653 -0.002026
v -106.007828 4.300480 2.450961
v -112.298233 4.300481 -2.422502
v -112.300446 4.300480 -2.383873
vn -1.0000 -0.0000 -0.0000
vn 0.5699 -0.8217 -0.0000
vn -0.0000 -0.0000 -1.0000
vn -0.5699 0.8217 -0.0000
vn -0.0000 -0.0000 1.0000
vn 1.0000 -0.0000 -0.0000
vn -0.0000 1.0000 -0.0000
vn -0.0989 -0.9951 -0.0000
vn -0.0000 -1.0000 -0.0000
vn -0.5699 -0.8217 -0.0000
vn 0.5699 0.8217 -0.0000
vn 0.0989 -0.9951 -0.0000
vn -0.0000 -0.8217 -0.5699
vn -0.0000 0.8217 0.5699
vn -0.0000 -0.9951 0.0989
vn -0.0000 -0.8217 0.5699
vn -0.0000 0.8217 -0.5699
vn -0.0000 -0.9951 -0.0989
vn 0.6032 0.7976 -0.0000
vn -0.6032 0.7976 -0.0000
vn -0.0000 0.7976 -0.6032
vn -0.0000 0.7976 0.6032
vn -0.6069 0.7948 -0.0060
vn -0.0141 0.7969 -0.6039
vt 0.375000 0.000000
vt 0.625000 0.000000
vt 0.625000 0.250000
vt 0.375000 0.250000
vt 0.608854 0.277144
vt 0.611003 0.472856
vt 0.611003 0.472856
vt 0.375000 0.750000
vt 0.375000 1.000000
vt 0.625000 0.500000
vt 0.875000 0.500000
vt 0.875000 0.750000
vt 0.625000 0.750000
vt 0.389297 0.972856
vt 0.608854 0.972856
vt 0.625000 1.000000
vt 0.389297 0.277144
vt 0.387218 0.472856
vt 0.375000 0.500000
vt 0.611003 0.777144
vt 0.592444 0.750000
vt 0.387218 0.777144
vt 0.389297 0.277144
vt 0.591783 0.500000
vt 0.125000 0.500000
vt 0.125000 0.750000
vt 0.000000 0.000000
vt 1.000000 0.000000
vt 1.000000 1.000000
vt 0.000000 1.000000
vt 0.215115 0.000000
vt 0.215115 1.000000
s 0
usemtl Material.002
f 9/1/1 10/2/1 11/3/1 12/4/1
f 4/5/2 8/6/2 18/7/2 17/5/2
f 16/8/3 9/9/3 26/9/3 28/8/3
f 14/10/4 11/11/4 10/12/4 15/13/4
f 1/14/5 2/15/5 10/16/5 9/9/5
f 4/5/3 3/17/3 12/4/3 11/3/3
f 3/17/5 7/18/5 13/19/5 12/4/5
f 8/6/3 4/5/3 11/3/3 14/10/3
f 6/20/5 21/21/5 15/13/5
f 5/22/3 1/14/3 9/9/3 16/8/3
f 2/15/5 6/20/5 15/13/5 10/16/5
f 3/17/6 4/5/6 17/5/6 20/23/6
f 7/18/7 3/17/7 20/23/7 19/18/7
f 22/24/3 8/6/3 14/10/3
f 18/7/8 8/6/8 23/6/8 24/7/8
f 25/25/9 27/19/9 28/8/9 26/26/9
f 13/27/1 16/27/1 28/27/1 27/27/1
f 12/4/5 13/19/5 27/19/5 25/4/5
f 9/1/6 12/4/6 25/4/6 26/1/6
f 37/1/6 40/4/6 39/3/6 38/2/6
f 32/5/10 45/5/10 46/7/10 36/6/10
f 44/8/3 56/8/3 54/9/3 37/9/3
f 42/10/11 43/13/11 38/12/11 39/11/11
f 29/14/5 37/9/5 38/16/5 30/15/5
f 32/5/3 39/3/3 40/4/3 31/17/3
f 31/17/5 40/4/5 41/19/5 35/18/5
f 36/6/3 42/10/3 39/3/3 32/5/3
f 34/20/5 43/13/5 49/21/5
f 33/22/3 44/8/3 37/9/3 29/14/3
f 30/15/5 38/16/5 43/13/5 34/20/5
f 31/17/1 48/23/1 45/5/1 32/5/1
f 35/18/7 47/18/7 48/23/7 31/17/7
f 50/24/3 42/10/3 36/6/3
f 46/7/12 52/7/12 51/6/12 36/6/12
f 53/25/9 54/26/9 56/8/9 55/19/9
f 41/27/6 55/27/6 56/27/6 44/27/6
f 40/4/5 53/4/5 55/19/5 41/19/5
f 37/1/1 54/1/1 53/4/1 40/4/1
usemtl 
f 57/27/7 58/28/7 60/29/7 59/30/7
f 121/31/6 118/28/6 120/29/6 122/32/6
f 117/27/19 121/31/19 122/32/19 119/30/19
f 127/31/1 128/32/1 126/29/1 124/28/1
f 123/27/20 125/30/20 128/32/20 127/31/20
f 132/31/6 133/28/6 130/28/6 131/31/6
f 134/27/19 132/31/19 131/31/19 129/27/19
f 127/31/1 124/28/1 135/28/1 136/31/1
f 141/31/3 138/28/3 140/29/3 142/32/3
f 137/27/21 141/31/21 142/32/21 139/30/21
f 147/31/5 148/32/5 146/29/5 144/28/5
f 143/27/22 145/30/22 148/32/22 147/31/22
f 152/31/3 153/28/3 150/28/3 151/31/3
f 154/27/21 152/31/21 151/31/21 149/27/21
f 153/28/3 152/31/3 155/31/3 156/28/3
f 147/31/5 144/28/5 157/28/5 158/31/5
f 133/28/6 132/31/6 159/31/6 160/28/6
f 158/31/5 157/28/5 161/28/5 162/31/5
f 132/31/19 134/27/19 164/27/19 163/31/19
f 143/27/22 147/31/22 166/31/22 165/27/22
f 123/27/23 127/31/23 167/31/23 164/27/23
f 152/31/24 154/27/24 164/27/24 168/31/24
usemtl Material.003
f 69/1/5 70/2/5 71/3/5 72/4/5
f 64/5/13 68/6/13 78/7/13 77/5/13
f 76/8/1 69/9/1 86/9/1 88/8/1
f 74/10/14 71/11/14 70/12/14 75/13/14
f 61/14/6 62/15/6 70/16/6 69/9/6
f 64/5/1 63/17/1 72/4/1 71/3/1
f 63/17/6 67/18/6 73/19/6 72/4/6
f 68/6/1 64/5/1 71/3/1 74/10/1
f 66/20/6 81/21/6 75/13/6
f 65/22/1 61/14/1 69/9/1 76/8/1
f 62/15/6 66/20/6 75/13/6 70/16/6
f 63/17/3 64/5/3 77/5/3 80/23/3
f 67/18/7 63/17/7 80/23/7 79/18/7
f 82/24/1 68/6/1 74/10/1
f 78/7/15 68/6/15 83/6/15 84/7/15
f 85/25/9 87/19/9 88/8/9 86/26/9
f 73/27/5 76/27/5 88/27/5 87/27/5
f 72/4/6 73/19/6 87/19/6 85/4/6
f 69/1/3 72/4/3 85/4/3 86/1/3
f 97/1/3 100/4/3 99/3/3 98/2/3
f 92/5/16 105/5/16 106/7/16 96/6/16
f 104/8/1 116/8/1 114/9/1 97/9/1
f 102/10/17 103/13/17 98/12/17 99/11/17
f 89/14/6 97/9/6 98/16/6 90/15/6
f 92/5/1 99/3/1 100/4/1 91/17/1
f 91/17/6 100/4/6 101/19/6 95/18/6
f 96/6/1 102/10/1 99/3/1 92/5/1
f 94/20/6 103/13/6 109/21/6
f 93/22/1 104/8/1 97/9/1 89/14/1
f 90/15/6 98/16/6 103/13/6 94/20/6
f 91/17/5 108/23/5 105/5/5 92/5/5
f 95/18/7 107/18/7 108/23/7 91/17/7
f 110/24/1 102/10/1 96/6/1
f 106/7/18 112/7/18 111/6/18 96/6/18
f 113/25/9 114/26/9 116/8/9 115/19/9
f 101/27/3 115/27/3 116/27/3 104/27/3
f 100/4/6 113/4/6 115/19/6 101/19/6
f 97/1/5 114/1/5 113/4/5 100/4/5
