{
  "accessors": [
    {
      "bufferView": 2,
      "componentType": 5126,
      "count": 5147,
      "max": [
        71.05229949951172,
        191.31100463867188,
        21.93670082092285
      ],
      "min": [
        -71.50669860839844,
        -7.998899673111737e-05,
        -24.940000534057617
      ],
      "type": "VEC3"
    },
    {
      "bufferView": 2,
      "byteOffset": 61764,
      "componentType": 5126,
      "count": 5147,
      "max": [
        0.9997346997261047,
        0.9999489188194275,
        0.9999983310699463
      ],
      "min": [
        -0.9998713135719299,
        -0.999996542930603,
        -0.9999538064002991
      ],
      "type": "VEC3"
    },
    {
      "bufferView": 1,
      "componentType": 5126,
      "count": 5147,
      "max": [
        0.9921209812164307,
        0.9921219944953918
      ],
      "min": [
        0.007878979668021202,
        0.007877949625253677
      ],
      "type": "VEC2"
    },
    {
      "bufferView": 0,
      "componentType": 5125,
      "count": 16800,
      "type": "SCALAR"
    }
  ],
  "asset": {
    "extras": {
      "author": "Götz von Berlichingen (https://sketchfab.com/vonBerlichingen)",
      "license": "CC-BY-4.0 (http://creativecommons.org/licenses/by/4.0/)",
      "source": "https://sketchfab.com/3d-models/mendicant-monk-low-poly-36e72d20f4354cdc8de26c4aa8ef00bb",
      "title": "mendicant monk (low poly)"
    },
    "generator": "Sketchfab-15.19.0",
    "version": "2.0"
  },
  "bufferViews": [
    {
      "buffer": 0,
      "byteLength": 67200,
      "name": "floatBufferViews",
      "target": 34963
    },
    {
      "buffer": 0,
      "byteLength": 41176,
      "byteOffset": 67200,
      "byteStride": 8,
      "name": "floatBufferViews",
      "target": 34962
    },
    {
      "buffer": 0,
      "byteLength": 123528,
      "byteOffset": 108376,
      "byteStride": 12,
      "name": "floatBufferViews",
      "target": 34962
    }
  ],
  "buffers": [
    {
      "byteLength": 231904,
      "uri": "scene.bin"
    }
  ],
  "images": [
    {
      "uri": "textures/monk_baseColor.png"
    }
  ],
  "materials": [
    {
      "doubleSided": true,
      "name": "monk",
      "pbrMetallicRoughness": {
        "baseColorTexture": {
          "index": 0
        },
        "metallicFactor": 0.0,
        "roughnessFactor": 0.5231778238507556
      }
    }
  ],
  "meshes": [
    {
      "name": "Material1",
      "primitives": [
        {
          "attributes": {
            "NORMAL": 1,
            "POSITION": 0,
            "TEXCOORD_0": 2
          },
          "indices": 3,
          "material": 0,
          "mode": 4
        }
      ]
    }
  ],
  "nodes": [
    {
      "children": [
        1
      ],
      "matrix": [
        1.0,
        0.0,
        0.0,
        0.0,
        0.0,
        2.220446049250313e-16,
        -1.0,
        0.0,
        0.0,
        1.0,
        2.220446049250313e-16,
        0.0,
        0.0,
        0.0,
        0.0,
        1.0
      ],
      "name": "Sketchfab_model"
    },
    {
      "children": [
        2
      ],
      "matrix": [
        1.0,
        0.0,
        0.0,
        0.0,
        0.0,
        -4.371139006309477e-08,
        0.999999999999999,
        0.0,
        0.0,
        -0.999999999999999,
        -4.371139006309477e-08,
        0.0,
        0.0,
        0.0,
        0.0,
        1.0
      ],
      "name": "Collada visual scene group"
    },
    {
      "children": [
        3
      ],
      "name": "monk"
    },
    {
      "mesh": 0,
      "name": "Material1"
    }
  ],
  "samplers": [
    {
      "magFilter": 9729,
      "minFilter": 9987,
      "wrapS": 10497,
      "wrapT": 10497
    }
  ],
  "scene": 0,
  "scenes": [
    {
      "name": "Sketchfab_Scene",
      "nodes": [
        0
      ]
    }
  ],
  "textures": [
    {
      "sampler": 0,
      "source": 0
    }
  ]
}
